<?xml version="1.0" encoding="UTF-8" standalone="no"?>
<svg
   xmlns:dc="http://purl.org/dc/elements/1.1/"
   xmlns:cc="http://creativecommons.org/ns#"
   xmlns:rdf="http://www.w3.org/1999/02/22-rdf-syntax-ns#"
   xmlns:svg="http://www.w3.org/2000/svg"
   xmlns="http://www.w3.org/2000/svg"
   xmlns:xlink="http://www.w3.org/1999/xlink"
   xmlns:sodipodi="http://sodipodi.sourceforge.net/DTD/sodipodi-0.dtd"
   xmlns:inkscape="http://www.inkscape.org/namespaces/inkscape"
   height="800"
   width="800"
   inkscape:version="1.0 (4035a4fb49, 2020-05-01)"
   sodipodi:docname="drink.svg"
   xml:space="preserve"
   viewBox="0 0 800 800"
   y="0px"
   x="0px"
   id="Layer_1"
   version="1.1"><metadata
   id="metadata42"><rdf:RDF><cc:Work
       rdf:about=""><dc:format>image/svg+xml</dc:format><dc:type
         rdf:resource="http://purl.org/dc/dcmitype/StillImage" /><dc:title></dc:title></cc:Work></rdf:RDF></metadata><defs
   id="defs40"><linearGradient
   id="linearGradient1019"
   inkscape:collect="always"><stop
     id="stop1015"
     offset="0"
     style="stop-color:#252224;stop-opacity:1" /><stop
     style="stop-color:#5d595c;stop-opacity:1"
     offset="0.34402952"
     id="stop1023" /><stop
     id="stop1017"
     offset="1"
     style="stop-color:#252224;stop-opacity:1" /></linearGradient><linearGradient
   id="linearGradient937"
   inkscape:collect="always"><stop
     id="stop933"
     offset="0"
     style="stop-color:#ef6807;stop-opacity:1" /><stop
     style="stop-color:#fda92c;stop-opacity:1"
     offset="0.05028538"
     id="stop941" /><stop
     id="stop945"
     offset="0.2361303"
     style="stop-color:#ffbd69;stop-opacity:1" /><stop
     id="stop943"
     offset="0.52647638"
     style="stop-color:#fda92c;stop-opacity:1" /><stop
     id="stop935"
     offset="1"
     style="stop-color:#ef6807;stop-opacity:1" /></linearGradient>
	

		
		
		
		
		
		
		
		
		
		
		
		
		
	
			
		
			
		<linearGradient
   gradientUnits="userSpaceOnUse"
   y2="-137.97502"
   x2="-81.832031"
   y1="-135.97502"
   x1="-420.30273"
   id="linearGradient939"
   xlink:href="#linearGradient937"
   inkscape:collect="always" /><linearGradient
   gradientUnits="userSpaceOnUse"
   y2="-502.8522"
   x2="-93.262638"
   y1="-502.8522"
   x1="-402.75079"
   id="linearGradient1021"
   xlink:href="#linearGradient1019"
   inkscape:collect="always" /><filter
   height="1.0949939"
   y="-0.047496938"
   width="1.0529861"
   x="-0.026493025"
   id="filter1499"
   style="color-interpolation-filters:sRGB"
   inkscape:collect="always"><feGaussianBlur
     id="feGaussianBlur1501"
     stdDeviation="2.709389"
     inkscape:collect="always" /></filter><filter
   height="1.0892011"
   y="-0.044600531"
   width="1.0387201"
   x="-0.019360029"
   id="filter1507"
   style="color-interpolation-filters:sRGB"
   inkscape:collect="always"><feGaussianBlur
     id="feGaussianBlur1509"
     stdDeviation="2.0294502"
     inkscape:collect="always" /></filter><filter
   height="1.0173657"
   y="-0.0086828739"
   width="1.0388369"
   x="-0.019418447"
   id="filter1515"
   style="color-interpolation-filters:sRGB"
   inkscape:collect="always"><feGaussianBlur
     id="feGaussianBlur1517"
     stdDeviation="2.5874556"
     inkscape:collect="always" /></filter><linearGradient
   y2="-502.8522"
   x2="-93.262638"
   y1="-502.8522"
   x1="-402.75079"
   gradientUnits="userSpaceOnUse"
   id="linearGradient1530"
   xlink:href="#linearGradient1019"
   inkscape:collect="always" /></defs><sodipodi:namedview
   fit-margin-bottom="0"
   fit-margin-right="0"
   fit-margin-left="0"
   fit-margin-top="0"
   inkscape:current-layer="Layer_1"
   inkscape:window-maximized="1"
   inkscape:window-y="-8"
   inkscape:window-x="-8"
   inkscape:cy="439.25665"
   inkscape:cx="272.90875"
   inkscape:zoom="0.3535534"
   showgrid="false"
   id="namedview38"
   inkscape:window-height="1017"
   inkscape:window-width="1920"
   inkscape:pageshadow="2"
   inkscape:pageopacity="0"
   guidetolerance="10"
   gridtolerance="10"
   objecttolerance="10"
   borderopacity="1"
   bordercolor="#666666"
   pagecolor="#ffffff"
   inkscape:document-rotation="0" />
<style
   id="style2"
   type="text/css">
	.st0{fill:none;stroke:#283005;stroke-width:29.6573;stroke-linejoin:round;stroke-miterlimit:10;}
	.st1{fill:#283005;}
	.st2{fill:#648912;}
	.st3{fill:#526B0D;}
	.st4{fill:#8FA833;}
	.st5{fill:#F8DF88;}
</style>

<g
   transform="matrix(0.7596629,0.43859158,-0.43859158,0.7596629,530.40648,611.30556)"
   id="g1528"><path
     id="path930"
     style="fill:url(#linearGradient939);fill-opacity:1;stroke-width:4.12616"
     d="m -404.99805,-415.36523 -7.65234,2.42773 c -9.2407,2.93287 -9.91179,11.36494 -1.46289,18.37695 7.9293,6.58066 7.9293,18.17716 0,24.75782 l -6.18945,5.13671 v 123.64649 c 6.87682,8.17264 13.75384,16.3451 20.63085,24.51758 v 31.74218 c -6.87779,8.17248 -13.75428,16.34604 -20.63085,24.51954 v 32.76757 c 18.53758,21.2342 21.45816,53.663296 6.17382,69.800785 -8.9149,8.91497 -7.63501,19.574403 4.48829,37.376953 14.54485,18.2784026 12.08019,34.762194 -2.16016,53.41211 -11.1968,14.234409 -10.7283,24.428151 1.8125,39.332031 16.65183,17.459432 11.52793,31.553591 -0.10742,50.824221 -12.345,20.04317 -12.66077,26.7119 -1.91797,40.36914 4.5587,5.79544 9.45782,16.38277 10.88672,23.52734 1.91915,23.33776 -16.48085,33.75947 -15.57422,59.33985 -1.37372,22.32742 4.84208,27.99586 15.05273,45.93554 l 22.66602,11.36914 c 72.89635,23.98326 157.56558,30.00332 232.83203,9.45703 29.39919,-9.2793 50.292624,-20.32058 63.199218,-45.58398 1.26746,-174.673837 2.537114,-349.347658 3.806641,-524.02148 -3.838781,-9.27728 -10.83746,-16.72959 -19.31836,-23.32618 -1.923719,-11.27058 -2.680749,-22.11045 0,-31.74414 20.577714,-18.91803 26.025058,-27.25666 20.63086,-53.26172 -12.942189,-9.74115 -13.772189,-21.9574 -6.320313,-32.19921 7.250135,-13.53322 2.576173,-14.83102 -9.136718,-18.54883 -36.188028,-72.74386 -313.111428,-49.2639 -311.708988,0.0488 z"
     sodipodi:nodetypes="ccsscccccccccccscccccccccccccc" /><path
     style="opacity:0.323529;fill:#ffffff;stroke-width:4.12616;filter:url(#filter1499)"
     d="m -321.27662,-276.39226 c 20.57428,-15.70745 28.17875,-47.24261 34.1125,-73.65212 21.30149,-9.75321 116.49222,5.6577 116.49222,-11.84363 -30.94617,-2.63816 -61.89235,-5.27633 -92.83852,-7.91449 31.63386,-0.45559 63.26773,-0.91119 94.90159,-1.36678 -31.97847,-11.10137 -76.32677,-6.94696 -111.82199,-8.06278 l -99.4436,-0.0632 c -10.13562,3.31192 -33.45782,11.00378 -34.1775,20.81899 12.03296,5.42206 25.73606,1.54493 37.9532,9.09564 -14.87153,37.57942 -0.93756,67.7459 -2.9441,106.98964 21.78671,-1.71596 107.66436,-33.46115 57.7662,-34.00127 z"
     id="path1069"
     sodipodi:nodetypes="ccccccccccc" /><path
     id="path1067"
     style="opacity:0.323529;fill:#ffffff;stroke-width:4.12616;filter:url(#filter1507)"
     d="m -336.44562,-158.81898 c 54.26748,-19.25829 102.31087,-37.03034 151.61637,-56.23166 16.63962,-6.03433 28.80966,-14.25704 40.97736,-24.64602 -33.29274,8.92597 -58.28402,11.95944 -13.71472,-7.44417 -2.5302,-14.73335 -16.59858,-10.11511 -27.67186,-8.47478 -56.98678,18.49978 -111.61643,38.60403 -169.04735,55.36818 -14.20667,16.35278 -31.26136,28.66531 -40.95087,46.37708 3.04752,14.67242 52.33425,-2.82446 58.79107,-4.94863 z"
     sodipodi:nodetypes="cccccccc" /><path
     sodipodi:nodetypes="ccccccccccccccccccccccccccccccccccccccccccccc"
     d="m -400.51394,272.08725 c -4.00441,-3.96063 -7.02746,-18.70006 -3.67299,-18.80422 42.85788,67.41689 162.10209,35.26699 212.04496,24.02544 -19.89494,-24.77718 1.91176,-123.32623 7.90816,-206.003897 30.18414,-123.548672 -11.10722,-249.056813 81.8007,-329.856723 -25.07814,-48.71856 -154.61609,12.59705 -183.50696,20.34266 -5.59692,3.83808 -15.32849,-3.56966 -6.25643,-6.33977 4.62421,0.59762 15.20795,-3.09202 7.15623,-7.42808 -45.01892,21.8493 -51.30646,0.92075 -21.53658,16.62595 -60.36034,26.58911 -84.79882,20.87289 -98.28811,5.60535 -2.41047,-2.78207 -9.72747,-11.89396 -0.70582,-8.99295 94.50719,-6.3586 195.11074,-56.90547 273.79954,-93.82711 -30.11897,-28.32496 16.43341,-25.95504 20.7422,-37.19434 -31.95684,-28.66869 -95.00973,-20.52752 -132.78563,-23.78502 -14.09956,-1.12786 -28.53985,-1.78876 -42.00687,-6.4425 61.26646,-2.87695 173.89391,-6.5724 173.89391,-6.5724 39.210653,1.41074 -0.8305,19.25401 8.48681,30.03334 9.659352,54.89262 -16.41639,70.3018 10.489648,124.22651 l -2,513.98801 c -10.422088,10.40955 -20.844168,20.81912 -31.266228,31.2287 -85.95754,22.43392 -230.88912,25.19227 -274.29654,-20.82895 z m -9.20951,-32.96823 c -1.19223,-13.61666 12.76392,6.52814 2.60941,5.7874 -1.91062,-1.18964 -2.5936,-3.66627 -2.60941,-5.7874 z m 12.16603,-31.7255 c 9.0386,-12.38557 -3.72571,-40.3356 5.57522,-34.50409 5.85546,6.35487 13.90292,12.15396 16.3291,20.74259 -0.81712,7.48056 -12.79857,3.73564 -15.83019,11.39659 -10.53213,12.36447 -13.95485,18.63544 -6.07413,2.36491 z m -14.04262,-52.94347 c -3.66242,-3.403 2.43959,-15.09137 4.67228,-4.41871 -1.4145,7.85822 3.68534,24.3236 -4.67228,4.41871 z m -0.84687,-98.085792 c 32.91693,32.22254 36.34309,27.690186 18.66992,56.298452 1.19244,-23.904196 -5.7761,-37.870733 -18.66992,-56.298452 z m 4.50094,-90.274024 c 22.4932,21.081814 36.23726,28.5999282 11.71085,52.397585 7.47693,-19.7205402 -4.34531,-35.652043 -11.71085,-52.397585 z m -1.2416,-93.680764 c 7.35645,3.95008 12.13751,11.25752 18.48741,16.54736 12.42045,9.05677 1.49498,29.95898 -1.21942,21.20912 -3.53399,-8.743536 -17.88723,-31.56689 -17.26799,-37.75648 z m 20.64645,-266.08209 c -3.89694,2.48434 -15.13286,-2.41645 -8.7169,5.08145 -20.27746,-8.49094 -6.65724,-23.92129 8.7169,-5.08145 z"
     style="mix-blend-mode:normal;fill:#ef6807;fill-opacity:1;stroke-width:4.10584;filter:url(#filter1515)"
     id="path1037" /><path
     style="fill:#b3afae;fill-opacity:1;fill-rule:evenodd;stroke:none;stroke-width:1px;stroke-linecap:butt;stroke-linejoin:miter;stroke-opacity:1"
     d="m -370.49999,-424.99999 c 25,4 127,-3.5 127,-3.5 0,0 12,-85 -6.5,-85 -18.5,0 -102.76128,-4.37268 -108.38064,5.56366 -5.61936,9.93634 -12.11936,82.93634 -12.11936,82.93634 z"
     id="path1013" /><path
     id="path868"
     style="fill:url(#linearGradient1530);fill-opacity:1;stroke-width:4.12616"
     d="m -402.75079,-444.59249 c 0.20163,-12.43757 0.2622,-25.23956 4.58478,-37.06924 1.44777,-3.78473 4.26673,-7.97462 8.75074,-8.08877 4.33324,-0.73429 7.41882,-4.25513 10.47629,-7.11022 4.01965,-4.24311 7.49398,-8.95487 11.26049,-13.41535 25.0301,-5.73474 49.97286,-11.9261 75.2557,-16.47896 1.86758,-14.07895 3.73522,-28.1579 5.6029,-42.23684 -20.2246,-10.32461 -8.56404,-15.9396 7.50977,-18.43814 9.70922,-2.365 83.23662,-8.5627 81.21613,9.00111 -0.32589,6.05249 -10.44388,6.29353 -10.7275,7.06325 v 43.84154 c 27.85805,5.13055 55.39544,11.80776 82.99042,18.16375 4.6714,6.96317 8.77867,14.91356 16.34935,19.18931 3.28652,1.98807 7.18449,2.3504 10.793288,3.45866 2.820166,19.92241 5.671736,39.94559 5.408915,60.11671 -0.0031,3.7272 -0.03475,7.45443 -0.0095,11.18162 -20.581643,-1.71359 -41.139313,-3.88892 -61.793323,-4.52951 -35.98075,-1.40668 -71.99675,-1.80716 -108.00258,-1.64872 -31.56686,0.2119 -63.14298,0.78411 -94.66967,2.44934 -15.02069,0.96455 -29.99468,2.51987 -44.99616,3.72889 v -29.17843 z m 57.7661,10.56258 c 0.56403,-3.24595 -3.10472,-8.2457 -6.30454,-5.16725 -2.90764,2.92009 -2.62328,8.53527 0.74741,10.97577 3.47783,1.63198 5.78766,-2.90626 5.55713,-5.80852 z m 32.0637,-1.28942 c 0.73775,-2.46163 2.99065,-5.96144 -1.16575,-4.88192 -3.98655,0.0511 -8.205,-0.45378 -11.97521,1.07689 -4.05253,1.90282 -2.11257,7.06179 0.85714,8.98588 4.03087,3.36831 10.0401,0.25803 11.84424,-4.06953 l 0.23676,-0.54954 z m 29.8287,-0.77366 c 0.20401,-3.52354 -4.27059,-5.30944 -6.89251,-3.24187 -2.43049,1.35651 -5.72005,5.83831 -5.34458,7.34617 3.9039,-0.16794 8.85987,0.97172 11.69971,-2.45701 0.33328,-0.48079 0.53776,-1.0586 0.53738,-1.64729 z m 2.063,-60.94333 c -26.15525,-1.50064 -50.41951,2.12034 -74.2708,6.27038 27.06137,1.71505 48.025,1.10656 74.2708,-6.27038 z"
     sodipodi:nodetypes="sccccccccccccccccccccsccccccccccccccccccc" /><path
     sodipodi:nodetypes="ccccccccccccccccccccccccccccccccccccccccccccccccccccccccccccccccc"
     id="path866"
     style="fill:#252224;stroke-width:4.12616"
     d="m -403.75415,-440.336 c 1.72634,-14.46335 5.41361,-26.27755 5.12964,-40.85435 l 18.5676,-9.89373 c -3.50866,4.25524 -7.0173,8.51051 -10.5259,12.7658 4.19632,1.61034 8.39265,3.22063 12.589,4.83089 -0.0874,15.90326 -0.17495,31.80653 -0.2625,47.70979 -4.03867,-5.33958 -8.0773,-10.67918 -12.1159,-16.01881 -0.33963,11.14138 2.0279,13.96995 8.8302,21.13553 -7.41536,1.41756 -16.04067,3.87812 -23.45604,5.29565 0.84861,-7.06309 0.39526,-17.90771 1.2439,-24.97077 z m 18.29106,-18.45085 c 0.39974,-4.41577 0.89267,-8.99423 -0.46432,-13.30201 -2.9904,-2.72067 -3.70137,3.83194 -3.96001,5.88693 -0.79047,6.89987 -0.68125,13.93541 0.51665,20.77883 3.18505,0.10652 3.58845,-10.68869 3.90768,-13.36375 z m 263.29094,40.50112 c -16.13892,-0.92989 -32.2503,-2.57462 -48.14711,-5.55927 -2.21101,-2.81038 -2.70113,-7.76468 -4.09591,-11.45096 -2.40856,-9.16692 -2.5371,-18.75582 -2.29759,-28.17726 0.29499,-7.51407 0.93903,-15.0088 1.36823,-22.51573 7.40873,-3.06273 14.81745,-6.12547 22.22616,-9.18823 -24.42637,-6.90389 -51.08131,-6.95603 -74.27086,-8.01843 13.52419,-5.36484 33.5047,-1.67167 42.92888,-11.98889 -12.64051,-5.1251 -47.08807,-2.12768 -43.54042,-20.6524 -0.81955,-12.1186 -1.04154,-24.27744 -1.45156,-36.41924 h -48.631 c -5.8062,15.67851 -3.87703,34.0392 -7.22425,48.56343 -4.65064,-1.71229 -0.35503,-41.7507 -0.11037,-47.52466 0.0875,-1.72741 0.17501,-3.45483 0.26252,-5.18224 -1.90297,-0.36455 -6.46726,-0.14309 -6.63177,-0.99691 4.33818,-1.39618 8.95766,-1.60912 13.44193,-2.32839 18.32781,-2.35138 36.72706,-4.34544 55.194,-5.13718 6.42449,-0.0563 13.11938,0.50531 18.91659,3.46844 11.48689,8.34394 -3.01291,5.01136 -9.79275,5.01136 2.69907,16.05433 5.6143,32.21216 5.18908,48.5612 0.0455,2.09744 -0.71421,4.90162 2.42684,4.29152 13.73713,1.79893 27.94864,6.90459 41.44962,10.07414 14.57374,3.23454 28.41059,4.32158 42.78929,8.30524 0.15599,3.27327 -0.76137,7.11084 1.85086,9.69825 4.18759,5.14802 11.2294,6.00905 16.28884,9.9654 2.43052,1.74332 4.631425,4.20522 4.854418,7.31959 2.64536,20.57895 4.067121,41.30378 3.033173,60.57285 -2.181966,2.81618 -6.692691,-0.21082 -9.828921,0.403 -5.39426,-0.43498 -10.79554,-0.78108 -16.19792,-1.09463 z m -38.03241,-43.8497 c -0.92895,-1.18077 -2.6509,-4.84777 -3.10022,-4.35507 0.36677,13.47754 -2.98262,26.62098 -5.50761,39.75504 3.85596,-1.28534 7.71192,-2.57067 11.56788,-3.85599 0.0884,-10.49469 1.58185,-23.02617 -2.96005,-31.54398 z m -205.08513,15.38321 c 0.19299,-2.25976 0.0697,-6.55169 0.46087,-7.53807 1.42646,3.77384 3.8799,7.83682 2.34758,11.96992 -2.52824,3.94591 -3.11028,-2.81078 -2.80845,-4.43185 z m 167.41704,-34.89603 c -2.68861,3.30836 3.9349,34.83645 -3.89368,40.13901 -1.43964,0.74013 -3.56101,2.83999 -2.86681,0.0229 -0.10867,-13.90433 2.79257,-28.70921 6.76049,-40.16191 z m -160.50798,-26.28808 c -3.89014,3.67125 1.92014,6.17655 5.21377,6.03387 4.76554,0.53914 9.58384,0.48556 14.37147,0.76735 -12.6806,3.17575 -25.42919,6.9687 -38.58654,7.18724 -0.80474,-10.9911 20.96474,-16.24603 19.0013,-13.98846 z m 64.47312,-13.17774 c -4.53867,3.60453 -14.71649,1.5961 -20.13098,1.5407 6.53556,-1.78247 14.27311,-3.72213 20.13098,-1.5407 z" /></g></svg>
