<?xml version="1.0" encoding="UTF-8" standalone="no"?>
<svg
   xmlns:dc="http://purl.org/dc/elements/1.1/"
   xmlns:cc="http://creativecommons.org/ns#"
   xmlns:rdf="http://www.w3.org/1999/02/22-rdf-syntax-ns#"
   xmlns:svg="http://www.w3.org/2000/svg"
   xmlns="http://www.w3.org/2000/svg"
   xmlns:xlink="http://www.w3.org/1999/xlink"
   xmlns:sodipodi="http://sodipodi.sourceforge.net/DTD/sodipodi-0.dtd"
   xmlns:inkscape="http://www.inkscape.org/namespaces/inkscape"
   version="1.1"
   id="Layer_1"
   x="0px"
   y="0px"
   viewBox="0 0 790.13824 790.13824"
   xml:space="preserve"
   sodipodi:docname="fullbottle.svg"
   inkscape:version="1.0 (4035a4fb49, 2020-05-01)"
   width="790.13824"
   height="790.13824"><metadata
   id="metadata42"><rdf:RDF><cc:Work
       rdf:about=""><dc:format>image/svg+xml</dc:format><dc:type
         rdf:resource="http://purl.org/dc/dcmitype/StillImage" /><dc:title></dc:title></cc:Work></rdf:RDF></metadata><defs
   id="defs40"><linearGradient
   id="linearGradient1095"
   inkscape:collect="always"><stop
     id="stop1091"
     offset="0"
     style="stop-color:#f6f7fa;stop-opacity:1;" /><stop
     style="stop-color:#f6f7fa;stop-opacity:0.56097561"
     offset="0.47865501"
     id="stop1099" /><stop
     id="stop1093"
     offset="1"
     style="stop-color:#f6f7fa;stop-opacity:1" /></linearGradient><linearGradient
   id="linearGradient1048"
   inkscape:collect="always"><stop
     id="stop1044"
     offset="0"
     style="stop-color:#3068a1;stop-opacity:1" /><stop
     style="stop-color:#6db5e7;stop-opacity:1"
     offset="0.2583732"
     id="stop1054" /><stop
     style="stop-color:#74bbef;stop-opacity:1"
     offset="0.44019139"
     id="stop1052" /><stop
     id="stop1046"
     offset="1"
     style="stop-color:#346da6;stop-opacity:1" /></linearGradient><linearGradient
   inkscape:collect="always"
   id="linearGradient1019"><stop
     style="stop-color:#f1f1f6;stop-opacity:1"
     offset="0"
     id="stop1009" /><stop
     style="stop-color:#717173;stop-opacity:1"
     offset="1"
     id="stop1017" /></linearGradient><linearGradient
   inkscape:collect="always"
   id="linearGradient1003"><stop
     style="stop-color:#f6f7fa;stop-opacity:1"
     offset="0"
     id="stop993" /><stop
     id="stop995"
     offset="0.15828906"
     style="stop-color:#dcdfe8;stop-opacity:1" /><stop
     style="stop-color:#f1f3f8;stop-opacity:1"
     offset="0.3673414"
     id="stop997" /><stop
     id="stop999"
     offset="0.82047904"
     style="stop-color:#f1f0f4;stop-opacity:1" /><stop
     style="stop-color:#717173;stop-opacity:1"
     offset="1"
     id="stop1001" /></linearGradient><linearGradient
   id="linearGradient965"
   inkscape:collect="always"><stop
     id="stop961"
     offset="0"
     style="stop-color:#464648;stop-opacity:1" /><stop
     style="stop-color:#b9b9c3;stop-opacity:1"
     offset="0.15828906"
     id="stop969" /><stop
     id="stop971"
     offset="0.3673414"
     style="stop-color:#f1f3f8;stop-opacity:1" /><stop
     style="stop-color:#f1f0f4;stop-opacity:1"
     offset="0.82047904"
     id="stop973" /><stop
     id="stop963"
     offset="1"
     style="stop-color:#717173;stop-opacity:1" /></linearGradient><linearGradient
   id="linearGradient951"
   inkscape:collect="always"><stop
     id="stop947"
     offset="0"
     style="stop-color:#5aa6d0;stop-opacity:1" /><stop
     style="stop-color:#7bc1f8;stop-opacity:1"
     offset="0.38986173"
     id="stop957" /><stop
     id="stop949"
     offset="1"
     style="stop-color:#2b639c;stop-opacity:1" /></linearGradient>
	

		
		
		
		
		
		
		
		
		
		
		
		
		
	
			
		
			
		<linearGradient
   gradientTransform="matrix(0.90013715,0.6186685,-0.6186685,0.90013715,336.17215,-226.04653)"
   gradientUnits="userSpaceOnUse"
   y2="74.028946"
   x2="428.05801"
   y1="74.028946"
   x1="322.50308"
   id="linearGradient955"
   xlink:href="#linearGradient951"
   inkscape:collect="always" /><radialGradient
   gradientUnits="userSpaceOnUse"
   gradientTransform="matrix(0.90013715,0.6186685,-2.3049158,3.3535574,1093.9768,-1328.621)"
   r="115.24203"
   fy="458.35864"
   fx="379.3486"
   cy="458.35864"
   cx="379.3486"
   id="radialGradient975"
   xlink:href="#linearGradient965"
   inkscape:collect="always" /><radialGradient
   r="115.24203"
   fy="458.35864"
   fx="379.3486"
   cy="458.35864"
   cx="379.3486"
   gradientTransform="matrix(0.90013715,0.6186685,-2.3049158,3.3535574,1093.9768,-1328.621)"
   gradientUnits="userSpaceOnUse"
   id="radialGradient990"
   xlink:href="#linearGradient1003"
   inkscape:collect="always" /><radialGradient
   r="115.24203"
   fy="555.99689"
   fx="389.41663"
   cy="555.99689"
   cx="389.41663"
   gradientTransform="matrix(0.5025501,0.33043137,-0.08148776,0.12393401,47.72843,522.10415)"
   gradientUnits="userSpaceOnUse"
   id="radialGradient1005"
   xlink:href="#linearGradient1019"
   inkscape:collect="always" /><radialGradient
   r="115.24203"
   fy="458.35864"
   fx="379.3486"
   cy="458.35864"
   cx="379.3486"
   gradientTransform="matrix(0.90013715,0.6186685,-2.3049158,3.3535574,1093.9768,-1328.621)"
   gradientUnits="userSpaceOnUse"
   id="radialGradient1032"
   xlink:href="#linearGradient965"
   inkscape:collect="always" /><linearGradient
   gradientTransform="matrix(0.90013715,0.6186685,-0.6186685,0.90013715,346.90362,-247.69261)"
   gradientUnits="userSpaceOnUse"
   y2="463.25391"
   x2="493.6543"
   y1="463.25391"
   x1="262.80859"
   id="linearGradient1075"
   xlink:href="#linearGradient1048"
   inkscape:collect="always" /><linearGradient
   gradientTransform="matrix(0.90013715,0.6186685,-0.6186685,0.90013715,344.48468,-248.02981)"
   gradientUnits="userSpaceOnUse"
   y2="460.54009"
   x2="479.93945"
   y1="460.54009"
   x1="280.57156"
   id="linearGradient1097"
   xlink:href="#linearGradient1095"
   inkscape:collect="always" /></defs><sodipodi:namedview
   inkscape:document-rotation="0"
   pagecolor="#ffffff"
   bordercolor="#666666"
   borderopacity="1"
   objecttolerance="10"
   gridtolerance="10"
   guidetolerance="10"
   inkscape:pageopacity="0"
   inkscape:pageshadow="2"
   inkscape:window-width="1920"
   inkscape:window-height="1017"
   id="namedview38"
   showgrid="false"
   inkscape:zoom="0.5"
   inkscape:cx="541.69953"
   inkscape:cy="510.35206"
   inkscape:window-x="-8"
   inkscape:window-y="-8"
   inkscape:window-maximized="1"
   inkscape:current-layer="Layer_1"
   fit-margin-top="0"
   fit-margin-left="0"
   fit-margin-right="0"
   fit-margin-bottom="0" />
<style
   type="text/css"
   id="style2">
	.st0{fill:none;stroke:#283005;stroke-width:29.6573;stroke-linejoin:round;stroke-miterlimit:10;}
	.st1{fill:#283005;}
	.st2{fill:#648912;}
	.st3{fill:#526B0D;}
	.st4{fill:#8FA833;}
	.st5{fill:#F8DF88;}
</style>

<path
   id="path988"
   d="m 190.90387,686.71684 c -5.66864,-3.83592 -8.80241,-4.47934 -15.66692,-4.99284 -9.20464,-0.68855 -11.49818,0.0858 -14.92187,5.03743 -3.03097,4.38353 -3.41018,8.12523 -1.51061,14.92033 2.26683,8.10886 3.98925,10.06301 16.2519,18.47237 22.93961,15.72873 64.85052,39.747 68.256,39.11588 1.76354,-0.32681 6.17417,1.44528 9.80126,3.9382 9.36829,6.43887 15.4984,5.72012 19.95538,-2.33892 4.96099,-8.97041 1.60004,-12.26819 -6.90832,-6.78015 -6.18373,3.98857 -7.97408,3.96269 -15.80438,-0.21303 -11.79884,-6.29208 -33.64517,-23.86477 -32.22898,-25.92526 0.62098,-0.90351 0.27863,-6.23673 -0.76188,-11.85126 -1.76291,-9.51274 -2.89207,-11.0037 -16.57283,-21.88467 -4.21193,-3.34995 -7.31208,-5.75451 -9.88875,-7.49808 z"
   style="fill:url(#radialGradient1005);fill-opacity:1;stroke-width:2.21735" /><path
   d="M 610.52898,88.687405 C 588.68703,73.739304 566.84109,61.567493 563.48051,65.123449 c -2.13801,2.700995 -3.38218,3.895765 -4.1344,4.222633 -2.24685,0.976308 -2.776,3.232748 -1.62978,6.951038 4.04014,13.105594 -5.37549,21.517048 -30.83125,27.54465 -43.39359,10.27505 -88.70373,36.49197 -117.17122,67.79567 -13.33823,14.66712 -42.67372,60.34673 -43.88938,68.34288 -0.60594,3.98541 -2.27136,6.32674 -6.16718,8.66791 -8.41666,5.05796 -32.30416,41.03836 -32.23755,48.5577 0.0496,5.60061 -0.46128,6.34394 -5.88702,8.56536 -8.50415,3.48176 -33.38325,39.74459 -34.75305,50.6547 -0.64222,5.11548 -3.00586,9.96224 -7.02109,14.39972 -3.32873,3.67875 -6.27792,8.70768 -6.55238,11.17553 -0.36885,3.3167 -3.25956,5.92376 -11.0884,9.99415 -12.35778,6.42506 -14.79644,9.42159 -16.54922,20.34606 -0.97832,6.09753 -2.38238,8.61681 -5.78602,10.37688 -5.68726,2.94096 -31.25734,39.88616 -29.83673,43.10992 1.36286,3.09272 -4.15949,11.12751 -7.53519,10.96339 -3.55884,-0.17303 -25.46691,32.08928 -27.94207,41.14794 -1.53166,5.60563 -3.23069,7.9516 -7.2635,10.03704 -3.78534,1.95744 -9.6408,9.61386 -20.85608,27.26392 -8.57663,13.49748 -16.57667,24.49186 -17.77692,24.4335 -2.96156,-0.144 -11.80042,13.19503 -16.29145,24.58469 -6.0164,15.25813 -9.90179,43.63204 -6.95901,50.81965 1.47808,3.61017 6.76313,11.52721 11.74413,17.59259 10.17877,12.39469 27.5506,24.17632 32.4583,22.01364 1.74043,-0.76694 3.76957,-3.88265 4.50991,-6.92329 0.74032,-3.04061 3.45651,-8.5995 6.03649,-12.35326 2.57996,-3.75374 4.5146,-8.09505 4.29937,-9.64881 -0.57745,-4.16867 5.56968,-24.28357 8.90362,-29.13431 1.93404,-2.81396 1.72022,-6.37012 -0.64956,-10.79815 -4.17551,-7.80209 -3.05849,-10.46595 3.54702,-8.46003 3.45568,1.04939 4.88185,3.09095 5.08641,7.28041 0.19848,4.06483 1.41713,5.8701 4.03611,5.98387 2.95258,0.12829 3.67026,-0.71802 3.37412,-3.97895 -0.71774,-7.90295 7.79745,-5.82303 28.54153,6.97152 30.59665,18.87148 29.85475,15.89304 -3.24245,-13.01773 -8.75482,-7.64742 -16.03931,-14.56033 -16.18765,-15.36075 -0.14834,-0.80043 2.71871,-5.34534 6.37265,-10.10054 3.65396,-4.7552 6.91343,-11.06672 7.24243,-14.02498 0.32898,-2.95824 1.46763,-5.54026 2.52976,-5.7371 1.06173,-0.19623 8.93567,4.78616 17.49629,11.07269 22.33084,16.39876 67.25269,43.65136 64.00026,38.82606 -1.46539,-2.17408 -12.42247,-10.8957 -24.34868,-19.38048 -11.92621,-8.48476 -27.07476,-19.89064 -33.665,-25.34617 l -11.98352,-9.91891 3.39568,-7.17397 c 1.86807,-3.94569 3.47578,-8.89443 3.57229,-10.99758 0.0965,-2.10312 3.69794,-8.44824 8.00325,-14.10002 4.3767,-5.7455 7.67471,-11.98101 7.47841,-14.14237 -0.3795,-4.17875 0.74275,-4.038 14.82775,1.86374 l 7.31061,3.06506 -4.30614,-6.63799 c -2.36798,-3.65061 -3.3276,-7.06852 -2.13456,-7.59426 1.19304,-0.52574 1.68866,-2.04643 1.1011,-3.37975 -0.58755,-1.33332 0.0289,-4.01929 1.36972,-5.97007 1.34078,-1.95078 1.61507,-4.11372 0.61003,-4.80448 -1.00505,-0.69078 0.2867,-4.34131 2.8717,-8.11395 2.585,-3.77264 7.26399,-12.36114 10.39929,-19.08515 5.54449,-11.8908 5.9175,-12.25308 13.62203,-13.16071 6.68456,-0.78749 7.73101,-1.5388 6.69902,-4.81298 -0.67264,-2.13398 -0.54597,-7.83623 0.28112,-12.672 1.44293,-8.43634 1.73971,-8.82372 7.33387,-9.57449 4.53848,-0.60911 10.39572,2.01834 26.43981,11.85607 22.87565,14.02663 31.73744,16.35954 13.59635,3.58007 -6.39783,-4.50699 -14.94806,-11.29447 -19.00227,-15.08461 -6.27598,-5.86722 -6.94345,-7.51618 -4.4857,-11.0921 1.58767,-2.31 1.92675,-7.08987 0.75274,-10.62387 -2.06133,-6.20513 -1.91902,-6.51457 4.17255,-9.00858 3.46933,-1.42043 8.32,-5.51052 10.77912,-9.08844 3.66012,-5.32532 3.83402,-7.425 0.95917,-11.57955 -2.67828,-3.87048 -2.65051,-5.59273 0.11451,-7.25473 1.99405,-1.19858 8.56314,-9.10486 14.59863,-17.56828 9.96495,-13.97366 11.75318,-15.5626 19.44986,-17.2937 9.86661,-2.21914 11.30595,-3.74851 10.33654,-10.97168 -0.50726,-3.77969 2.38752,-10.40957 10.0093,-22.92801 7.39187,-12.14081 10.25473,-18.61092 9.21567,-20.82795 -1.1529,-2.45988 1.44828,-3.70206 11.06497,-5.28611 6.91505,-1.13906 12.44634,-2.54907 12.2925,-3.1326 -0.15387,-0.58351 -1.44524,-3.25039 -2.8706,-5.92831 -3.40595,-6.39894 1.57196,-17.41491 13.01073,-28.79393 7.74304,-7.70262 8.76226,-9.5114 7.53893,-13.36042 -1.20255,-3.78363 1.26768,-8.3428 16.4612,-30.3907 17.4425,-25.3114 18.22123,-26.14073 32.15254,-34.27282 15.52998,-9.0653 30.81999,-14.93779 39.43287,-15.14576 3.01036,-0.0727 14.84073,-1.93275 26.28914,-4.13098 l 20.81434,-3.99543 11.3572,7.80586 c 10.20775,7.01583 12.00055,9.36273 17.70808,23.20076 14.15776,34.32582 14.41404,70.23291 0.79976,111.94128 -6.87796,21.0712 -16.48598,36.98649 -41.32292,68.45791 -15.25415,19.32887 -16.44996,21.05885 -34.62219,50.06125 -10.39763,16.59438 -16.16083,24.18519 -19.78875,26.06127 -3.93789,2.03638 -5.36955,4.06102 -6.20187,8.77866 -0.59504,3.37286 -5.23279,12.17443 -10.30717,19.55746 -7.3836,10.74282 -9.98145,13.24194 -13.00519,12.51559 -3.49821,-0.84033 -3.72536,-0.50983 -3.05951,4.45146 0.94509,7.04206 -5.08153,15.57221 -11.20695,15.86122 -2.83712,0.13388 -9.844,-3.13812 -16.80346,-7.84743 -11.50081,-7.7825 -20.06309,-10.59356 -19.27236,-6.32673 0.29297,1.58084 17.89501,18.0078 26.27361,24.51906 3.39933,2.6417 -3.22199,6.42177 -8.84859,5.05179 -3.48379,-0.84823 -8.33259,-1.27846 -10.77662,-0.95608 -2.44401,0.32238 -9.77565,-1.34585 -16.29224,-3.7064 l -11.84894,-4.29204 11.96528,9.99439 c 6.5808,5.49673 14.54391,13.2904 17.69489,17.31823 5.61296,7.17492 5.61005,7.48053 -0.15128,15.07802 -3.23426,4.265 -7.16111,7.99146 -8.72565,8.2814 -1.67449,0.31029 -4.10033,3.7281 -5.8976,8.3096 -1.67933,4.28078 -8.63249,15.94347 -15.45109,25.91554 -11.24871,16.45106 -13.18532,18.3882 -20.89825,20.91884 l -8.50059,2.7904 3.07033,5.11041 c 2.85874,4.75706 2.42448,6.05387 -6.29977,18.74729 -5.15485,7.5001 -10.54943,13.578 -11.98667,13.50813 -1.43722,-0.0699 -3.49162,2.23746 -4.56673,5.12659 -2.76938,7.44201 -8.2049,8.18276 -21.33329,2.90878 -6.28839,-2.5262 -11.90749,-3.90179 -12.48834,-3.05667 -0.58085,0.84511 4.70038,5.493 11.73571,10.32842 l 12.79178,8.79185 -8.87402,12.91135 c -10.53233,15.3241 -15.04119,18.11504 -23.38226,14.47705 -20.4337,-8.9123 -19.47708,-8.67213 -17.34927,-4.36042 1.10221,2.23344 6.20169,6.19546 11.33184,8.80314 l 9.32716,4.74098 -5.13507,12.71396 c -6.00766,14.8751 -14.63112,25.0504 -28.79802,33.97946 -9.61352,6.05908 -13.77126,12.03567 -10.12079,14.54465 4.06973,2.79715 24.31525,-10.06523 39.03935,-24.8024 7.34339,-7.34995 9.40155,-10.69866 10.85776,-17.65436 1.37764,-6.5804 3.42683,-10.07712 8.78146,-14.98369 11.30128,-10.35565 25.27692,-31.95986 26.38548,-40.7889 0.81855,-6.51919 1.77778,-8.11717 5.94737,-9.9036 2.73455,-1.17159 10.03222,-8.70518 16.21712,-16.74062 8.81832,-11.45677 11.61192,-16.6371 12.94116,-24.0037 1.42772,-7.91238 2.40032,-9.59447 6.16459,-10.66029 6.41543,-1.81647 27.99678,-30.77607 31.24367,-41.92549 1.95909,-6.72724 3.41905,-8.96865 6.17333,-9.47909 5.48364,-1.01623 11.34264,-11.01141 13.64815,-23.28479 1.45611,-7.7511 3.70107,-12.64402 7.5661,-16.49206 3.02237,-3.00908 6.55497,-9.11611 7.85259,-13.57196 2.18075,-7.48838 2.92701,-8.18537 9.83862,-9.19645 6.98675,-1.02204 8.33074,-2.31022 20.49233,-19.62395 9.6743,-13.77267 13.36326,-20.69419 14.36819,-26.95752 1.15854,-7.22084 2.15365,-8.84109 6.95449,-11.32369 7.52942,-3.89357 33.41945,-40.97566 32.41087,-46.42207 -0.89642,-4.84038 3.42817,-11.31759 8.13778,-12.19039 2.44134,-0.45242 10.89689,-11.25475 26.63534,-34.02665 21.62987,-31.29606 23.44792,-34.59381 29.35185,-53.25129 11.59273,-36.63517 15.01331,-71.55373 10.93637,-111.63553 -1.50811,-14.82675 -0.95544,-20.52797 2.64227,-27.27437 4.12074,-7.72719 5.14053,-8.42422 10.84957,-7.41701 6.11005,1.07798 9.64671,-1.01002 8.86417,-5.23263 -0.0687,-0.37082 0.60425,-1.74593 1.83364,-3.83921 2.17663,-5.22047 -22.57179,-25.72826 -47.326,-42.669432 z m -25.66096,12.885005 c 1.48493,0.99952 2.18144,2.76429 2.79568,6.07874 1.4119,7.61861 1.19622,7.40764 19.89806,19.43819 14.22342,9.14966 14.40879,9.37311 11.37974,13.78026 -3.00237,4.36833 -3.54343,4.20341 -21.70602,-6.58603 -29.11818,-17.29756 -41.69852,-26.43503 -40.86295,-29.68244 0.40443,-1.5718 1.93308,-5.062111 3.39682,-7.755626 2.33819,-4.302701 3.48095,-4.425209 9.40979,-1.013588 3.71149,2.135703 9.11804,4.204054 12.01445,4.597334 1.6097,0.21857 2.78347,0.54343 3.67443,1.14316 z"
   style="fill:url(#radialGradient990);fill-opacity:1;stroke-width:2.21735"
   id="path938" /><path
   d="M 432.51172 150.41797 C 424.13754 157.11196 416.44932 164.22914 409.71289 171.63672 C 396.37466 186.30384 367.03988 231.98432 365.82422 239.98047 C 365.21828 243.96588 363.55402 246.30727 359.6582 248.64844 C 351.24154 253.7064 327.35331 289.68574 327.41992 297.20508 C 327.46952 302.80569 326.95894 303.55006 321.5332 305.77148 C 313.02905 309.25324 288.1491 345.51567 286.7793 356.42578 C 286.13708 361.54126 283.77304 366.38869 279.75781 370.82617 C 276.42908 374.50492 273.48149 379.5341 273.20703 382.00195 C 272.83818 385.31865 269.94603 387.9257 262.11719 391.99609 C 249.75941 398.42115 247.32114 401.41733 245.56836 412.3418 C 244.59004 418.43933 243.18684 420.95868 239.7832 422.71875 C 234.09594 425.65971 208.5247 462.60439 209.94531 465.82812 C 211.30817 468.92084 205.78586 476.95514 202.41016 476.79102 C 198.85132 476.61799 176.94391 508.88079 174.46875 517.93945 C 172.93709 523.54508 171.23789 525.89112 167.20508 527.97656 C 163.41974 529.934 157.56489 537.59017 146.34961 555.24023 C 137.77298 568.73771 129.77252 579.73219 128.57227 579.67383 C 125.61071 579.52983 116.77228 592.86815 112.28125 604.25781 C 106.26485 619.51594 102.37949 647.89053 105.32227 655.07812 C 106.80035 658.68831 112.08541 666.60648 117.06641 672.67188 C 123.11549 680.03783 131.69119 687.16196 138.69531 691.29688 C 146.32684 700.23041 164.99464 713.25408 175.05664 720.1543 C 197.99625 735.88303 239.90702 759.90065 243.3125 759.26953 C 245.07604 758.94272 249.48619 760.71606 253.11328 763.20898 C 261.34539 768.86695 281.81455 768.17711 289.68359 762.45898 C 297.97682 758.56043 310.66622 749.34079 320.76172 739.23633 C 328.10511 731.88638 330.16293 728.53773 331.61914 721.58203 C 332.99678 715.00163 335.04576 711.50423 340.40039 706.59766 C 351.70167 696.24201 365.6766 674.63763 366.78516 665.80859 C 367.60371 659.2894 368.56283 657.69268 372.73242 655.90625 C 375.46697 654.73466 382.76432 647.1995 388.94922 639.16406 C 397.76754 627.70729 400.56141 622.52871 401.89062 615.16211 C 403.31835 607.24973 404.29237 605.56777 408.05664 604.50195 C 414.47207 602.68548 436.05194 573.72559 439.29883 562.57617 C 441.25792 555.84893 442.71838 553.60614 445.47266 553.0957 C 450.9563 552.07947 456.81558 542.08588 459.12109 529.8125 C 460.5772 522.0614 462.82247 517.16835 466.6875 513.32031 C 469.70987 510.31123 473.24144 504.2039 474.53906 499.74805 C 476.71981 492.25967 477.4673 491.56186 484.37891 490.55078 C 491.36566 489.52874 492.7095 488.24146 504.87109 470.92773 C 514.54539 457.15506 518.23335 450.23208 519.23828 443.96875 C 520.39682 436.74791 521.39252 435.12908 526.19336 432.64648 C 533.72278 428.75291 559.6121 391.67102 558.60352 386.22461 C 557.7071 381.38423 562.03258 374.906 566.74219 374.0332 C 569.18353 373.58078 577.6385 362.77971 593.37695 340.00781 C 615.00682 308.71175 616.82459 305.41334 622.72852 286.75586 C 634.32125 250.12069 637.74296 215.20094 633.66602 175.11914 C 632.35187 162.19934 632.60361 156.20883 635.07031 150.41797 L 432.51172 150.41797 z "
   style="fill:#7ac0f7;fill-opacity:1;stroke-width:2.21735;opacity:0.4869281"
   id="path1183" /><path
   id="path986"
   d="m 272.25611,663.36064 c -4.52271,-3.10848 -9.29774,-5.17808 -10.60966,-4.59995 -1.45524,0.64127 0.82164,3.25425 5.83839,6.70229 4.52271,3.10848 9.29653,5.17984 10.60845,4.60171 1.45525,-0.64128 -0.82043,-3.25601 -5.83718,-6.70405 z"
   style="fill:url(#radialGradient1032);fill-opacity:1;stroke-width:2.21735" /><path
   id="path984"
   d="m 288.09905,540.02155 c -1.82165,-1.25203 -3.71506,-2.39827 -5.24089,-3.13872 -3.05164,-1.48094 -1.02637,0.41541 4.50139,4.21467 5.52777,3.79926 8.02567,5.0117 5.54955,2.69338 -1.23804,-1.15916 -2.98841,-2.5173 -4.81005,-3.76933 z"
   style="fill:url(#radialGradient975);fill-opacity:1;stroke-width:2.21735" /><path
   sodipodi:nodetypes="csssscccc"
   d="m 565.03814,63.051518 c 2.89522,-3.789335 6.47925,-8.919391 9.99341,-14.389788 12.95207,-20.161948 20.81018,-27.476933 27.75549,-25.837138 9.76947,2.30659 51.79587,28.240293 66.78725,41.213155 21.4193,18.53531 21.4532,19.761696 1.32291,47.828163 -4.44954,6.20374 -8.12214,11.13654 -10.71413,15.05275 -1.91323,3.55259 -2.09489,2.29612 -4.3816,0.40286 -13.62953,-11.24111 -77.93194,-55.397218 -89.98738,-61.982214 -1.58555,-1.210763 -1.50924,-1.066066 -0.77597,-2.2878 z"
   style="fill:url(#linearGradient955);fill-opacity:1;stroke-width:2.21735"
   id="path936" /><path
   id="path1061"
   d="m 362.86257,254.34704 a 10.466112,10.466112 0 0 0 -14.55204,2.69528 L 245.42427,406.7376 a 10.466112,10.466112 0 0 0 2.69704,14.55324 l 190.54251,130.96077 a 10.466112,10.466112 0 0 0 14.55325,-2.69705 L 556.10333,399.85929 a 10.466112,10.466112 0 0 0 -2.69824,-14.55149 z"
   style="color:#000000;font-style:normal;font-variant:normal;font-weight:normal;font-stretch:normal;font-size:medium;line-height:normal;font-family:sans-serif;font-variant-ligatures:normal;font-variant-position:normal;font-variant-caps:normal;font-variant-numeric:normal;font-variant-alternates:normal;font-variant-east-asian:normal;font-feature-settings:normal;font-variation-settings:normal;text-indent:0;text-align:start;text-decoration:none;text-decoration-line:none;text-decoration-style:solid;text-decoration-color:#000000;letter-spacing:normal;word-spacing:normal;text-transform:none;writing-mode:lr-tb;direction:ltr;text-orientation:mixed;dominant-baseline:auto;baseline-shift:baseline;text-anchor:start;white-space:normal;shape-padding:0;shape-margin:0;inline-size:0;clip-rule:nonzero;display:inline;overflow:visible;visibility:visible;isolation:auto;mix-blend-mode:normal;color-interpolation:sRGB;color-interpolation-filters:linearRGB;solid-color:#000000;solid-opacity:1;vector-effect:none;fill:url(#linearGradient1075);fill-opacity:1;fill-rule:nonzero;stroke:none;stroke-width:20.9301;stroke-linecap:round;stroke-linejoin:round;stroke-miterlimit:4;stroke-dasharray:none;stroke-dashoffset:6.32016;stroke-opacity:1;color-rendering:auto;image-rendering:auto;shape-rendering:auto;text-rendering:auto;enable-background:accumulate;stop-color:#000000" /><path
   sodipodi:nodetypes="ccccc"
   id="path1081"
   d="m 526.70981,412.32223 c -58.54428,-41.90915 -129.11855,24.84662 -236.10765,-32.13984 -7.15806,-1.10421 -15.465,9.7385 -8.29192,14.71962 109.84385,67.17952 126.71819,25.31451 207.8075,70.66016 z"
   style="color:#000000;font-style:normal;font-variant:normal;font-weight:normal;font-stretch:normal;font-size:medium;line-height:normal;font-family:sans-serif;font-variant-ligatures:normal;font-variant-position:normal;font-variant-caps:normal;font-variant-numeric:normal;font-variant-alternates:normal;font-variant-east-asian:normal;font-feature-settings:normal;font-variation-settings:normal;text-indent:0;text-align:start;text-decoration:none;text-decoration-line:none;text-decoration-style:solid;text-decoration-color:#000000;letter-spacing:normal;word-spacing:normal;text-transform:none;writing-mode:lr-tb;direction:ltr;text-orientation:mixed;dominant-baseline:auto;baseline-shift:baseline;text-anchor:start;white-space:normal;shape-padding:0;shape-margin:0;inline-size:0;clip-rule:nonzero;display:inline;overflow:visible;visibility:visible;opacity:0.712418;isolation:auto;mix-blend-mode:normal;color-interpolation:sRGB;color-interpolation-filters:linearRGB;solid-color:#000000;solid-opacity:1;vector-effect:none;fill:url(#linearGradient1097);fill-opacity:1;fill-rule:evenodd;stroke:none;stroke-width:109.224;stroke-linecap:butt;stroke-linejoin:miter;stroke-miterlimit:4;stroke-dasharray:none;stroke-dashoffset:0;stroke-opacity:1;color-rendering:auto;image-rendering:auto;shape-rendering:auto;text-rendering:auto;enable-background:accumulate;stop-color:#000000" /></svg>
