<?xml version="1.0" encoding="UTF-8" standalone="no"?>
<svg
   sodipodi:docname="cross.svg"
   inkscape:version="1.1.1 (3bf5ae0d25, 2021-09-20)"
   id="svg838"
   version="1.1"
   viewBox="0 0 56.885415 48.569939"
   height="48.569939mm"
   width="56.885414mm"
   inkscape:export-filename=".\cross.png"
   inkscape:export-xdpi="500.1102"
   inkscape:export-ydpi="500.1102"
   xmlns:inkscape="http://www.inkscape.org/namespaces/inkscape"
   xmlns:sodipodi="http://sodipodi.sourceforge.net/DTD/sodipodi-0.dtd"
   xmlns="http://www.w3.org/2000/svg"
   xmlns:svg="http://www.w3.org/2000/svg"
   xmlns:rdf="http://www.w3.org/1999/02/22-rdf-syntax-ns#"
   xmlns:cc="http://creativecommons.org/ns#"
   xmlns:dc="http://purl.org/dc/elements/1.1/">
  <defs
     id="defs832" />
  <sodipodi:namedview
     inkscape:window-maximized="1"
     inkscape:window-y="3"
     inkscape:window-x="1909"
     inkscape:window-height="1721"
     inkscape:window-width="2880"
     fit-margin-bottom="0"
     fit-margin-right="0"
     fit-margin-left="0"
     fit-margin-top="0"
     showgrid="false"
     inkscape:document-rotation="0"
     inkscape:current-layer="layer1"
     inkscape:document-units="mm"
     inkscape:cy="58.392857"
     inkscape:cx="48.392857"
     inkscape:zoom="2.8"
     inkscape:pageshadow="2"
     inkscape:pageopacity="0.0"
     borderopacity="1.0"
     bordercolor="#666666"
     pagecolor="#ffffff"
     id="base"
     inkscape:pagecheckerboard="0" />
  <metadata
     id="metadata835">
    <rdf:RDF>
      <cc:Work
         rdf:about="">
        <dc:format>image/svg+xml</dc:format>
        <dc:type
           rdf:resource="http://purl.org/dc/dcmitype/StillImage" />
      </cc:Work>
    </rdf:RDF>
  </metadata>
  <g
     transform="translate(-181.64614,-152.55516)"
     id="layer1"
     inkscape:groupmode="layer"
     inkscape:label="Calque 1">
    <path
       sodipodi:nodetypes="cccccccccccccccccccccccccccccc"
       d="m 229.79883,153.78516 c -2.14955,1.57068 -4.36568,3.0569 -6.45269,4.70922 -5.39477,4.06978 -9.06313,8.45571 -13.1977,12.70093 -5.84388,-4.90304 -11.22082,-10.33405 -17.10547,-15.18554 -0.89895,-0.71333 -1.91778,-1.6282 -3.14063,-1.51368 -0.44599,-0.0494 -0.63775,0.7414 -1,0.42188 -1.0474,-0.42475 -2.47927,-0.14582 -3.14062,0.82812 -0.62385,1.00208 0.0854,2.12678 0.73047,2.91016 0.34603,0.65108 0.2102,1.45777 0.57944,2.11967 0.92575,2.15921 2.69851,3.79565 4.28418,5.4746 3.78007,3.79925 7.89103,7.24724 11.99575,10.68698 -2.50203,2.5798 -5.47731,4.61919 -8.33946,6.77116 -3.69388,2.75927 -7.50235,5.39296 -10.93593,8.47493 -0.62218,0.59011 -0.99717,1.7907 -0.10742,2.31836 0.29251,0.24493 0.8459,0.16249 1.0625,0.32032 -0.2001,1.18054 0.74074,2.32892 1.93391,2.38915 2.50573,0.11088 4.82549,-1.14436 6.90988,-2.40082 5.67431,-3.47274 10.56933,-8.02469 15.76949,-12.13872 0.38779,-0.17753 0.88508,0.43439 1.27766,0.61722 6.17871,4.23467 11.61748,9.44309 17.74578,13.7402 1.21564,0.77383 2.83862,0.69062 3.9762,-0.18628 2.18504,-1.4851 2.89007,-5.03582 0.91997,-6.97515 -2.70594,-2.61554 -5.58898,-5.0407 -8.55599,-7.35769 -2.30489,-1.85152 -4.65235,-3.64749 -7.09083,-5.31919 -0.62436,-0.2626 -0.48435,-0.58753 6.5e-4,-0.92146 2.3675,-2.4564 4.70084,-4.9547 7.31221,-7.15724 3.19039,-2.8934 6.57192,-5.60552 9.46852,-8.8015 0.61371,-0.77937 1.49297,-1.79643 1.03958,-2.84399 -0.66154,-1.23248 -2.25192,-1.18982 -3.4525,-1.41429 -2.94011,0.0284 -0.87969,-2.33876 -2.48695,-2.26735 z"
       style="fill:#ff0000;fill-opacity:1;stroke-width:0.369007"
       id="path845" />
  </g>
</svg>
