<?xml version="1.0" encoding="UTF-8" standalone="no"?>
<svg
   xmlns:dc="http://purl.org/dc/elements/1.1/"
   xmlns:cc="http://creativecommons.org/ns#"
   xmlns:rdf="http://www.w3.org/1999/02/22-rdf-syntax-ns#"
   xmlns:svg="http://www.w3.org/2000/svg"
   xmlns="http://www.w3.org/2000/svg"
   xmlns:sodipodi="http://sodipodi.sourceforge.net/DTD/sodipodi-0.dtd"
   xmlns:inkscape="http://www.inkscape.org/namespaces/inkscape"
   inkscape:export-ydpi="500.04196"
   inkscape:export-xdpi="500.04196"
   inkscape:export-filename="C:\wamp64\www\github\vagabondage\src\img\rendez-vous.png"
   width="203.91385mm"
   height="49.807732mm"
   viewBox="0 0 203.91385 49.807731"
   version="1.1"
   id="svg838"
   inkscape:version="1.0 (4035a4fb49, 2020-05-01)"
   sodipodi:docname="rendez-vous.svg">
  <defs
     id="defs832" />
  <sodipodi:namedview
     id="base"
     pagecolor="#ffffff"
     bordercolor="#666666"
     borderopacity="1.0"
     inkscape:pageopacity="0.0"
     inkscape:pageshadow="2"
     inkscape:zoom="0.98994949"
     inkscape:cx="454.44006"
     inkscape:cy="138.63158"
     inkscape:document-units="mm"
     inkscape:current-layer="layer1"
     inkscape:document-rotation="0"
     showgrid="false"
     fit-margin-top="0"
     fit-margin-left="0"
     fit-margin-right="0"
     fit-margin-bottom="0"
     inkscape:window-width="1920"
     inkscape:window-height="1017"
     inkscape:window-x="-8"
     inkscape:window-y="-8"
     inkscape:window-maximized="1" />
  <metadata
     id="metadata835">
    <rdf:RDF>
      <cc:Work
         rdf:about="">
        <dc:format>image/svg+xml</dc:format>
        <dc:type
           rdf:resource="http://purl.org/dc/dcmitype/StillImage" />
        <dc:title></dc:title>
      </cc:Work>
    </rdf:RDF>
  </metadata>
  <g
     inkscape:label="Calque 1"
     inkscape:groupmode="layer"
     id="layer1"
     transform="translate(-97.449319,-161.1647)">
    <path
       inkscape:export-ydpi="500"
       inkscape:export-xdpi="500"
       sodipodi:nodetypes="cscsscccccsssccccssccccccccsccscccccsscsccsccscsssccssssscccsssscccccsssscccsscscccccsccccccsscssssssccccsscscccsccsccccsssscscsscsccccsccccscsccscccssssscccsccsscsccssccscsccccsccssscs"
       id="path845"
       d="m 145.0187,209.33293 c -1.11166,-0.67367 -1.1352,-0.7618 -0.95204,-3.56567 0.10329,-1.58122 0.55364,-4.79205 1.00078,-7.13517 0.52572,-2.75483 0.6415,-4.39048 0.32769,-4.62882 -0.84904,-0.64486 -5.31655,2.69516 -7.97318,5.96096 -3.0075,3.69712 -3.62539,3.94369 -3.56812,1.42384 0.0505,-2.22208 2.56455,-10.9945 3.52285,-12.29264 -0.13323,0.90455 2.25407,0.41889 2.40399,1.32082 0.0314,1.23875 -1.4551,4.01438 0.34872,2.52925 2.98251,-0.26913 3.9709,-3.63666 6.75272,-1.6321 1.65605,1.25777 1.89284,3.39963 1.07558,9.72881 -0.35626,2.75894 -0.56541,5.61986 -0.4648,6.35758 0.17005,1.24694 -0.32474,2.48584 -1.03134,2.58241 -0.16671,0.0228 -0.81602,-0.26939 -1.44291,-0.64929 z m 6.01795,-4.96357 c -1.68271,-0.36791 -2.02236,-1.20103 -1.60331,-3.93277 0.92466,-6.02797 8.16242,-14.37108 13.82136,-15.93217 2.16142,-0.59626 2.9856,-2.00313 5.27817,-9.00974 0.94929,-2.90123 2.09525,-5.9302 2.54659,-6.73105 0.45133,-0.80083 1.21813,-2.61914 1.70398,-4.04068 1.28895,-3.77132 1.36793,-3.86132 2.90806,-3.31408 0.71946,0.25566 1.45056,0.72417 1.62463,1.04114 0.6818,1.24139 -1.74988,8.27729 -5.55605,16.07607 -1.52968,3.13427 -3.05266,8.39441 -4.09336,14.13772 -0.41434,2.28669 -0.38871,2.48416 0.40983,3.15584 0.79951,0.67261 0.81594,0.84039 0.26782,2.73622 -0.7315,2.5299 -1.49232,3.36781 -3.08936,3.40244 -1.0881,0.0236 -1.30207,-0.18266 -1.60635,-1.54853 -0.19314,-0.86665 -0.10963,-2.83719 0.18544,-4.37899 0.29509,-1.54177 0.51172,-2.98466 0.48142,-3.20637 -0.0303,-0.22172 -1.37329,1.38311 -2.98438,3.56631 -3.0279,4.10304 -7.07321,8.07269 -8.33997,8.18395 -0.39832,0.035 -1.27778,-0.0574 -1.95438,-0.20533 z m 6.87836,-9.73378 c 1.85638,-2.35336 3.35051,-4.45972 3.3203,-4.68077 -0.17858,-1.30658 -6.77211,6.00653 -7.92132,8.78583 l -0.62727,1.51701 0.92651,-0.67162 c 0.50958,-0.3694 2.44538,-2.59708 4.30178,-4.95045 z m 121.09804,-7.72168 c -0.72213,-0.29016 -0.73468,-0.56072 -0.15159,-3.26823 0.34964,-1.62352 0.81529,-3.43539 1.03472,-4.02637 0.86736,-1.91919 -0.0312,-0.61338 -0.76104,0.16912 -0.63802,0.68397 -2.32402,2.52711 -3.74666,4.09587 -3.12342,3.44424 -5.06265,4.49545 -7.01401,3.80208 -1.69973,-0.60398 -1.97826,-2.1415 -0.91118,-5.02972 2.24606,-6.07933 2.69043,-7.11229 3.66963,-8.53043 0.58617,-0.84892 1.04318,-1.70869 1.01559,-1.91056 -0.08,-0.58539 2.62051,-3.51274 3.33,-3.60971 0,0 4.43998,-2.03433 1.81489,1.43162 0.2132,0.16195 -0.83609,1.97868 -2.33177,4.03719 -2.46242,3.38902 -5.28833,9.3815 -4.65201,9.86479 0.34961,0.26555 1.96808,-0.94585 1.9027,-1.42417 -0.029,-0.21205 1.28929,-1.84664 2.92952,-3.63244 1.64021,-1.7858 4.25246,-4.68046 5.80501,-6.43256 2.80493,-3.1655 3.44834,-3.63779 4.0166,-2.94847 0.11368,4.88887 -1.82668,10.56279 -1.89391,10.75434 l -1.01106,2.6816 3.04573,-0.41628 c 1.67516,-0.22896 3.68753,-0.73413 4.47196,-1.12263 2.98996,-1.48078 3.22839,-2.6243 1.54246,-7.39773 -0.80566,-2.28107 -0.81729,-2.58727 -0.14441,-3.80305 0.76724,-1.3863 5.84771,-5.38635 7.06828,-5.56512 1.20343,-0.17639 3.32972,1.34166 3.32064,2.37054 -0.007,0.8213 -0.3333,0.99075 -2.63693,1.37046 -1.44574,0.23838 -3.29372,0.82699 -4.1066,1.30816 l -1.47797,0.8749 1.13663,4.67107 c 1.33002,5.46586 1.10127,6.82108 -1.45564,8.62548 -2.12469,1.49937 -8.82328,2.81245 -10.4348,2.04549 -1.05294,-0.50113 -1.1996,-0.47017 -1.86501,0.39357 -0.52282,0.67868 -0.93957,0.85017 -1.50951,0.62117 z M 98.420728,210.82936 c -1.362351,-0.67095 -1.306663,-2.35693 0.261544,-7.9189 0.876889,-3.11011 1.736198,-6.43009 1.909568,-7.37773 0.32947,-1.80089 0.91424,-2.27444 1.49741,-1.21261 0.18887,0.34376 0.63468,0.58522 0.99081,0.53655 0.49436,-0.0676 0.62097,0.24132 0.53525,1.30576 l -0.11231,1.39427 1.54111,-1.33218 c 0.84761,-0.73269 2.35857,-1.67013 3.35766,-2.08321 1.64892,-0.68173 1.94744,-0.67395 3.23459,0.0845 1.62482,0.95736 1.88953,1.71037 1.03873,2.9547 -0.46597,0.6815 -0.78361,0.79274 -1.43177,0.5014 -1.15451,-0.5189 -2.62186,0.16587 -5.00699,2.33664 -3.75848,3.45257 -2.93325,3.13754 -5.51091,8.3418 -1.004976,2.44041 -1.43261,2.89851 -2.304692,2.46903 z M 236.77031,191.35002 c -2.05158,-1.44673 -1.9409,-7.6153 0.24921,-13.88817 0.64542,-1.84855 0.79974,-2.00703 1.37429,-1.41116 0.35598,0.36916 0.98747,0.62471 1.40329,0.56788 0.61789,-0.0845 0.73522,0.15518 0.64208,1.31148 -0.0626,0.77815 -0.38874,2.08265 -0.72461,2.8989 -0.7257,1.76367 -1.49947,6.71602 -1.09707,7.02166 0.49614,0.37682 6.35027,-7.5118 9.0397,-12.18128 1.42929,-2.48161 2.82009,-4.54228 3.09064,-4.57926 0.27056,-0.037 0.90504,0.28031 1.40994,0.70507 1.19577,1.00595 0.97372,1.70739 -2.2319,7.05066 -4.02156,6.70329 -6.76316,10.67441 -8.17023,11.83433 -1.6778,1.38308 -3.60646,1.64224 -4.98538,0.66958 z m 16.99937,-3.03977 c -1.47514,-1.4217 -1.61227,-3.83331 -0.42268,-7.43294 1.15768,-3.50305 6.4733,-10.57925 8.11572,-10.80374 0.44161,-0.0603 1.36941,0.36721 2.06182,0.95014 1.1344,0.95506 1.32794,1.4813 1.95708,5.32177 0.76039,4.64171 0.55676,6.03553 -1.31918,9.02908 -2.62414,2.58208 -8.32621,4.90556 -10.39276,2.93569 z m 6.04082,-2.01593 c 0.60423,-0.37946 1.89215,-1.86935 2.86203,-3.31087 l 1.76344,-2.62094 -0.9622,-2.97626 c -0.66972,-2.07166 -1.15625,-2.94974 -1.60072,-2.88899 -0.92073,0.12584 -4.39675,4.51472 -5.54857,7.00572 -1.4522,4.16053 0.004,6.87239 3.4861,4.79128 z m -144.34545,16.20913 c -0.0834,-0.60997 -0.44035,-0.76782 -1.43037,-0.63251 -1.00126,0.13685 -1.34671,-0.0204 -1.43306,-0.65215 -0.12009,-0.87865 0.62375,-1.47711 2.08394,-1.67669 0.93626,-0.12796 3.4407,-2.55653 6.26415,-6.07432 0.9474,-1.1804 2.71301,-2.87655 3.92357,-3.7692 2.12329,-1.56567 2.25557,-1.60558 3.74569,-1.12967 0.84957,0.27134 1.69538,0.76772 1.87956,1.10308 0.98609,1.79544 -3.60301,6.81777 -9.34219,10.22411 -3.13329,1.8597 -3.42425,2.69214 -1.39525,3.99203 1.24379,0.79685 2.10113,0.69061 5.53056,-0.68525 2.93434,-1.17732 4.0183,-1.00917 4.24626,0.65873 0.16584,1.21337 -2.20622,2.4637 -5.53786,2.91906 -1.7581,0.36265 -7.94677,-1.75482 -8.535,-4.27722 z m 7.41645,-6.80592 c 1.69719,-1.39908 1.69185,-2.33187 -0.006,-0.99595 -1.30593,1.02773 -2.24758,2.23641 -1.68207,2.15912 0.18246,-0.0249 0.94196,-0.54835 1.68777,-1.16316 z m 55.32514,1.32239 c -1.55954,-1.0804 -2.88271,-2.31067 -2.94039,-2.73397 -0.0713,-0.52284 -0.44908,-0.72257 -1.17835,-0.6229 -0.59039,0.0807 -1.22933,-0.0424 -1.41988,-0.27353 -0.57133,-0.69307 0.45405,-1.83434 1.81526,-2.02039 0.96442,-0.13181 2.07844,-1.11428 4.58667,-4.04507 3.89567,-4.552 7.30739,-7.44608 8.59492,-7.29091 0.4948,0.0597 0.92511,0.29491 0.95626,0.52285 0.0312,0.22794 0.21729,0.28199 0.41363,0.12014 0.19636,-0.16178 0.65099,-0.0247 1.01035,0.30496 1.79334,1.64487 -2.94882,7.31332 -8.90242,10.64131 -3.13871,1.75452 -3.49192,2.60236 -1.66287,3.99154 1.20999,0.91901 2.1058,0.82419 5.651,-0.59821 2.64337,-1.06057 2.75991,-1.07093 3.73346,-0.3315 0.57282,0.43507 0.89547,1.00996 0.75033,1.33694 -0.47526,1.07073 -3.01927,2.20406 -5.80088,2.58424 -2.73033,0.37317 -2.8138,0.34956 -5.60709,-1.5855 z m 4.76561,-9.76269 c 0.83591,-0.75213 1.39394,-1.46309 1.24008,-1.57995 -0.2565,-0.19482 -3.50728,2.51296 -3.45716,2.87967 0.0554,0.40536 0.82055,-0.0432 2.21708,-1.29972 z m 18.73284,7.0874 c -5.54174,0.24991 -8.14266,-0.57878 -8.43069,-2.68614 -0.11007,-0.80534 0.51271,-1.52094 3.00059,-3.44776 1.72671,-1.33731 3.40747,-2.68314 3.73501,-2.99072 0.90541,-0.85027 -5.28943,0.64916 -6.34818,1.53655 -0.74936,0.62807 -0.97067,0.62765 -1.72073,-0.003 -1.00397,-0.84459 -0.90595,-2.42162 0.17938,-2.88581 0.39545,-0.16918 1.63703,-0.56237 2.75904,-0.87386 1.12202,-0.31149 2.12979,-0.76857 2.23949,-1.01572 0.21628,-0.48724 5.03906,-1.25868 6.61635,-1.05838 1.11076,0.1411 2.35298,1.84884 2.15373,2.96086 -0.15828,0.88337 -1.82849,2.44322 -5.42228,5.06399 -1.43024,1.043 -2.30273,1.86203 -1.9389,1.82004 0.36388,-0.0417 3.17529,-0.12106 6.24765,-0.17568 3.07236,-0.0546 5.80195,-0.12706 6.06575,-0.16097 0.60087,-0.0771 1.88955,1.90764 1.62521,2.50318 -0.22469,0.50619 -5.23641,1.16458 -10.76141,1.41381 z m 24.49653,-9.2338 c -1.00019,-0.10724 -3.94964,0.0641 -6.5543,0.38084 -3.27347,0.39796 -4.75779,0.41748 -4.80714,0.063 -0.0395,-0.28206 -0.33055,-0.56559 -0.64735,-0.63003 -0.90535,-0.18413 0.57494,-2.07861 2.27245,-2.90828 1.49434,-0.73036 4.70297,-1.00603 10.39173,-0.89282 2.7757,0.0552 3.04949,0.156 3.65549,1.34528 1.1651,2.28648 -0.14404,3.08881 -4.31088,2.64205 z"
       style="fill:#ff0000;fill-opacity:1;stroke-width:0.443848" />
  </g>
</svg>
