<?xml version="1.0" encoding="UTF-8" standalone="no"?>
<svg
   xmlns:dc="http://purl.org/dc/elements/1.1/"
   xmlns:cc="http://creativecommons.org/ns#"
   xmlns:rdf="http://www.w3.org/1999/02/22-rdf-syntax-ns#"
   xmlns:svg="http://www.w3.org/2000/svg"
   xmlns="http://www.w3.org/2000/svg"
   xmlns:xlink="http://www.w3.org/1999/xlink"
   xmlns:sodipodi="http://sodipodi.sourceforge.net/DTD/sodipodi-0.dtd"
   xmlns:inkscape="http://www.inkscape.org/namespaces/inkscape"
   width="28.992441mm"
   height="28.992458mm"
   viewBox="0 0 28.992441 28.992458"
   version="1.1"
   id="svg1574"
   inkscape:version="1.0 (4035a4fb49, 2020-05-01)"
   sodipodi:docname="compass.svg">
  <defs
     id="defs1568">
    <linearGradient
       inkscape:collect="always"
       id="linearGradient1381">
      <stop
         style="stop-color:#fff296;stop-opacity:1"
         offset="0"
         id="stop1377" />
      <stop
         style="stop-color:#ffca28;stop-opacity:1"
         offset="1"
         id="stop1379" />
    </linearGradient>
    <linearGradient
       inkscape:collect="always"
       xlink:href="#linearGradient1381"
       id="linearGradient1383"
       x1="-235.22789"
       y1="46.988041"
       x2="-219.55937"
       y2="64.394859"
       gradientUnits="userSpaceOnUse"
       gradientTransform="matrix(0.96670865,0,0,1.0037758,324.84821,15.994377)" />
  </defs>
  <sodipodi:namedview
     fit-margin-bottom="0"
     fit-margin-right="0"
     fit-margin-left="0"
     fit-margin-top="0"
     id="base"
     pagecolor="#ffffff"
     bordercolor="#666666"
     borderopacity="1.0"
     inkscape:pageopacity="0.0"
     inkscape:pageshadow="2"
     inkscape:zoom="2.8"
     inkscape:cx="186.39853"
     inkscape:cy="45.561791"
     inkscape:document-units="mm"
     inkscape:current-layer="layer1"
     inkscape:document-rotation="0"
     showgrid="false"
     inkscape:window-width="1920"
     inkscape:window-height="1017"
     inkscape:window-x="-8"
     inkscape:window-y="-8"
     inkscape:window-maximized="1" />
  <metadata
     id="metadata1571">
    <rdf:RDF>
      <cc:Work
         rdf:about="">
        <dc:format>image/svg+xml</dc:format>
        <dc:type
           rdf:resource="http://purl.org/dc/dcmitype/StillImage" />
        <dc:title></dc:title>
      </cc:Work>
    </rdf:RDF>
  </metadata>
  <g
     transform="translate(-90.462878,-57.131063)"
     inkscape:label="Calque 1"
     inkscape:groupmode="layer"
     id="layer1">
    <path
       inkscape:export-ydpi="71"
       inkscape:export-xdpi="71"
       d="M 118.95532,71.627292 A 13.996234,13.996229 0 0 1 104.9591,85.623522 13.996234,13.996229 0 0 1 90.962878,71.627292 13.996234,13.996229 0 0 1 104.9591,57.631063 13.996234,13.996229 0 0 1 118.95532,71.627292"
       style="color:#000000;overflow:visible;fill:url(#linearGradient1383);fill-opacity:1;stroke:#ffca28;stroke-width:1;stroke-miterlimit:4;stroke-dasharray:none;stroke-dashoffset:6.32016;stroke-opacity:1;stop-color:#000000"
       id="path1360" />
    <path
       d="M 118.43355,72.281693 A 12.850212,12.940311 0 0 1 105.58336,85.222002 12.850212,12.940311 0 0 1 92.733134,72.281693 12.850212,12.940311 0 0 1 105.58336,59.341381 12.850212,12.940311 0 0 1 118.43355,72.281693"
       style="color:#000000;overflow:visible;fill:#ffca28;fill-opacity:1;stroke:none;stroke-width:1.26533;stroke-miterlimit:4;stroke-dasharray:none;stroke-dashoffset:6.32016;stroke-opacity:1;stop-color:#000000"
       id="path1360-8-3" />
    <path
       d="M 115.92128,71.627293 A 10.962178,10.962181 0 0 1 104.9591,82.589473 10.962178,10.962181 0 0 1 93.996918,71.627293 10.962178,10.962181 0 0 1 104.9591,60.665113 10.962178,10.962181 0 0 1 115.92128,71.627293"
       style="color:#000000;overflow:visible;fill:#ffffff;fill-opacity:1;stroke:#e2a714;stroke-width:1;stroke-miterlimit:4;stroke-dasharray:none;stroke-dashoffset:6.32016;stroke-opacity:1;stop-color:#000000"
       id="path1360-8" />
    <g
       transform="translate(-20.755027,13.890522)"
       id="g883">
      <g
         id="g1446"
         transform="matrix(0.77941805,0,0,0.77941805,358.99196,91.099584)">
        <path
           transform="matrix(0.26458333,0,0,0.26458333,-73.697022,6.6646382)"
           d="m -852.78711,-223.55664 c -0.88936,-0.0102 -1.68272,0.56163 -1.94922,1.41016 l -8.01758,25.56836 -25.13476,7.88281 c -0.83218,0.26139 -1.40029,1.02817 -1.41016,1.90039 -0.0113,0.88934 0.56162,1.68075 1.41016,1.94726 l 25.56836,8.01758 7.88281,25.13477 c 0.26154,0.83217 1.02608,1.40047 1.89844,1.41015 0.88936,0.0102 1.68268,-0.56162 1.94922,-1.41015 l 8.01757,-25.56641 25.13477,-7.88476 c 0.83218,-0.2614 1.40048,-1.02606 1.41016,-1.89844 0.0113,-0.88934 -0.56162,-1.68076 -1.41016,-1.94727 l -25.56836,-8.01953 -7.88281,-25.13476 c -0.26117,-0.8322 -1.02624,-1.40031 -1.89844,-1.41016 z"
           style="color:#000000;font-style:normal;font-variant:normal;font-weight:normal;font-stretch:normal;font-size:medium;line-height:normal;font-family:sans-serif;font-variant-ligatures:normal;font-variant-position:normal;font-variant-caps:normal;font-variant-numeric:normal;font-variant-alternates:normal;font-variant-east-asian:normal;font-feature-settings:normal;font-variation-settings:normal;text-indent:0;text-align:start;text-decoration:none;text-decoration-line:none;text-decoration-style:solid;text-decoration-color:#000000;letter-spacing:normal;word-spacing:normal;text-transform:none;writing-mode:lr-tb;direction:ltr;text-orientation:mixed;dominant-baseline:auto;baseline-shift:baseline;text-anchor:start;white-space:normal;shape-padding:0;shape-margin:0;inline-size:0;clip-rule:nonzero;display:inline;overflow:visible;visibility:visible;isolation:auto;mix-blend-mode:normal;color-interpolation:sRGB;color-interpolation-filters:linearRGB;solid-color:#000000;solid-opacity:1;vector-effect:none;fill:#e0c3ab;fill-opacity:1;fill-rule:nonzero;stroke:none;stroke-width:4.03147;stroke-linecap:round;stroke-linejoin:round;stroke-miterlimit:4;stroke-dasharray:none;stroke-dashoffset:20;stroke-opacity:1;color-rendering:auto;image-rendering:auto;shape-rendering:auto;text-rendering:auto;enable-background:accumulate;stop-color:#000000"
           id="path976-0-6-2" />
        <path
           transform="matrix(0.26458333,0,0,0.26458333,-73.697022,6.6646382)"
           d="m -877.54297,-213.29102 c -0.41046,0.0607 -0.80141,0.24785 -1.11328,0.55274 -0.63613,0.62158 -0.79241,1.58654 -0.38086,2.375 l 16.25,31.09961 c 0.0945,0.39972 0.30812,0.76052 0.61328,1.03515 0.2744,0.30339 0.63515,0.51728 1.03321,0.61133 0.27439,0.3035 0.63322,0.51726 1.03124,0.61133 l 31.09961,16.24805 c 0.77326,0.40361 1.71611,0.26431 2.33985,-0.34571 0.63613,-0.62158 0.79241,-1.58655 0.38086,-2.375 l -16.25,-31.0996 c -0.0945,-0.39973 -0.30775,-0.7605 -0.61328,-1.03516 -0.2744,-0.3035 -0.63515,-0.51729 -1.03321,-0.61133 -0.27439,-0.30338 -0.63322,-0.51532 -1.03125,-0.60937 l -31.09961,-16.25 c -0.38662,-0.20182 -0.81609,-0.26769 -1.22656,-0.20704 z"
           style="color:#000000;font-style:normal;font-variant:normal;font-weight:normal;font-stretch:normal;font-size:medium;line-height:normal;font-family:sans-serif;font-variant-ligatures:normal;font-variant-position:normal;font-variant-caps:normal;font-variant-numeric:normal;font-variant-alternates:normal;font-variant-east-asian:normal;font-feature-settings:normal;font-variation-settings:normal;text-indent:0;text-align:start;text-decoration:none;text-decoration-line:none;text-decoration-style:solid;text-decoration-color:#000000;letter-spacing:normal;word-spacing:normal;text-transform:none;writing-mode:lr-tb;direction:ltr;text-orientation:mixed;dominant-baseline:auto;baseline-shift:baseline;text-anchor:start;white-space:normal;shape-padding:0;shape-margin:0;inline-size:0;clip-rule:nonzero;display:inline;overflow:visible;visibility:visible;isolation:auto;mix-blend-mode:normal;color-interpolation:sRGB;color-interpolation-filters:linearRGB;solid-color:#000000;solid-opacity:1;vector-effect:none;fill:#b2947c;fill-opacity:1;fill-rule:nonzero;stroke:none;stroke-width:4.03147;stroke-linecap:round;stroke-linejoin:round;stroke-miterlimit:4;stroke-dasharray:none;stroke-dashoffset:20;stroke-opacity:1;color-rendering:auto;image-rendering:auto;shape-rendering:auto;text-rendering:auto;enable-background:accumulate;stop-color:#000000"
           id="path976-0-6" />
      </g>
      <path
         id="rect1507"
         style="color:#000000;overflow:visible;fill:#e0c3ab;fill-opacity:1;stroke:none;stroke-width:0.127006;stroke-dasharray:0.254014, 0.127006;stroke-dashoffset:1.24465;stop-color:#000000"
         d="m 125.71386,47.477706 -1.09399,1.093991 1.09399,1.093991 1.09451,-1.093991 z m 5.70715,3.004468 v 1.547193 l 1.54771,5.3e-4 -5.3e-4,-1.54771 z m -14.87196,6.160349 -1.09399,1.093989 1.09399,1.094507 1.09399,-1.094507 z m 18.33014,0 -1.09398,1.093989 1.09398,1.094507 1.094,-1.094507 z m -16.41966,6.801136 v 1.547191 l 1.54771,5.29e-4 -5.3e-4,-1.547707 z m 7.25433,2.364195 -1.09399,1.093991 1.09399,1.093989 1.09451,-1.093989 z" />
      <path
         style="color:#000000;font-style:normal;font-variant:normal;font-weight:normal;font-stretch:normal;font-size:medium;line-height:normal;font-family:sans-serif;font-variant-ligatures:normal;font-variant-position:normal;font-variant-caps:normal;font-variant-numeric:normal;font-variant-alternates:normal;font-variant-east-asian:normal;font-feature-settings:normal;font-variation-settings:normal;text-indent:0;text-align:start;text-decoration:none;text-decoration-line:none;text-decoration-style:solid;text-decoration-color:#000000;letter-spacing:normal;word-spacing:normal;text-transform:none;writing-mode:lr-tb;direction:ltr;text-orientation:mixed;dominant-baseline:auto;baseline-shift:baseline;text-anchor:start;white-space:normal;shape-padding:0;shape-margin:0;inline-size:0;clip-rule:nonzero;display:inline;overflow:visible;visibility:visible;isolation:auto;mix-blend-mode:normal;color-interpolation:sRGB;color-interpolation-filters:linearRGB;solid-color:#000000;solid-opacity:1;vector-effect:none;fill:#ff0000;fill-opacity:1;fill-rule:nonzero;stroke:none;stroke-width:1.06666;stroke-linecap:round;stroke-linejoin:round;stroke-miterlimit:4;stroke-dasharray:none;stroke-dashoffset:20;stroke-opacity:1;color-rendering:auto;image-rendering:auto;shape-rendering:auto;text-rendering:auto;enable-background:accumulate;stop-color:#000000"
         d="m 132.54488,50.869758 c -0.16446,-0.168311 -0.41965,-0.209396 -0.62826,-0.100506 l -8.22863,4.299517 c -0.10576,0.02497 -0.20099,0.08144 -0.27366,0.16224 -0.0803,0.07257 -0.13698,0.167969 -0.16186,0.273284 l 4.64921,4.648462 c 0.10576,-0.02497 0.20137,-0.08182 0.27404,-0.162616 0.0803,-0.07257 0.1366,-0.167593 0.16149,-0.272907 l 4.29914,-8.228256 c 0.10679,-0.204592 0.0699,-0.454194 -0.0915,-0.619218 z"
         id="path976-0"
         sodipodi:nodetypes="cccccccccc" />
      <path
         sodipodi:nodetypes="cccccccccc"
         id="path976-4-3"
         d="m 118.88331,64.624675 c 0.16446,0.168312 0.41964,0.209396 0.62825,0.100506 l 8.22863,-4.299517 c 0.10576,-0.02497 0.201,-0.08144 0.27366,-0.16224 0.0803,-0.07257 0.13698,-0.167969 0.16187,-0.273283 l -4.64922,-4.648463 c -0.10576,0.02497 -0.20137,0.08182 -0.27403,0.162616 -0.0803,0.07257 -0.13661,0.167593 -0.16149,0.272908 l -4.29914,8.228255 c -0.10679,0.204592 -0.0699,0.454194 0.0915,0.619218 z"
         style="color:#000000;font-style:normal;font-variant:normal;font-weight:normal;font-stretch:normal;font-size:medium;line-height:normal;font-family:sans-serif;font-variant-ligatures:normal;font-variant-position:normal;font-variant-caps:normal;font-variant-numeric:normal;font-variant-alternates:normal;font-variant-east-asian:normal;font-feature-settings:normal;font-variation-settings:normal;text-indent:0;text-align:start;text-decoration:none;text-decoration-line:none;text-decoration-style:solid;text-decoration-color:#000000;letter-spacing:normal;word-spacing:normal;text-transform:none;writing-mode:lr-tb;direction:ltr;text-orientation:mixed;dominant-baseline:auto;baseline-shift:baseline;text-anchor:start;white-space:normal;shape-padding:0;shape-margin:0;inline-size:0;clip-rule:nonzero;display:inline;overflow:visible;visibility:visible;isolation:auto;mix-blend-mode:normal;color-interpolation:sRGB;color-interpolation-filters:linearRGB;solid-color:#000000;solid-opacity:1;vector-effect:none;fill:#2f7889;fill-opacity:1;fill-rule:nonzero;stroke:none;stroke-width:1.06666;stroke-linecap:round;stroke-linejoin:round;stroke-miterlimit:4;stroke-dasharray:none;stroke-dashoffset:20;stroke-opacity:1;color-rendering:auto;image-rendering:auto;shape-rendering:auto;text-rendering:auto;enable-background:accumulate;stop-color:#000000" />
      <path
         d="m 125.62827,56.079267 c -1.17255,0.01296 -1.97489,1.430479 -1.39082,2.44279 0.49666,1.051891 2.11123,1.203449 2.78934,0.255676 0.76219,-0.88431 0.23159,-2.421835 -0.91181,-2.650719 -0.15847,-0.04212 -0.32325,-0.0545 -0.48671,-0.04775 z"
         style="color:#000000;font-style:normal;font-variant:normal;font-weight:normal;font-stretch:normal;font-size:medium;line-height:normal;font-family:sans-serif;font-variant-ligatures:normal;font-variant-position:normal;font-variant-caps:normal;font-variant-numeric:normal;font-variant-alternates:normal;font-feature-settings:normal;text-indent:0;text-align:start;text-decoration:none;text-decoration-line:none;text-decoration-style:solid;text-decoration-color:#000000;letter-spacing:normal;word-spacing:normal;text-transform:none;writing-mode:lr-tb;direction:ltr;text-orientation:mixed;dominant-baseline:auto;baseline-shift:baseline;text-anchor:start;white-space:normal;shape-padding:0;clip-rule:nonzero;display:inline;overflow:visible;visibility:visible;isolation:auto;mix-blend-mode:normal;color-interpolation:sRGB;color-interpolation-filters:linearRGB;solid-color:#000000;solid-opacity:1;vector-effect:none;fill:#ffffff;fill-opacity:1;fill-rule:evenodd;stroke:none;stroke-width:0.788593;stroke-linecap:round;stroke-linejoin:round;stroke-miterlimit:4;stroke-dasharray:none;stroke-dashoffset:0;stroke-opacity:1;color-rendering:auto;image-rendering:auto;shape-rendering:auto;text-rendering:auto;enable-background:accumulate"
         id="path830" />
      <path
         d="m 118.45968,50.482698 v 1.547136 l 1.54714,10e-7 3.7e-4,-1.547504 z m 12.96137,12.961371 1e-5,1.547137 1.54713,-1e-6 3.7e-4,-1.547502 z"
         style="color:#000000;overflow:visible;fill:#e0c3ab;fill-opacity:1;stroke:none;stroke-width:0.127006;stroke-dasharray:0.254014, 0.127006;stroke-dashoffset:1.24465;stop-color:#000000"
         id="rect1507-8" />
    </g>
  </g>
</svg>
