<?xml version="1.0" encoding="UTF-8" standalone="no"?>
<svg
   xmlns:dc="http://purl.org/dc/elements/1.1/"
   xmlns:cc="http://creativecommons.org/ns#"
   xmlns:rdf="http://www.w3.org/1999/02/22-rdf-syntax-ns#"
   xmlns:svg="http://www.w3.org/2000/svg"
   xmlns="http://www.w3.org/2000/svg"
   xmlns:sodipodi="http://sodipodi.sourceforge.net/DTD/sodipodi-0.dtd"
   xmlns:inkscape="http://www.inkscape.org/namespaces/inkscape"
   height="790.13824"
   width="790.13824"
   inkscape:version="1.0 (4035a4fb49, 2020-05-01)"
   sodipodi:docname="apple.svg"
   xml:space="preserve"
   viewBox="0 0 790.13824 790.13824"
   y="0px"
   x="0px"
   id="Layer_1"
   version="1.1"><metadata
   id="metadata42"><rdf:RDF><cc:Work
       rdf:about=""><dc:format>image/svg+xml</dc:format><dc:type
         rdf:resource="http://purl.org/dc/dcmitype/StillImage" /><dc:title /></cc:Work></rdf:RDF></metadata><defs
   id="defs40">
	

		
		
		
		
		
		
		
		
		
		
		
		
		
	
			
		
			
		</defs><sodipodi:namedview
   fit-margin-bottom="0"
   fit-margin-right="0"
   fit-margin-left="0"
   fit-margin-top="0"
   inkscape:current-layer="Layer_1"
   inkscape:window-maximized="1"
   inkscape:window-y="-8"
   inkscape:window-x="-8"
   inkscape:cy="313.19177"
   inkscape:cx="136.91604"
   inkscape:zoom="0.5"
   showgrid="false"
   id="namedview38"
   inkscape:window-height="1017"
   inkscape:window-width="1920"
   inkscape:pageshadow="2"
   inkscape:pageopacity="0"
   guidetolerance="10"
   gridtolerance="10"
   objecttolerance="10"
   borderopacity="1"
   bordercolor="#666666"
   pagecolor="#ffffff"
   inkscape:document-rotation="0" />
<style
   id="style2"
   type="text/css">
	.st0{fill:none;stroke:#283005;stroke-width:29.6573;stroke-linejoin:round;stroke-miterlimit:10;}
	.st1{fill:#283005;}
	.st2{fill:#648912;}
	.st3{fill:#526B0D;}
	.st4{fill:#8FA833;}
	.st5{fill:#F8DF88;}
</style>

<path
   id="path896"
   d="M 354.94383,202.35766 C 279.09038,186.17169 230.68179,126.14375 230.68179,48.269573 V 30.347924 l 8.30822,-0.248407 c 31.3818,-0.938288 56.33304,3.865313 80.87436,15.569954 40.29341,19.217249 70.3836,56.434379 81.06985,100.271049 5.3174,21.81297 9.57189,28.16916 4.46819,44.82209 -6.78347,20.69604 -34.28439,14.857 -50.45858,11.59505 z"
   style="fill:#7eb040;stroke-width:1.44491" /><path
   id="path928"
   d="M 416,254 C 406.08443,171.10069 460.85961,107.44062 545,92"
   style="fill:none;fill-rule:evenodd;stroke:#8d6c52;stroke-width:48;stroke-linecap:round;stroke-linejoin:miter;stroke-opacity:1;stroke-miterlimit:4;stroke-dasharray:none" /><path
   sodipodi:nodetypes="cscccccccccccccc"
   id="path898"
   d="m 550.35938,203.02734 c -23.61182,0.0129 -24.05161,0.0714 -45.80079,6.14454 -41.60524,11.61768 -64.64185,15.12707 -99.41211,15.13867 -36.18062,0.0127 -56.00379,-2.91613 -98.2539,-14.51563 -34.94911,-11.29248 -75.95659,-8.14643 -102.8125,4.09959 -41.17914,18.94123 -74.22846,62.9862 -90.4961,120.60547 -30.388851,107.63553 -1.49526,246.41632 71.11133,341.55859 39.10294,47.31529 82.05966,83.30501 142.81446,91.16797 12.98364,1.57108 27.80433,0.42744 48.57617,-3.74804 21.7171,-3.56876 34.66677,-4.43927 53.82617,-0.48839 35.98486,6.59271 45.08549,5.31453 74.21094,-0.0937 42.63936,-10.86825 86.69218,-43.32093 121.61328,-89.58984 59.23552,-98.692 87.86844,-180.16527 78.59765,-293.72656 -15.51376,-76.32372 -42.85161,-150.55605 -120.74218,-173.86719 -7.48289,-2.15081 -14.23738,-2.69565 -33.23242,-2.68555 z"
   style="fill:#e04a4a;stroke-width:1.44491" /><path
   id="path892"
   d="m 327.51037,767.22674 c -21.30907,-2.57848 -45.54999,-10.30776 -61.32881,-19.55477 l -6.49269,-3.80498 19.91602,-8.57873 c 105.22972,-45.32737 201.39178,-130.68364 265.95298,-236.06789 44.35216,-72.39687 74.66126,-153.98575 89.30424,-240.39812 1.93603,-11.42469 3.80978,-22.03416 3.80978,-22.03416 0,0 4.95662,4.47925 9.90441,9.87585 28.84512,31.46161 48.25297,77.72704 55.75681,132.9167 2.75197,20.23967 3.12563,64.90632 0.7291,87.12931 -8.26256,76.61734 -36.26154,149.53689 -79.32671,206.59661 -34.9211,46.26891 -78.9733,78.72125 -121.61266,89.5895 -25.89404,6.60008 -42.83616,6.62156 -74.21059,0.0942 -18.60751,-3.87129 -32.77671,-3.74265 -53.82627,0.48868 -20.77184,4.17548 -35.59197,5.31892 -48.57561,3.74784 z"
   style="fill:#cf3e3e;stroke-width:1.44491" /></svg>
