<svg xmlns="http://www.w3.org/2000/svg" xml:space="preserve" id="Layer_1" width="790.138" height="790.138" x="0" y="0" viewBox="0 0 790.138 790.138"><path id="path896" d="M354.944 202.358C279.09 186.172 230.682 126.144 230.682 48.27V30.348l8.308-.248c31.382-.939 56.333 3.865 80.874 15.57 40.294 19.217 70.384 56.434 81.07 100.27 5.318 21.813 9.572 28.17 4.468 44.823-6.783 20.696-34.284 14.857-50.458 11.595" style="fill:#7eb040;stroke-width:1.44491px"/><path id="path928" d="M416 254c-9.916-82.9 44.86-146.56 129-162" style="fill:none;fill-rule:evenodd;stroke:#8d6c52;stroke-width:48px;stroke-linecap:round;stroke-linejoin:miter;stroke-opacity:1;stroke-miterlimit:4;stroke-dasharray:none"/><path id="path898" d="M550.36 203.027c-23.612.013-24.052.072-45.801 6.145-41.606 11.618-64.642 15.127-99.413 15.139-36.18.012-56.003-2.917-98.253-14.516-34.95-11.293-75.957-8.147-102.813 4.1-41.18 18.94-74.228 62.986-90.496 120.605-30.389 107.636-1.495 246.416 71.111 341.559 39.103 47.315 82.06 83.305 142.815 91.168 12.983 1.57 27.804.427 48.576-3.748 21.717-3.57 34.667-4.44 53.826-.489 35.985 6.593 45.086 5.315 74.211-.094 42.64-10.868 86.692-43.32 121.613-89.59 59.236-98.691 87.869-180.165 78.598-293.726-15.514-76.324-42.852-150.556-120.742-173.867-7.483-2.151-14.238-2.696-33.233-2.686" style="fill:#e04a4a;stroke-width:1.44491px"/><path id="path892" d="M327.51 767.227c-21.309-2.579-45.55-10.308-61.328-19.555l-6.493-3.805 19.916-8.579c105.23-45.327 201.392-130.683 265.953-236.068 44.352-72.397 74.661-153.985 89.304-240.398a3650 3650 0 0 1 3.81-22.034s4.957 4.48 9.904 9.876c28.845 31.462 48.253 77.727 55.757 132.917 2.752 20.24 3.126 64.906.73 87.129-8.263 76.617-36.262 149.537-79.327 206.597-34.922 46.268-78.974 78.72-121.613 89.59-25.894 6.6-42.836 6.62-74.21.093-18.608-3.871-32.777-3.742-53.827.489-20.772 4.175-35.592 5.319-48.576 3.748" style="fill:#cf3e3e;stroke-width:1.44491px"/></svg>