<svg xmlns="http://www.w3.org/2000/svg" xml:space="preserve" id="Layer_1" width="800" height="800" x="0" y="0" viewBox="0 0 800 800"><g id="g941" transform="translate(-144.436 -106.207)scale(1.33948)"><path id="path906" d="M309.025 440.203c-38.166-40.562-61.198-96.045-59.007-152.053.752-22.39 5.28-44.45 10.818-66.093 2.86 30.143 7.643 60.487 19.5 88.548 15.604 38.06 42.937 71.17 77.554 93.437 37.579 24.482 81.217 37.693 124.824 46.585 48.05 9.334 97.304 10.458 146.057 7.726 14.366-.344 28.746 2.131 42.404 6.3 2.373 6.724 1.607 14.592 2.846 21.735 1.176 7.572-10.742 8.294-15.645 12.484C589.205 534.81 505.3 541.31 431.609 515.66c-30.664-10.324-59.932-25.078-85.701-44.723-12.915-9.459-25.498-19.46-36.883-30.735" style="fill:#fee07c;stroke-width:1.18783px"/><path id="path884" d="M242.116 515.033c-39.304-37.77-71.635-84.986-83.586-138.812-12.71-56.593.622-118.068 34.68-164.892 10.215-13.89 20.144-28.463 24.759-45.294 2.378-5.036 1.119-12.419 6.256-15.552 6.657-2.449 13.975-.923 20.928-1.546 7.61-.165 15.257-.626 22.837.296 1.218 7.962-5.722 14.332-7.69 21.728-24.027 53.23-35.868 113.502-25.235 171.5 8.59 44.26 31.9 85.291 64.355 116.42 27.94 24.911 58.52 47.021 91.917 64.054 36.555 19.157 75.345 34.056 115.223 44.595 2.983.971 13.45.817 12.08 1.554-2.99 2.724 7.86 3.155 10.249 4.478 14.812 3.629 29.064 9.553 41.74 18.07 2.547 1.072 11.599 7.75 5.17 4.791-4.107 5.606-2.342 14.496-4.845 21.237-2.836 6.3-14.297 4.13-20.772 6.584-36.21 6.186-73.553 6.969-109.661-.36-51.323-10.02-99.71-32.771-142.048-63.2-19.403-14.401-38.514-29.344-56.357-45.65" style="fill:#fee07c;stroke-width:1.18783px"/><path id="path850" d="M225.643 559.538c-35.884-30.968-62.597-64.559-80.208-100.863-13.044-26.889-18.71-47.072-21.475-76.507-3.947-42.011 5.258-83.18 27.346-122.305 6.508-11.526 28.171-38.255 37.024-45.68l6.964-5.841-3.583 4.738c-7.412 9.801-18.949 31.659-24.547 46.508-30.144 79.957-9.043 165.333 59.1 239.123 28.752 31.135 73.942 66.23 113.524 88.164 49.49 27.424 104.174 42.225 156.497 42.357 15.701.04 44.48-2.886 60.856-6.186l13.322-2.686 1.627-8.944c.896-4.92 1.806-10.4 2.023-12.178.217-1.78.88-3.29 1.474-3.357.593-.067 3.46 1.776 6.372 4.095 13.48 10.74 12.094 30.697-2.67 38.413-13.419 7.013-53.967 16.847-82.238 19.944-93.558 10.248-182.614-22.17-271.408-98.795m77.735-96.618c-1.365-1.432-5.884-6.054-10.042-10.27-23.031-23.356-43.065-56.677-52.72-87.685-15.42-49.529-12.08-108.8 9.532-169.114 3.68-10.272 11.057-27.89 12.366-29.532.244-.307-.123 6.655-.815 15.47-.693 8.814-1.162 21.265-1.043 27.67.155 8.288-1.057 17.41-4.206 31.66-7.25 32.808-8.376 61.654-3.465 88.708 7.68 42.299 26.6 79.03 57.548 111.721 12.682 13.396 44.457 37.58 63.344 48.212 43.79 24.648 88.25 38.213 134.39 41.003 52.875 3.197 108.608-9.194 155.013-34.464l11.203-6.1-1.344-12.292c-1.497-13.693-1.352-13.853 8.326-9.168 6.736 3.261 11.177 8.8 12.558 15.662 2.302 11.439-2.807 19.016-20.887 30.978-47.978 31.745-93.816 48.374-144.62 52.465-15.27 1.229-17.671 1.037-29.914-2.395-49.091-13.762-96.348-34.372-139.005-60.625-12.523-7.707-50.857-36.28-56.22-41.904m-78.954-325.173c1.018-6.068 2.409-15.831 3.09-21.696 1.619-13.923 2.664-14.77 20.45-16.564 14.821-1.495 19.023-.557 20.73 4.631 1.752 5.319 2.169 42.907.488 43.9-.838.496-45.79 1.477-46.324 1.012-.157-.138.548-5.214 1.566-11.283" style="fill:#fdd063;stroke-width:1.18783px"/></g></svg>