<?xml version="1.0" encoding="UTF-8" standalone="no"?>
<svg
   xmlns:dc="http://purl.org/dc/elements/1.1/"
   xmlns:cc="http://creativecommons.org/ns#"
   xmlns:rdf="http://www.w3.org/1999/02/22-rdf-syntax-ns#"
   xmlns:svg="http://www.w3.org/2000/svg"
   xmlns="http://www.w3.org/2000/svg"
   xmlns:sodipodi="http://sodipodi.sourceforge.net/DTD/sodipodi-0.dtd"
   xmlns:inkscape="http://www.inkscape.org/namespaces/inkscape"
   version="1.1"
   id="Layer_1"
   x="0px"
   y="0px"
   viewBox="0 0 800 800"
   xml:space="preserve"
   sodipodi:docname="banana.svg"
   inkscape:version="1.0 (4035a4fb49, 2020-05-01)"
   width="800"
   height="800"><g
   transform="matrix(1.3394757,0,0,1.3394757,-144.43625,-106.20688)"
   id="g941"><path
     style="fill:#fee07c;stroke-width:1.18783"
     d="m 309.02478,440.20282 c -38.16558,-40.56219 -61.19779,-96.0451 -59.00713,-152.05329 0.75263,-22.39014 5.27979,-44.44972 10.81818,-66.09211 2.86024,30.14264 7.64311,60.48613 19.49942,88.54713 15.60474,38.0598 42.93751,71.17076 77.55484,93.43705 37.57849,24.48227 81.21681,37.69358 124.82356,46.58544 48.05014,9.33375 97.30453,10.45803 146.05692,7.72602 14.36595,-0.34409 28.74665,2.13129 42.40461,6.30069 2.37251,6.72314 1.60675,14.59173 2.84536,21.73423 1.17657,7.57167 -10.74161,8.29407 -15.64459,12.48355 -69.17144,35.93849 -153.07616,42.43828 -226.7666,16.78952 -30.66482,-10.32405 -59.93219,-25.07848 -85.70153,-44.7235 -12.91434,-9.45857 -25.49762,-19.45939 -36.88304,-30.73473 z"
     id="path906" /><path
     style="fill:#fee07c;stroke-width:1.18783"
     d="m 242.11612,515.03312 c -39.30436,-37.77035 -71.63495,-84.98659 -83.58567,-138.81224 -12.71093,-56.59269 0.62168,-118.06802 34.68014,-164.89209 10.21424,-13.89071 20.14301,-28.46244 24.75837,-45.29401 2.37829,-5.03543 1.1189,-12.41839 6.25625,-15.55129 6.65721,-2.44909 13.9752,-0.92322 20.92828,-1.54685 7.60872,-0.16431 15.25607,-0.62547 22.83646,0.29622 1.21774,7.96263 -5.72225,14.33211 -7.69065,21.72774 -24.02591,53.23084 -35.86706,113.50212 -25.23382,171.49983 8.58934,44.26021 31.89966,85.29152 64.35425,116.42007 27.94101,24.91182 58.51959,47.02184 91.91685,64.05425 36.5551,19.15683 75.34551,34.05595 115.2237,44.5951 2.98312,0.9712 13.45014,0.81762 12.07902,1.55404 -2.98895,2.72415 7.86075,3.15543 10.24938,4.47806 14.812,3.62884 29.06409,9.55341 41.74041,18.07073 2.54737,1.07148 11.5985,7.74891 5.16954,4.7903 -4.10693,5.60595 -2.34114,14.49559 -4.84436,21.23668 -2.83639,6.30061 -14.29742,4.13066 -20.77247,6.58449 -36.20997,6.18544 -73.5524,6.9684 -109.66116,-0.36048 -51.32296,-10.02042 -99.71036,-32.77098 -142.04784,-63.20042 -19.40269,-14.40039 -38.51345,-29.34321 -56.35668,-45.65013 z"
     id="path884" /><path
     id="path850"
     d="m 225.64342,559.5376 c -35.88486,-30.9676 -62.597,-64.55816 -80.20869,-100.86254 -13.04415,-26.88897 -18.70944,-47.07225 -21.47499,-76.50731 -3.94715,-42.01125 5.25783,-83.17938 27.34664,-122.30461 6.50734,-11.52624 28.17093,-38.25503 37.02332,-45.67981 l 6.96474,-5.84154 -3.5836,4.73851 c -7.41201,9.8007 -18.94843,31.65831 -24.54668,46.50764 -30.14396,79.95668 -9.04305,165.33266 59.10001,239.12335 28.75176,31.13469 73.94186,66.22975 113.52408,88.16388 49.48953,27.42419 104.1738,42.22489 156.49719,42.35712 15.70089,0.0397 44.47948,-2.886 60.8552,-6.18664 l 13.32246,-2.68524 1.6274,-8.94426 c 0.89508,-4.91934 1.80508,-10.39969 2.02223,-12.17856 0.21715,-1.77888 0.88048,-3.28928 1.47407,-3.35645 0.59358,-0.0672 3.46109,1.77549 6.37224,4.09479 13.4808,10.74011 12.0938,30.69692 -2.66971,38.41302 -13.41916,7.01349 -53.96707,16.84681 -82.23801,19.94363 C 403.49329,668.581 314.43656,636.16353 225.64342,559.5376 Z m 77.73447,-96.61783 c -1.36515,-1.43182 -5.88421,-6.05337 -10.04235,-10.27012 -23.03083,-23.35534 -43.06499,-56.67688 -52.71912,-87.68429 -15.42091,-49.52936 -12.08048,-108.80013 9.5311,-169.11458 3.68056,-10.27187 11.05798,-27.88924 12.36677,-29.532 0.24412,-0.30642 -0.12286,6.65478 -0.81551,15.46933 -0.69264,8.81454 -1.16173,21.26607 -1.04242,27.67007 0.15445,8.28901 -1.0573,17.41045 -4.20588,31.65997 -7.24957,32.80927 -8.37635,61.65533 -3.46513,88.70878 7.67888,42.29908 26.59887,79.0297 57.54769,111.72114 12.6823,13.39641 44.45738,37.58076 63.34364,48.21152 43.79,24.64868 88.24988,38.21376 134.39061,41.00373 52.87432,3.19713 108.60726,-9.19409 155.01302,-34.46435 l 11.20226,-6.10019 -1.34355,-12.29159 c -1.49678,-13.69359 -1.35171,-13.85335 8.32602,-9.16819 6.73609,3.26105 11.17711,8.79982 12.55791,15.66221 2.30166,11.4386 -2.80697,19.01544 -20.88678,30.97809 -47.97816,31.74518 -93.81603,48.37397 -144.61951,52.46422 -15.26973,1.22938 -17.67192,1.03707 -29.91424,-2.39481 -49.09148,-13.76182 -96.34815,-34.37187 -139.0057,-60.62456 -12.52252,-7.70673 -50.85637,-36.28 -56.21883,-41.90438 z m -78.9542,-325.17236 c 1.01814,-6.06835 2.40897,-15.83185 3.09075,-21.69666 1.61846,-13.92226 2.6637,-14.76884 20.45042,-16.56367 14.8201,-1.49548 19.02207,-0.55677 20.72994,4.63103 1.75098,5.31878 2.16797,42.90721 0.48701,43.90055 -0.83773,0.49504 -45.78927,1.47618 -46.32338,1.01107 -0.157,-0.13723 0.54712,-5.21396 1.56526,-11.28232 z"
     style="fill:#fdd063;stroke-width:1.18783" /></g><metadata
   id="metadata42"><rdf:RDF><cc:Work
       rdf:about=""><dc:format>image/svg+xml</dc:format><dc:type
         rdf:resource="http://purl.org/dc/dcmitype/StillImage" /><dc:title></dc:title></cc:Work></rdf:RDF></metadata><defs
   id="defs40">
	

		
		
		
		
		
		
		
		
		
		
		
		
		
	
			
		
			
		</defs><sodipodi:namedview
   inkscape:document-rotation="0"
   pagecolor="#ffffff"
   bordercolor="#666666"
   borderopacity="1"
   objecttolerance="10"
   gridtolerance="10"
   guidetolerance="10"
   inkscape:pageopacity="0"
   inkscape:pageshadow="2"
   inkscape:window-width="1920"
   inkscape:window-height="1017"
   id="namedview38"
   showgrid="false"
   inkscape:zoom="0.35355339"
   inkscape:cx="-405.00912"
   inkscape:cy="425.42714"
   inkscape:window-x="-8"
   inkscape:window-y="-8"
   inkscape:window-maximized="1"
   inkscape:current-layer="Layer_1"
   fit-margin-top="0"
   fit-margin-left="0"
   fit-margin-right="0"
   fit-margin-bottom="0" />
<style
   type="text/css"
   id="style2">
	.st0{fill:none;stroke:#283005;stroke-width:29.6573;stroke-linejoin:round;stroke-miterlimit:10;}
	.st1{fill:#283005;}
	.st2{fill:#648912;}
	.st3{fill:#526B0D;}
	.st4{fill:#8FA833;}
	.st5{fill:#F8DF88;}
</style>

</svg>
