<?xml version="1.0" encoding="UTF-8" standalone="no"?>
<svg
   xmlns:dc="http://purl.org/dc/elements/1.1/"
   xmlns:cc="http://creativecommons.org/ns#"
   xmlns:rdf="http://www.w3.org/1999/02/22-rdf-syntax-ns#"
   xmlns:svg="http://www.w3.org/2000/svg"
   xmlns="http://www.w3.org/2000/svg"
   xmlns:xlink="http://www.w3.org/1999/xlink"
   xmlns:sodipodi="http://sodipodi.sourceforge.net/DTD/sodipodi-0.dtd"
   xmlns:inkscape="http://www.inkscape.org/namespaces/inkscape"
   version="1.1"
   id="Layer_1"
   x="0px"
   y="0px"
   viewBox="0 0 790.13824 790.13824"
   xml:space="preserve"
   sodipodi:docname="bottle.svg"
   inkscape:version="1.0 (4035a4fb49, 2020-05-01)"
   width="790.13824"
   height="790.13824"><metadata
   id="metadata42"><rdf:RDF><cc:Work
       rdf:about=""><dc:format>image/svg+xml</dc:format><dc:type
         rdf:resource="http://purl.org/dc/dcmitype/StillImage" /><dc:title></dc:title></cc:Work></rdf:RDF></metadata><defs
   id="defs40"><linearGradient
   id="linearGradient1095"
   inkscape:collect="always"><stop
     id="stop1091"
     offset="0"
     style="stop-color:#f6f7fa;stop-opacity:1;" /><stop
     style="stop-color:#f6f7fa;stop-opacity:0.56097561"
     offset="0.47865501"
     id="stop1099" /><stop
     id="stop1093"
     offset="1"
     style="stop-color:#f6f7fa;stop-opacity:1" /></linearGradient><linearGradient
   id="linearGradient1048"
   inkscape:collect="always"><stop
     id="stop1044"
     offset="0"
     style="stop-color:#3068a1;stop-opacity:1" /><stop
     style="stop-color:#6db5e7;stop-opacity:1"
     offset="0.2583732"
     id="stop1054" /><stop
     style="stop-color:#74bbef;stop-opacity:1"
     offset="0.44019139"
     id="stop1052" /><stop
     id="stop1046"
     offset="1"
     style="stop-color:#346da6;stop-opacity:1" /></linearGradient><linearGradient
   inkscape:collect="always"
   id="linearGradient1019"><stop
     style="stop-color:#f1f1f6;stop-opacity:1"
     offset="0"
     id="stop1009" /><stop
     style="stop-color:#717173;stop-opacity:1"
     offset="1"
     id="stop1017" /></linearGradient><linearGradient
   inkscape:collect="always"
   id="linearGradient1003"><stop
     style="stop-color:#f6f7fa;stop-opacity:1"
     offset="0"
     id="stop993" /><stop
     id="stop995"
     offset="0.15828906"
     style="stop-color:#dcdfe8;stop-opacity:1" /><stop
     style="stop-color:#f1f3f8;stop-opacity:1"
     offset="0.3673414"
     id="stop997" /><stop
     id="stop999"
     offset="0.82047904"
     style="stop-color:#f1f0f4;stop-opacity:1" /><stop
     style="stop-color:#717173;stop-opacity:1"
     offset="1"
     id="stop1001" /></linearGradient><linearGradient
   id="linearGradient965"
   inkscape:collect="always"><stop
     id="stop961"
     offset="0"
     style="stop-color:#464648;stop-opacity:1" /><stop
     style="stop-color:#b9b9c3;stop-opacity:1"
     offset="0.15828906"
     id="stop969" /><stop
     id="stop971"
     offset="0.3673414"
     style="stop-color:#f1f3f8;stop-opacity:1" /><stop
     style="stop-color:#f1f0f4;stop-opacity:1"
     offset="0.82047904"
     id="stop973" /><stop
     id="stop963"
     offset="1"
     style="stop-color:#717173;stop-opacity:1" /></linearGradient><linearGradient
   id="linearGradient951"
   inkscape:collect="always"><stop
     id="stop947"
     offset="0"
     style="stop-color:#5aa6d0;stop-opacity:1" /><stop
     style="stop-color:#7bc1f8;stop-opacity:1"
     offset="0.38986173"
     id="stop957" /><stop
     id="stop949"
     offset="1"
     style="stop-color:#2b639c;stop-opacity:1" /></linearGradient>
	

		
		
		
		
		
		
		
		
		
		
		
		
		
	
			
		
			
		<linearGradient
   gradientUnits="userSpaceOnUse"
   y2="74.028946"
   x2="428.05801"
   y1="74.028946"
   x1="322.50308"
   id="linearGradient955"
   xlink:href="#linearGradient951"
   inkscape:collect="always" /><radialGradient
   gradientUnits="userSpaceOnUse"
   gradientTransform="matrix(1,0,0,3.7256072,0,-1224.8961)"
   r="115.24203"
   fy="458.35864"
   fx="379.3486"
   cy="458.35864"
   cx="379.3486"
   id="radialGradient975"
   xlink:href="#linearGradient965"
   inkscape:collect="always" /><radialGradient
   r="115.24203"
   fy="458.35864"
   fx="379.3486"
   cy="458.35864"
   cx="379.3486"
   gradientTransform="matrix(1,0,0,3.7256072,0,-1224.8961)"
   gradientUnits="userSpaceOnUse"
   id="radialGradient990"
   xlink:href="#linearGradient1003"
   inkscape:collect="always" /><radialGradient
   r="115.24203"
   fy="555.99689"
   fx="389.41663"
   cy="555.99689"
   cx="389.41663"
   gradientTransform="matrix(0.55053882,-0.0112979,0.00278618,0.13576852,170.34263,714.07458)"
   gradientUnits="userSpaceOnUse"
   id="radialGradient1005"
   xlink:href="#linearGradient1019"
   inkscape:collect="always" /><radialGradient
   r="115.24203"
   fy="458.35864"
   fx="379.3486"
   cy="458.35864"
   cx="379.3486"
   gradientTransform="matrix(1,0,0,3.7256072,0,-1224.8961)"
   gradientUnits="userSpaceOnUse"
   id="radialGradient1032"
   xlink:href="#linearGradient965"
   inkscape:collect="always" /><linearGradient
   gradientUnits="userSpaceOnUse"
   y2="463.25391"
   x2="493.6543"
   y1="463.25391"
   x1="262.80859"
   id="linearGradient1075"
   xlink:href="#linearGradient1048"
   inkscape:collect="always" /><linearGradient
   gradientTransform="translate(-2,1)"
   gradientUnits="userSpaceOnUse"
   y2="460.54009"
   x2="479.93945"
   y1="460.54009"
   x1="280.57156"
   id="linearGradient1097"
   xlink:href="#linearGradient1095"
   inkscape:collect="always" /></defs><sodipodi:namedview
   inkscape:document-rotation="0"
   pagecolor="#ffffff"
   bordercolor="#666666"
   borderopacity="1"
   objecttolerance="10"
   gridtolerance="10"
   guidetolerance="10"
   inkscape:pageopacity="0"
   inkscape:pageshadow="2"
   inkscape:window-width="1920"
   inkscape:window-height="1017"
   id="namedview38"
   showgrid="false"
   inkscape:zoom="0.35355339"
   inkscape:cx="697.771"
   inkscape:cy="11.172891"
   inkscape:window-x="-8"
   inkscape:window-y="-8"
   inkscape:window-maximized="1"
   inkscape:current-layer="Layer_1"
   fit-margin-top="0"
   fit-margin-left="0"
   fit-margin-right="0"
   fit-margin-bottom="0" />
<style
   type="text/css"
   id="style2">
	.st0{fill:none;stroke:#283005;stroke-width:29.6573;stroke-linejoin:round;stroke-miterlimit:10;}
	.st1{fill:#283005;}
	.st2{fill:#648912;}
	.st3{fill:#526B0D;}
	.st4{fill:#8FA833;}
	.st5{fill:#F8DF88;}
</style>

<g
   transform="matrix(0.90013715,0.6186685,-0.6186685,0.90013715,346.90362,-247.69261)"
   id="g1109"><g
     id="g1030"
     transform="translate(3.1282143,21.8975)"><path
       d="m 370.22266,95.195312 c -24.23196,0.04827 -47.02719,2.193365 -47.71875,6.619138 -0.21247,3.14668 -0.53163,4.69336 -0.92969,5.33008 -1.18899,1.90182 -0.41809,3.87875 2.375,6.08985 9.84469,7.79325 7.10248,19.02262 -8.97852,36.77148 -27.41274,30.25589 -48.00436,73.53408 -53.25,111.91602 -2.4578,17.98358 -0.90325,67.66252 2.32618,74.32617 1.60957,3.32129 1.56716,5.95152 -0.15821,9.73828 -3.72754,8.18106 -3.09224,47.71655 0.85742,53.35547 2.94182,4.20003 2.94182,5.02583 0,9.51562 -4.61095,7.03716 -4.57736,47.29997 0.0469,56.24219 2.16824,4.19276 2.89828,9.07547 2.16992,14.50586 -0.60384,4.5019 -0.22114,9.82571 0.85156,11.83008 1.44168,2.69379 0.61257,6.15993 -3.18359,13.29101 -5.99223,11.25636 -6.27829,14.78194 -1.93555,23.9336 2.42392,5.10803 2.67099,7.737 1.01563,10.83007 -2.76601,5.16832 -2.89991,46.30432 -0.15625,48 2.63214,1.62675 2.63214,10.55294 0,12.17969 -2.77493,1.715 -2.57426,37.41862 0.25586,45.53711 1.75133,5.02384 1.68596,7.675 -0.27539,11.33985 -1.84101,3.43993 -2.28856,12.25338 -1.59766,31.38671 0.52835,14.63177 0.19368,27.07591 -0.74219,27.6543 -2.30922,1.42717 -2.0609,16.07538 0.45703,26.99805 3.37313,14.63252 15.15577,38.05602 21.10352,41.95312 2.98741,1.95743 11.08072,5.19023 17.98437,7.1836 14.10774,4.07347 33.32483,3.95417 35.90625,-0.22266 0.91546,-1.48123 0.83073,-4.88436 -0.1875,-7.5625 -1.01822,-2.67811 -1.85156,-8.28096 -1.85156,-12.45117 0,-4.17019 -0.79161,-8.44905 -1.75976,-9.50977 -2.5975,-2.84588 -8.39063,-21.21072 -8.39063,-26.59961 0,-3.12614 -2.0055,-5.69844 -6.08984,-7.81054 -7.19653,-3.72146 -7.73515,-6.31066 -1.71094,-8.22266 3.15156,-1.00027 5.28635,-0.19947 7.61328,2.85547 2.25771,2.96405 4.11338,3.69419 6.14844,2.42187 2.29431,-1.43436 2.39693,-2.44509 0.48242,-4.75195 -4.63988,-5.5907 2.86359,-8.4372 25.15039,-9.54102 32.87213,-1.62806 30.76778,-3.4906 -9.19726,-8.14062 -10.57149,-1.23001 -19.65268,-2.6683 -20.17969,-3.19531 -0.52701,-0.52701 -0.72069,-5.44303 -0.42969,-10.92578 0.291,-5.48276 -0.52272,-11.93522 -1.80859,-14.33789 -1.28587,-2.40265 -1.76573,-4.94131 -1.06641,-5.64063 0.69933,-0.69866 9.22414,-1.02265 18.94336,-0.71875 25.35312,0.79275 73.38017,-1.94041 68.42383,-3.89453 -2.2331,-0.88045 -15.02329,-1.77891 -28.42188,-1.99609 -13.39859,-0.21716 -30.74332,-0.96731 -38.54492,-1.66602 l -14.18555,-1.26953 -1.1582,-7.17383 c -0.63668,-3.94584 -1.98997,-8.51348 -3.00781,-10.15039 -1.01784,-1.63688 -1.59095,-8.29203 -1.27344,-14.78906 0.32277,-6.60476 -0.42245,-13.01985 -1.69141,-14.54883 -2.45337,-2.95614 -1.53362,-3.43192 12.1543,-6.2832 l 7.10547,-1.47852 -6.69141,-2.77539 c -3.67983,-1.52645 -6.17635,-3.60768 -5.54882,-4.62305 0.62753,-1.01537 0.21288,-2.41978 -0.92188,-3.12109 -1.13476,-0.70132 -2.0625,-3.04763 -2.0625,-5.21484 0,-2.1672 -0.91471,-3.94141 -2.03125,-3.94141 -1.11655,0 -2.03501,-3.42427 -2.04101,-7.61133 -0.006,-4.18706 -0.92947,-13.09367 -2.05079,-19.79297 -1.98296,-11.84709 -1.88939,-12.31387 3.45313,-16.99414 4.63524,-4.06067 5.03518,-5.17022 2.55859,-7.10547 -1.61416,-1.26131 -4.47568,-5.62944 -6.35937,-9.70703 -3.28623,-7.11364 -3.26319,-7.55983 0.56836,-11.02734 3.10849,-2.81316 8.89042,-3.86817 26.09765,-4.76563 24.53404,-1.27959 32.43022,-4.11495 12.11524,-4.34961 -7.16452,-0.0828 -17.13569,-0.77006 -22.16016,-1.52734 -7.77798,-1.1723 -9.13672,-2.07033 -9.13672,-6.04297 0,-2.56628 -2.22292,-6.34861 -4.9414,-8.40625 -4.77319,-3.61291 -4.82628,-3.92019 -1.52344,-8.96094 1.88106,-2.87088 3.41992,-8.4724 3.41992,-12.44726 0,-5.91612 -0.95765,-7.59055 -5.28125,-9.23438 -4.02797,-1.53143 -4.90015,-2.8453 -3.67578,-5.5332 0.88298,-1.93843 1.73941,-11.31047 1.9043,-20.82617 0.27222,-15.71102 0.79747,-17.83725 5.70703,-23.13477 6.29372,-6.79103 6.58662,-8.69139 2.10937,-13.63867 -2.34282,-2.58879 -3.5968,-9.09233 -4.33789,-22.49023 -0.71873,-12.99375 -1.91394,-19.36019 -3.84765,-20.49414 -2.14553,-1.25815 -0.82707,-3.54432 5.60742,-9.72657 4.62683,-4.44547 8.06908,-8.37778 7.65039,-8.73828 -0.41869,-0.36048 -2.77605,-1.703 -5.24024,-2.98437 -5.88823,-3.06184 -7.845,-13.95504 -5.11523,-28.47266 1.84781,-9.82717 1.67883,-11.72047 -1.24023,-13.99023 -2.86947,-2.23119 -3.36995,-6.95218 -3.33985,-31.4668 0.0346,-28.14328 0.19209,-29.17286 6.48633,-42.5332 7.01653,-14.89351 15.50773,-27.25355 21.89844,-31.87696 2.23368,-1.61597 10.1953,-9.15445 17.69336,-16.75 l 13.63281,-13.80859 h 12.61719 c 11.34021,0 13.90997,0.84106 25.39257,8.32226 28.48307,18.55745 47.29725,45.51706 58.6543,84.04688 5.73763,19.46537 6.74162,36.45629 4.32227,73.08203 -1.48589,22.49451 -1.49101,24.41994 -0.16211,55.72656 0.76037,17.91278 0.34841,26.62888 -1.41602,29.92579 -1.91517,3.57861 -1.94544,5.84867 -0.12695,9.83984 1.30014,2.85346 2.36523,11.89945 2.36523,20.10156 0,11.93465 -0.66412,15.16748 -3.32226,16.1875 -3.07524,1.18007 -3.07524,1.54723 0,4.94531 4.36498,4.82325 4.24138,14.3847 -0.23047,17.7793 -2.07123,1.5723 -9.05485,2.73717 -16.74805,2.79297 -12.71343,0.0921 -20.63159,2.41136 -17.82226,5.2207 1.04085,1.04084 22.84063,4.30714 32.53906,4.875 3.9348,0.23037 0.89918,6.5162 -4.05664,8.40039 -3.06846,1.16663 -6.95007,3.35652 -8.62695,4.86719 -1.67687,1.51067 -8.07383,4.05403 -14.21485,5.65234 l -11.16601,2.90625 14.21093,1.33594 c 7.81584,0.73469 17.86581,2.48561 22.33204,3.89063 7.95587,2.50282 8.11216,2.73491 7.70507,11.45508 -0.22855,4.89525 -1.25895,9.74332 -2.28906,10.77343 -1.10252,1.10248 -1.16044,4.93928 -0.14062,9.32813 0.95286,4.1008 1.75465,16.50629 1.78125,27.5664 0.0439,18.246 -0.41274,20.7119 -4.91993,26.6211 l -4.96679,6.51367 4.96679,2.26367 c 4.6239,2.10679 4.96875,3.31045 4.96875,17.41211 0,8.33217 -0.91841,15.71559 -2.03906,16.4082 -1.12065,0.69259 -1.47418,3.4989 -0.78711,6.23633 1.76975,7.05128 -1.9473,10.42896 -14.58789,13.25781 -6.05475,1.35499 -11.00781,3.23105 -11.00781,4.16993 0,0.93887 6.3951,1.70703 14.21094,1.70703 h 14.21093 v 14.34375 c 0,17.02419 -1.95468,21.46822 -10.13476,23.04883 -20.03934,3.87209 -19.19301,3.55722 -15.35156,5.70703 1.98986,1.11358 7.89214,1.45849 13.11523,0.76562 l 9.49609,-1.25976 2.71875,12.25586 c 3.18109,14.33899 1.95128,26.48841 -4.10742,40.57226 -4.11143,9.55709 -4.14916,16.22266 -0.0937,16.22266 4.52123,0 13.12661,-20.20387 16.59375,-38.95899 1.72915,-9.35382 1.54549,-12.94781 -0.96289,-18.95117 -2.37303,-5.67945 -2.64022,-9.38046 -1.14453,-15.85937 3.15675,-13.67417 2.49803,-37.22245 -1.24414,-44.45899 -2.76313,-5.34333 -2.86806,-7.04647 -0.64844,-10.55664 1.45569,-2.30208 3.05512,-11.77075 3.55469,-21.04101 0.71228,-13.21736 0.13367,-18.57473 -2.68359,-24.82227 -3.02599,-6.71042 -3.16445,-8.48396 -0.87696,-11.24023 3.89856,-4.69749 5.1641,-37.73973 1.83203,-47.83594 -2.01046,-6.09177 -2.07126,-8.54006 -0.25781,-10.35352 3.6105,-3.61049 2.84788,-14.1904 -1.77734,-24.64648 -2.92093,-6.60345 -3.76446,-11.45944 -2.84375,-16.36719 0.71997,-3.83776 0.21837,-10.27756 -1.11328,-14.3125 -2.23793,-6.78101 -2.03631,-7.6939 2.65429,-12.04102 4.7416,-4.39436 5.08764,-6.06328 5.28516,-25.43359 0.15715,-15.40864 -0.64885,-22.54408 -3.13867,-27.79101 -2.87047,-6.04905 -2.95988,-7.7876 -0.625,-12.1504 3.66194,-6.84239 3.96626,-48.2476 0.38086,-51.83398 -3.18651,-3.18728 -3.2825,-10.31711 -0.18164,-13.41797 1.60741,-1.6074 2.38537,-14.14285 2.45117,-39.48633 0.0905,-34.8303 -0.24791,-38.26132 -5.46875,-55.40039 -10.25147,-33.65366 -25.77876,-61.77417 -49.64063,-89.90234 -8.8268,-10.40496 -11.36635,-14.99323 -12.15039,-21.94922 -0.89802,-7.96724 -0.49004,-9.02201 4.33985,-11.22266 5.16916,-2.35522 6.75483,-5.7647 3.97461,-8.54492 -0.24415,-0.24415 -0.44949,-1.63069 -0.60743,-3.84765 -1.06495,-5.067692 -30.37305,-7.707058 -57.83593,-7.652348 z m -12.67969,23.029298 c 1.63874,-0.0159 3.07945,0.95445 5.26172,3.13672 5.01619,5.01619 4.74405,4.96886 25.09375,4.34765 15.47667,-0.47245 15.73242,-0.39998 15.73242,4.4961 0,4.85296 -0.49376,5.00911 -19.79297,6.28711 -30.94039,2.04889 -45.17101,1.67846 -46.22461,-1.20508 -0.50996,-1.39568 -1.16658,-4.82191 -1.45898,-7.61328 -0.4671,-4.45901 0.3316,-5.14406 6.57422,-5.64453 3.90792,-0.31329 9.05987,-1.55643 11.44921,-2.76172 1.32789,-0.66985 2.38199,-1.03344 3.36524,-1.04297 z"
       style="fill:url(#radialGradient990);fill-opacity:1;stroke-width:2.03009"
       id="path938" /><path
       id="path988"
       d="m 363.73633,764.0293 c -6.26633,0.0454 -8.96448,1.18505 -14.41016,4.35742 -7.30213,4.25385 -8.63108,6.02751 -8.64648,11.53906 -0.0137,4.87926 1.64057,7.89909 6.59765,12.04102 5.91548,4.94274 8.22846,5.52396 21.8418,5.50976 25.46498,-0.0285 69.54295,-3.6406 71.78516,-5.88281 1.16114,-1.16113 5.40801,-2.11133 9.4375,-2.11133 10.40763,0 14.66017,-3.72128 13.84375,-12.11328 -0.90875,-9.34101 -5.15482,-10.08631 -8.72852,-1.5332 -2.59732,6.21622 -3.96159,7.12514 -12.03515,8.03515 -12.16539,1.3712 -37.76172,-0.55856 -37.76172,-2.84765 0,-1.00374 -3.02403,-4.85021 -6.72071,-8.54688 -6.2633,-6.26331 -7.88845,-6.8027 -23.85351,-7.91797 -4.9152,-0.34335 -8.50128,-0.54995 -11.34961,-0.52929 z"
       style="fill:url(#radialGradient1005);fill-opacity:1;stroke-width:2.03009" /><path
       id="path986"
       d="m 413.00586,704.21875 c -5.02447,0 -9.70057,0.9147 -10.39063,2.03125 -0.76545,1.23851 2.30754,2.0293 7.88086,2.0293 5.02447,0 9.70057,-0.91275 10.39063,-2.0293 0.76545,-1.23852 -2.30754,-2.03125 -7.88086,-2.03125 z"
       style="fill:url(#radialGradient1032);fill-opacity:1;stroke-width:2.03009" /><path
       id="path984"
       d="m 360.99805,602.94141 c -2.02375,0 -4.04678,0.11703 -5.58203,0.34961 -3.07051,0.46514 -0.55899,0.8457 5.58203,0.8457 6.14103,0 8.65449,-0.38056 5.58398,-0.8457 -1.53525,-0.23258 -3.56024,-0.34961 -5.58398,-0.34961 z"
       style="fill:url(#radialGradient975);fill-opacity:1;stroke-width:2.03009" /><path
       sodipodi:nodetypes="csssscccc"
       d="m 322.6047,99.443382 c 0.21941,-4.360533 0.26326,-10.089865 0.0779,-16.039759 -0.68309,-21.92926 1.45256,-31.523625 7.54329,-33.888095 8.56739,-3.32592 53.72581,-5.55268 71.76457,-3.53871 25.77333,2.87752 26.43489,3.78527 25.80104,35.401135 -0.1401,6.988279 -0.35307,12.614715 -0.27789,16.913716 0.39875,3.672661 -0.3899,2.818841 -3.09708,2.576191 -16.11316,-1.413565 -87.52905,-1.383953 -100.03995,-0.1007 -1.82421,-0.0913 -1.69159,-0.0217 -1.7719,-1.323778 z"
       style="fill:url(#linearGradient955);fill-opacity:1;stroke-width:2.03009"
       id="path936" /></g><path
     style="color:#000000;font-style:normal;font-variant:normal;font-weight:normal;font-stretch:normal;font-size:medium;line-height:normal;font-family:sans-serif;font-variant-ligatures:normal;font-variant-position:normal;font-variant-caps:normal;font-variant-numeric:normal;font-variant-alternates:normal;font-variant-east-asian:normal;font-feature-settings:normal;font-variation-settings:normal;text-indent:0;text-align:start;text-decoration:none;text-decoration-line:none;text-decoration-style:solid;text-decoration-color:#000000;letter-spacing:normal;word-spacing:normal;text-transform:none;writing-mode:lr-tb;direction:ltr;text-orientation:mixed;dominant-baseline:auto;baseline-shift:baseline;text-anchor:start;white-space:normal;shape-padding:0;shape-margin:0;inline-size:0;clip-rule:nonzero;display:inline;overflow:visible;visibility:visible;isolation:auto;mix-blend-mode:normal;color-interpolation:sRGB;color-interpolation-filters:linearRGB;solid-color:#000000;solid-opacity:1;vector-effect:none;fill:url(#linearGradient1075);fill-opacity:1;fill-rule:nonzero;stroke:none;stroke-width:19.1625;stroke-linecap:round;stroke-linejoin:round;stroke-miterlimit:4;stroke-dasharray:none;stroke-dashoffset:6.32016;stroke-opacity:1;color-rendering:auto;image-rendering:auto;shape-rendering:auto;text-rendering:auto;enable-background:accumulate;stop-color:#000000"
     d="m 272.39062,370.52148 a 9.5822083,9.5822083 0 0 0 -9.58203,9.58008 V 546.4043 a 9.5822083,9.5822083 0 0 0 9.58203,9.58203 h 211.68165 a 9.5822083,9.5822083 0 0 0 9.58203,-9.58203 V 380.10156 a 9.5822083,9.5822083 0 0 0 -9.58203,-9.58008 z"
     id="path1061" /><path
     style="color:#000000;font-style:normal;font-variant:normal;font-weight:normal;font-stretch:normal;font-size:medium;line-height:normal;font-family:sans-serif;font-variant-ligatures:normal;font-variant-position:normal;font-variant-caps:normal;font-variant-numeric:normal;font-variant-alternates:normal;font-variant-east-asian:normal;font-feature-settings:normal;font-variation-settings:normal;text-indent:0;text-align:start;text-decoration:none;text-decoration-line:none;text-decoration-style:solid;text-decoration-color:#000000;letter-spacing:normal;word-spacing:normal;text-transform:none;writing-mode:lr-tb;direction:ltr;text-orientation:mixed;dominant-baseline:auto;baseline-shift:baseline;text-anchor:start;white-space:normal;shape-padding:0;shape-margin:0;inline-size:0;clip-rule:nonzero;display:inline;overflow:visible;visibility:visible;opacity:0.712418;isolation:auto;mix-blend-mode:normal;color-interpolation:sRGB;color-interpolation-filters:linearRGB;solid-color:#000000;solid-opacity:1;vector-effect:none;fill:url(#linearGradient1097);fill-opacity:1;fill-rule:evenodd;stroke:none;stroke-width:100;stroke-linecap:butt;stroke-linejoin:miter;stroke-miterlimit:4;stroke-dasharray:none;stroke-dashoffset:0;stroke-opacity:1;color-rendering:auto;image-rendering:auto;shape-rendering:auto;text-rendering:auto;enable-background:accumulate;stop-color:#000000;stop-opacity:1"
     d="m 477.93945,404.74805 c -65.90604,-1.26109 -84.53712,85.70591 -194.81445,98.1914 -5.9735,2.8789 -6.61838,15.36775 1.37695,15.40625 117.71724,-6.27507 108.73873,-46.61369 193.4375,-54.45117 z"
     id="path1081"
     sodipodi:nodetypes="ccccc" /></g></svg>
