<svg xmlns="http://www.w3.org/2000/svg" xmlns:xlink="http://www.w3.org/1999/xlink" xml:space="preserve" id="Layer_1" width="790.138" height="790.138" x="0" y="0" viewBox="0 0 790.138 790.138"><defs id="defs40"><linearGradient id="linearGradient1095"><stop id="stop1091" offset="0" style="stop-color:#f6f7fa;stop-opacity:1"/><stop id="stop1099" offset=".479" style="stop-color:#f6f7fa;stop-opacity:.560976"/><stop id="stop1093" offset="1" style="stop-color:#f6f7fa;stop-opacity:1"/></linearGradient><linearGradient id="linearGradient1048"><stop id="stop1044" offset="0" style="stop-color:#3068a1;stop-opacity:1"/><stop id="stop1054" offset=".258" style="stop-color:#6db5e7;stop-opacity:1"/><stop id="stop1052" offset=".44" style="stop-color:#74bbef;stop-opacity:1"/><stop id="stop1046" offset="1" style="stop-color:#346da6;stop-opacity:1"/></linearGradient><linearGradient id="linearGradient1019"><stop id="stop1009" offset="0" style="stop-color:#f1f1f6;stop-opacity:1"/><stop id="stop1017" offset="1" style="stop-color:#717173;stop-opacity:1"/></linearGradient><linearGradient id="linearGradient1003"><stop id="stop993" offset="0" style="stop-color:#f6f7fa;stop-opacity:1"/><stop id="stop995" offset=".158" style="stop-color:#dcdfe8;stop-opacity:1"/><stop id="stop997" offset=".367" style="stop-color:#f1f3f8;stop-opacity:1"/><stop id="stop999" offset=".82" style="stop-color:#f1f0f4;stop-opacity:1"/><stop id="stop1001" offset="1" style="stop-color:#717173;stop-opacity:1"/></linearGradient><linearGradient id="linearGradient965"><stop id="stop961" offset="0" style="stop-color:#464648;stop-opacity:1"/><stop id="stop969" offset=".158" style="stop-color:#b9b9c3;stop-opacity:1"/><stop id="stop971" offset=".367" style="stop-color:#f1f3f8;stop-opacity:1"/><stop id="stop973" offset=".82" style="stop-color:#f1f0f4;stop-opacity:1"/><stop id="stop963" offset="1" style="stop-color:#717173;stop-opacity:1"/></linearGradient><linearGradient id="linearGradient951"><stop id="stop947" offset="0" style="stop-color:#5aa6d0;stop-opacity:1"/><stop id="stop957" offset=".39" style="stop-color:#7bc1f8;stop-opacity:1"/><stop id="stop949" offset="1" style="stop-color:#2b639c;stop-opacity:1"/></linearGradient><linearGradient xlink:href="#linearGradient951" id="linearGradient955" x1="322.503" x2="428.058" y1="74.029" y2="74.029" gradientUnits="userSpaceOnUse"/><linearGradient xlink:href="#linearGradient1048" id="linearGradient1075" x1="262.809" x2="493.654" y1="463.254" y2="463.254" gradientUnits="userSpaceOnUse"/><linearGradient xlink:href="#linearGradient1095" id="linearGradient1097" x1="280.572" x2="479.939" y1="460.54" y2="460.54" gradientTransform="translate(-2,1)" gradientUnits="userSpaceOnUse" patternTransform="translate(-2px,1px)"/><radialGradient xlink:href="#linearGradient965" id="radialGradient975" cx="379.349" cy="458.359" r="115.242" fx="379.349" fy="458.359" gradientTransform="matrix(1,0,0,3.7256072,0,-1224.8961)" gradientUnits="userSpaceOnUse" patternTransform="matrix(1,0,0,3.7256,0,-1224.9)"/><radialGradient xlink:href="#linearGradient1003" id="radialGradient990" cx="379.349" cy="458.359" r="115.242" fx="379.349" fy="458.359" gradientTransform="matrix(1,0,0,3.7256072,0,-1224.8961)" gradientUnits="userSpaceOnUse" patternTransform="matrix(1,0,0,3.7256,0,-1224.9)"/><radialGradient xlink:href="#linearGradient1019" id="radialGradient1005" cx="389.417" cy="555.997" r="115.242" fx="389.417" fy="555.997" gradientTransform="matrix(0.55053882,-0.0112979,0.00278618,0.13576852,170.34263,714.07458)" gradientUnits="userSpaceOnUse" patternTransform="matrix(.999789,-.0205236,.0205236,.999789,170.389,714.256)scale(.55065,.1358)"/><radialGradient xlink:href="#linearGradient965" id="radialGradient1032" cx="379.349" cy="458.359" r="115.242" fx="379.349" fy="458.359" gradientTransform="matrix(1,0,0,3.7256072,0,-1224.8961)" gradientUnits="userSpaceOnUse" patternTransform="matrix(1,0,0,3.7256,0,-1224.9)"/></defs><g id="g1109" transform="rotate(34.5 572.29 434.744)scale(1.09224)"><g id="g1030" transform="translate(3.128 21.898)"><path id="path938" d="M370.223 95.195c-24.232.049-47.028 2.194-47.72 6.62-.212 3.146-.53 4.693-.929 5.33-1.189 1.901-.418 3.878 2.375 6.09 9.845 7.793 7.103 19.022-8.978 36.77-27.413 30.257-48.005 73.535-53.25 111.917-2.458 17.983-.904 67.662 2.326 74.326 1.61 3.321 1.567 5.952-.158 9.738-3.728 8.181-3.093 47.717.857 53.356 2.942 4.2 2.942 5.026 0 9.515-4.61 7.038-4.577 47.3.047 56.243 2.168 4.192 2.898 9.075 2.17 14.505-.604 4.502-.221 9.826.851 11.83 1.442 2.694.613 6.16-3.183 13.292-5.992 11.256-6.278 14.781-1.936 23.933 2.424 5.108 2.671 7.737 1.016 10.83-2.766 5.169-2.9 46.305-.156 48 2.632 1.627 2.632 10.553 0 12.18-2.775 1.715-2.575 37.419.256 45.537 1.75 5.024 1.686 7.675-.276 11.34-1.84 3.44-2.288 12.253-1.597 31.387.528 14.631.193 27.075-.743 27.654-2.309 1.427-2.06 16.075.457 26.998 3.373 14.632 15.156 38.056 21.104 41.953 2.987 1.957 11.08 5.19 17.984 7.184 14.108 4.073 33.325 3.954 35.906-.223.916-1.481.831-4.884-.187-7.563s-1.852-8.28-1.852-12.45-.791-8.45-1.76-9.51c-2.597-2.846-8.39-21.211-8.39-26.6 0-3.126-2.005-5.698-6.09-7.81-7.196-3.722-7.735-6.311-1.71-8.223 3.15-1 5.286-.2 7.613 2.855 2.257 2.964 4.113 3.694 6.148 2.422 2.294-1.434 2.397-2.445.482-4.752-4.64-5.59 2.864-8.437 25.15-9.54 32.873-1.629 30.769-3.491-9.196-8.142-10.572-1.23-19.653-2.668-20.18-3.195s-.72-5.443-.43-10.926c.291-5.482-.523-11.935-1.808-14.337-1.286-2.403-1.766-4.942-1.067-5.641s9.224-1.023 18.944-.719c25.353.793 73.38-1.94 68.423-3.894-2.233-.88-15.023-1.78-28.422-1.996-13.398-.218-30.743-.968-38.544-1.667l-14.186-1.269-1.158-7.174c-.637-3.946-1.99-8.513-3.008-10.15s-1.591-8.292-1.273-14.79c.322-6.604-.423-13.02-1.692-14.548-2.453-2.956-1.533-3.432 12.154-6.283l7.106-1.479-6.692-2.775c-3.68-1.527-6.176-3.608-5.548-4.623.627-1.016.213-2.42-.922-3.121s-2.063-3.048-2.063-5.215-.914-3.942-2.031-3.942-2.035-3.424-2.041-7.611-.93-13.094-2.05-19.793c-1.984-11.847-1.89-12.314 3.452-16.994 4.636-4.06 5.036-5.17 2.559-7.106-1.614-1.26-4.476-5.629-6.36-9.707-3.286-7.113-3.263-7.56.569-11.027 3.108-2.813 8.89-3.868 26.098-4.766 24.534-1.28 32.43-4.114 12.115-4.35-7.165-.082-17.136-.77-22.16-1.526-7.778-1.173-9.137-2.07-9.137-6.043 0-2.567-2.223-6.35-4.941-8.407-4.774-3.613-4.827-3.92-1.524-8.96 1.881-2.872 3.42-8.473 3.42-12.448 0-5.916-.958-7.59-5.281-9.234-4.028-1.532-4.9-2.846-3.676-5.533.883-1.939 1.74-11.311 1.904-20.827.273-15.71.798-17.837 5.707-23.134 6.294-6.791 6.587-8.692 2.11-13.64-2.343-2.588-3.597-9.091-4.338-22.49-.719-12.993-1.914-19.36-3.848-20.493-2.145-1.259-.827-3.545 5.608-9.727 4.626-4.446 8.069-8.378 7.65-8.738s-2.776-1.703-5.24-2.985c-5.888-3.062-7.845-13.955-5.115-28.472 1.847-9.828 1.678-11.72-1.24-13.99-2.87-2.232-3.37-6.953-3.34-31.467.034-28.144.192-29.173 6.486-42.534 7.016-14.893 15.507-27.253 21.898-31.877 2.234-1.616 10.196-9.154 17.694-16.75l13.632-13.808h12.617c11.34 0 13.91.84 25.393 8.322 28.483 18.558 47.297 45.517 58.654 84.047 5.738 19.465 6.742 36.456 4.323 73.082-1.486 22.495-1.491 24.42-.162 55.727.76 17.912.348 26.628-1.416 29.925-1.916 3.579-1.946 5.85-.127 9.84 1.3 2.854 2.365 11.9 2.365 20.102 0 11.934-.664 15.167-3.322 16.187-3.076 1.18-3.076 1.548 0 4.946 4.365 4.823 4.241 14.384-.23 17.779-2.072 1.572-9.056 2.737-16.749 2.793-12.713.092-20.632 2.411-17.822 5.22 1.04 1.041 22.84 4.308 32.539 4.876 3.935.23.9 6.516-4.057 8.4-3.068 1.167-6.95 3.356-8.627 4.867-1.677 1.51-8.074 4.054-14.215 5.652l-11.166 2.907 14.211 1.336c7.816.734 17.866 2.485 22.332 3.89 7.956 2.503 8.113 2.735 7.705 11.455-.228 4.896-1.258 9.744-2.289 10.774-1.102 1.102-1.16 4.94-.14 9.328.953 4.1 1.754 16.506 1.781 27.566.044 18.246-.413 20.712-4.92 26.621l-4.967 6.514 4.967 2.264c4.624 2.107 4.969 3.31 4.969 17.412 0 8.332-.919 15.715-2.04 16.408s-1.473 3.499-.786 6.236c1.77 7.052-1.948 10.43-14.588 13.258-6.055 1.355-11.008 3.231-11.008 4.17s6.395 1.707 14.21 1.707h14.21v14.344c.002 17.024-1.953 21.468-10.133 23.049-20.04 3.872-19.193 3.557-15.351 5.707 1.99 1.113 7.892 1.458 13.115.765l9.496-1.26 2.719 12.257c3.18 14.339 1.95 26.488-4.108 40.572-4.111 9.557-4.149 16.222-.094 16.222 4.522 0 13.127-20.203 16.594-38.959 1.73-9.353 1.546-12.947-.963-18.95-2.373-5.68-2.64-9.381-1.144-15.86 3.157-13.674 2.498-37.223-1.244-44.46-2.763-5.342-2.868-7.046-.649-10.556 1.456-2.302 3.055-11.77 3.555-21.04.712-13.218.134-18.575-2.684-24.823-3.026-6.71-3.164-8.484-.877-11.24 3.899-4.698 5.164-37.74 1.832-47.836-2.01-6.092-2.07-8.54-.257-10.354 3.61-3.61 2.847-14.19-1.778-24.646-2.92-6.604-3.764-11.46-2.843-16.367.72-3.838.218-10.278-1.114-14.313-2.238-6.78-2.036-7.694 2.655-12.04 4.741-4.395 5.087-6.064 5.285-25.434.157-15.41-.65-22.545-3.139-27.791-2.87-6.05-2.96-7.788-.625-12.15 3.662-6.843 3.966-48.248.38-51.835-3.186-3.187-3.282-10.317-.18-13.418 1.607-1.607 2.385-14.143 2.45-39.486.09-34.83-.248-38.261-5.468-55.4-10.252-33.654-25.78-61.775-49.641-89.903-8.827-10.405-11.366-14.993-12.15-21.95-.898-7.966-.49-9.021 4.34-11.222 5.169-2.355 6.754-5.764 3.974-8.545-.244-.244-.45-1.63-.607-3.847-1.065-5.068-30.373-7.707-57.836-7.653m-12.68 23.03c1.639-.016 3.08.954 5.262 3.136 5.016 5.017 4.744 4.97 25.093 4.348 15.477-.472 15.733-.4 15.733 4.496 0 4.853-.494 5.01-19.793 6.287-30.94 2.05-45.171 1.679-46.225-1.205-.51-1.396-1.166-4.822-1.459-7.613-.467-4.46.332-5.144 6.575-5.645 3.907-.313 9.06-1.556 11.449-2.761 1.328-.67 2.382-1.034 3.365-1.043" style="fill:url(#radialGradient990);fill-opacity:1;stroke-width:2.03009px"/><path id="path988" d="M363.736 764.03c-6.266.045-8.964 1.184-14.41 4.357-7.302 4.254-8.63 6.027-8.646 11.539-.014 4.879 1.64 7.899 6.597 12.04 5.916 4.944 8.229 5.525 21.842 5.51 25.465-.028 69.543-3.64 71.785-5.882 1.161-1.161 5.408-2.112 9.438-2.112 10.407 0 14.66-3.72 13.844-12.113-.91-9.34-5.155-10.086-8.729-1.533-2.597 6.216-3.962 7.125-12.035 8.035-12.166 1.371-37.762-.558-37.762-2.848 0-1.003-3.024-4.85-6.72-8.546-6.264-6.264-7.889-6.803-23.854-7.918-4.915-.344-8.501-.55-11.35-.53" style="fill:url(#radialGradient1005);fill-opacity:1;stroke-width:2.03009px"/><path id="path986" d="M413.006 704.219c-5.025 0-9.7.914-10.39 2.031-.766 1.239 2.307 2.03 7.88 2.03 5.025 0 9.7-.913 10.39-2.03.766-1.239-2.307-2.031-7.88-2.031" style="fill:url(#radialGradient1032);fill-opacity:1;stroke-width:2.03009px"/><path id="path984" d="M360.998 602.941c-2.024 0-4.047.117-5.582.35-3.07.465-.559.846 5.582.846s8.655-.38 5.584-.846c-1.535-.233-3.56-.35-5.584-.35" style="fill:url(#radialGradient975);fill-opacity:1;stroke-width:2.03009px"/><path id="path936" d="M322.605 99.443c.22-4.36.263-10.09.078-16.04-.683-21.929 1.452-31.523 7.543-33.887 8.567-3.326 53.726-5.553 71.764-3.54 25.774 2.878 26.435 3.786 25.801 35.402-.14 6.988-.353 12.615-.277 16.914.398 3.672-.39 2.819-3.097 2.576-16.114-1.414-87.53-1.384-100.04-.1-1.825-.092-1.692-.023-1.772-1.325" style="fill:url(#linearGradient955);fill-opacity:1;stroke-width:2.03009px"/></g><path id="path1061" d="M272.39 370.521a9.58 9.58 0 0 0-9.582 9.58v166.303a9.58 9.58 0 0 0 9.582 9.582h211.682a9.58 9.58 0 0 0 9.582-9.582V380.101a9.58 9.58 0 0 0-9.582-9.58Z" style="color:#000;font-variant:normal;font-variant-ligatures:normal;font-variant-position:normal;font-variant-numeric:normal;font-variant-alternates:normal;font-variant-east-asian:normal;font-feature-settings:normal;font-variation-settings:normal;text-indent:0;text-align:start;letter-spacing:normal;word-spacing:normal;text-transform:none;writing-mode:lr-tb;text-orientation:mixed;dominant-baseline:auto;baseline-shift:baseline;text-anchor:start;white-space:normal;shape-padding:0;shape-margin:0;clip-rule:nonzero;visibility:visible;isolation:auto;mix-blend-mode:normal;color-interpolation:srgb;color-interpolation-filters:linearrgb;solid-color:#000;solid-opacity:1;vector-effect:none;fill:url(#linearGradient1075);fill-opacity:1;fill-rule:nonzero;stroke:none;stroke-width:19.1625px;stroke-linecap:round;stroke-linejoin:round;stroke-miterlimit:4;stroke-dasharray:none;stroke-dashoffset:6.32016px;stroke-opacity:1;color-rendering:auto;image-rendering:auto;shape-rendering:auto;text-rendering:auto;enable-background:accumulate;stop-color:#000;direction:ltr;inline-size:0;font:medium sans-serif;text-decoration:none;display:inline;overflow:visible"/><path id="path1081" d="M477.94 404.748c-65.907-1.261-84.538 85.706-194.815 98.191-5.974 2.88-6.618 15.368 1.377 15.407 117.717-6.275 108.739-46.614 193.437-54.451Z" style="color:#000;font-variant:normal;font-variant-ligatures:normal;font-variant-position:normal;font-variant-numeric:normal;font-variant-alternates:normal;font-variant-east-asian:normal;font-feature-settings:normal;font-variation-settings:normal;text-indent:0;text-align:start;letter-spacing:normal;word-spacing:normal;text-transform:none;writing-mode:lr-tb;text-orientation:mixed;dominant-baseline:auto;baseline-shift:baseline;text-anchor:start;white-space:normal;shape-padding:0;shape-margin:0;clip-rule:nonzero;visibility:visible;opacity:.712418;isolation:auto;mix-blend-mode:normal;color-interpolation:srgb;color-interpolation-filters:linearrgb;solid-color:#000;solid-opacity:1;vector-effect:none;fill:url(#linearGradient1097);fill-opacity:1;fill-rule:evenodd;stroke:none;stroke-width:100px;stroke-linecap:butt;stroke-linejoin:miter;stroke-miterlimit:4;stroke-dasharray:none;stroke-dashoffset:0;stroke-opacity:1;color-rendering:auto;image-rendering:auto;shape-rendering:auto;text-rendering:auto;enable-background:accumulate;stop-color:#000;stop-opacity:1;direction:ltr;inline-size:0;font:medium sans-serif;text-decoration:none;display:inline;overflow:visible"/></g></svg>