<?xml version="1.0" encoding="UTF-8" standalone="no"?>
<svg
   xmlns:dc="http://purl.org/dc/elements/1.1/"
   xmlns:cc="http://creativecommons.org/ns#"
   xmlns:rdf="http://www.w3.org/1999/02/22-rdf-syntax-ns#"
   xmlns:svg="http://www.w3.org/2000/svg"
   xmlns="http://www.w3.org/2000/svg"
   xmlns:sodipodi="http://sodipodi.sourceforge.net/DTD/sodipodi-0.dtd"
   xmlns:inkscape="http://www.inkscape.org/namespaces/inkscape"
   version="1.1"
   id="Layer_1"
   x="0px"
   y="0px"
   viewBox="0 0 800 800"
   xml:space="preserve"
   sodipodi:docname="bread.svg"
   inkscape:version="1.0 (4035a4fb49, 2020-05-01)"
   width="800"
   height="800"><metadata
   id="metadata42"><rdf:RDF><cc:Work
       rdf:about=""><dc:format>image/svg+xml</dc:format><dc:type
         rdf:resource="http://purl.org/dc/dcmitype/StillImage" /><dc:title></dc:title></cc:Work></rdf:RDF></metadata><defs
   id="defs40">
	

		
		
		
		
		
		
		
		
		
		
		
		
		
	
			
		
			
		</defs><sodipodi:namedview
   inkscape:document-rotation="0"
   pagecolor="#ffffff"
   bordercolor="#666666"
   borderopacity="1"
   objecttolerance="10"
   gridtolerance="10"
   guidetolerance="10"
   inkscape:pageopacity="0"
   inkscape:pageshadow="2"
   inkscape:window-width="1920"
   inkscape:window-height="1017"
   id="namedview38"
   showgrid="false"
   inkscape:zoom="0.1767767"
   inkscape:cx="-1644.4604"
   inkscape:cy="91.958782"
   inkscape:window-x="-8"
   inkscape:window-y="-8"
   inkscape:window-maximized="1"
   inkscape:current-layer="Layer_1"
   fit-margin-top="0"
   fit-margin-left="0"
   fit-margin-right="0"
   fit-margin-bottom="0" />
<style
   type="text/css"
   id="style2">
	.st0{fill:none;stroke:#283005;stroke-width:29.6573;stroke-linejoin:round;stroke-miterlimit:10;}
	.st1{fill:#283005;}
	.st2{fill:#648912;}
	.st3{fill:#526B0D;}
	.st4{fill:#8FA833;}
	.st5{fill:#F8DF88;}
</style>

<g
   transform="matrix(1.7377975,0,0,1.7377975,874.5149,-0.54694619)"
   id="g909"><path
     id="path848-3"
     d="m -428.98767,181.57843 c 0,0 62.54764,125.63261 125.97063,131.04131 56.02935,4.77817 125.97044,-28.38256 142.3187,-51.14767 38.45996,-53.55584 45.878,-131.93532 -21.78573,-135.23863 -74.90282,14.86601 -55.94857,-11.39451 -90.63641,-14.16708 -5.14083,-0.4109 -20.30153,3.45583 -25.52763,6.63614 -54.96934,33.45123 -73.39567,8.35619 -101.12454,8.0302 -30.42001,-0.35762 -26.44698,35.11355 -29.21502,54.84573 z"
     style="fill:#cf7a15;fill-opacity:1;fill-rule:evenodd;stroke:none;stroke-width:0.934953px;stroke-linecap:butt;stroke-linejoin:miter;stroke-opacity:1"
     sodipodi:nodetypes="csscsscc" /><path
     id="path848"
     style="fill:#eb8f21;fill-opacity:1;fill-rule:evenodd;stroke:none;stroke-width:0.906588px;stroke-linecap:butt;stroke-linejoin:miter;stroke-opacity:1"
     d="m -272.23633,111.72266 c -49.12081,5.68836 -70.47918,80.71913 -65.70887,128.13481 -63.03011,29.29438 -26.55576,-64.09238 -36.05285,-91.35161 -9.07715,-26.05391 -31.60282,-22.26913 -38.33203,-20.4668 -48.2361,12.91939 -110.12314,109.266 -84.42773,170.16797 25.69541,60.90197 141.32427,91.35352 204.61718,91.50001 C -159.84772,398.35352 -79.740344,374.24442 -49.023438,300 -18.306532,225.75558 -109.56652,139.53756 -171.95117,128.33398 c -18.87288,-3.38936 -16.42207,9.45722 -39.06836,37.16407 -15.64216,19.13759 -14.30377,78.44683 -32.84464,82.21831 -75.71596,-13.27197 30.86819,-142.85394 -28.37216,-135.9937 z"
     sodipodi:nodetypes="scsssczsscs" /><path
     sodipodi:nodetypes="scssscssssss"
     d="m -276.83252,114.55109 c -52.57813,-2.44053 -78.62201,75.39802 -68.61268,126.30638 -40.55054,39.5729 -96.58181,-14.30574 -50.50996,-80.54095 23.14633,-33.27633 -15.65612,-30.54426 -22.38533,-28.74193 -48.2361,12.91939 -104.11273,105.73047 -78.41732,166.63244 25.69541,60.90197 141.32427,91.35352 204.61718,91.50001 63.29291,0.14648 178.92178,-30.30507 204.61719,-91.20704 25.69541,-60.90197 -38.54308,-150.46244 -84.42773,-170.16602 -17.61904,-7.56589 -41.00973,4.42717 -54.06836,42.66407 -8.00524,23.44012 -7.5133,102.27988 -51.36546,85.97136 -29.61313,-11.01305 -22.81585,-61.1201 -14.26091,-87.49208 6.67878,-20.58841 37.24756,-53.88491 14.81338,-54.92624 z"
     style="fill:#f0a346;fill-opacity:1;fill-rule:evenodd;stroke:none;stroke-width:0.906588px;stroke-linecap:butt;stroke-linejoin:miter;stroke-opacity:1"
     id="path848-2" /></g></svg>
