<svg xmlns="http://www.w3.org/2000/svg" xml:space="preserve" id="Layer_1" width="800" height="800" x="0" y="0" viewBox="0 0 800 800"><g id="g909" transform="translate(874.515 -.547)scale(1.7378)"><path id="path848-3" d="M-428.988 181.578s62.548 125.633 125.971 131.042c56.03 4.778 125.97-28.383 142.319-51.148 38.46-53.556 45.878-131.935-21.786-135.239-74.903 14.866-55.949-11.394-90.636-14.167-5.141-.41-20.302 3.456-25.528 6.636-54.97 33.452-73.396 8.357-101.125 8.03-30.42-.357-26.447 35.114-29.215 54.846" style="fill:#cf7a15;fill-opacity:1;fill-rule:evenodd;stroke:none;stroke-width:.934953px;stroke-linecap:butt;stroke-linejoin:miter;stroke-opacity:1"/><path id="path848" d="M-272.236 111.723c-49.121 5.688-70.48 80.719-65.71 128.134-63.03 29.295-26.555-64.092-36.052-91.351-9.077-26.054-31.603-22.27-38.332-20.467-48.236 12.92-110.123 109.266-84.428 170.168s141.324 91.354 204.617 91.5c132.293 8.647 212.4-15.463 243.118-89.707 30.716-74.244-60.544-160.462-122.928-171.666-18.873-3.39-16.422 9.457-39.069 37.164-15.642 19.138-14.303 78.447-32.844 82.218-75.716-13.272 30.868-142.854-28.372-135.993" style="fill:#eb8f21;fill-opacity:1;fill-rule:evenodd;stroke:none;stroke-width:.906588px;stroke-linecap:butt;stroke-linejoin:miter;stroke-opacity:1"/><path id="path848-2" d="M-276.833 114.551c-52.578-2.44-78.622 75.398-68.612 126.306-40.55 39.573-96.582-14.305-50.51-80.54 23.146-33.277-15.656-30.545-22.385-28.742-48.237 12.919-104.113 105.73-78.418 166.632 25.696 60.902 141.324 91.354 204.617 91.5 63.293.147 178.922-30.305 204.618-91.207 25.695-60.902-38.544-150.462-84.428-170.166-17.62-7.566-41.01 4.427-54.069 42.664-8.005 23.44-7.513 102.28-51.365 85.971-29.613-11.013-22.816-61.12-14.26-87.492 6.678-20.588 37.247-53.885 14.812-54.926" style="fill:#f0a346;fill-opacity:1;fill-rule:evenodd;stroke:none;stroke-width:.906588px;stroke-linecap:butt;stroke-linejoin:miter;stroke-opacity:1"/></g></svg>