<svg xmlns="http://www.w3.org/2000/svg" xmlns:xlink="http://www.w3.org/1999/xlink" xml:space="preserve" id="Layer_1" width="800" height="800" x="0" y="0" viewBox="0 0 800 800"><defs id="defs40"><linearGradient id="linearGradient1019"><stop id="stop1015" offset="0" style="stop-color:#252224;stop-opacity:1"/><stop id="stop1023" offset=".344" style="stop-color:#5d595c;stop-opacity:1"/><stop id="stop1017" offset="1" style="stop-color:#252224;stop-opacity:1"/></linearGradient><linearGradient id="linearGradient937"><stop id="stop933" offset="0" style="stop-color:#ef6807;stop-opacity:1"/><stop id="stop941" offset=".05" style="stop-color:#fda92c;stop-opacity:1"/><stop id="stop945" offset=".236" style="stop-color:#ffbd69;stop-opacity:1"/><stop id="stop943" offset=".526" style="stop-color:#fda92c;stop-opacity:1"/><stop id="stop935" offset="1" style="stop-color:#ef6807;stop-opacity:1"/></linearGradient><linearGradient xlink:href="#linearGradient937" id="linearGradient939" x1="-420.303" x2="-81.832" y1="-135.975" y2="-137.975" gradientUnits="userSpaceOnUse"/><linearGradient xlink:href="#linearGradient1019" id="linearGradient1530" x1="-402.751" x2="-93.263" y1="-502.852" y2="-502.852" gradientUnits="userSpaceOnUse"/><filter id="filter1499" width="1.053" height="1.095" x="-.026" y="-.047" style="color-interpolation-filters:srgb"><feGaussianBlur id="feGaussianBlur1501" stdDeviation="2.709"/></filter><filter id="filter1507" width="1.039" height="1.089" x="-.019" y="-.045" style="color-interpolation-filters:srgb"><feGaussianBlur id="feGaussianBlur1509" stdDeviation="2.029"/></filter><filter id="filter1515" width="1.039" height="1.017" x="-.019" y="-.009" style="color-interpolation-filters:srgb"><feGaussianBlur id="feGaussianBlur1517" stdDeviation="2.587"/></filter></defs><g id="g1528" transform="rotate(30 -875.508 1295.41)scale(.87718)"><path id="path930" d="m-404.998-415.365-7.652 2.428c-9.241 2.932-9.912 11.364-1.463 18.376 7.929 6.581 7.929 18.178 0 24.758l-6.19 5.137v123.646l20.631 24.518v31.742q-10.317 12.26-20.63 24.52v32.768c18.537 21.234 21.457 53.663 6.173 69.8-8.915 8.915-7.635 19.575 4.488 37.377 14.545 18.278 12.08 34.762-2.16 53.412-11.197 14.235-10.728 24.428 1.813 39.332 16.652 17.46 11.528 31.554-.108 50.824-12.345 20.044-12.66 26.712-1.918 40.37 4.559 5.795 9.458 16.382 10.887 23.527 1.92 23.338-16.48 33.76-15.574 59.34-1.374 22.327 4.842 27.996 15.053 45.935l22.666 11.37c72.896 23.983 157.565 30.003 232.832 9.456 29.399-9.279 50.292-20.32 63.199-45.584q1.901-262.01 3.806-524.021c-3.838-9.277-10.837-16.73-19.318-23.326-1.924-11.27-2.68-22.11 0-31.744 20.578-18.918 26.025-27.257 20.631-53.262-12.942-9.741-13.772-21.957-6.32-32.2 7.25-13.532 2.576-14.83-9.137-18.548-36.188-72.744-313.111-49.264-311.71.049" style="fill:url(#linearGradient939);fill-opacity:1;stroke-width:4.12616px"/><path id="path1069" d="M-321.277-276.392c20.575-15.708 28.18-47.243 34.113-73.652 21.301-9.754 116.492 5.657 116.492-11.844l-92.838-7.915 94.901-1.366c-31.978-11.102-76.327-6.947-111.822-8.063l-99.443-.063c-10.136 3.312-33.458 11.004-34.178 20.819 12.033 5.422 25.736 1.545 37.953 9.095-14.871 37.58-.937 67.746-2.944 106.99 21.787-1.716 107.665-33.461 57.766-34.001" style="opacity:.323529;fill:#fff;stroke-width:4.12616px;filter:url(#filter1499)"/><path id="path1067" d="M-336.446-158.819c54.268-19.258 102.311-37.03 151.617-56.232 16.64-6.034 28.81-14.257 40.977-24.646-33.293 8.926-58.284 11.96-13.715-7.444-2.53-14.733-16.598-10.115-27.671-8.475-56.987 18.5-111.617 38.604-169.048 55.369-14.206 16.352-31.261 28.665-40.95 46.377 3.047 14.672 52.334-2.825 58.79-4.949" style="opacity:.323529;fill:#fff;stroke-width:4.12616px;filter:url(#filter1507)"/><path id="path1037" d="M-400.514 272.087c-4.004-3.96-7.027-18.7-3.673-18.804 42.858 67.417 162.102 35.267 212.045 24.025-19.895-24.777 1.912-123.326 7.908-206.003 30.184-123.55-11.107-249.057 81.8-329.857-25.077-48.719-154.615 12.597-183.506 20.343-5.597 3.838-15.329-3.57-6.256-6.34 4.624.597 15.207-3.092 7.156-7.428-45.02 21.849-51.307.92-21.537 16.626-60.36 26.589-84.799 20.873-98.288 5.605-2.41-2.782-9.727-11.894-.706-8.993 94.507-6.359 195.111-56.905 273.8-93.827-30.12-28.325 16.433-25.955 20.742-37.194-31.957-28.67-95.01-20.528-132.786-23.785-14.1-1.128-28.54-1.79-42.007-6.443 61.267-2.877 173.894-6.572 173.894-6.572 39.211 1.41-.83 19.254 8.487 30.033 9.66 54.893-16.416 70.302 10.49 124.226l-2 513.989-31.266 31.228c-85.958 22.434-230.89 25.192-274.297-20.829m-9.21-32.968c-1.192-13.617 12.764 6.528 2.61 5.787-1.91-1.19-2.594-3.666-2.61-5.787m12.167-31.725c9.038-12.386-3.726-40.336 5.575-34.505 5.855 6.355 13.903 12.154 16.329 20.743-.817 7.48-12.799 3.736-15.83 11.397-10.532 12.364-13.955 18.635-6.074 2.365M-411.6 154.45c-3.662-3.403 2.44-15.091 4.672-4.419-1.414 7.859 3.686 24.324-4.672 4.419m-.847-98.086c32.917 32.223 36.343 27.69 18.67 56.299 1.192-23.904-5.776-37.871-18.67-56.299m4.501-90.274c22.493 21.082 36.237 28.6 11.71 52.398 7.478-19.72-4.344-35.652-11.71-52.398m-1.242-93.68c7.357 3.95 12.138 11.257 18.488 16.547 12.42 9.057 1.495 29.959-1.22 21.209-3.534-8.744-17.887-31.567-17.268-37.757m20.647-266.083c-3.897 2.485-15.133-2.416-8.717 5.082-20.277-8.491-6.657-23.921 8.717-5.082" style="mix-blend-mode:normal;fill:#ef6807;fill-opacity:1;stroke-width:4.10584px;filter:url(#filter1515)"/><path id="path1013" d="M-370.5-425c25 4 127-3.5 127-3.5s12-85-6.5-85-102.761-4.373-108.38 5.564C-364-498-370.5-425-370.5-425" style="fill:#b3afae;fill-opacity:1;fill-rule:evenodd;stroke:none;stroke-width:1px;stroke-linecap:butt;stroke-linejoin:miter;stroke-opacity:1"/><path id="path868" d="M-402.75-444.592c.2-12.438.261-25.24 4.584-37.07 1.448-3.784 4.267-7.974 8.75-8.089 4.334-.734 7.42-4.255 10.477-7.11 4.02-4.243 7.494-8.955 11.26-13.415 25.03-5.735 49.973-11.926 75.256-16.479l5.603-42.237c-20.224-10.324-8.564-15.94 7.51-18.438 9.71-2.365 83.237-8.563 81.216 9.001-.326 6.053-10.444 6.294-10.727 7.063v43.842c27.858 5.13 55.395 11.808 82.99 18.164 4.671 6.963 8.779 14.913 16.35 19.189 3.286 1.988 7.184 2.35 10.793 3.459 2.82 19.922 5.671 39.945 5.408 60.116-.003 3.728-.034 7.455-.009 11.182-20.582-1.714-41.14-3.889-61.793-4.53-35.981-1.406-71.997-1.807-108.003-1.648-31.567.212-63.143.784-94.67 2.449-15.02.965-29.994 2.52-44.996 3.729Zm57.765 10.562c.564-3.246-3.104-8.246-6.304-5.167-2.908 2.92-2.624 8.535.747 10.976 3.478 1.632 5.788-2.907 5.557-5.809m32.064-1.29c.738-2.461 2.99-5.96-1.166-4.881-3.986.05-8.205-.454-11.975 1.077-4.052 1.902-2.113 7.061.857 8.986 4.031 3.368 10.04.258 11.844-4.07l.237-.55Zm29.829-.773c.204-3.524-4.27-5.31-6.893-3.242-2.43 1.357-5.72 5.838-5.344 7.346 3.904-.168 8.86.972 11.7-2.457a2.9 2.9 0 0 0 .537-1.647m2.063-60.943c-26.156-1.501-50.42 2.12-74.271 6.27 27.061 1.715 48.025 1.107 74.27-6.27" style="fill:url(#linearGradient1530);fill-opacity:1;stroke-width:4.12616px"/><path id="path866" d="M-403.754-440.336c1.726-14.463 5.413-26.278 5.13-40.854l18.567-9.894-10.526 12.766 12.59 4.83-.263 47.71-12.116-16.018c-.34 11.141 2.028 13.97 8.83 21.135-7.415 1.418-16.04 3.878-23.456 5.296.849-7.063.395-17.908 1.244-24.971m18.29-18.45c.4-4.417.894-8.995-.463-13.303-2.99-2.72-3.702 3.832-3.96 5.887-.79 6.9-.682 13.935.516 20.779 3.185.106 3.589-10.689 3.908-13.364m263.292 40.5c-16.14-.93-32.25-2.574-48.147-5.559-2.211-2.81-2.701-7.765-4.096-11.451-2.409-9.167-2.537-18.756-2.298-28.177.295-7.514.94-15.009 1.368-22.516l22.227-9.188c-24.427-6.904-51.082-6.956-74.271-8.019 13.524-5.364 33.504-1.671 42.929-11.989-12.64-5.125-47.088-2.127-43.54-20.652-.82-12.119-1.042-24.277-1.452-36.42h-48.631c-5.807 15.68-3.877 34.04-7.225 48.564-4.65-1.712-.355-41.75-.11-47.524l.263-5.183c-1.903-.364-6.468-.143-6.632-.997 4.338-1.396 8.957-1.609 13.442-2.328 18.328-2.351 36.727-4.345 55.194-5.137 6.424-.056 13.12.505 18.916 3.468 11.487 8.344-3.013 5.012-9.792 5.012 2.699 16.054 5.614 32.212 5.189 48.56.045 2.098-.715 4.903 2.426 4.292 13.738 1.8 27.95 6.905 41.45 10.075 14.574 3.234 28.41 4.321 42.79 8.305.155 3.273-.762 7.11 1.85 9.698 4.188 5.148 11.23 6.01 16.29 9.965 2.43 1.744 4.63 4.206 4.854 7.32 2.645 20.579 4.067 41.304 3.033 60.573-2.182 2.816-6.693-.21-9.83.403-5.393-.435-10.795-.781-16.197-1.095m-38.033-43.85c-.929-1.18-2.65-4.847-3.1-4.354.367 13.477-2.982 26.62-5.507 39.755l11.567-3.856c.089-10.495 1.582-23.027-2.96-31.544m-205.085 15.384c.193-2.26.07-6.552.461-7.538 1.427 3.774 3.88 7.837 2.348 11.97-2.528 3.946-3.11-2.811-2.809-4.432m167.417-34.896c-2.688 3.308 3.935 34.836-3.893 40.139-1.44.74-3.561 2.84-2.867.023-.109-13.905 2.792-28.71 6.76-40.162m-160.508-26.288c-3.89 3.67 1.92 6.176 5.214 6.034 4.766.539 9.584.485 14.372.767-12.681 3.176-25.43 6.969-38.587 7.187-.805-10.991 20.965-16.246 19.001-13.988m64.473-13.178c-4.538 3.604-14.716 1.596-20.13 1.54 6.535-1.782 14.273-3.721 20.13-1.54" style="fill:#252224;stroke-width:4.12616px"/></g></svg>