<svg xmlns="http://www.w3.org/2000/svg"><defs><font id="font-gis" horiz-adv-x="1000"><font-face ascent="800" descent="200" font-family="font-gis"/><glyph d="m476.546 783.664-350-950c-8.276-22.413 16.59-42.554 36.797-29.804l336.68 212.285 336.66-212.285c20.201-12.713 45.03 7.408 36.777 29.804l-350 950c-4.39 11.204-11.826 16.274-23.457 16.258s-19.908-6.504-23.457-16.258m-1.543-148.808V59.466L198.89-114.618Z" glyph-name="north-arrow" horiz-adv-x="1000" unicode=""/><glyph d="M420.664 800V600h37.52v130.43L538.809 600h40.527v200h-37.52V666.445L459.961 800Zm55.703-266.875L218.652-166.367c-8.22-22.388 16.587-42.478 36.778-29.785L500-41.953l244.55-154.2c20.196-12.73 45.041 7.382 36.798 29.786l-257.891 700c-4.731 10.956-12.84 16.314-23.847 16.348s-20.17-8.561-23.243-16.856M475 384.825V1.386L290.996-114.63Z" glyph-name="north-arrow-n" horiz-adv-x="1000" unicode=""/><glyph d="M499.492 800a15.18 15.18 0 0 1-10.215-4.434l-32.363-32.363c-95.977-8.848-183.59-46.874-253.809-105.195h-45.937a15.18 15.18 0 0 1-11.074-4.805 15.18 15.18 0 0 1-4.102-10.371v-45.937c-58.321-70.22-96.347-157.832-105.195-253.81L4.434 310.724A15.177 15.177 0 0 1 4.434 289.258l32.363-32.363c8.851-95.97 46.878-183.575 105.195-253.79v-45.937a15.177 15.177 0 0 1 15.176-15.176h45.937c70.215-58.317 157.82-96.344 253.79-105.195l32.363-32.363a15.177 15.177 0 0 1 21.465 0l32.343 32.363c95.985 8.844 183.605 46.87 253.829 105.195h45.918a15.177 15.177 0 0 1 15.195 15.176l-.02 45.918c58.335 70.227 96.37 157.853 105.215 253.848l32.363 32.343a15.177 15.177 0 0 1 0 21.465l-32.363 32.363c-8.852 95.98-46.887 183.591-105.215 253.81l.02 45.917a15.177 15.177 0 0 1-15.195 15.176h-45.918c-70.215 58.317-157.82 96.344-253.79 105.195l-32.363 32.363a15.18 15.18 0 0 1-11.25 4.434m-47.11-87.52 36.895-36.894a15.177 15.177 0 0 1 21.445 0l36.876 36.894c79.039-8.994 151.258-40.088 210.39-86.992v-52.324a15.177 15.177 0 0 1 15.195-15.176h52.305c46.9-59.127 77.995-131.34 86.992-210.37l-36.894-36.895a15.177 15.177 0 0 1 0-21.465l36.894-36.895c-9-79.024-40.095-151.229-86.992-210.351h-52.304a15.18 15.18 0 0 1-11.094-4.824 15.18 15.18 0 0 1-4.102-10.352v-52.324c-59.122-46.897-131.327-77.992-210.351-86.992l-36.895 36.894a15.18 15.18 0 0 1-11.25 4.434 15.18 15.18 0 0 1-10.215-4.434l-36.894-36.894c-79.041 8.998-151.26 40.102-210.39 87.011v52.305a15.177 15.177 0 0 1-15.156 15.176H174.51c-46.904 59.132-77.998 131.351-86.992 210.39l36.894 36.875a15.177 15.177 0 0 1 0 21.445L87.52 347.618c8.997 79.032 40.092 151.244 86.992 210.371h52.324a15.177 15.177 0 0 1 15.156 15.176v52.305c59.131 46.91 131.35 78.013 210.39 87.011M500 334.395c-18.997 0-34.395-15.398-34.395-34.395s15.398-34.395 34.395-34.395 34.395 15.398 34.395 34.395-15.398 34.395-34.395 34.395" glyph-name="compass" horiz-adv-x="1000" unicode=""/><glyph d="M500.301 749.998c-11.1.13-20.981-7.013-24.307-17.603L344.938 314.518a25.1 25.1 0 0 1-3.716-14.54 25.2 25.2 0 0 1 3.716-14.514l131.056-417.826C483.362-155.879 516.638-155.879 524.006-132.362L655.062 285.49a25.17 25.17 0 0 1 3.716 14.565 25.13 25.13 0 0 1-3.716 14.49l-131.056 417.85a25.13 25.13 0 0 1-23.705 17.603m-106.27-452.882h62.05c1.514-23.052 20.484-41.333 43.919-41.333s42.404 18.281 43.92 41.333h64.611L500-40.78Z" glyph-name="compass-needle" horiz-adv-x="1000" unicode=""/><glyph d="M499.453 801.719c-7.42.04-11.49-5.022-12.637-10.938l-30.644-103.379c-74.922-8.4-143.43-38.026-199.395-82.773-31.836 17.277-63.655 34.644-95.507 51.836-5.892 3.173-11.064 2.927-15.84-1.875-4.775-4.804-3.42-11.875-.723-16.973l51.035-94.004c-44.965-56.054-74.782-124.71-83.203-199.843-34.797-10.316-69.648-20.551-104.395-30.938-6.41-1.922-9.88-5.746-9.863-12.52.02-6.773 5.972-10.821 11.485-12.519l102.714-30.43c8.212-75.315 37.86-144.2 82.774-200.43-17.373-32.019-34.84-64.021-52.129-96.054-3.173-5.892-2.927-11.044 1.875-15.82s11.875-3.44 16.973-.743l94.53 51.309c56.026-44.9 124.642-74.65 199.708-83.066 10.318-34.805 20.568-69.66 30.957-104.414 1.922-6.41 5.746-9.882 12.52-9.864 6.773.02 10.821 5.973 12.519 11.485l30.43 102.714c75.507 8.239 144.5 38.048 200.761 83.184l94.922-51.543c6.885-3.507 11.542-4.125 16.817 1.094s4.583 11.685 1.21 16.68l-51.679 95.234c44.793 56.184 74.453 124.952 82.676 200.156l103.261 30.606c7.35 2.388 11.075 5.235 11.114 12.656s-5.022 11.49-10.938 12.637l-103.73 30.742c-8.43 74.99-38.081 143.562-82.871 199.55l51.289 94.473c3.507 6.885 4.125 11.542-1.094 16.817-6.05 5.25-11.117 3.674-16.68 1.191l-94.648-51.387c-56.201 45.013-125.047 74.795-200.41 83.028l-30.528 103.007c-2.388 7.35-5.235 11.075-12.656 11.114m-.02-52.383V360a60 60 0 0 1-28.926-7.754l-62.441 79.121Zm52.5-93.106c60.36-8.721 115.803-32.417 162.559-67.168l-122.89-66.699Zm-105.078-.312-39.434-133.047c-40.658 22.11-81.331 44.123-121.992 66.211 46.456 34.487 101.519 57.997 161.426 66.836m-264.805-37.95 195.684-195.312-.098-.293-74.766-22.168Zm440-195.507-.937.273-21.992 74.2 218.203 120.8Zm166.7 92.578c34.675-46.55 58.3-101.79 67.168-161.894l-133.555 39.59Zm-577.46-.098 66.347-122.227-133.672-39.628c8.881 60.108 32.613 115.303 67.324 161.855m418.827-122.656 319.219-91.719H560a60 60 0 0 1-7.91 29.2ZM440.02 300.566 440 300a60 60 0 0 1 7.285-28.652l-78.984-62.168-78.281 22.422-239.961 68.71Zm416.23-52.48c-8.71-60.307-32.393-115.69-67.09-162.422l-66.64 122.793Zm-712.324-.04 133.554-39.57c-22.27-40.956-44.434-81.93-66.68-122.89-34.655 46.73-58.18 102.16-66.874 162.46m385.039-.585 62.207-77.91-22.617-78.965-68.867-240.527-.254 389.96c10.567-.021 21.526 2.737 29.53 7.442m168.105-46.543L818.105-17.734 621.758 178.613Zm-319.53-22.969 22.304-75.215L181.62-18.34ZM591.7 78.027l123.183-66.894c-46.825-34.841-102.431-58.486-162.93-67.207ZM407.323 77.5c13.163-44.535 26.411-89.012 39.59-133.535-60.048 8.874-115.196 32.57-161.719 67.226Z" glyph-name="compass-rose" horiz-adv-x="1000" unicode=""/><glyph d="M499.564 700c-5.916.032-9.16-4.004-10.075-8.72l-24.431-82.42c-59.733-6.697-114.351-30.317-158.97-65.992-25.381 13.774-50.75 27.62-76.144 41.327-4.697 2.53-8.82 2.333-12.629-1.495-3.807-3.83-2.726-9.467-.576-13.532l40.689-74.945c-35.85-44.69-59.621-99.427-66.335-159.327-27.742-8.224-55.528-16.385-83.23-24.666-5.11-1.532-7.877-4.581-7.863-9.98.016-5.4 4.762-8.629 9.156-9.982l81.89-24.26c6.547-60.046 30.184-114.965 65.992-159.795-13.85-25.528-27.776-51.042-41.56-76.58-2.53-4.697-2.334-8.805 1.495-12.613s9.467-2.742 13.532-.592l75.365 40.906C350.537 21.537 405.242-2.18 465.09-8.89c8.226-27.748 16.398-55.537 24.68-83.245 1.533-5.11 4.582-7.878 9.982-7.864 5.4.016 8.628 4.762 9.981 9.156l24.26 81.89c60.2 6.568 115.204 30.334 160.06 66.32l75.677-41.094c5.49-2.796 9.202-3.289 13.407.872 4.206 4.16 3.654 9.316.965 13.298L742.9 106.37c35.712 44.793 59.358 99.619 65.914 159.576l82.327 24.4c5.858 1.905 8.829 4.175 8.86 10.091.032 5.916-4.004 9.16-8.72 10.075l-82.7 24.51c-6.72 59.785-30.36 114.455-66.07 159.093l40.89 75.32c2.797 5.488 3.29 9.2-.871 13.406-2.08 2.103-4.407 3.002-6.712 3.052s-4.595-.758-6.586-2.102l-75.46-40.969c-44.807 35.887-99.694 59.631-159.779 66.195l-24.338 82.124c-1.904 5.858-4.174 8.829-10.09 8.86m-.016-41.763V347.835a47.83 47.83 0 0 1-23.061-6.182l-49.782 63.08 52.133 181.424 7.007 24.416Zm41.856-74.23c48.123-6.952 92.325-25.844 129.601-53.55l-97.975-53.176Zm-83.774-.248-31.44-106.073c-32.415 17.628-64.842 35.178-97.259 52.787 37.038 27.495 80.937 46.239 128.699 53.286m-211.118-30.256 156.01-155.714-.078-.234c-19.876-5.883-39.728-11.797-59.608-17.673l-59.872 107.925-12.239 22.05Zm506.477-.186-33.432-33.432-16.724-16.724-105.527-105.528-.748.218-17.533 59.156 108.642 60.153 13.08 7.225 8.907 4.936Zm-22.781-81.875a285.54 285.54 0 0 0 53.55-129.072l-106.477 31.563Zm-460.386-.078 52.896-97.446c-35.542-10.506-71.038-21.078-106.57-31.595 7.08 47.922 26 91.927 53.674 129.04m333.915-97.789 182.42-52.414 24.135-6.929 47.945-13.78H547.836a47.83 47.83 0 0 1-6.306 23.28Zm-151.558-73.124-.016-.451c0-7.98 1.998-15.833 5.809-22.844L395 227.592l-62.41 17.877-118.796 34.008v.016l-24.384 6.975-48.131 13.781Zm331.844-41.84c-6.944-48.08-25.825-92.235-53.488-129.492l-53.13 97.897Zm-567.907-.031 106.478-31.548c-17.755-32.653-35.426-65.32-53.161-97.976-27.63 37.256-46.386 81.448-53.317 129.524m306.976-.467 49.595-62.115-18.032-62.955-34.148-119.247-6.976-24.385-13.78-48.131-.203 310.9c8.425-.018 17.162 2.181 23.544 5.933m134.024-37.107L717.22 112.41l12.177-21.986 24.214-43.74-33.743 33.743-16.724 16.723-106.073 106.073Zm-254.75-18.312c5.92-19.996 11.871-39.966 17.783-59.966L312.285 82.887l-22.064-12.24-44.052-24.446Zm170.741-79.664 98.21-53.332C633.985 41.92 589.653 23.069 541.42 16.116Zm-146.994-.42c10.494-35.507 21.056-70.966 31.563-106.462-47.874 7.075-91.841 25.967-128.932 53.597ZM460 720v80h19.81l41.273-53.424V800H540v-80h-20.43l-40.653 52.17V720Zm0-893.474 19.329 1.477q1.745-7.647 7.047-11.233 5.369-3.586 14.43-3.586 9.597 0 14.429 3.164 4.9 3.217 4.9 7.489 0 2.742-2.081 4.64-2.014 1.951-7.114 3.375-3.49.95-15.906 3.375-15.974 3.112-22.417 7.647-9.06 6.381-9.06 15.557 0 5.907 4.228 11.022 4.296 5.168 12.282 7.857 8.054 2.69 19.396 2.69 18.524 0 27.852-6.381 9.396-6.381 9.866-17.034l-19.866-.685q-1.275 5.959-5.503 8.543-4.161 2.637-12.55 2.637-8.658 0-13.557-2.795-3.155-1.793-3.155-4.8 0-2.741 2.953-4.693 3.759-2.478 18.255-5.168 14.497-2.69 21.41-5.59 6.98-2.847 10.872-7.857 3.96-4.957 3.96-12.288 0-6.644-4.698-12.445t-13.289-8.649Q513.423-200 500.604-200q-18.658 0-28.658 6.75-10 6.803-11.946 19.776M920 260v80h77.991v-13.533h-56.753v-17.735h52.807v-13.479h-52.807v-21.774H1000V260Zm-905.447 0L0 340h12.599l9.189-54.952L32.93 340h14.636l10.687-55.88L67.609 340H80l-14.801-80H52.142L40 319.809 27.9 260Z" glyph-name="compass-rose-n" horiz-adv-x="1000" unicode=""/><glyph d="M499.453 801.719c-7.42.04-11.49-5.022-12.637-10.938l-109.18-368.418c-123.205-36.47-246.509-72.768-369.491-109.531-6.41-1.922-9.882-5.746-9.864-12.52.02-6.773 5.973-10.821 11.485-12.519l367.5-108.887C413.862 55.278 450.279-68.45 487.168-191.855c1.922-6.41 5.746-9.882 12.52-9.864 6.773.02 10.821 5.973 12.519 11.485l109.258 368.75 369.14 109.375c7.35 2.388 11.075 5.235 11.114 12.656s-5.022 11.49-10.938 12.637l-369.668 109.55L512.11 790.605c-2.388 7.35-5.235 11.075-12.656 11.114M500 375a75 75 0 0 0 75-75 75 75 0 0 0-75-75 75 75 0 0 0-75 75 75 75 0 0 0 75 75m345.957 284.004c-2.89.062-5.745-.97-8.242-2.656l-211.133-114.59c8.211-29.288 16.768-58.354 26.504-86.778l88.594-26.25 113.789 209.61c3.507 6.885 4.125 11.541-1.094 16.816-2.61 2.638-5.527 3.785-8.418 3.848m-693.008-.078c-2.623-.266-5.112-1.545-7.5-3.946-4.775-4.803-3.42-11.874-.722-16.972L258.77 427.93c29.134 8.17 58.117 16.682 86.601 26.367l26.211 88.437c-70.092 38.104-140.178 76.287-210.312 114.141-2.946 1.587-5.698 2.317-8.32 2.05m588.77-485.45c-29.797-8.315-59.305-17.005-88.008-26.933-8.519-29.251-17.297-58.45-26.016-87.656L838.34-55.47c6.885-3.507 11.541-4.125 16.816 1.094 5.276 5.219 4.564 11.665 1.192 16.66Zm-483.907-.859c-38.29-70.435-76.648-140.85-114.687-211.328-3.173-5.891-2.907-11.063 1.895-15.84 4.803-4.775 11.874-3.42 16.972-.722L372.07 58.77c-8.282 29.563-16.912 58.97-26.738 87.87-29.206 8.506-58.359 17.27-87.52 25.977" glyph-name="compass-alt" horiz-adv-x="1000" unicode=""/><glyph d="M499.453 801.719c-7.42.04-11.49-5.022-12.637-10.938l-109.18-368.418C254.43 385.893 131.128 349.595 8.145 312.832c-6.41-1.922-9.88-5.747-9.863-12.52.02-6.773 5.972-10.822 11.485-12.52l367.5-108.886C413.862 55.278 450.279-68.45 487.168-191.856c1.922-6.41 5.746-9.88 12.52-9.863 6.772.02 10.821 5.972 12.519 11.484l109.258 368.75 369.14 109.376c7.35 2.388 11.075 5.235 11.114 12.656s-5.022 11.489-10.938 12.636L621.113 422.734 512.11 790.605c-2.388 7.35-5.235 11.074-12.656 11.114m0-144.317 73.73-248.867a50 50 0 0 1 33.73-33.73l250.47-74.239-250.117-74.101a50 50 0 0 1-33.73-33.75l-74.083-250.04c-24.749 83.442-49.501 166.865-74.238 250.43a50 50 0 0 1-33.73 33.75l-248.77 73.711c83.01 24.623 165.99 49.24 249.12 73.848a50 50 0 0 1 33.75 33.75ZM500 400a100 100 0 0 0 100-100 100 100 0 0 0-100-100 100 100 0 0 0-100 100 100 100 0 0 0 100 100m345.957 259.004c-2.89.062-5.745-.97-8.242-2.656l-211.133-114.59c8.211-29.288 16.768-58.354 26.504-86.778l88.594-26.25 113.789 209.61c3.507 6.885 4.125 11.541-1.094 16.816-2.61 2.638-5.527 3.785-8.418 3.848m-693.008-.078c-2.623-.266-5.112-1.545-7.5-3.946-4.775-4.803-3.42-11.874-.722-16.972L258.77 427.93c29.134 8.17 58.117 16.682 86.601 26.367l26.211 88.437c-70.092 38.104-140.178 76.287-210.312 114.141-2.946 1.587-5.698 2.317-8.32 2.05m588.77-485.45c-29.797-8.315-59.305-17.005-88.008-26.933-8.519-29.251-17.297-58.45-26.016-87.656L838.34-55.47c6.885-3.507 11.541-4.125 16.816 1.094 5.276 5.219 4.564 11.665 1.192 16.66Zm-483.907-.859c-38.29-70.435-76.648-140.85-114.687-211.328-3.173-5.891-2.907-11.063 1.895-15.84 4.803-4.775 11.874-3.42 16.972-.722L372.07 58.77c-8.282 29.563-16.912 58.97-26.738 87.87-29.206 8.506-58.359 17.27-87.52 25.977" glyph-name="compass-alt-o" horiz-adv-x="1000" unicode=""/><glyph d="M142.912 776.543a50.005 50.005 0 0 1-24.771-49.439l75.561-810.876c4.83-39.371 51.384-57.714 81.772-32.22L417.621 3.312l71.504-123.848c41.117-71.218 123.686-78.7 194.904-37.583S790.05-41.755 748.932 29.463l-71.25 123.409 171.636 62.445c37.273 13.57 44.664 63.058 12.983 86.927L197.842 773.119a50 50 0 0 1-54.93 3.423m88.78-154.086 496.849-344.666-197.128-71.729.917-1.432 130-225.167c14.282-24.738-3.563-36.698-28.301-50.98-24.738-14.283-44.02-23.758-58.302.98l-130 225.167-1.028 1.977-162.94-136.765Z" glyph-name="arrow-o" horiz-adv-x="1000" unicode=""/><glyph d="M170.896 781.471a50 50 0 0 1-27.988-6.523 49.99 49.99 0 0 1-24.766-49.434l75.566-810.879c4.83-39.371 51.37-57.72 81.758-32.226l159.47 129.316 71.503-123.847c41.118-71.218 106.364-88.716 177.582-47.598s88.7 106.38 47.582 177.598l-71.25 123.398 188.96 72.442c37.274 13.57 44.67 63.064 12.99 86.933L197.848 771.53a49.95 49.95 0 0 1-26.953 9.941" glyph-name="arrow" horiz-adv-x="1000" unicode=""/><glyph d="M334.18 690c-34.968 0-66.722-14.536-89.61-37.813-23.098-22.81-37.52-54.4-37.52-89.14 0-33.733 13.632-64.455 35.567-87.09l-102.46-205.996c-1.395.164-2.792.313-4.2.43-3.314.463-6.62.937-10.059.937C56.732 271.328 0 214.596 0 145.43 0 76.263 56.732 19.434 125.898 19.434c69.167 0 125.899 56.83 125.899 125.996 0 34.25-13.962 65.39-36.406 88.164l101.953 204.98c4.996-.614 10.043-1.015 15.195-1.015 19.132 0 37.21 4.49 53.438 12.285.095.044.197.073.293.117L759.063 83.125c-6.852-15.485-10.86-32.444-10.86-50.371 0-69.166 56.732-125.899 125.899-125.899 57.894 0 106.933 39.802 121.425 93.32a125 125 0 0 1 1.719 6.582c.105.494.194.99.293 1.485 1.357 6.285 2.38 12.696 2.754 19.278a35 35 0 0 1 0 13.945c-3.253 57.22-45.136 104.723-99.883 115.976l-1.972 26.524-54.22-4.082 1.778-23.574c-10.656-2.61-20.853-6.464-30.273-11.621L446.27 508.262c7.405 14.719 11.912 30.92 12.988 48.164l63.281-2.54 2.11 54.298-73.965 2.949C431.906 657.179 386.714 690 334.18 690m508.008 0c-69.167 0-125.899-56.732-125.899-125.898 0-34.535 14.27-65.743 37.09-88.418 18.75-18.892 42.23-29.984 67.793-35.04 1.158-.198 2.288-.477 3.457-.644l3.262-43.36 54.218 4.083-3.28 43.613c51.378 15.888 89.335 63.414 89.335 119.766 0 69.166-56.81 125.898-125.976 125.898m-.215-70.234c31.066 0 55.488-24.442 55.488-55.508s-24.422-55.488-55.488-55.488c-31.067 0-55.508 24.422-55.508 55.488s24.441 55.508 55.508 55.508m-509.434-1.211c31.066 0 55.508-24.442 55.508-55.508s-24.442-55.488-55.508-55.488-55.488 24.422-55.488 55.488 24.422 55.508 55.488 55.508m246.406-12.48-2.109-54.298 108.574-4.336 2.13 54.297Zm307.246-259.552-54.218-4.082 8.164-108.437 54.219 4.082ZM125.684 200.898c31.066 0 55.488-24.441 55.488-55.507s-24.422-55.489-55.488-55.489c-31.067 0-55.508 24.422-55.508 55.489s24.441 55.507 55.508 55.507M875.508 90c31.066 0 55.488-24.442 55.488-55.508s-24.422-55.488-55.488-55.488S820 3.426 820 34.492 844.442 90 875.508 90" glyph-name="modify-line" horiz-adv-x="1000" unicode=""/><glyph d="M420.195 765.762c-42.897-.006-84.766-21.825-107.988-61.211-25.712-43.609-21.647-96.964 5.82-136.114L192.363 444.239l-.45.156c-58.434 30.11-131.69 9.985-165.468-47.304-34.992-59.35-14.994-136.863 44.356-171.856 34.633-20.42 75.425-21.995 110.37-8.066L308.575 25.801c-19.643-22.175-31.719-51.175-31.719-82.871 0-68.897 56.592-125.508 125.489-125.508 63.573 0 116.099 48.354 123.886 109.941l21.368 7.598-14.2 39.902-9.472-3.379a126.1 126.1 0 0 1-21.543 46.23l1.836-1.425 326.836 402.559c11.907-3.91 24.165-5.7 36.386-5.938l-.703-14.004 42.266-2.07 1.094 22.48c27.792 9.225 52.543 27.892 68.457 54.883 33.804 57.335 15.91 131.248-38.828 167.774a35 35 0 0 1-5.547 4.082 35 35 0 0 1-6.387 2.93c-58.435 30.108-131.691 9.983-165.469-47.305-.68-1.153-1.197-2.35-1.836-3.516L545.45 645.313c-1.682 39.011-21.528 76.622-55.86 99.53a35 35 0 0 1-5.527 4.082 35 35 0 0 1-6.387 2.93c-18.26 9.41-37.981 13.91-57.48 13.907m2.012-69.297c8.928-.354 17.946-2.901 26.309-7.832 26.76-15.779 35.387-49.255 19.609-76.016s-49.235-35.388-75.996-19.61c-26.761 15.78-35.407 49.236-19.629 75.997 10.848 18.398 30.065 28.239 49.707 27.46m450.117-102.871c8.928-.354 17.946-2.902 26.309-7.832 26.761-15.779 35.407-49.255 19.629-76.016-15.779-26.761-49.255-35.407-76.016-19.629-26.761 15.779-35.388 49.255-19.61 76.016 10.848 18.398 30.046 28.239 49.688 27.46m-735.898-204.61c8.928-.353 17.946-2.9 26.308-7.832 26.762-15.778 35.408-49.235 19.63-75.996-15.78-26.76-49.236-35.407-75.997-19.629-26.761 15.779-35.407 49.255-19.629 76.016 10.848 18.398 30.046 28.22 49.688 27.441m728.262-32.343-4.239-84.551 42.344-2.11 4.14 84.59Zm-6.29-126.817-.488-9.941c-.78.015-1.54.117-2.324.117-68.897 0-125.508-56.591-125.508-125.488 0-16.471 3.314-32.2 9.18-46.66l-46.192-16.407 14.141-39.863 55.098 19.492c23.044-25.71 56.346-42.07 93.28-42.07 66.5 0 121.034 52.875 124.786 118.496a35 35 0 0 1 .703 7.012 35 35 0 0 1-.703 6.934c-2.84 50.244-35.502 92.921-80.469 110.234l.801 15.976ZM855.586 150c31.066 0 55.488-24.422 55.488-55.488 0-31.067-24.422-55.508-55.488-55.508s-55.508 24.441-55.508 55.508c0 31.066 24.442 55.488 55.508 55.488M653.106 17.285l-79.766-28.34 14.12-39.863 79.845 28.3ZM402.343-1.582c31.066 0 55.508-24.422 55.508-55.488 0-31.067-24.442-55.508-55.508-55.508s-55.489 24.441-55.489 55.508c0 31.066 24.422 55.488 55.489 55.488" glyph-name="modify-poly" horiz-adv-x="1000" unicode=""/><glyph d="M420.195 765.762c-42.897-.006-84.766-21.825-107.988-61.211-25.712-43.609-21.647-96.964 5.82-136.114L192.363 444.239l-.45.156c-58.434 30.11-131.69 9.985-165.468-47.304-34.992-59.35-14.994-136.863 44.356-171.856 34.633-20.42 75.425-21.995 110.37-8.066L308.575 25.801c-19.643-22.175-31.719-51.175-31.719-82.871 0-68.897 56.592-125.508 125.489-125.508 63.573 0 116.099 48.354 123.886 109.941l21.368 7.598-14.2 39.902-9.472-3.379a126.1 126.1 0 0 1-21.543 46.23l1.836-1.425 326.836 402.559c11.907-3.91 24.165-5.7 36.386-5.938l-.703-14.004 42.266-2.07 1.094 22.48c27.792 9.225 52.543 27.892 68.457 54.883 33.804 57.335 15.91 131.248-38.828 167.774a35 35 0 0 1-5.547 4.082 35 35 0 0 1-6.387 2.93c-58.435 30.108-131.691 9.983-165.469-47.305-.68-1.153-1.197-2.35-1.836-3.516L545.45 645.313c-1.682 39.011-21.528 76.622-55.86 99.53a35 35 0 0 1-5.527 4.082 35 35 0 0 1-6.387 2.93c-18.26 9.41-37.981 13.91-57.48 13.907m2.012-69.297c8.928-.354 17.946-2.901 26.309-7.832 26.76-15.779 35.387-49.255 19.609-76.016s-49.235-35.388-75.996-19.61c-26.761 15.78-35.407 49.236-19.629 75.997 10.848 18.398 30.065 28.239 49.707 27.46m450.117-102.871c8.928-.354 17.946-2.902 26.309-7.832 26.761-15.779 35.407-49.255 19.629-76.016-15.779-26.761-49.255-35.407-76.016-19.629-26.761 15.779-35.388 49.255-19.61 76.016 10.848 18.398 30.046 28.239 49.688 27.46m-343.75-16.23 216.836-47.52c1.75-25.783 11.458-50.718 27.93-71.074L449.004 59.277a123.2 123.2 0 0 1-46.66 9.14c-12.028.001-23.646-1.824-34.688-5.038L236.523 260.293c2.153 3.001 4.224 6.059 6.133 9.297 23.626 40.071 21.93 88.208.117 126.055l130.489 128.984c56.486-22.79 123.378-1.49 155.176 52.441.057.096.08.196.136.293m-392.148-188.38c8.928-.353 17.946-2.9 26.308-7.832 26.762-15.778 35.408-49.235 19.63-75.996-15.78-26.76-49.236-35.407-75.997-19.629-26.761 15.779-35.407 49.255-19.629 76.016 10.848 18.398 30.046 28.22 49.688 27.441m728.262-32.343-4.239-84.551 42.344-2.11 4.14 84.59Zm-6.29-126.817-.488-9.941c-.78.015-1.54.117-2.324.117-68.897 0-125.508-56.591-125.508-125.488 0-16.471 3.314-32.2 9.18-46.66l-46.192-16.407 14.141-39.863 55.098 19.492c23.044-25.71 56.346-42.07 93.28-42.07 66.5 0 121.034 52.875 124.786 118.496a35 35 0 0 1 .703 7.012 35 35 0 0 1-.703 6.934c-2.84 50.244-35.502 92.921-80.469 110.234l.801 15.976ZM855.586 150c31.066 0 55.488-24.422 55.488-55.488 0-31.067-24.422-55.508-55.488-55.508s-55.508 24.441-55.508 55.508c0 31.066 24.442 55.488 55.508 55.488M653.106 17.285l-79.766-28.34 14.12-39.863 79.845 28.3ZM402.343-1.582c31.066 0 55.508-24.422 55.508-55.488 0-31.067-24.442-55.508-55.508-55.508s-55.489 24.441-55.489 55.508c0 31.066 24.422 55.488 55.489 55.488" glyph-name="modify-poly-o" horiz-adv-x="1000" unicode=""/><glyph d="M440 505.508c-68.897 0-125.508-56.591-125.508-125.488 0-68.898 56.61-125.528 125.508-125.528 66.545 0 121.122 52.968 124.805 118.653a35 35 0 0 1 .703 6.875 35 35 0 0 1-.703 6.914C561.1 452.598 506.53 505.508 440 505.508m0-70c31.066 0 55.508-24.422 55.508-55.488 0-31.067-24.442-55.528-55.508-55.528s-55.508 24.461-55.508 55.528 24.442 55.488 55.508 55.488m249.688-194.18a110.1 110.1 0 0 1-27.266-4.648l11.601-38.282c14.88 4.513 31.719 3.845 46.153-1.875l.039-.02a70 70 0 0 0 13.398-7.05l22.344 33.183a110 110 0 0 1-21.074 11.074 110 110 0 0 1-35.977 7.617c-3.068.126-6.15.132-9.219.0006500000000073669Zm-69.415-28.457a110.6 110.6 0 0 1-25.488-34.043v-.02l-.02-.02c-8.005-16.569-11.664-34.923-10.762-53.223l39.942 1.954c-.572 11.602 1.828 23.492 6.855 33.886v.039c3.935 8.173 9.549 15.653 16.29 21.739Zm168.946-25.293-34.278-20.625c6.134-10.201 9.62-22.242 9.903-34.2l.02-2.128 40 .508-.04 2.344v.215c-.448 18.943-5.807 37.59-15.605 53.886Zm-31.133-86.875c-6.03-12.795-16.308-23.923-28.613-30.976h-.02c-5.627-3.234-11.706-5.708-17.93-7.247l9.59-38.828a109.5 109.5 0 0 1 28.242 11.367l.02.02c19.518 11.195 35.29 28.218 44.902 48.614Zm-125.938-3.008-35.293-18.808a110.4 110.4 0 0 1 21.25-27.969h.02v-.02c15.088-14.419 34.107-24.368 54.688-28.398l7.676 39.257c-12.854 2.518-25.217 8.955-34.747 18.067l-.02.02c-5.443 5.19-10.072 11.275-13.574 17.852Z" glyph-name="copy-point" horiz-adv-x="1000" unicode=""/><glyph d="M655.508 800a35 35 0 0 1-6.973-.703C582.896 795.565 530 741.024 530 674.512c0-2.67.223-5.28.39-7.91L322.97 598.555c-20.904 34.509-57.964 58.322-100.489 60.742a35 35 0 0 1-6.973.703 35 35 0 0 1-6.973-.703c-65.638-3.732-118.534-58.273-118.534-124.785 0-50.998 31.06-95.188 75.117-114.746l-45-170.196a35 35 0 0 1-1.582-.273C52.896 245.565 0 191.024 0 124.512 0 55.615 56.61-.996 125.508-.996c38.864 0 73.79 18.022 96.875 46.094L431.66-56.172c-.998-6.313-1.66-12.731-1.66-19.316 0-68.897 56.61-125.508 125.508-125.508s125.488 56.61 125.488 125.508c0 6.923-.696 13.673-1.797 20.293l10.059-4.864 17.422 36.016-52.442 25.371c-21.703 27.529-54.684 45.86-91.758 47.969a35 35 0 0 1-6.973.703 35 35 0 0 1-1.738-.059L526.66 63.066l-9.629-19.863c-21.512-7.031-40.59-19.595-55.332-36.152L250 109.492c.6 4.94.996 9.928.996 15.02 0 46.134-25.455 86.47-62.95 108.125l47.071 178.066c58.456 9.344 103.838 59.501 105.684 120.02l213.554 70.058c22.912-31.254 59.76-51.777 101.153-51.777 68.897 0 125.488 56.61 125.488 125.508 0 66.51-52.879 121.05-118.516 124.785a35 35 0 0 1-6.973.703m0-70c31.066 0 55.488-24.422 55.488-55.488 0-31.067-24.422-55.508-55.488-55.508S600 643.445 600 674.512C600 705.578 624.442 730 655.508 730m329.023-90-63.984-20.996 12.46-37.988 63.985 20.976ZM882.54 606.543l-76.016-24.941 12.461-38.008L895 568.535ZM215.508 590c31.066 0 55.488-24.422 55.488-55.488 0-31.067-24.422-55.508-55.488-55.508S160 503.445 160 534.512C160 565.578 184.442 590 215.508 590m553.008-20.86L692.5 544.2l12.48-38.009 75.997 24.942Zm-114.024-37.402-76.015-24.941 12.48-38.008 76.016 24.941Zm-120.43-57.597-20.449-77.344 38.672-10.215 20.45 77.344ZM503.38 358.125l-20.45-77.344 38.673-10.215 20.449 77.344Zm-30.664-116.016-20.45-77.343 38.673-10.215 20.449 77.344ZM125.508 180c31.066 0 55.488-24.422 55.488-55.488 0-31.067-24.422-55.508-55.488-55.508S70 93.445 70 124.512C70 155.578 94.442 180 125.508 180m316.543-53.906-11.387-43.047a20 20 0 0 1 10.625-23.105l31.934-15.45 17.422 35.996-17.09 8.282 7.168 27.109ZM555.508-20c31.066 0 55.488-24.422 55.488-55.488 0-31.067-24.422-55.508-55.488-55.508S500-106.555 500-75.488C500-44.422 524.442-20 555.508-20m187.187-21.465L725.273-77.48l72.012-34.844 17.422 36.015ZM850.703-93.73l-17.422-36.016 36.016-17.422 17.422 36.016Z" glyph-name="copy-line" horiz-adv-x="1000" unicode=""/><glyph d="M655.508 800a35 35 0 0 1-6.992-.723C582.886 795.535 530 740.997 530 674.492c0-1.338.153-2.636.195-3.965l-209.18-68.613c-21.262 32.751-57.462 55.086-98.671 57.383a35 35 0 0 1-6.836.703 35 35 0 0 1-6.992-.723C142.886 655.535 90 600.997 90 534.492c0-50.624 30.616-94.523 74.16-114.297l-45.176-170.82-.469-.098C52.887 245.535 0 190.997 0 124.492 0 55.595 56.61-1.016 125.508-1.016c40.205 0 76.13 19.355 99.16 49.102l207.559-100.43C430.794-59.858 430-67.588 430-75.508c0-68.897 56.61-125.508 125.508-125.508s125.508 56.611 125.508 125.508c0 30.917-11.513 59.16-30.352 80.977l8.184 16.914-52.559 25.43 72.559 482.695 14.297 4.687-5.918 18.067a125 125 0 0 1 36.719 16.387l7.206-21.973 76.016 24.922-12.461 38.007-40.625-13.32c16.809 21.348 26.934 48.159 26.934 77.207 0 66.559-52.97 121.142-118.672 124.805a35 35 0 0 1-6.836.703m0-70c31.066 0 55.508-24.442 55.508-55.508s-24.442-55.508-55.508-55.508S600 643.426 600 674.492 624.442 730 655.508 730m323.34-60a20 20 0 0 1-6.152-.996l-25.958-8.516 9.297-28.34-4.707-31.25 39.55-5.957 7.833 52.09A20.002 20.002 0 0 1 978.848 670m-70.118-21.973-76.015-24.941 12.46-38.008 76.016 24.942Zm-356.816-44.004c14.601-21.32 35.628-37.88 60.156-47.05l-.996-6.582-6.406-2.11 4.18-12.754-68.516-455.8-61.504 29.765-17.422-35.996 59.883-28.965c-22.04-6.293-41.71-18.353-57.07-34.59L250.449 113.36c.33 3.679.567 7.374.567 11.133 0 46.518-25.915 87.11-63.926 108.633l46.894 177.383c60.234 9.057 107.032 61.377 107.032 123.984 0 .112-.02.22-.02.332ZM215.508 590c31.066 0 55.508-24.442 55.508-55.508s-24.442-55.508-55.508-55.508S160 503.426 160 534.492 184.442 590 215.508 590m729.883-28.672-11.895-79.101 39.55-5.957 11.895 79.12Zm-378.73-25.527-28.868-9.473a20 20 0 0 1-13.105-13.887l-12.676-47.968 38.672-10.215 9.902 37.46 18.535 6.075Zm360.878-93.125-11.875-79.121 39.55-5.938 11.895 79.102ZM501.797 425.8l-20.45-77.344 38.673-10.215 20.449 77.344Zm407.91-101.797-11.894-79.121 39.57-5.938 11.875 79.102Zm-438.594-14.219-20.449-77.344 38.672-10.214 20.45 77.343Zm420.762-104.453L879.98 126.23l39.551-5.957 11.895 79.122ZM440.449 193.77 420 116.426l38.672-10.215 20.45 77.344ZM125.508 180c31.066 0 55.508-24.442 55.508-55.508s-24.442-55.508-55.508-55.508S70 93.426 70 124.492 94.442 180 125.508 180m748.535-93.34L862.148 7.56 901.7 1.602l11.895 79.12Zm-179.18-81.7-17.422-36.015 72.012-34.843 17.422 36.015ZM555.508-20c31.066 0 55.508-24.442 55.508-55.508s-24.442-55.508-55.508-55.508S500-106.574 500-75.508 524.442-20 555.508-20M856.21-31.992l-5.762-38.32-47.558 23.007-17.442-36.015 72.031-34.844 8.711 18.008 19.766-2.969 9.805 65.176Z" glyph-name="copy-poly" horiz-adv-x="1000" unicode=""/><glyph d="M726.095 774.863c-37.186-.439-74.044-9.427-107.266-26.113l22.442-44.668c26.365 13.242 55.918 20.433 85.41 20.781Zm38.379-2.539-7.149-49.492c29.192-4.219 57.563-15.238 81.973-31.816l28.086 41.367c-30.748 20.883-66.108 34.623-102.91 39.941m-192.07-53.789c-29.486-24.142-48.87-52.19-71.055-69.707l30.976-39.238c30.104 23.77 49.618 52.125 71.758 70.254Zm337.109-22.285-36.602-34.062c20.008-21.505 34.968-47.95 43.34-76.231l47.95 14.2c-10.554 35.649-29.261 68.763-54.688 96.093M463.81 611.543l-70.723-70.723 35.371-35.351 70.703 70.703Zm510.195-65.898-49.883-3.399c2.018-29.56-2.566-59.679-13.418-87.129l46.504-18.379c13.665 34.566 19.319 71.96 16.797 108.907m-616.27-40.176-70.703-70.703 35.352-35.352 70.703 70.703Zm532.188-89.336c-6.53-9.43-13.901-18.278-21.953-26.29l-.039-.038-43.242-43.242 35.351-35.352 43.203 43.203.04.04c10.272 10.225 19.536 21.385 27.734 33.222Zm-638.262-16.719-70.703-70.703 35.352-35.371 70.703 70.723Zm537.676-88.203-70.703-70.723 35.352-35.351 70.703 70.722Zm-643.75-17.871L96.72 244.473a240 240 0 0 1-22.54-26.016l40.04-29.941a190.4 190.4 0 0 0 17.852 20.605l48.886 48.867Zm537.676-88.203-70.703-70.703 35.351-35.352 70.723 70.703ZM46.213 170.39C31.29 136.322 24.324 99.12 25.547 62.109l49.98 1.641c-.978 29.612 4.652 59.564 16.485 86.582Zm530.995-71.309-70.703-70.723 35.352-35.351L612.56 63.71ZM81.838 19.766 33.418 7.305c9.269-35.976 26.713-69.754 51.113-98.008l37.852 32.676C103.187-35.8 89.202-8.818 81.837 19.766m392.44-24.102c-32.394-23.183-51.44-53.046-72.968-72.012l33.047-37.5C462.869-88.73 481.152-60.908 503.38-45ZM154.866-87.949l-29.434-40.41c30.163-21.963 65.216-36.574 101.758-42.97l8.613 49.259c-29.122 5.096-57.179 16.82-80.937 34.12m210.195-13.692c-25.926-13.975-55.314-21.943-84.903-23.28l2.266-49.942c37.004 1.673 73.582 11.546 106.367 29.218ZM241.127 41.127l517.746 517.746m-.318 24.994a25 25 0 0 1-17.363-7.324L223.456 58.809A25 25 0 0 1 223.457 23.457 25 25 0 0 1 258.809 23.457l517.734 517.734a25 25 0 0 1 0 35.352 25 25 0 0 1-17.988 7.324" glyph-name="buffer" horiz-adv-x="1000" unicode=""/><glyph d="m654.531 691.738-.527-50a297.7 297.7 0 0 0 90.586-15.195l15.8 47.441a347.6 347.6 0 0 1-105.86 17.754m-53.652-3.515c-35.537-5.078-70.232-15.607-102.598-31.192l21.7-45.058c27.701 13.339 57.53 22.386 87.988 26.738Zm209.082-35.098-22.832-44.473c27.399-14.072 52.68-32.314 74.473-53.945l35.214 35.488c-25.528 25.339-54.957 46.547-86.855 62.93M350 608.75c-193.004 0-350-156.996-350-350s156.996-350 350-350c89.341 0 170.867 33.742 232.754 89.043.045-.009.092-.01.137-.02.653.584 1.265 1.209 1.914 1.797.42.382.831.77 1.25 1.153a347 347 0 0 1 11.992 11.543q1.139 1.148 2.265 2.304a353 353 0 0 1 10.352 11.113c.824.922 1.666 1.825 2.48 2.755 3.984 4.556 7.888 9.188 11.641 13.945-4.816.399-9.607.92-14.355 1.543-3.184.417-6.322.949-9.473 1.465-1.574.257-3.161.46-4.727.742a299 299 0 0 0-13.828 2.832c-3.979.912-7.92 1.94-11.836 3.008-.641.175-1.293.328-1.933.507C442.34 87.84 350 203.491 350 341.25c0 80.967 31.98 154.232 83.926 208.125a302 302 0 0 0 4.61 4.668c2.308 2.293 4.649 4.54 7.03 6.758a301 301 0 0 0 4.902 4.492c2.489 2.215 5.037 4.371 7.598 6.504 1.58 1.316 3.139 2.66 4.747 3.945 4.15 3.315 8.368 6.554 12.695 9.649a351 351 0 0 1-28.672 9.648c-.097.028-.196.05-.293.078-2.869.827-5.774 1.55-8.672 2.305-2.155.56-4.294 1.179-6.465 1.7-3.482.836-7.006 1.553-10.527 2.284-1.262.261-2.503.573-3.77.82l-.02-.019c-21.716 4.259-44.137 6.543-67.089 6.543m581.992-59.277-40.273-29.668a300.1 300.1 0 0 0 42.52-81.504l47.363 16.054c-11.528 34.017-28.295 66.193-49.61 95.118m62.95-147.168-49.239-8.711c5.354-30.284 6.032-61.442 1.934-91.895l49.55-6.66c4.794 35.62 4.006 71.902-2.246 107.266M937.987 256.62c-8.718-29.454-22.108-57.63-39.355-83.144l41.426-28.008c20.084 29.71 35.655 62.477 45.859 96.953Zm-68.027-119.277c-20.88-22.525-45.343-41.788-72.129-56.875l24.512-43.574c31.3 17.63 59.832 40.093 84.277 66.464ZM756.016 60.957a301.6 301.6 0 0 0-90.02-18.867l2.656-49.922a351.2 351.2 0 0 1 104.98 21.992Z" glyph-name="difference" horiz-adv-x="1000" unicode=""/><glyph d="m660.762 691.348-1.446-49.961c30.757-.896 61.415-6.555 90.43-16.7l16.504 47.227c-33.919 11.859-69.608 18.388-105.488 19.434m-53.692-2.54c-35.648-4.424-70.574-14.35-103.203-29.453l20.996-45.39c27.875 12.902 57.85 21.447 88.36 25.234Zm208.438-38.476-23.516-44.14c27.102-14.442 51.984-33.203 73.418-55.255l35.86 34.864c-25.033 25.752-54.024 47.62-85.762 64.531m-498.809-43.223a349.4 349.4 0 0 1-52.988-9.258 354 354 0 0 1-50.918-17.207l19.55-46.015c28.344 12.044 58.555 19.776 89.141 22.715Zm100.41-4.882a345 345 0 0 1-12.168-11.445c-1.62-1.592-3.176-3.242-4.765-4.864-2.153-2.203-4.312-4.401-6.406-6.66-2.104-2.263-4.148-4.577-6.192-6.895a352.934 352.934 0 0 1-11.055-13.164c-.427-.535-.884-1.044-1.308-1.582.019-.001.038.002.058.00018999999997504347C328.216 498.027 300 422.911 300 341.25 300 187.152 400.105 56.073 538.691 9.473a347 347 0 0 1 29.219-8.438c4.952-1.195 9.95-2.28 14.98-3.262a345 345 0 0 1 12.168 11.445c1.62 1.592 3.177 3.242 4.766 4.864 2.153 2.203 4.312 4.401 6.406 6.66 2.104 2.263 4.148 4.577 6.192 6.895A352.934 352.934 0 0 1 623.477 40.8c.427.535.884 1.044 1.308 1.582C624.766 42.384 624.747 42.38 624.727 42.383 671.784 101.973 700 177.089 700 258.75c0 154.098-100.105 285.177-238.691 331.777a347 347 0 0 1-29.219 8.438 344 344 0 0 1-14.98 3.262m-252.07-46.368a347.8 347.8 0 0 1-81.328-70.02l38.086-32.421c19.918 23.411 43.51 43.756 69.61 59.96Zm770.664-11.289-40.683-29.062c17.874-25.015 31.879-52.843 41.25-82.09l47.617 15.254c-10.973 34.246-27.3 66.67-48.184 95.898M52.11 442.344c-18.831-30.559-32.956-63.975-41.68-98.828l48.497-12.149c7.463 29.82 19.58 58.551 35.722 84.746Zm944.22-45.996-49.376-7.793c4.807-30.362 4.873-61.549.274-91.973l49.433-7.48c5.365 35.492 5.286 71.759-.332 107.246M1.405 290.508c-3.31-35.808-.997-72.039 6.778-107.11l48.808 10.82c-6.654 30.017-8.647 61.1-5.82 91.68Zm935.469-38.887c-9.163-29.34-22.915-57.293-40.586-82.422l40.899-28.77c20.68 29.408 36.71 61.994 47.421 96.29ZM70.371 150l-46.64-18.008c12.952-33.497 31.068-64.981 53.652-92.969l38.926 31.407C97.024 94.329 81.462 121.317 70.37 150m796.563-16.367c-21.366-22.179-46.13-41.142-73.125-55.82l23.886-43.926a349.6 349.6 0 0 1 45.137 29.277 354.4 354.4 0 0 1 40.117 35.781ZM751.738 58.984C722.806 48.627 692.193 42.77 661.465 41.7l1.738-49.96c35.898 1.249 71.555 8.062 105.39 20.175ZM147.93 36.855 114.277-.117c26.569-24.191 56.807-44.19 89.414-59.2l20.918 45.43c-27.95 12.866-53.951 30.048-76.68 50.742M491.7-5.859c-27.116-14.492-56.559-24.8-86.817-30.47l9.199-49.14c35.262 6.607 69.491 18.576 101.172 35.508ZM267.87-29.922l-13.75-48.086c34.535-9.884 70.548-14.404 106.484-13.281l-1.562 49.98c-30.701-.959-61.614 2.927-91.172 11.387" glyph-name="intersection" horiz-adv-x="1000" unicode=""/><glyph d="M650 691.25c-89.351 0-170.884-33.751-232.773-89.063A348.4 348.4 0 0 1 350 608.75c-193.004 0-350-156.996-350-350s156.996-350 350-350c89.351 0 170.884 33.751 232.773 89.063A348.4 348.4 0 0 1 650-8.75c193.004 0 350 156.996 350 350s-156.996 350-350 350M488.047 580.918c33.026-14.148 63.757-33.39 90.937-56.836l-32.656-37.871c-23.299 20.098-49.732 36.626-77.988 48.73Zm-128.79-44.922 41.544-27.832c-17.122-25.566-30.34-53.804-38.926-83.32l-48.008 13.984c10.036 34.499 25.416 67.344 45.39 97.168m257.657-50.039a347.9 347.9 0 0 0 56.21-91.426l-46.112-19.297c-11.855 28.341-28.194 54.878-48.145 78.262Zm-314.082-99.766 49.59-6.484c-3.982-30.452-3.17-61.609 2.344-91.855l-49.18-8.965c-6.443 35.34-7.417 71.647-2.754 107.304m387.188-42.734a354 354 0 0 0 8.906-53.008 349.5 349.5 0 0 0 .723-53.79l-49.883 3.185c1.956 30.665-.911 61.725-8.301 91.62ZM366.445 243.184c9.998-29.082 24.524-56.658 42.89-81.27l-40.058-29.902c-21.509 28.821-38.441 60.94-50.117 94.902Zm276.856-48.985 48.808-10.82c-7.771-35.088-20.998-68.875-39.062-99.922l-43.223 25.137c15.463 26.576 26.832 55.602 33.477 85.605m-203.633-67.012c21.929-21.539 47.283-39.719 74.727-53.632l-22.618-44.59c-32.016 16.232-61.494 37.36-87.129 62.539Z" glyph-name="union" horiz-adv-x="1000" unicode=""/><glyph d="M650 691.25c-89.368 0-170.974-33.713-232.89-89.023C578.104 570.832 700 428.799 700 258.75c0-103.635-45.309-196.836-117.11-260.977C604.624-6.464 627.047-8.75 650-8.75c193.004 0 350 156.996 350 350s-156.996 350-350 350M582.89-2.227C421.896 29.168 300 171.201 300 341.25c0 103.635 45.309 196.836 117.11 260.977-21.733 4.237-44.156 6.523-67.11 6.523-193.004 0-350-156.996-350-350s156.996-350 350-350c89.368 0 170.974 33.713 232.89 89.023" glyph-name="sym-difference" horiz-adv-x="1000" unicode=""/><glyph d="M500 800 353.555 653.555H450V500h100v153.555h96.445ZM146.445 446.445 0 300l146.445-146.445V250H300v100H146.445Zm707.11 0V350H700V250h153.555v-96.445L1000 300ZM500 425.508c-68.897 0-125.508-56.61-125.508-125.508S431.102 174.492 500 174.492c66.559 0 121.142 52.97 124.805 118.672a35 35 0 0 1 .703 6.836 35 35 0 0 1-.723 6.992c-3.742 65.63-58.28 118.516-124.785 118.516m0-70c31.066 0 55.508-24.442 55.508-55.508S531.066 244.492 500 244.492 444.492 268.934 444.492 300s24.442 55.508 55.508 55.508M450 100V-53.555h-96.445L500-200 646.445-53.555H550V100Z" glyph-name="move" horiz-adv-x="1000" unicode=""/><glyph d="M853.553 653.553H646.448l68.198-68.197-108.58-108.58 70.71-70.71 108.58 108.58 68.197-68.198Zm-500.001 0H146.447V446.448l68.197 68.198 108.58-108.58 70.71 70.71-108.58 108.58Zm500.001-500.001-68.197-68.198-108.58 108.58-70.71-70.71 108.58-108.58-68.198-68.197h207.105ZM588.747 388.747C540.03 437.465 459.97 437.465 411.253 388.748c-48.718-48.717-48.718-128.777 0-177.494 47.064-47.064 123.115-48.206 172.164-4.337a35 35 0 0 1 5.33 4.337 35 35 0 0 1 4.433 5.455c43.761 49.053 42.594 125.013-4.433 172.04M539.25 339.25c21.967-21.967 21.967-56.533 0-78.5s-56.533-21.967-78.5 0-21.967 56.533 0 78.5 56.533 21.967 78.5 0M323.223 193.934l-108.58-108.58-68.196 68.198V-53.553h207.105l-68.198 68.197 108.58 108.58Z" glyph-name="move-alt" horiz-adv-x="1000" unicode=""/><glyph d="M960 91.05 877.333 8.381 745.714 140 660 54.286 791.618-77.333 708.951-160H960ZM488.125 760c-1.655-131.075-20.632-246.883-82.754-330.84S236.471 286.426 40 274.121l4.375-69.863c209.183 13.101 341.174 80.445 417.266 183.281 76.09 102.836 94.754 234.501 96.484 371.582Zm259.688-21.23c-.685-32.902-2.216-65.648-5.137-98.125l49.804-4.473c3.052 33.925 4.61 67.817 5.313 101.562Zm-10.586-146.641c-4.412-32.189-10.428-64.054-18.497-95.254l48.399-12.52c8.624 33.35 14.989 67.124 19.629 100.977Zm-32.13-141.621c-10.077-30.496-22.354-60.248-36.855-88.809l44.57-22.637c15.68 30.884 28.927 62.944 39.766 95.743Zm-60.234-130.723c-16.782-27.407-35.43-53.482-56.289-77.363l37.656-32.89c23.005 26.337 43.25 54.71 61.27 84.14Zm-89.277-111.914c-23.004-22.062-48.001-42.159-74.453-60.215l28.183-41.308c28.605 19.525 55.764 41.343 80.88 65.43Zm-115.195-85.84C412.578 105.95 383.54 91.86 353.67 79.63l18.946-46.27c31.823 13.03 62.89 28.1 92.793 45.391ZM308.26 62.637c-30.62-10.425-61.904-19.046-93.613-26.055l10.782-48.828c33.383 7.378 66.454 16.498 98.945 27.559ZM166.798 27.266c-32.072-5.41-64.429-9.255-96.934-11.68l3.711-49.863c33.975 2.534 67.877 6.566 101.543 12.246Z" glyph-name="offset" horiz-adv-x="1000" unicode=""/><glyph d="M290.454 776.66c-74.67 0-149.406-28.22-205.825-84.639-112.839-112.838-112.839-298.725 0-411.563h.087c45.937-45.847 92.77-92.745 139.374-139.374 30.972-30.989 61.641-61.623 92.595-92.595l15.826-15.826 31.564-31.652 158.347 158.26-31.652 31.652-108.42 108.421c-46.625 46.65-93.405 93.495-139.462 139.461-27.51 27.561-27.554 67.402 0 94.956C270.443 561.316 310.37 561.324 337.932 533.761l139.373-139.46 108.421-108.422 31.652-31.564 158.26 158.26-31.564 31.564L635.565 552.56 496.192 692.021c-56.42 56.42-131.068 84.638-205.738 84.638m0-44.68c63.188 0 126.358-23.883 174.086-71.611l139.373-139.461-94.956-94.956-139.373 139.461C325.716 609.281 255.092 609.27 211.237 565.413c-43.856-43.855-43.794-114.386 0-158.26 46.035-45.945 92.82-92.791 139.46-139.46l-94.955-94.957c-46.61 46.64-93.416 93.505-139.374 139.374h-.087c-95.455 95.455-95.455 252.804 0 348.259 47.727 47.728 110.985 71.61 174.173 71.61Zm638.285-382.447c-39.336 0-71.173-31.837-71.173-71.174 0-26.588 14.695-49.582 36.286-61.817-11.901-83.335-23.75-168.558-36.286-250.768-15.577 0-29.896-5.156-41.62-13.64l-118.65 84.551c1.203 5.191 1.923 10.531 1.923 16.089 0 39.336-31.837 71.26-71.173 71.26-39.337 0-71.26-31.924-71.26-71.26S588.71-18.4 628.045-18.4c17.433 0 33.174 6.477 45.554 16.876l116.29-82.803c-2.107-6.729-3.584-13.735-3.584-21.16 0-39.335 31.924-71.172 71.26-71.172s71.173 31.837 71.173 71.173c0 22.828-10.927 42.925-27.63 55.96L937.92 208.06c34.947 4.552 62.08 34.11 62.08 70.298 0 39.337-31.924 71.174-71.26 71.174" glyph-name="snap" horiz-adv-x="1000" unicode=""/><glyph d="M47.266 789.378 0 742.618l93.513-94.552 47.266 46.76ZM187.538 647.56l-47.266-46.76 93.518-94.531 47.272 46.78ZM327.82 505.783l-47.266-46.76 93.519-94.531 47.265 46.76Zm102.295 204.739c-6.408 2.053-12.908 3.056-19.38 2.934a53.4 53.4 0 0 1-14.655-2.311l132.925-435.152L85.7 378.456c-9.074-39.258 27.87-101.068 82.83-113.771l384.845-88.438L592.193 69.07c-37.884 2.933-71.424-31.899-81.924-63.5-8.936-28.355-8.547-61.035 1.417-93.656 9.964-32.62 27.893-59.93 51.148-78.452s54.044-28.532 83.848-19.428c134.611 50.723 35.633 263.624 7.789 343.549 98.784-17.08 313.328-98.167 343.524 33.024 7.018 30.363-5.108 60.364-25.195 82.28-20.088 21.916-48.557 37.896-81.79 45.578-33.232 7.68-64.542 9.123-93.527-5.055-28.986-14.177-62.9-44.108-57.884-78.949-.036-2.409.07-4.79.2-7.179l-109.567 29.932-114.845 377.793c-11.716 38.355-57.504 66.618-85.271 75.515m447.782-448.72c22.713-5.25 41.261-16.508 52.017-28.243 10.756-11.734 13.273-21.81 11.411-29.865s-8.528-15.965-23.343-21.79c-14.814-5.824-36.424-7.795-59.137-2.546s-41.255 16.533-52.01 28.268c-10.756 11.735-13.312 21.767-11.45 29.822s8.553 15.958 23.368 21.783c7.407 2.912 16.508 4.892 26.602 5.456 10.095.564 21.185-.26 32.542-2.885M597.58 13.312c5.565-1.15 11.864-4.183 18.868-9.761C628.9-6.367 641.44-24.057 648.25-46.352s6.322-44.007 1.537-59.19-12.204-22.364-20.11-24.78c-7.908-2.415-18.124-.593-30.576 9.322-12.45 9.918-24.959 27.626-31.769 49.921s-6.322 44.008-1.537 59.19 12.21 22.39 20.118 24.805c1.977.604 4.1.944 6.36.958 1.695.01 3.453-.18 5.308-.562Z" glyph-name="split" horiz-adv-x="1000" unicode=""/><glyph d="M607.129 425.41a36.7 36.7 0 0 1-10.117-1.25l80.957-302.129-302.13 80.957c-7.168-26.756 17.21-56.369 54.669-66.406L692.813 66.66l23.652-88.3c-1.645.032-3.287.042-4.942-.04a20 20 0 0 1-11.074.234 20 20 0 0 1-9.492-5.742c-14.99-7.707-26.73-20.37-32.305-36.132-6.814-19.268-7.319-41.726-1.25-64.375 6.07-22.65 17.746-41.838 33.282-55.118s36.435-20.896 57.129-15.351 34.962 22.587 41.777 41.855 7.338 41.726 1.27 64.375c-2.897 10.81-7.1 20.8-12.364 29.766l-30.41 114.082 114.082-30.41c8.967-5.263 18.956-9.467 29.766-12.363 22.649-6.07 45.107-5.546 64.375 1.27 19.268 6.814 36.31 21.083 41.855 41.777 5.545 20.693-2.072 41.593-15.351 57.128-13.28 15.536-32.468 27.213-55.118 33.282s-45.107 5.564-64.375-1.25c-15.762-5.575-28.425-17.316-36.133-32.305a20 20 0 0 1-5.742-9.492 20 20 0 0 1 .234-11.074c-.08-1.655-.071-3.297-.038-4.942l-88.301 23.653-69.922 262.304c-8.782 32.776-32.558 55.542-56.29 55.918m287.93-318.691c6.948.147 14.545-.68 22.285-2.754 15.48-4.148 27.948-12.326 35.058-20.645 7.11-8.318 8.6-15.291 7.13-20.78-1.472-5.49-6.227-10.766-16.544-14.415s-25.223-4.5-40.703-.352-27.948 12.346-35.058 20.664-8.62 15.272-7.149 20.762 6.246 10.765 16.563 14.414c5.158 1.825 11.469 2.959 18.418 3.106M715.195-59.571c4.66-.133 10.129-2.323 16.367-7.656 8.319-7.11 16.517-19.578 20.665-35.058s3.297-30.386-.352-40.703-8.924-15.072-14.414-16.543-12.463.018-20.781 7.129c-8.319 7.11-16.497 19.578-20.645 35.058s-3.297 30.386.352 40.703 8.924 15.092 14.414 16.563a15.2 15.2 0 0 0 4.395.508M642.07 800a35 35 0 0 1-34.258-32.52l-11.035-154.804L485 529.707c-20.857 15.754-46.667 25.215-74.668 25.215-68.897 0-125.508-56.61-125.508-125.508 0-14.937 2.806-29.23 7.676-42.559L122.832 260.937a35 35 0 0 1-12.422-17.266L1.72-89.94a35 35 0 0 1 22.441-44.121 35 35 0 0 1 44.121 22.441l105.235 322.988 160.312 118.965c21.244-16.473 47.771-26.406 76.504-26.406 66.512 0 121.053 52.876 124.785 118.515a35 35 0 0 1 .703 6.973 35 35 0 0 1-.723 7.07c-.751 13.043-3.588 25.547-8.046 37.266l124.355 92.285a35 35 0 0 1 14.063 25.625l12.168 170.86a35 35 0 0 1-32.422 37.383 35 35 0 0 1-3.145.098M410.332 484.922c31.066 0 55.488-24.442 55.488-55.508s-24.422-55.488-55.488-55.488-55.508 24.422-55.508 55.488 24.442 55.508 55.508 55.508m-261.27 281.191-37.421-33.144 66.289-74.864 37.441 33.145Zm99.454-112.304-37.442-33.145 66.309-74.863 37.422 33.144Zm298.34-336.875-37.442-33.164 66.309-74.864 37.422 33.164Z" glyph-name="split-line" horiz-adv-x="1000" unicode=""/><glyph d="M417.852 800a35 35 0 0 1-3.984-.195l-382.5-40A35.004 35.004 0 0 1 0 725l-.001-455a35.004 35.004 0 0 1 37.48-34.902l441.895 31.386a35 35 0 0 1 30.723 23.809l105.605 316.113a35 35 0 0 1-9.883 37.188l-165 147.5A35 35 0 0 1 417.851 800m-12.13-71.426 136.29-121.816-90.918-272.11L70 307.558v385.919Zm-264.1-53.437-34.63-36.055 72.13-69.277 34.628 36.074ZM249.804 571.25l-34.63-36.074 72.13-69.258 34.629 36.055Zm108.203-103.906-34.649-36.055 72.13-69.277 34.628 36.054Zm249.12-41.934a36.7 36.7 0 0 1-10.117-1.25l80.958-302.129-302.13 80.957c-7.168-26.756 17.21-56.369 54.669-66.406L692.813 66.66l23.652-88.3c-1.645.032-3.287.041-4.942-.04a20 20 0 0 1-11.074.234 20 20 0 0 1-9.492-5.742c-14.99-7.707-26.73-20.37-32.305-36.132-6.814-19.268-7.319-41.726-1.25-64.375 6.07-22.65 17.746-41.838 33.282-55.118s36.435-20.896 57.129-15.351 34.962 22.587 41.777 41.855 7.338 41.726 1.27 64.375c-2.897 10.81-7.1 20.8-12.364 29.766l-30.41 114.082 114.082-30.41c8.967-5.263 18.956-9.467 29.766-12.363 22.649-6.07 45.107-5.546 64.375 1.27 19.268 6.814 36.31 21.083 41.855 41.777 5.545 20.693-2.072 41.593-15.351 57.128-13.28 15.536-32.468 27.213-55.118 33.282s-45.107 5.564-64.375-1.25c-15.762-5.575-28.425-17.316-36.133-32.305a20 20 0 0 1-5.742-9.492 20 20 0 0 1 .234-11.074c-.081-1.655-.071-3.297-.038-4.942l-88.301 23.653-69.922 262.304c-8.782 32.776-32.558 55.542-56.29 55.918m-32.753-165.86-34.629-36.073 36.055-34.63 34.629 36.055ZM895.059 106.72c6.948.147 14.545-.68 22.285-2.754 15.48-4.148 27.948-12.326 35.058-20.645 7.11-8.318 8.6-15.291 7.13-20.78-1.472-5.49-6.227-10.766-16.544-14.415s-25.223-4.5-40.703-.352-27.948 12.346-35.058 20.664-8.62 15.272-7.149 20.762 6.246 10.765 16.563 14.414c5.158 1.825 11.469 2.959 18.418 3.106M715.195-59.571c4.66-.133 10.129-2.323 16.367-7.656 8.319-7.11 16.517-19.578 20.665-35.058s3.297-30.386-.352-40.703-8.924-15.072-14.414-16.543-12.463.02-20.781 7.129c-8.319 7.11-16.497 19.578-20.645 35.058s-3.297 30.386.352 40.703 8.924 15.092 14.414 16.563c1.372.368 2.84.552 4.394.508" glyph-name="split-polygon" horiz-adv-x="1000" unicode=""/><glyph d="M685.252 755.722a35 35 0 0 1-2.06-.613L194.047 594.663a35 35 0 0 1-22.924-24.32L52.073 120.026a35.004 35.004 0 0 1 18.584-40.455l481.38-232.937a35.004 35.004 0 0 1 43.999 11.547L942.83 357.228a35 35 0 0 1 .764 38.805l-219.98 344.652a35 35 0 0 1-38.363 15.036m-6.034-75.583 186.915-292.871-79.14-26.948 16.118-47.324 31.11 10.6L592.989-23.517l.162 21.052-49.979.358-.517-68.928L127.12 130.025 233.94 534.076Zm60.452-335.937-94.667-32.24 16.118-47.324 94.667 32.24Zm-141.99-48.358-35.67-12.146a25 25 0 0 1-16.94-23.485l-.449-62.318 50.003-.372.312 44.568 18.861 6.429Zm-53.43-147.952-.725-100.002 49.998-.352.73 99.982Z" glyph-name="convex-hull" horiz-adv-x="1000" unicode=""/><glyph d="M20.996 800v-19.14H0v-60h30V770h50.996v30Zm90 0v-30h60v30Zm90 0v-30h60v30Zm90 0v-30h60v30Zm90 0v-30h60v30Zm90 0v-30h60v30Zm90 0v-30h60v30Zm90 0v-30h18.008v-11.992h30V800Zm18.008-71.992v-60h30v60ZM0 690.859v-60h30v60Zm669.004-52.851v-60h30v60ZM0 600.859v-60h30v60Zm669.004-52.851v-60h30v60ZM0 510.859v-60h30v60Zm669.004-52.851v-60h30v60ZM0 420.859v-60h30v60Zm669.004-52.851v-60h30v60ZM0 330.859v-60h30v60Zm669.004-52.851v-60h30v60ZM0 240.859v-51.914h38.086v30H30v21.914Zm68.086-21.914v-30h60v30Zm90 0v-30h60v30Zm90 0v-30h60v30Zm90 0v-30h60v30Zm90 0v-30h60v30Zm90 0v-30h60v30Zm90 0v-30h60v30Zm96.484-18.984a20.76 20.76 0 0 1-11.621-2.715 20.75 20.75 0 0 1-10.273-20.527l31.367-336.758c2.006-16.351 21.344-23.987 33.965-13.399l66.23 53.711 29.688-51.425c17.076-29.578 44.172-36.842 73.75-19.766 29.577 17.077 36.842 44.173 19.765 73.75l-29.59 51.25 78.477 30.078c15.48 5.636 18.548 26.2 5.39 36.113L715.763 195.84a20.73 20.73 0 0 1-11.191 4.121" glyph-name="select-extent" horiz-adv-x="1000" unicode=""/><glyph d="M290.45 800c-74.671 0-149.402-28.21-205.821-84.629-112.838-112.838-112.838-298.744 0-411.582h.078c45.937-45.847 92.772-92.727 139.375-139.355 30.972-30.99 61.644-61.627 92.598-92.598l15.84-15.84 31.562-31.64 158.34 158.261-31.66 31.64-108.418 108.419c-46.624 46.65-93.397 93.506-139.453 139.472-27.511 27.561-27.555 67.407 0 94.961C270.445 584.664 310.367 584.672 337.93 557.11l139.375-139.473 108.418-108.418 31.66-31.563 158.262 158.262-31.563 31.562-108.516 108.418-139.375 139.473C439.772 771.791 365.12 800 290.45 800m0-44.688c63.188 0 126.354-23.873 174.081-71.601l139.375-139.453-94.941-94.961L369.59 588.75c-43.868 43.868-114.504 43.855-158.36 0-43.855-43.855-43.793-114.388 0-158.262 46.036-45.945 92.832-92.784 139.473-139.453l-94.96-94.96c-46.611 46.638-93.418 93.506-139.376 139.374h-.078c-95.455 95.455-95.455 252.807 0 348.262 47.727 47.728 110.972 71.602 174.16 71.601M978.79 457.09l-42.442-42.422 21.21-21.211L1000 435.879Zm-63.653-63.633-42.422-42.422 21.21-21.21 42.423 42.421Zm-63.633-63.633-42.422-42.441 21.211-21.211 42.422 42.422Zm-63.652-63.652L745.43 223.75l21.21-21.21 42.442 42.42Zm-63.633-63.633-42.422-42.422 21.21-21.21 42.423 42.421Zm-63.633-63.633-42.422-42.441 21.211-21.211 42.422 42.422Zm-588.223-.547-21.21-21.21 42.421-42.422 21.211 21.21Zm524.57-63.105-42.421-42.422 21.21-21.21 42.442 42.421Zm-460.917-.527-21.23-21.211 42.44-42.422 21.212 21.21ZM533.3 11.62 490.879-30.8l21.21-21.21L554.513-9.59Zm-333.653-.527-21.21-21.211 42.421-42.442 21.211 21.211Zm167.09-42.95L305.45-94.706l-42.168 42.148-21.21-21.21 42.421-42.422L366.211-200l82.246 84.336 42.422 42.422-21.211 21.23L427.52-94.18l-50.313 51.582Zm0-42.968 39.805-40.82-40.332-41.368-39.805 40.84Z" glyph-name="snap-ortho" horiz-adv-x="1000" unicode=""/><glyph d="M445.502 694.736C182.344 694.736 0 484.207 0 378.946c0-105.263 52.631-184.21 157.895-184.21 105.263 0 157.895-26.315 157.895-105.262 0-105.267 78.947-184.21 184.21-184.21 342.105 0 500 184.21 500 368.42 0 315.79-238.709 421.052-554.498 421.052m-70.239-105.262c36.334 0 65.79-29.457 65.79-65.79s-29.456-65.791-65.79-65.791c-36.333 0-65.79 29.457-65.79 65.79s29.457 65.79 65.79 65.79m210.527 0c36.333 0 65.789-29.457 65.789-65.79s-29.456-65.791-65.79-65.791c-36.333 0-65.789 29.457-65.789 65.79s29.456 65.79 65.79 65.79m190.526-105.267c36.334 0 65.79-29.452 65.79-65.786 0-36.333-29.456-65.79-65.79-65.79s-65.79 29.457-65.79 65.79 29.456 65.786 65.79 65.786M191.053 471.58c36.333 0 65.789-29.458 65.789-65.79 0-36.334-29.456-65.791-65.79-65.791-36.333 0-65.789 29.457-65.789 65.79s29.456 65.79 65.79 65.79M540 168.42c43.601 0 78.947-35.347 78.947-78.947 0-43.605-55.346-78.948-98.947-78.948s-78.947 35.343-78.947 78.948c0 43.6 55.346 78.947 98.947 78.947" glyph-name="color" horiz-adv-x="1000" unicode=""/><glyph d="M798.502 756.136a10 10 0 0 1-5.645-1.523L621.89 637.756a10 10 0 0 1-3.516-13.145l84.251-187.172c4.254-8.027 16.141-6.684 18.496 2.09l29.323 108.715c78.941-24.988 138.826-89.777 155.137-171.524 16.984-85.118-7.786-167.922-76.582-220.841-4.38-3.366-5.201-9.644-1.836-14.024l34.736-94.102c3.371-4.373 9.649-5.186 14.023-1.817 95.788 73.682 141.587 229.87 117.94 348.382-22.986 115.202-108.023 207.69-219.96 241.523l33.937 107.696c1.678 6.227-2.89 12.39-9.336 12.598M240.637 463.17a35 35 0 0 1-30.059-19.727L3.488 15.436a35.004 35.004 0 0 1 26.29-49.844L779.933-147.16a35.004 35.004 0 0 1 38.457 45.508L675.734 333.268a35 35 0 0 1-24.316 22.93l-400.39 105.84a35 35 0 0 1-10.39 1.133m20.39-76.172 354.121-93.633L734.191-69.505 87.2 27.741ZM417.97 689.863l15.586-47.52 95.02 31.173-15.587 47.52ZM525.78 614.22l49.434-7.442 14.863 98.887-49.433 7.441ZM275.45 643.105l15.586-47.52 95.02 31.173-15.586 47.52ZM132.91 596.348l15.586-47.5 95.02 31.172-15.586 47.5Zm370.567-130.47 49.453-7.421 14.863 98.887-49.453 7.422Zm-432.48-25.116 48.339-12.774 25.566 96.68-48.34 12.773ZM481.19 317.539l49.434-7.422 14.863 98.887-49.433 7.422ZM32.656 295.742l48.34-12.773 25.567 96.68-48.34 12.773Zm426.23-126.523 49.454-7.442 14.863 98.887-49.453 7.441ZM.82 175.352l3.028-19.688 10.254-9.2 22.949-11.093 21.777 45-4.394 2.129 13.789 52.129-48.34 12.773Zm81.23-61.758 90.02-43.555 21.778 45-90.02 43.555Zm354.532-92.715 49.453-7.442 14.863 98.907-49.453 7.422ZM217.07 48.262l90.02-43.555 21.777 45-90.02 43.555ZM352.09-17.07l90.02-43.555 10.898 22.5 24.726-3.71.88 5.839-22.93 3.437 8.203 16.934-90.02 43.555Z" glyph-name="rotate" horiz-adv-x="1000" unicode=""/><glyph d="M.02 60.547A35 35 0 0 1 20.527 29.57l310-140.722A35.004 35.004 0 0 1 380-79.257l-.509 758.573a35.004 35.004 0 0 1-55.8 28.125L44.745 501.31a35 35 0 0 1-14.102-25.547L.098 64.043a35 35 0 0 1-.078-3.496Zm71.699 22.676L99.258 454.57 309.53 609.96l.43-634.901ZM474.999-200h50v100h-50Zm0 150h50V50h-50Zm0 150h50v100h-50Zm0 150h50v100h-50Zm0 150h50v100h-50Zm0 150h50v100h-50Zm0 150h50v100h-50ZM620-79.258a35.004 35.004 0 0 1 49.473-31.895l310 140.723a35 35 0 0 1 20.508 30.977 35 35 0 0 1-.078 3.496l-30.546 411.719a35 35 0 0 1-14.102 25.547L676.309 707.44a35.004 35.004 0 0 1-55.8-28.125Z" glyph-name="flip-h" horiz-adv-x="1000" unicode=""/><glyph d="M0 275h100v50H0Zm150 0h100v50H150Zm150 0h100v50H300Zm150 0h100v50H450Zm150 0h100v50H600Zm150 0h100v50H750Zm150 0h100v50H900ZM260.547 799.98a35 35 0 0 1-30.977-20.508l-140.722-310A35.004 35.004 0 0 1 120.743 420l758.573.509a35.004 35.004 0 0 1 28.125 55.8L701.31 755.255a35 35 0 0 1-25.547 14.102l-411.719 30.546a35 35 0 0 1-3.496.078m22.676-71.699 371.347-27.539L809.96 490.47l-634.901-.43ZM120.743 180a35.004 35.004 0 0 1-31.895-49.473l140.722-310a35 35 0 0 1 30.977-20.508 35 35 0 0 1 3.496.078l411.719 30.548a35 35 0 0 1 25.547 14.102L907.44 123.69a35.004 35.004 0 0 1-28.125 55.8Z" glyph-name="flip-v" horiz-adv-x="1000" unicode=""/><glyph d="M24.368 402.022c-34.449-59.667-13.728-136.998 45.939-171.447 33.657-19.432 72.916-21.288 106.943-8.52l130.605-192.34c-4.021-4.968-7.804-10.195-11.096-15.898C262.31-45.85 283.03-123.181 342.698-157.63c59.666-34.449 136.981-13.718 171.43 45.949 33.255 57.6 14.73 131.272-40.245 167.325a35 35 0 0 1-5.687 4.095 35 35 0 0 1-6.39 2.878c-30.776 15.509-65.46 17.051-96.326 6.831L233.364 264.015c2.99 3.977 5.827 8.1 8.373 12.509 23.067 39.953 21.19 87.613-.453 125.113L371.08 532.312c55.296-21.136 119.677-.39 151.534 51.098l219.973-46.104c4.215-38.523 25.865-74.72 61.712-95.417 59.667-34.449 136.982-13.718 171.43 45.949 33.255 57.6 14.73 131.272-40.245 167.325a35 35 0 0 1-5.687 4.095 35 35 0 0 1-6.39 2.878c-58.711 29.587-131.79 8.801-165.047-48.8-1.335-2.313-2.446-4.684-3.617-7.046l-213.656 44.78c-.849 40.338-21.037 79.492-56.654 102.85a35 35 0 0 1-5.687 4.095 35 35 0 0 1-6.39 2.877c-58.711 29.587-131.791 8.801-165.047-48.8-25.499-44.165-20.695-97.964 7.68-136.931L190.921 450.267a35 35 0 0 1-1.507.554c-58.71 29.588-131.79 8.802-165.046-48.8m60.621-35c15.534 26.904 48.912 35.833 75.816 20.3s35.843-48.894 20.31-75.798-48.904-35.86-75.808-20.327-35.85 48.92-20.318 75.825m282.943 310.07c15.533 26.904 48.91 35.834 75.815 20.3 26.904-15.533 35.843-48.894 20.31-75.798s-48.904-35.86-75.808-20.327-35.85 48.921-20.317 75.825M357.38-21.183c15.533 26.904 48.911 35.833 75.816 20.3 26.904-15.533 35.843-48.894 20.31-75.798s-48.904-35.86-75.808-20.327-35.85 48.92-20.318 75.825m461.603 599.519c15.533 26.904 48.911 35.833 75.815 20.3s35.843-48.894 20.31-75.798-48.904-35.86-75.808-20.327-35.85 48.92-20.317 75.825m-621.268 14.2c-9.972-2.793-10.842-5.854-13.926-15.039l-16.914-50.332 47.402-15.918 13.34 39.668 32.832 13.965-19.57 46.016ZM501.72 509.46l69.297-72.09 36.035 34.649-69.297 72.09Zm128.712-49.169 22.813-44.492 88.984 45.606-22.812 44.492ZM79.768 77.118l49.766-4.804 9.629 99.55-49.785 4.805Zm73.169-58.997 91.191-41.016 20.527 45.586-91.191 41.035Z" glyph-name="simplify" horiz-adv-x="1000" unicode=""/><glyph d="M35 674.5a90.5 90.5 0 0 1 181 0 90.5 90.5 0 0 1-181 0m509.434-488.858a75 75 0 0 1 150 0 75 75 0 0 1-150 0m-13.248 336.932-82.667-82.667-131.618 131.618-85.715-85.714 131.619-131.618-82.668-82.668h251.05ZM462.266-200c5.3 32.054 12.194 63.741 21.122 94.706L435.354-91.44c-9.543-33.098-16.839-66.684-22.413-100.396Zm36.03 140.679c10.918 30.205 24.012 59.607 39.297 87.756l-43.928 23.86c-16.528-30.439-30.655-62.12-42.396-94.607Zm63.825 129.008c17.534 26.933 36.895 52.482 58.406 75.778l-36.732 33.918c-23.724-25.691-44.746-53.495-63.572-82.415Zm92.337 109.403c23.605 21.418 49.148 40.816 76.09 58.134l-27.032 42.072c-29.133-18.727-56.885-39.786-82.656-63.17Zm117.524 82.623c28.247 15.308 57.663 28.59 87.858 39.99l-17.66 46.775c-32.17-12.146-63.641-26.35-94.012-42.809Zm133.72 55.72C936.6 327.007 968.11 334.76 1000 340.89l-9.428 49.108c-33.574-6.453-66.884-14.655-99.669-24.814Z" glyph-name="proj-point" horiz-adv-x="1000" unicode=""/><glyph d="m391.497 749.717-3.359-2.832-40.39-40.684 35.468-35.234 30.84 31.035 28.457-5.957 10.254 48.926-41.758 8.77Zm99.961-63.926 97.871-20.527 10.254 48.945-97.87 20.508Zm146.797-30.781 97.871-20.508 10.254 48.926-97.87 20.527Zm-396.23-55.215 35.468-35.234 70.489 70.937-35.469 35.234ZM136.322 493.369l35.468-35.234 70.47 70.937-35.47 35.235ZM30.599 386.943l35.488-35.234 70.469 70.957-35.469 35.234Zm709.766-40.273 39.101-31.152 34.397 43.872-11.174 65.503ZM24.779 316.807l56.171-82.735 41.368 28.086-56.172 82.735Zm622.109-87.442 39.102-31.152 62.324 78.203-39.102 31.152Zm-537.852-36.66 56.192-82.715 41.347 28.086-56.171 82.715Zm444.375-80.664 39.102-31.152 62.324 78.203-39.101 31.172ZM193.314 68.623l56.172-82.734 41.367 28.086-56.172 82.734Zm266.62-73.887 39.102-31.152 62.325 78.203-39.102 31.152ZM277.573-55.479l56.171-82.734 41.368 28.106-56.172 82.714Zm88.886-67.09 39.102-31.171 62.324 78.222-39.101 31.153ZM242.025 599.796a35 35 0 0 1-25.059-10.332L10.17 381.279a35.004 35.004 0 0 1-4.121-44.336l189.258-278.71a35.004 35.004 0 0 1 56.328-2.148l334.941 420.37A35.004 35.004 0 0 1 566.4 532.51l-317.421 66.543a35 35 0 0 1-6.953.742m11.21-73.164 243.204-50.977-269.922-338.77L80.15 352.413Zm534.106 196.687 26.091-113.96-181.441-41.541 27.052-118.161 181.442 41.54 26.091-113.96L1000 589.895Z" glyph-name="scale-poly" horiz-adv-x="1000" unicode=""/><glyph d="m228.75 789.316-7.383 2.832-10.762-27.988 13.223-5.078 36.426-107.852-83.145-57.773 18.418 47.93-27.988 10.781-21.543-56.016 22.52-8.652-25.098-17.441a24.4 24.4 0 0 1-4.004-3.496l-4.18 1.601-8.535-22.187c-2.863-7.447.605-15.832 7.89-19.082l33.067-14.786 8.32 18.614 114.551 79.609 420.977-240.371L116.64 32.676 55.8 88.496l4.277 2.383-14.59 26.23-30.39-16.914A15 15 0 0 1 7.383 87.09V68.34l-1.66-2.168 1.66-1.524v-2.773h3.027L83.38-5.059l-45.996-95.996v42.95h-30v-60h21.816l-14.375-30H7.383v-15.8c-2.385-7.824-2.306-14.852 0-21.095 6.947-20.604 34.394-18.474 43.262-1.016l15.234 31.817 9.922-16.973 51.797 30.274L112.46-115l-38.594-22.559 57.285 119.551 638.633 362.09 146.309 8.848 14.433-24.707 51.817 30.273c9.084 4.228 14.857 14.13 14.531 24.922q-.016.292-.039.586c-.284 5.603-2.208 10.958-5.488 15.273l.117.215-.488.274c-4.235 5.292-10.24 8.496-16.66 8.886l-35.762 19.141-11.66-21.836-158.34-9.59-459.961 262.617L271.114 770l6.093 11.406-15.469 8.282c-13.44 8.802-21.923 7.887-32.988-.372m74.922-22.05-14.16-26.465 52.91-28.281 14.14 26.445Zm-103.848-31.114-21.523-55.996 28.008-10.761 21.523 55.996Zm183.203-11.328-14.14-26.445 52.89-28.3 14.16 26.464Zm79.356-42.441-14.14-26.446 52.91-28.28 14.14 26.445Zm79.355-42.422-14.14-26.465 52.91-28.281 14.14 26.445Zm79.375-42.441-14.16-26.446 52.91-28.3 14.14 26.464Zm79.356-42.442-14.14-26.445 52.91-28.281 14.14 26.445Zm-493.184-27.832-12.246-27.383 54.766-24.511 12.246 27.382Zm572.54-14.59-14.141-26.465 52.91-28.28 14.14 26.444Zm-490.391-22.168-12.247-27.383 54.766-24.492 12.246 27.383Zm569.746-20.273-14.14-26.445 52.91-28.301 14.14 26.465ZM371.582 453.75l-12.246-27.383 54.766-24.492 12.246 27.383Zm82.148-36.738-12.246-27.403 52.207-23.359L465 350.312l14.57-26.23 52.442 29.16-14.57 26.211-19.669-10.937 10.723 23.984Zm435.762-78.028-51.797-30.254 15.137-25.898 51.797 30.254Zm-450.703-3.261-52.441-29.141 14.57-26.23 52.441 29.16Zm373.008-42.13L760 263.32l15.117-25.898 51.817 30.273Zm-451.68-1.581-52.441-29.16 14.59-26.211 52.441 29.14Zm-78.652-43.73-52.442-29.16 14.59-26.212 52.422 29.14Zm452.637-.079-51.817-30.273 15.137-25.899 51.797 30.254Zm-531.29-43.652-52.44-29.14 14.57-26.231 52.44 29.16Zm453.575-1.758L604.59 172.52l15.137-25.899 51.796 30.274ZM124.16 160.82 71.72 131.68l14.57-26.23 52.441 29.16Zm454.531-3.418-51.816-30.273 15.137-25.898 51.816 30.273Zm-77.714-45.41L449.18 81.738l15.136-25.918 51.797 30.274Zm-77.696-45.39-51.797-30.274 15.137-25.898 51.797 30.273ZM7.383 31.875v-60h30v60Zm338.203-10.684L293.77-9.063l15.136-25.898 51.797 30.254Zm-77.715-45.39-51.797-30.274 15.137-25.898 51.797 30.273Zm-77.695-45.41-51.797-30.254 15.117-25.899 51.816 30.254Z" glyph-name="skeletonize" horiz-adv-x="1000" unicode=""/><glyph d="M331.23 585.352c-9.723-.11-14.096-10.049-17.187-17.674C246.297 427.4 178.12 287.308 110.645 146.914c-3.473-9.716 5.123-20.12 15.154-19.82C375.432 89.637 625.036 51.92 874.688 14.628c11.005-.686 19.012 12.26 13.888 21.978-47.595 144.794-94.852 289.715-142.658 434.428-4.982 10.19-18.277 9.154-27.422 12.687-128.3 33.8-256.504 68.054-384.863 101.571-.797.054-1.603.1-2.403.059ZM885.04 18.437c-1.368-.74.02-.456 0 .0004999999999988347M328.593 690.314c-29.16-.383-56.14-12.448-76.758-30.997-10.275-9.213-19.098-20.073-25.938-32.226l43.575-24.512c4.07 7.234 9.439 13.878 15.722 19.512l.04.04c12.317 11.087 28.596 17.98 44.023 18.183h1.972l.567 50h-2.852l-.02-25Zm58.047-10.547-12.54-48.399c32.231-8.344 64.454-16.774 96.66-25.254l12.735 48.36a24159 24159 0 0 1-96.855 25.293m145.214-38.028-12.753-48.36 18.671-4.921 77.97-20.664 12.812 48.34-77.989 20.664h-.02Zm145.02-38.398L664.082 555l21.23-5.625-4.94 1.895c31.682-16.142 60.159-13.89 76.386-21.114l20.332 45.684c-31.585 14.061-58.582 12.113-74.024 19.98a25 25 0 0 1-4.96 1.895Zm-473.242-22.735c-14.49-29.995-29.024-59.974-43.555-89.98l45-21.797c14.526 29.996 29.065 59.986 43.574 90.02Zm622.578-41.152-38.79-31.543A59.8 59.8 0 0 0 795.41 495c8.214-23.563 15.975-47.613 24.122-71.855l47.383 15.918c-8.176 24.329-16.123 49.099-24.805 73.925a25 25 0 0 1-.762 1.914c-3.96 8.902-9.097 17.124-15.136 24.551m-687.93-93.828-22.402-46.25v-.02l-21.172-43.77 45.02-21.757 21.152 43.75 22.402 46.25Zm744.375-54.14-47.48-15.684c10.449-31.62 20.85-63.278 31.21-94.942l47.52 15.547a34324 34324 0 0 1-31.25 95.078M72.97 310.546a31352 31352 0 0 1-43.36-90.195l45.098-21.602a31307 31307 0 0 0 43.3 90.059Zm856.484-61.64-47.5-15.567c10.376-31.658 20.718-63.361 31.133-95.059l47.5 15.606c-10.395 31.638-20.745 63.326-31.133 95.02M7.852 169.667c-7.656-31.908-.676-64.824 15.937-91.406v-.02c5.416-8.662 11.947-16.766 19.59-23.965l34.277 36.407c-4.305 4.054-8.182 8.815-11.465 14.062v.02c-9.939 15.912-13.826 36.055-9.707 53.222Zm968.086-63.379-47.52-15.566c6.077-18.56 12.633-34.298 15.254-48.496 2.105-11.52 1.686-23.216-1.465-33.223l47.695-15c6.016 19.108 6.329 38.825 2.97 57.207l-.02.04c-3.957 21.483-11.755 39.28-16.914 55.038m-865.84-31.934L98.77 25.665c25.673-5.968 49.664-7.372 70.703-11.349a25 25 0 0 1 .918-.156l29.101-4.355 7.422 49.433-29.101 4.375c-24.8 4.609-47.776 6.108-67.715 10.742m146.27-22.539-7.423-49.453C281.9-2.583 314.847-7.54 347.813-12.5l7.44 49.434c-32.958 4.959-65.912 9.933-98.886 14.882m148.339-22.304-7.441-49.453 98.886-14.883 7.442 49.453Zm148.32-22.325-7.422-49.433 58.926-8.848h.02l39.96-5.976 7.384 49.453-39.942 5.957ZM701.328-15.02l-7.344-49.453 84.278-12.539h.02l14.628-2.168 7.324 49.453-14.629 2.168Zm220.918-6.64a73 73 0 0 0-4.941-4.16l-.04-.02c-13.309-10.307-30.477-15.858-45.956-14.394l-21.621 3.203-7.325-49.473 22.774-3.36a25 25 0 0 1 1.25-.156c30.025-2.909 58.931 7.153 81.484 24.61l.02.02a123 123 0 0 1 8.32 7.031Z" glyph-name="dilatation" horiz-adv-x="1000" unicode=""/><glyph d="M329.941 645.332c-30.981-.27-59.08-22.284-69.648-50.937C191.857 452.76 123.018 311.31 55.02 169.473c-15.96-37.885 6.555-86.556 46.23-98.047 20.472-6.114 42.059-6.777 62.969-10.82C399.269 25.347 634.277-10.23 869.375-45.118c39.611-4.096 78.413 28.992 80.45 68.808 1.964 25.006-10.888 47.633-17.208 71.114-43.887 133.342-87.142 266.904-131.62 400.039-10.422 25.033-35.554 41.053-61.661 45.43-131.668 34.637-263.183 69.967-394.98 104.062-4.76.878-9.589 1.015-14.415.996m38.653-84.727 96.699-25.488-12.754-48.36-96.68 25.49Zm-59.922-38.144 45.02-21.758-43.497-90.039-45.02 21.758Zm204.96-.098 96.7-25.488-12.734-48.34-96.7 25.488Zm145.06-38.223 60.37-15.918a25 25 0 0 0 17.383-16.387l11.72-35.683-47.5-15.586-7.481 22.774-47.246 12.44Zm-415.274-96.758 45.02-21.738-43.497-90.039-45.02 21.738Zm520.352-18.73 31.19-95-47.5-15.605-31.21 95.02ZM178.184 252.324l45.02-21.738-23.575-48.829 65.312-9.824-7.421-49.433-98.887 14.844c-19.733 9.243-18.297 15.232-18.809 35.605Zm632.382-26.172 31.192-95.02-47.5-15.605-31.211 95.02Zm-496.171-61.64 98.886-14.844-7.422-49.454-98.886 14.864Zm148.34-22.266 98.886-14.864L554.2 77.95l-98.886 14.844Zm148.34-22.285 98.886-14.844-7.422-49.453-98.906 14.863Zm148.32-22.266 89.92-13.457-7.421-49.453-89.921 13.457Z" glyph-name="erosion" horiz-adv-x="1000" unicode=""/><glyph d="m652.146 400.418-98.371-63.174-100.581 156.621-101.997-65.502 100.581-156.62-98.371-63.174L598.7 155.123ZM694.746 780a35 35 0 0 1-26.582-11.406l-98.223-107.578-340.351-20.899a35 35 0 0 1-21.406-9.043L11.445 452.13a35 35 0 0 1-2.344-49.434 35 35 0 0 1 49.453-2.344l187.618 170.645 342.207 21.016a35 35 0 0 1 23.691 11.328l107.793 118.066a35 35 0 0 1-2.246 49.434 35 35 0 0 1-22.871 9.16m268.34-589.395-37.734-41.328 36.914-33.71L1000 156.894Zm-71.445-78.242L862.129 80.04l-35.918-2.207 3.066-49.902 46.016 2.812a25 25 0 0 1 16.934 8.105l36.328 39.805ZM776.309 74.766l-99.825-6.133 3.067-49.903 99.824 6.133Zm-149.727-9.2-99.805-6.113 3.067-49.922 99.804 6.133ZM472.148 24.883l-73.964-67.285 33.632-36.993 73.985 67.305ZM361.191-76.035l-55.488-50.469 33.652-36.992 55.47 50.469Z" glyph-name="translate" horiz-adv-x="1000" unicode=""/><glyph d="M246.611 799.99 86.494 481.3a35 35 0 0 1-3.223-21.582l68.75-404.512L24.502-164.912l60.566-35.078L218.936 31.064a35 35 0 0 1 4.219 23.398l-68.946 405.665L309.15 768.584Zm684.22-4.258-20.938-41.68 44.668-22.46 20.937 41.699Zm-43.4-86.367L842.55 620.01l44.668-22.442 44.902 89.356Zm-67.324-134.043-44.902-89.355 44.688-22.442 44.882 89.356Zm-312.52-97.578.919-116.914-186.113-1.465.937-121.21 186.133 1.464.918-116.914 176.113 178.906Zm316.817-47.168-49.297-8.379 16.758-98.594 49.297 8.38Zm25.137-147.89-49.297-8.38 16.758-98.574 49.297 8.38Zm25.137-147.872-49.297-8.378 12.383-72.891-4.004-6.914 43.261-25.078 8.536 14.746a25 25 0 0 1 3.008 16.719ZM808.682 3.35l-50.118-86.524 43.262-25.058 50.117 86.523Zm-75.196-129.786-25.058-43.261 43.261-25.059 25.079 43.262Z" glyph-name="translate-x" horiz-adv-x="1000" unicode=""/><glyph d="M999.99 553.389 681.3 713.506a35 35 0 0 1-21.582 3.223l-404.512-68.75L35.088 775.498.01 714.932l231.054-133.868a35 35 0 0 1 23.398-4.219l405.665 68.946L968.584 490.85Zm-4.258-684.22-41.68 20.938-22.46-44.668 41.699-20.937Zm-86.367 43.4L820.01-42.55l-22.442-44.668 89.356-44.902ZM775.322-20.108l-89.355 44.902-22.442-44.688 89.356-44.882Zm-97.578 312.52-116.914-.919-1.465 186.113-121.21-.937 1.464-186.133-116.914-.918 178.906-176.113ZM630.576-24.405l-8.379 49.297-98.594-16.758 8.38-49.297Zm-147.89-25.137-8.38 49.297-98.574-16.758 8.38-49.297ZM334.814-74.678l-8.378 49.297-72.891-12.383-6.914 4.004-25.078-43.261 14.746-8.536a25 25 0 0 1 16.719-3.008ZM203.35-8.682l-86.524 50.118L91.768-1.826l86.523-50.117ZM73.564 66.514 30.303 91.572 5.244 48.311l43.262-25.079Z" glyph-name="translate-y" horiz-adv-x="1000" unicode=""/><glyph d="M139.96 800c-13.806-.001-24.998-11.193-25-25V100H0v-220h114.96v-55c.002-13.807 11.194-24.999 25-25h720c13.807.001 25 11.193 25 25v758.75c.266 11.13.04 17.767-7.323 25.898L694.609 792.676A25 25 0 0 1 676.621 800Zm25-50h489.024l12.52-145.684c1.04-12.12 10.653-21.733 22.773-22.773l145.684-12.52V-150h-670v30H800v220H164.96Zm39.806-680c23.692 0 42.19-3.801 55.468-11.387 13.365-7.52 21.944-17.925 25.762-31.25l-38.262-5.449Q243.697 32.598 232.5 38.73c-7.377 4.156-16.626 6.23-27.734 6.23-16.837 0-30.235-4.054-40.215-12.167Q149.708 20.624 149.707-3.32q-.002-25.826 15.098-38.79c10.067-8.575 23.254-12.85 39.57-12.85 8.071 0 16.148 1.18 24.219 3.554q12.236 3.662 20.957 8.808v18.399H205.43V.234h83.047v-57.773c-8.071-5.937-19.796-11.19-35.157-15.742C238.046-77.767 222.564-80 206.855-80c-19.96 0-37.366 3.16-52.207 9.492-14.84 6.399-25.993 15.517-33.457 27.324C113.728-31.31 110-18.43 110-4.512q.002 22.66 12.5 40.274 12.498 17.612 36.582 27.011C171.319 67.59 186.541 70 204.766 70m119.12-2.48h61.837c23.432 0 38.704-.717 45.82-2.168 10.935-2.177 20.084-6.936 27.46-14.258 7.378-7.256 11.075-16.64 11.075-28.184 0-8.905-2.134-16.392-6.387-22.46-4.252-6.07-9.673-10.86-16.27-14.356-6.508-3.43-13.152-5.695-19.921-6.817-9.2-1.385-22.517-2.09-39.96-2.09h-25.118V-77.52h-38.535Zm164.805 0h45.04l38.261-46.602 37.5 46.602h44.649L594.785-2.93 660-77.52h-46.465l-42.324 50.157-42.422-50.157h-46.23l65.234 75.684Zm-126.27-24.532V1.836h21.075c15.187 0 25.349.748 30.469 2.266 5.12 1.517 9.109 3.896 11.973 7.128 2.95 3.233 4.433 6.982 4.433 11.27 0 5.277-2.034 9.636-6.113 13.066s-9.26 5.569-15.508 6.426c-4.6.66-13.83.996-27.715.996Zm345.294 665.86 86.094-86.094-79.278 6.816ZM311.07 655.683c-42.292 0-76.944-34.554-76.944-76.725 0-16.34 5.218-31.523 14.05-44.008l53.504-92.49c7.493-9.788 12.476-7.93 18.706.516l59.011 100.426c1.192 2.157 2.126 4.453 2.942 6.798a75.7 75.7 0 0 1 5.669 28.758c0 42.171-34.646 76.725-76.938 76.725m0-35.951c22.773 0 40.883-18.066 40.883-40.774s-18.11-40.766-40.883-40.766-40.89 18.058-40.89 40.766 18.117 40.774 40.89 40.774m-66.343-326.333c-15.22-30.44-7.516-67.55 22.693-84.692 30.208-17.141 64.842-6.946 84.683 22.698 11.395 19.737 10.468 43.28-.224 61.804l104.118 84.551c27.315-10.44 59.118-.192 74.855 25.242l108.663-22.775c2.082-19.03 12.777-36.91 30.484-47.134 29.474-17.017 67.667-6.777 84.683 22.697 16.428 28.454 7.277 64.847-19.88 82.656a17.3 17.3 0 0 1-5.966 3.444c-29.002 14.616-65.102 4.348-81.53-24.106-.66-1.142-1.208-2.313-1.787-3.48l-105.542 22.12c-.42 19.927-10.392 39.268-27.986 50.806a17.3 17.3 0 0 1-5.966 3.444c-29.002 14.616-65.102 4.348-81.53-24.106-12.596-21.817-10.223-48.393 3.794-67.642l-101.288-81.695q-.369.145-.744.274c-29.002 14.616-66.837 5.281-81.53-24.106m29.946-17.29c7.673 13.29 24.16 17.702 37.451 10.029s17.706-24.153 10.033-37.443S298 230.98 284.71 238.653 267 262.82 274.674 276.11m179.768 173.17c7.673 13.29 24.161 17.7 37.451 10.028 13.29-7.673 17.706-24.153 10.033-37.443s-24.157-17.715-37.448-10.041-17.71 24.166-10.036 37.456m222.811-48.784c7.673 13.29 24.161 17.701 37.452 10.028s17.705-24.153 10.032-37.443-24.157-17.714-37.447-10.041-17.71 24.166-10.037 37.456" glyph-name="gpx-file" horiz-adv-x="1000" unicode=""/><glyph d="M139.96 800c-13.806-.001-24.998-11.193-25-25V100H0v-220h114.96v-55c.002-13.807 11.194-24.999 25-25h720c13.807.001 25 11.193 25 25v758.75c.266 11.13.04 17.767-7.323 25.898L694.609 792.676A25 25 0 0 1 676.621 800Zm25-50h489.024l12.52-145.684c1.04-12.12 10.653-21.733 22.773-22.773l145.684-12.52V-150h-670v30H800v220H164.96Zm542.755-41.152 86.094-86.094-79.278 6.816ZM104.785 70c13.698 0 24.394-3.786 32.07-11.367q11.59-11.274 14.903-31.25l-22.13-5.43c-1.554 7.12-4.493 12.71-8.808 16.797-4.264 4.153-9.613 6.23-16.035 6.23-9.734 0-17.472-4.06-23.242-12.167-5.72-8.109-8.594-20.122-8.594-36.075 0-17.205 2.91-30.134 8.73-38.77 5.82-8.569 13.459-12.85 22.891-12.85 4.666 0 9.319 1.18 13.985 3.554 4.716 2.439 8.767 5.38 12.129 8.808v18.38h-25.508V.292h48.008v-57.754c-4.667-5.933-11.432-11.174-20.313-15.723-8.83-4.482-17.793-6.718-26.875-6.718-11.54 0-21.596 3.164-30.176 9.492-8.58 6.394-15.04 15.485-19.355 27.285C52.15-31.259 50-18.362 50-4.453c0 15.095 2.41 28.5 7.227 40.234 4.816 11.734 11.87 20.73 21.152 26.992C85.453 67.586 94.249 70 104.785 70m373.3 0c13.849 0 24.257-3.996 31.231-11.973 7.025-7.976 10.704-18.618 11.055-31.933l-22.266-1.29c-.953 7.45-3.01 12.806-6.171 16.036-3.111 3.296-7.81 4.941-14.082 4.941-6.473 0-11.533-1.76-15.196-5.254-2.358-2.24-3.535-5.227-3.535-8.984 0-3.428 1.093-6.37 3.3-8.809q4.214-4.645 20.47-9.687c10.837-3.362 18.855-6.863 24.023-10.488 5.218-3.56 9.277-8.465 12.188-14.727 2.96-6.196 4.433-13.884 4.433-23.047 0-8.306-1.742-16.069-5.254-23.32s-8.48-12.671-14.902-16.23C496.957-78.26 488.939-80 479.355-80c-13.948 0-24.653 4.219-32.128 12.656-7.476 8.504-11.944 20.854-13.399 37.07l21.68 2.774c1.304-9.558 3.927-16.572 7.89-21.055 4.014-4.482 9.418-6.718 16.192-6.718 7.175 0 12.56 1.962 16.172 5.918 3.662 4.02 5.508 8.703 5.508 14.042 0 3.428-.789 6.338-2.344 8.711-1.505 2.44-4.156 4.549-7.969 6.329-2.609 1.186-8.55 3.295-17.832 6.328Q455.214-8.112 447.988.39c-6.773 7.976-10.176 17.69-10.176 29.16 0 7.383 1.586 14.27 4.747 20.664 3.21 6.46 7.798 11.384 13.77 14.746 6.02 3.362 13.278 5.039 21.757 5.039m113.185 0c16.256 0 29.25-6.633 38.984-19.883 9.784-13.25 14.687-31.674 14.687-55.273 0-23.402-4.847-41.711-14.53-54.961-9.684-13.184-22.623-19.785-38.829-19.785-16.407 0-29.457 6.57-39.14 19.687C542.757-47.03 537.91-28.912 537.91-5.84c0 14.766 1.678 27.168 5.04 37.188 2.508 7.383 5.919 13.996 10.234 19.863 4.365 5.867 9.148 10.212 14.316 13.047C574.374 68.08 582.288 70 591.27 70m-197.774-2.48h22.188v-91.758c0-11.998-.797-21.216-2.403-27.676q-3.234-12.658-11.738-20.371c-5.67-5.076-13.14-7.617-22.422-7.617-10.888 0-19.266 3.996-25.137 11.972-5.87 8.043-8.836 19.802-8.886 35.293l20.996 3.164c.25-8.306 1.187-14.17 2.793-17.597 2.408-5.208 6.06-7.813 10.976-7.813 4.967 0 8.49 1.836 10.547 5.528 2.057 3.757 3.086 11.508 3.086 23.242Zm268.984 0h21.66l45.157-96.797V67.52H750V-77.422h-22.344L683.164 17.09v-94.512H662.48Zm-70.976-22.54c-9.182 0-16.588-4.155-22.207-12.46-5.62-8.24-8.418-20.686-8.418-37.364 0-16.414 2.882-28.879 8.652-37.383q8.653-12.656 21.973-12.656c8.88 0 16.147 4.187 21.816 12.559 5.72 8.437 8.594 21.061 8.594 37.87 0 16.613-2.79 28.995-8.36 37.169-5.518 8.174-12.868 12.265-22.05 12.265m-387.52-15.02c11.892 0 21.271-5.177 28.145-15.526q10.313-15.426 9.863-47.364h-52.988q.225-12.358 5.117-19.277c3.261-4.548 7.32-6.836 12.188-6.836 3.311 0 6.101 1.201 8.359 3.574s3.963 6.192 5.117 11.465l21.074-4.648c-2.709-10.152-7-17.903-12.87-23.243-5.82-5.273-13.115-7.91-21.895-7.91-13.898 0-24.186 5.96-30.86 17.89-5.268 9.56-7.91 21.624-7.91 36.192 0 17.403 3.467 31.018 10.39 40.84 6.925 9.888 15.684 14.844 26.27 14.844m91.582 0c12.092 0 22.02-5.177 29.747-15.526 7.726-10.284 11.582-23.308 11.582-39.063q0-23.83-11.739-39.55c-7.777-10.416-17.592-15.626-29.433-15.626q-10.988-.001-20.996 6.524c-6.623 4.35-11.656 10.71-15.118 19.082-3.462 8.437-5.195 18.698-5.195 30.761q.001 13.845 5.195 26.797c3.462 8.636 8.346 15.218 14.668 19.766 6.372 4.548 13.462 6.836 21.29 6.836M205.254 8.692c-4.616 0-8.415-2.204-11.426-6.62-3.01-4.417-4.503-10.408-4.453-17.989h31.621c-.15 8.042-1.736 14.128-4.746 18.281-3.01 4.22-6.681 6.328-10.996 6.328m90.39-1.386c-5.519 0-10.162-2.764-13.925-8.301q-5.645-8.304-5.645-23.926 0-15.62 5.645-23.926c3.763-5.537 8.406-8.32 13.926-8.32s10.134 2.783 13.847 8.32c3.763 5.538 5.645 13.574 5.645 24.121q0 15.426-5.645 23.73c-3.713 5.538-8.328 8.302-13.847 8.302M512.52 620V518.9h88.521c-4.946 14.14-10.667 27.19-17.068 38.81-19.858 36.06-45.073 57.8-71.453 62.29m-25.04-1c-24.687-6.13-48.126-27.35-66.816-61.3-6.401-11.62-12.123-24.67-17.069-38.81h83.885Zm-57.69-6.78c-50.056-16.36-92.325-49.73-120.047-93.33h67.384c5.944 18.51 13.185 35.62 21.597 50.89 8.975 16.3 19.427 30.67 31.066 42.44m147.287-2.31c10.741-11.34 20.439-24.88 28.835-40.13 8.41-15.27 15.636-32.38 21.568-50.89h62.777c-26.448 41.6-66.117 73.93-113.18 91.02M295.952 493.85c-11.978-25.51-19.332-53.62-20.952-83.29h84.08c.973 29.41 4.795 57.44 11.034 83.29Zm100.033 0c-6.612-25.42-10.774-53.57-11.835-83.29h103.33v83.29Zm116.535 0v-83.29h107.966c-1.06 29.72-5.223 57.87-11.835 83.29Zm121.973 0c6.222-25.86 10.034-53.88 11.004-83.29H725c-1.62 29.67-8.974 57.78-20.952 83.29ZM275 385.53c1.62-29.67 8.974-57.78 20.952-83.29h72.979c-5.879 25.93-9.343 53.96-9.988 83.29Zm108.984 0c.703-29.62 4.514-57.74 10.75-83.29h92.747v83.29Zm128.536 0v-83.29h97.383c6.236 25.55 10.046 53.67 10.75 83.29Zm133.095 0c-.645-29.32-4.084-57.36-9.948-83.29h68.381c11.978 25.51 19.332 53.62 20.952 83.29ZM309.743 277.2c26.469-41.62 66.178-73.97 113.288-91.05-8.945 10.26-17.107 22.07-24.307 35.14-9.17 16.66-16.974 35.46-23.191 55.91Zm92.12 0c5.316-16.1 11.647-30.84 18.8-43.83 17.526-31.82 39.23-52.46 62.22-59.97 1.533-.1 3.055-.3 4.597-.3v104.15Zm110.657 0V173.05c3.573.2 7.126.4 10.652.8 22.463 7.89 43.635 28.34 60.8 59.51 7.155 12.99 13.486 27.73 18.8 43.83Zm116.564 0c-6.206-20.45-14.003-39.26-23.172-55.91-6.57-11.93-13.936-22.82-21.969-32.43 44.05 17.66 81.166 48.79 106.314 88.34Z" glyph-name="geojson-file" horiz-adv-x="1000" unicode=""/><glyph d="M139.96 800c-13.806-.001-24.998-11.193-25-25V100H0v-220h114.96v-55c.002-13.807 11.194-24.999 25-25h720c13.807.001 25 11.193 25 25v758.75c.266 11.13.04 17.767-7.323 25.898L694.609 792.676A25 25 0 0 1 676.621 800Zm25-50h489.024l12.52-145.684c1.04-12.12 10.653-21.733 22.773-22.773l145.684-12.52V-150h-670v30H800v220H164.96ZM100 70h42.05V3.398L226.993 70h56.524l-78.399-58.418L287.793-80h-54.414L176.133-9.61 142.05-34.667V-80H100Zm209.082 0h62.93l37.793-102.324L447.168 70h63.066V-80h-39.062V38.086L429.824-80h-40.469l-41.21 118.086V-80h-39.063Zm244.336-1.23h42.031V-54.727H700V-80H553.418Zm154.297 640.078 86.094-86.094-79.278 6.816ZM500 624.933a225 225 0 0 1-225-225 225 225 0 0 1 225-225 225 225 0 0 1 225 225 225 225 0 0 1-225 225m-4.556-15.919c98.634 0 181.8-66.009 207.815-156.29-4.809-9.253-10.94-15.3-18.73-15.975-26.776 0-62.804 69.215-83.56 92.447-31.107 34.79-73.857 67.612-149.316 67.612-13.219 0-24.244-.76-33.44-2.025 23.99 9.169 50.034 14.231 77.23 14.231m-93.655-51.806c56.193 0 97.171-42.862 141.187-85.528 28.069-27.31 106.116-99.731 168.188-113.344a213.5 213.5 0 0 0-7.903-33.497c-136.688 15.75-265.22 170.578-338.288 170.578-27.197 0-52.988-21.768-75.516-44.296 10.969 38.08 32.147 71.859 60.356 98.184 15.244 4.556 32.794 7.903 51.976 7.903m-70.313-222.412c33.694 0 128.447-67.67 253.969-67.67 36.225 0 71.015 9.507 94.922 18.029-9.985-14.794-21.741-28.406-34.988-40.163-25.003-7.818-59.034-15.496-95.962-15.496-80.888 0-102.713 18.843-124.65 18.843-24.807 0-20.897-22.078-14.4-38.784-46.182 21.347-83.503 58.331-105.16 104.316 4.585 11.306 12.516 20.925 26.325 20.925" glyph-name="kml-file" horiz-adv-x="1000" unicode=""/><glyph d="M499.531 750A450 450 0 0 1 77.578 455.02H25A30.02 30.02 0 0 1-5.02 425V175A30.02 30.02 0 0 1 25 144.98h52.559A450 450 0 0 1 500-150a450 450 0 0 1 422.422 294.98H975a30.02 30.02 0 0 1 30.02 30.02v250A30.02 30.02 0 0 1 975 455.02h-52.559A450 450 0 0 1 500 750Zm22.969-51.133c47.408-8.066 92.712-47.125 128.398-111.933 11.504-20.89 21.795-44.334 30.684-69.746H522.5Zm-45-1.777V517.187H326.758c8.889 25.413 19.16 48.856 30.664 69.747 33.59 61 75.712 99.144 120.078 110.156m-103.672-12.188c-20.916-21.166-39.71-46.977-55.84-76.27-15.117-27.453-28.125-58.187-38.808-91.444H158.086c49.819 78.351 125.787 138.31 215.742 167.714m264.688-4.16c84.576-30.712 155.868-88.802 203.398-163.554H729.102c-10.661 33.258-23.656 63.997-38.77 91.445-15.09 27.404-32.513 51.741-51.816 72.11M133.3 472.188h133.281c-1.354-5.612-2.467-11.43-3.672-17.168H125.8c2.383 5.788 4.85 11.524 7.5 17.168m179.765 0H477.5V455.02H309.082c1.313 5.74 2.53 11.576 3.984 17.168m209.434 0h172.754c1.454-5.592 2.671-11.429 3.984-17.168H522.5Zm219.2 0h125c2.65-5.644 5.117-11.38 7.5-17.168H745.351c-1.202 5.74-2.302 11.555-3.653 17.168M801.366 375c30.047 0 52.641-3.996 67.774-11.973 15.24-7.976 23.241-18.617 24.004-31.933l-48.34-1.27c-2.069 7.45-6.54 12.766-13.399 15.996-6.75 3.296-16.919 4.961-30.527 4.961-14.044 0-25.041-1.76-32.988-5.254-5.117-2.24-7.676-5.227-7.676-8.984 0-3.428 2.397-6.37 7.187-8.809q9.144-4.645 44.414-9.687c23.515-3.362 40.877-6.863 52.09-10.488 11.322-3.56 20.15-8.465 26.465-14.727 6.423-6.196 9.629-13.884 9.629-23.047 0-8.306-3.805-16.088-11.426-23.34-7.62-7.25-18.409-12.651-32.344-16.21-13.934-3.494-31.296-5.235-52.09-5.235q-45.395 0-69.726 12.656c-16.221 8.504-25.905 20.854-29.062 37.07l47.03 2.774c2.831-9.558 8.549-16.572 17.15-21.055 8.709-4.482 20.4-6.718 35.097-6.718 15.568 0 27.279 1.982 35.117 5.937 7.947 4.021 11.914 8.684 11.914 14.024 0 3.427-1.684 6.337-5.058 8.71-3.266 2.44-9.031 4.549-17.305 6.329-5.661 1.186-18.57 3.295-38.711 6.328-25.91 3.889-44.08 8.667-54.531 14.336-14.697 7.976-22.051 17.71-22.051 29.18 0 7.382 3.434 14.25 10.293 20.644 6.967 6.46 16.928 11.384 29.883 14.746 13.064 3.362 28.789 5.039 47.187 5.039M100 372.54h49.473l36.093-99.59 43.77 99.59h57.48l41.973-101.27 36.738 101.27h48.653l-58.125-144.962h-51.27l-47.695 108.36-47.52-108.36h-52.422Zm338.027 0h72.344l43.438-98.888 42.949 98.887h72.5V227.58h-44.903v114.1l-47.52-114.1h-46.542l-47.363 114.1v-114.1h-44.903ZM125.801 144.98h135.234c1.124-5.729 2.146-11.538 3.418-17.148H133.301c-2.648 5.638-5.12 11.368-7.5 17.148m181.289 0H477.5v-17.148H310.82c-1.366 5.596-2.503 11.415-3.73 17.148m215.41 0h178.73c-1.229-5.732-2.364-11.553-3.73-17.148h-175Zm224.727 0h126.972c-2.38-5.78-4.852-11.51-7.5-17.148H743.81c1.268 5.61 2.297 11.418 3.418 17.148M158.086 82.832h118.242c11.174-36.753 25.182-70.563 41.66-100.488 12.939-23.497 27.618-44.725 43.692-63.164C277.019-50.127 205.652 8.022 158.086 82.832m165.547 0H477.5v-187.187c-2.77.15-5.506.438-8.262.644-41.314 13.494-80.32 50.575-111.816 107.774-12.856 23.347-24.238 49.837-33.79 78.769m198.867 0h162.188c-9.552-28.932-20.933-55.422-33.79-78.77C620.05-51.96 582.01-88.72 541.641-102.89c-6.337-.645-12.72-1.114-19.141-1.464Zm209.473 0h109.941C796.72 11.754 730.02-44.204 650.86-75.938c14.435 17.281 27.666 36.839 39.473 58.282 16.477 29.923 30.487 63.727 41.64 100.488" glyph-name="wms" horiz-adv-x="1000" unicode=""/><glyph d="M499.531 750c-188.562-.21-356.996-117.96-421.953-294.98H25C8.421 455.019-5.019 441.579-5.02 425V175c.001-16.579 13.441-30.019 30.02-30.02h52.559C142.577-32.208 311.259-149.994 500-150c188.734.014 357.405 117.8 422.422 294.98H975c16.579.001 30.019 13.441 30.02 30.02v250c-.001 16.579-13.441 30.019-30.02 30.02h-52.559C857.422 632.208 688.741 749.994 500 750Zm22.969-51.133c47.408-8.066 92.712-47.125 128.398-111.933 11.504-20.89 21.795-44.334 30.684-69.746H522.5Zm-45-1.777V517.187H326.758c8.889 25.413 19.16 48.856 30.664 69.747 33.59 61 75.712 99.144 120.078 110.156m-103.672-12.188c-20.916-21.166-39.71-46.977-55.84-76.27-15.117-27.453-28.125-58.187-38.808-91.444H158.086c49.819 78.351 125.787 138.31 215.742 167.714m264.688-4.16c84.576-30.712 155.868-88.802 203.398-163.554H729.102c-10.661 33.258-23.656 63.997-38.77 91.445-15.09 27.404-32.513 51.741-51.816 72.11M133.3 472.188h133.281c-1.354-5.612-2.467-11.43-3.672-17.168H125.8c2.383 5.788 4.85 11.524 7.5 17.168m179.765 0H477.5V455.02H309.082c1.313 5.74 2.53 11.576 3.984 17.168m209.434 0h172.754c1.454-5.592 2.671-11.429 3.984-17.168H522.5Zm219.2 0h125c2.65-5.644 5.117-11.38 7.5-17.168H745.351c-1.202 5.74-2.302 11.555-3.653 17.168M821.444 375c23.931 0 41.933-3.977 53.985-11.953 12.139-7.977 18.514-18.637 19.12-31.953l-38.495-1.27c-1.648 7.45-5.221 12.766-10.684 15.996-5.376 3.296-13.478 4.961-24.316 4.961-11.186 0-19.94-1.74-26.27-5.234-4.075-2.241-6.113-5.247-6.113-9.004 0-3.428 1.907-6.37 5.723-8.809 4.855-3.098 16.642-6.325 35.37-9.687 18.73-3.362 32.574-6.843 41.505-10.469 9.017-3.56 16.025-8.483 21.054-14.746 5.116-6.197 7.676-13.884 7.676-23.047q.001-12.46-9.102-23.34c-6.069-7.251-14.663-12.65-25.761-16.21-11.099-3.494-24.924-5.235-41.485-5.235-24.104 0-42.608 4.218-55.527 12.656-12.92 8.504-20.65 20.873-23.164 37.09l37.46 2.774c2.255-9.559 6.803-16.592 13.653-21.075 6.937-4.482 16.264-6.738 27.969-6.738 12.399 0 21.726 1.982 27.969 5.938q9.494 6.032 9.492 14.042c0 3.428-1.355 6.338-4.043 8.711-2.601 2.44-7.18 4.549-13.77 6.329q-6.761 1.779-30.82 6.328c-20.636 3.889-35.133 8.666-43.457 14.336-11.705 7.976-17.559 17.709-17.559 29.18 0 7.382 2.741 14.25 8.204 20.644 5.549 6.46 13.49 11.384 23.808 14.746 10.405 3.362 22.925 5.039 37.578 5.039M100 372.54h39.414l28.73-99.59 34.864 99.59h45.781l33.438-101.27 29.257 101.27h38.75l-46.308-144.981h-40.82l-37.97 108.379-37.87-108.38h-41.739Zm269.238 0h57.617l34.59-98.888 34.2 98.887h57.753V227.56h-35.78v114.12l-37.852-114.12h-37.051L405 341.679V227.56h-35.762Zm209.004 0h151.524v-24.532H673.3v-120.45h-38.496v120.45h-56.563ZM125.801 144.98h135.234c1.124-5.729 2.146-11.538 3.418-17.148H133.301c-2.648 5.638-5.12 11.368-7.5 17.148m181.289 0H477.5v-17.148H310.82c-1.366 5.596-2.503 11.415-3.73 17.148m215.41 0h178.73c-1.229-5.732-2.364-11.553-3.73-17.148h-175Zm224.727 0h126.972c-2.38-5.78-4.852-11.51-7.5-17.148H743.81c1.268 5.61 2.297 11.418 3.418 17.148M158.086 82.832h118.242c11.174-36.753 25.182-70.563 41.66-100.488 12.939-23.497 27.618-44.725 43.692-63.164C277.019-50.127 205.652 8.022 158.086 82.832m165.547 0H477.5v-187.187c-2.77.15-5.506.438-8.262.644-41.314 13.494-80.32 50.575-111.816 107.774-12.856 23.347-24.238 49.837-33.79 78.769m198.867 0h162.188c-9.552-28.932-20.933-55.422-33.79-78.77C620.05-51.96 582.01-88.72 541.641-102.89c-6.337-.645-12.72-1.114-19.141-1.464Zm209.473 0h109.941C796.72 11.754 730.02-44.204 650.86-75.938c14.435 17.281 27.666 36.839 39.473 58.282 16.477 29.923 30.487 63.727 41.64 100.488" glyph-name="wmts" horiz-adv-x="1000" unicode=""/><glyph d="M499.531 750A450 450 0 0 1 77.578 455.02H25A30.02 30.02 0 0 1-5.02 425V175A30.02 30.02 0 0 1 25 144.98h52.559A450 450 0 0 1 500-150a450 450 0 0 1 422.422 294.98H975a30.02 30.02 0 0 1 30.02 30.02v250A30.02 30.02 0 0 1 975 455.02h-52.559A450 450 0 0 1 500 750Zm22.969-51.133c47.408-8.066 92.712-47.125 128.398-111.933 11.504-20.89 21.795-44.334 30.684-69.746H522.5Zm-45-1.777V517.187H326.758c8.889 25.413 19.16 48.856 30.664 69.747 33.59 61 75.712 99.144 120.078 110.156m-103.672-12.188c-20.916-21.166-39.71-46.977-55.84-76.27-15.117-27.453-28.125-58.187-38.808-91.444H158.086c49.819 78.351 125.787 138.31 215.742 167.714m264.688-4.16c84.576-30.712 155.868-88.802 203.398-163.554H729.102c-10.661 33.258-23.656 63.997-38.77 91.445-15.09 27.404-32.513 51.741-51.816 72.11M133.3 472.188h133.281c-1.354-5.612-2.467-11.43-3.672-17.168H125.8c2.383 5.788 4.85 11.524 7.5 17.168m179.765 0H477.5V455.02H309.082c1.313 5.74 2.53 11.576 3.984 17.168m209.434 0h172.754c1.454-5.592 2.671-11.429 3.984-17.168H522.5Zm219.2 0h125c2.65-5.644 5.117-11.38 7.5-17.168H745.351c-1.202 5.74-2.302 11.555-3.653 17.168M791.25 375c33.132 0 58.04-3.997 74.727-11.973 16.805-7.975 25.644-18.619 26.484-31.933l-53.3-1.29c-2.282 7.449-7.223 12.787-14.786 16.016-7.442 3.296-18.647 4.942-33.652 4.942-15.486 0-27.624-1.741-36.387-5.235-5.642-2.24-8.477-5.246-8.477-9.004 0-3.427 2.648-6.35 7.93-8.789 6.722-3.098 23.055-6.325 48.984-9.687s45.078-6.863 57.442-10.488c12.484-3.56 22.217-8.465 29.18-14.727 7.082-6.196 10.605-13.865 10.605-23.027 0-8.306-4.195-16.09-12.598-23.34s-20.298-12.652-35.664-16.211C836.373 226.76 817.244 225 794.316 225c-33.371 0-59.008 4.22-76.894 12.656-17.886 8.503-28.57 20.875-32.05 37.09l51.855 2.754c3.12-9.558 9.442-16.573 18.925-21.055 9.604-4.482 22.486-6.718 38.692-6.718 17.166 0 30.068 1.982 38.71 5.937 8.764 4.02 13.145 8.684 13.145 14.024 0 3.427-1.845 6.338-5.566 8.71-3.601 2.44-9.979 4.549-19.102 6.329-6.242 1.186-20.448 3.296-42.656 6.328-28.57 3.889-48.632 8.667-60.156 14.336-16.206 7.975-24.297 17.69-24.297 29.16 0 7.382 3.765 14.29 11.328 20.683 7.683 6.46 18.684 11.365 32.969 14.727 14.405 3.362 31.744 5.039 52.031 5.039M100 372.52h54.531l39.824-99.551 48.262 99.55h63.38l46.269-101.25 40.507 101.25h53.672l-64.101-144.94H325.78l-52.578 108.358-52.402-108.359h-57.793Zm373.809 0h180.957v-24.532H527.109v-34.297h110.196V289.18H527.109v-61.602h-53.3ZM125.8 144.98h135.234c1.124-5.729 2.146-11.538 3.418-17.148H133.301c-2.648 5.638-5.12 11.368-7.5 17.148m181.289 0H477.5v-17.148H310.82c-1.366 5.596-2.503 11.415-3.73 17.148m215.41 0h178.73c-1.229-5.732-2.364-11.553-3.73-17.148h-175Zm224.727 0h126.972c-2.38-5.78-4.852-11.51-7.5-17.148H743.81c1.268 5.61 2.297 11.418 3.418 17.148M158.086 82.832h118.242c11.174-36.753 25.182-70.563 41.66-100.488 12.939-23.497 27.618-44.725 43.692-63.164C277.019-50.127 205.652 8.022 158.086 82.832m165.547 0H477.5v-187.187c-2.77.15-5.506.438-8.262.644-41.314 13.494-80.32 50.575-111.816 107.774-12.856 23.347-24.238 49.837-33.79 78.769m198.867 0h162.188c-9.552-28.932-20.933-55.422-33.79-78.77C620.05-51.96 582.01-88.72 541.641-102.89c-6.337-.645-12.72-1.114-19.141-1.464Zm209.473 0h109.941C796.72 11.754 730.02-44.204 650.86-75.938c14.435 17.281 27.666 36.839 39.473 58.282 16.477 29.923 30.487 63.727 41.64 100.488" glyph-name="wfs" horiz-adv-x="1000" unicode=""/><glyph d="M499.531 750A450 450 0 0 1 77.578 455.02H25A30.02 30.02 0 0 1-5.02 425V175A30.02 30.02 0 0 1 25 144.98h52.559A450 450 0 0 1 500-150a450 450 0 0 1 422.422 294.98H975a30.02 30.02 0 0 1 30.02 30.02v250A30.02 30.02 0 0 1 975 455.02h-52.559A450 450 0 0 1 500 750Zm22.969-51.133c47.408-8.066 92.712-47.125 128.398-111.933 11.504-20.89 21.795-44.334 30.684-69.746H522.5Zm-45-1.777V517.187H326.758c8.889 25.413 19.16 48.856 30.664 69.747 33.59 61 75.712 99.144 120.078 110.156m-103.672-12.188c-20.916-21.166-39.71-46.977-55.84-76.27-15.117-27.453-28.125-58.187-38.808-91.444H158.086c49.819 78.351 125.787 138.31 215.742 167.714m264.688-4.16c84.576-30.712 155.868-88.802 203.398-163.554H729.102c-10.661 33.258-23.656 63.997-38.77 91.445-15.09 27.404-32.513 51.741-51.816 72.11M133.3 472.188h133.281c-1.354-5.612-2.467-11.43-3.672-17.168H125.8c2.383 5.788 4.85 11.524 7.5 17.168m179.765 0H477.5V455.02H309.082c1.313 5.74 2.53 11.576 3.984 17.168m209.434 0h172.754c1.454-5.592 2.671-11.429 3.984-17.168H522.5Zm219.2 0h125c2.65-5.644 5.117-11.38 7.5-17.168H745.351c-1.202 5.74-2.302 11.555-3.653 17.168M577.03 375c22.865 0 40.067-3.977 51.582-11.953 11.598-7.977 17.682-18.637 18.262-31.953l-36.777-1.27c-1.574 7.45-4.977 12.766-10.196 15.996-5.136 3.296-12.867 4.961-23.222 4.961-10.687 0-19.07-1.74-25.117-5.234-3.894-2.241-5.84-5.247-5.84-9.004 0-3.428 1.823-6.37 5.468-8.809 4.64-3.098 15.895-6.325 33.79-9.687 17.893-3.362 31.115-6.843 39.648-10.469 8.615-3.56 15.332-8.483 20.137-14.746 4.887-6.197 7.324-13.884 7.324-23.047 0-8.306-2.893-16.088-8.692-23.34s-14.005-12.65-24.609-16.21C608.185 226.74 594.983 225 579.16 225c-23.03 0-40.723 4.218-53.066 12.656-12.344 8.504-19.727 20.873-22.13 37.09l35.782 2.774c2.154-9.56 6.522-16.592 13.067-21.075 6.627-4.482 15.515-6.738 26.699-6.738 11.846 0 20.773 1.982 26.738 5.938 6.048 4.02 9.063 8.703 9.063 14.042 0 3.428-1.28 6.338-3.848 8.711-2.485 2.44-6.888 4.549-13.184 6.329-4.308 1.186-14.108 3.295-29.433 6.328-19.717 3.889-33.57 8.666-41.524 14.336-11.183 7.976-16.758 17.709-16.758 29.18 0 7.382 2.594 14.25 7.813 20.644 5.302 6.46 12.896 11.384 22.754 14.746 9.941 3.362 21.898 5.039 35.898 5.039M100 372.54h37.637l27.48-99.59 33.301 99.59h43.73l31.934-101.27 27.969 101.27h37.031l-44.238-144.981H255.82l-36.289 108.379-36.172-108.38h-39.882Zm257.969 0h124.883v-24.532h-88.106V313.69h76.055V289.18h-76.055v-61.621H357.97Zm397.265 0H900v-24.532h-53.926v-120.45h-36.777v120.45h-54.063Zm-76.172-78.536h68.594V266.23h-68.593ZM125.802 144.98h135.234c1.124-5.729 2.146-11.538 3.418-17.148H133.301c-2.648 5.638-5.12 11.368-7.5 17.148m181.289 0H477.5v-17.148H310.82c-1.366 5.596-2.503 11.415-3.73 17.148m215.41 0h178.73c-1.229-5.732-2.364-11.553-3.73-17.148h-175Zm224.727 0h126.972c-2.38-5.78-4.852-11.51-7.5-17.148H743.81c1.268 5.61 2.297 11.418 3.418 17.148M158.086 82.832h118.242c11.174-36.753 25.182-70.563 41.66-100.488 12.939-23.497 27.618-44.725 43.692-63.164C277.019-50.127 205.652 8.022 158.086 82.832m165.547 0H477.5v-187.187c-2.77.15-5.506.438-8.262.644-41.314 13.494-80.32 50.575-111.816 107.774-12.856 23.347-24.238 49.837-33.79 78.769m198.867 0h162.188c-9.552-28.932-20.933-55.422-33.79-78.77C620.05-51.96 582.01-88.72 541.641-102.89c-6.337-.645-12.72-1.114-19.141-1.464Zm209.473 0h109.941C796.72 11.754 730.02-44.204 650.86-75.938c14.435 17.281 27.666 36.839 39.473 58.282 16.477 29.923 30.487 63.727 41.64 100.488" glyph-name="wfs-t" horiz-adv-x="1000" unicode=""/><glyph d="M499.531 750A450 450 0 0 1 77.578 455.02H25A30.02 30.02 0 0 1-5.02 425V175A30.02 30.02 0 0 1 25 144.98h52.559A450 450 0 0 1 500-150a450 450 0 0 1 422.422 294.98H975a30.02 30.02 0 0 1 30.02 30.02v250A30.02 30.02 0 0 1 975 455.02h-52.559A450 450 0 0 1 500 750Zm22.969-51.133c47.408-8.066 92.712-47.125 128.398-111.933 11.504-20.89 21.795-44.334 30.684-69.746H522.5Zm-45-1.777V517.187H326.758c8.889 25.413 19.16 48.856 30.664 69.747 33.59 61 75.712 99.144 120.078 110.156m-103.672-12.188c-20.916-21.166-39.71-46.977-55.84-76.27-15.117-27.453-28.125-58.187-38.808-91.444H158.086c49.819 78.351 125.787 138.31 215.742 167.714m264.688-4.16c84.576-30.712 155.868-88.802 203.398-163.554H729.102c-10.661 33.258-23.656 63.997-38.77 91.445-15.09 27.404-32.513 51.741-51.816 72.11M133.3 472.188h133.281c-1.354-5.612-2.467-11.43-3.672-17.168H125.8c2.383 5.788 4.85 11.524 7.5 17.168m179.765 0H477.5V455.02H309.082c1.313 5.74 2.53 11.576 3.984 17.168m209.434 0h172.754c1.454-5.592 2.671-11.429 3.984-17.168H522.5Zm219.2 0h125c2.65-5.644 5.117-11.38 7.5-17.168H745.351c-1.202 5.74-2.302 11.555-3.653 17.168M100 375h85.605l51.426-102.324L287.851 375h85.801V225h-53.164v118.066L264.258 225h-55.059l-56.054 118.066V225H100Zm301.836 0h62.031l71.68-111.016L604.922 375h60.664L564.16 225h-61.074Zm273.027 0H900v-25.371h-83.887V225h-57.187v124.629h-84.063ZM125.801 144.98h135.234c1.124-5.729 2.146-11.538 3.418-17.148H133.301c-2.648 5.638-5.12 11.368-7.5 17.148m181.289 0H477.5v-17.148H310.82c-1.366 5.596-2.503 11.415-3.73 17.148m215.41 0h178.73c-1.229-5.732-2.364-11.553-3.73-17.148h-175Zm224.727 0h126.972c-2.38-5.78-4.852-11.51-7.5-17.148H743.81c1.268 5.61 2.297 11.418 3.418 17.148M158.086 82.832h118.242c11.174-36.753 25.182-70.563 41.66-100.488 12.939-23.497 27.618-44.725 43.692-63.164C277.019-50.127 205.652 8.022 158.086 82.832m165.547 0H477.5v-187.187c-2.77.15-5.506.438-8.262.644-41.314 13.494-80.32 50.575-111.816 107.774-12.856 23.347-24.238 49.837-33.79 78.769m198.867 0h162.188c-9.552-28.932-20.933-55.422-33.79-78.77C620.05-51.96 582.01-88.72 541.641-102.89c-6.337-.645-12.72-1.114-19.141-1.464Zm209.473 0h109.941C796.72 11.754 730.02-44.204 650.86-75.938c14.435 17.281 27.666 36.839 39.473 58.282 16.477 29.923 30.487 63.727 41.64 100.488" glyph-name="mvt" horiz-adv-x="1000" unicode=""/><glyph d="M499.531 750A450 450 0 0 1 77.578 455.02H25A30.02 30.02 0 0 1-5.02 425V175A30.02 30.02 0 0 1 25 144.98h52.559A450 450 0 0 1 500-150a450 450 0 0 1 422.422 294.98H975a30.02 30.02 0 0 1 30.02 30.02v250A30.02 30.02 0 0 1 975 455.02h-52.559A450 450 0 0 1 500 750Zm22.969-51.133c47.408-8.066 92.712-47.125 128.398-111.933 11.504-20.89 21.795-44.334 30.684-69.746H522.5Zm-45-1.777V517.187H326.758c8.889 25.413 19.16 48.856 30.664 69.747 33.59 61 75.712 99.144 120.078 110.156m-103.672-12.188c-20.916-21.166-39.71-46.977-55.84-76.27-15.117-27.453-28.125-58.187-38.808-91.444H158.086c49.819 78.351 125.787 138.31 215.742 167.714m264.688-4.16c84.576-30.712 155.868-88.802 203.398-163.554H729.102c-10.661 33.258-23.656 63.997-38.77 91.445-15.09 27.404-32.513 51.741-51.816 72.11M133.3 472.188h133.281c-1.354-5.612-2.467-11.43-3.672-17.168H125.8c2.383 5.788 4.85 11.524 7.5 17.168m179.765 0H477.5V455.02H309.082c1.313 5.74 2.53 11.576 3.984 17.168m209.434 0h172.754c1.454-5.592 2.671-11.429 3.984-17.168H522.5Zm219.2 0h125c2.65-5.644 5.117-11.38 7.5-17.168H745.351c-1.202 5.74-2.302 11.555-3.653 17.168M109.53 375h70.098l59.55-48.203L297.52 375h69.493l-92.383-72.852L376.113 225H303.81l-65.82 51.875L171.913 225H100l101.523 78.281Zm267.012 0h70.273l69.903-59.355L585.176 375h69.082l-109.18-87.09V225h-59.765v63.125Zm299.805 0H893.71v-23.535L731.035 250.273H900V225H658.73v27.305l155.957 97.324h-138.34ZM125.8 144.98h135.234c1.124-5.729 2.146-11.538 3.418-17.148H133.301c-2.648 5.638-5.12 11.368-7.5 17.148m181.289 0H477.5v-17.148H310.82c-1.366 5.596-2.503 11.415-3.73 17.148m215.41 0h178.73c-1.229-5.732-2.364-11.553-3.73-17.148h-175Zm224.727 0h126.972c-2.38-5.78-4.852-11.51-7.5-17.148H743.81c1.268 5.61 2.297 11.418 3.418 17.148M158.086 82.832h118.242c11.174-36.753 25.182-70.563 41.66-100.488 12.939-23.497 27.618-44.725 43.692-63.164C277.019-50.127 205.652 8.022 158.086 82.832m165.547 0H477.5v-187.187c-2.77.15-5.506.438-8.262.644-41.314 13.494-80.32 50.575-111.816 107.774-12.856 23.347-24.238 49.837-33.79 78.769m198.867 0h162.188c-9.552-28.932-20.933-55.422-33.79-78.77C620.05-51.96 582.01-88.72 541.641-102.89c-6.337-.645-12.72-1.114-19.141-1.464Zm209.473 0h109.941C796.72 11.754 730.02-44.204 650.86-75.938c14.435 17.281 27.666 36.839 39.473 58.282 16.477 29.923 30.487 63.727 41.64 100.488" glyph-name="xyz" horiz-adv-x="1000" unicode=""/></font>
</defs>
</svg>
