<?xml version="1.0" encoding="UTF-8" standalone="no"?>
<svg
   xmlns:dc="http://purl.org/dc/elements/1.1/"
   xmlns:cc="http://creativecommons.org/ns#"
   xmlns:rdf="http://www.w3.org/1999/02/22-rdf-syntax-ns#"
   xmlns:svg="http://www.w3.org/2000/svg"
   xmlns="http://www.w3.org/2000/svg"
   xmlns:sodipodi="http://sodipodi.sourceforge.net/DTD/sodipodi-0.dtd"
   xmlns:inkscape="http://www.inkscape.org/namespaces/inkscape"
   version="1.1"
   id="Layer_1"
   x="0px"
   y="0px"
   viewBox="0 0 790.13824 790.13824"
   xml:space="preserve"
   sodipodi:docname="fruit.svg"
   inkscape:version="1.0 (4035a4fb49, 2020-05-01)"
   width="790.13824"
   height="790.13824"><metadata
   id="metadata42"><rdf:RDF><cc:Work
       rdf:about=""><dc:format>image/svg+xml</dc:format><dc:type
         rdf:resource="http://purl.org/dc/dcmitype/StillImage" /><dc:title /></cc:Work></rdf:RDF></metadata><defs
   id="defs40">
	

		
		
		
		
		
		
		
		
		
		
		
		
		
	
			
		
			
		</defs><sodipodi:namedview
   inkscape:document-rotation="0"
   pagecolor="#ffffff"
   bordercolor="#666666"
   borderopacity="1"
   objecttolerance="10"
   gridtolerance="10"
   guidetolerance="10"
   inkscape:pageopacity="0"
   inkscape:pageshadow="2"
   inkscape:window-width="1920"
   inkscape:window-height="1017"
   id="namedview38"
   showgrid="false"
   inkscape:zoom="0.25"
   inkscape:cx="1115.1393"
   inkscape:cy="1137.7474"
   inkscape:window-x="-8"
   inkscape:window-y="-8"
   inkscape:window-maximized="1"
   inkscape:current-layer="Layer_1"
   fit-margin-top="0"
   fit-margin-left="0"
   fit-margin-right="0"
   fit-margin-bottom="0" />
<style
   type="text/css"
   id="style2">
	.st0{fill:none;stroke:#283005;stroke-width:29.6573;stroke-linejoin:round;stroke-miterlimit:10;}
	.st1{fill:#283005;}
	.st2{fill:#648912;}
	.st3{fill:#526B0D;}
	.st4{fill:#8FA833;}
	.st5{fill:#F8DF88;}
</style>

<path
   style="fill:#7eb040;stroke-width:1.44491"
   d="M 354.94383,202.35766 C 279.09038,186.17169 230.68179,126.14375 230.68179,48.269573 V 30.347924 l 8.30822,-0.248407 c 31.3818,-0.938288 56.33304,3.865313 80.87436,15.569954 40.29341,19.217249 70.3836,56.434379 81.06985,100.271049 5.3174,21.81297 9.57189,28.16916 4.46819,44.82209 -6.78347,20.69604 -34.28439,14.857 -50.45858,11.59505 z"
   id="path896" /><path
   sodipodi:nodetypes="cc"
   style="fill:none;fill-rule:evenodd;stroke:#8d6c52;stroke-width:48;stroke-linecap:round;stroke-linejoin:miter;stroke-miterlimit:4;stroke-dasharray:none;stroke-opacity:1"
   d="m 374.98781,283.69848 c -9.91557,-82.89931 44.85961,-135.24567 129,-150.68629"
   id="path928" /><path
   style="fill:#ff9773;fill-opacity:1;stroke-width:1.44491"
   d="m 367.66982,240.57401 c 0,0 -18.52713,-19.17959 -60.77724,-30.77909 -34.94911,-11.29248 -75.95659,-8.14643 -102.8125,4.09959 -41.17914,18.94123 -74.22846,62.9862 -90.4961,120.60547 -30.388851,107.63553 -1.49526,246.41632 71.11133,341.55859 39.10294,47.31529 82.05966,83.30501 142.81446,91.16797 12.98364,1.57108 27.80433,0.42744 48.57617,-3.74804 21.7171,-3.56876 34.66677,-4.43927 53.82617,-0.48839 35.98486,6.59271 45.08549,5.31453 74.21094,-0.0937 42.63936,-10.86825 86.69218,-43.32093 121.61328,-89.58984 59.23552,-98.692 87.86844,-180.16527 78.59765,-293.72656 -15.51376,-76.32372 -42.85161,-150.55605 -120.74218,-173.86719 -7.48289,-2.15081 -47.40896,-10.11722 -91.65046,-7.01567 -44.24151,3.10155 -85.05717,10.57558 -124.27152,41.87686 z"
   id="path898"
   sodipodi:nodetypes="cccccccccccczc" /><path
   sodipodi:nodetypes="sscccsscsssscccs"
   style="fill:#de5d47;fill-opacity:1;stroke-width:1.44491"
   d="m 327.51037,767.22674 c -21.30907,-2.57848 -45.54999,-10.30776 -61.32881,-19.55477 l -6.49269,-3.80498 c -19.9022,-43.78029 48.60471,58.44948 71.0478,-33.97594 -14.71787,-89.00154 -28.70522,-176.05362 -13.56763,-190.71609 26.26314,211.16104 188.29992,154.99918 244.38883,70.04541 46.77912,-70.85291 92.66126,-225.98575 73.30424,-330.39812 -2.11223,-11.39343 3.80978,-22.03416 3.80978,-22.03416 0,0 4.95662,4.47925 9.90441,9.87585 28.84512,31.46161 48.25297,77.72704 55.75681,132.9167 2.75197,20.23967 3.12563,64.90632 0.7291,87.12931 -8.26256,76.61734 -36.26154,149.53689 -79.32671,206.59661 -34.9211,46.26891 -78.9733,78.72125 -121.61266,89.5895 -41.25508,11.75374 -86.985,4.57045 -109.50196,-1.9266 -24.57331,5.29315 -43.32987,8.92888 -67.11051,6.25732 z"
   id="path892" /></svg>
