<svg xmlns="http://www.w3.org/2000/svg" xml:space="preserve" id="Layer_1" width="790.138" height="790.138" x="0" y="0" viewBox="0 0 790.138 790.138"><path id="path896" d="M354.944 202.358C279.09 186.172 230.682 126.144 230.682 48.27V30.348l8.308-.248c31.382-.939 56.333 3.865 80.874 15.57 40.294 19.217 70.384 56.434 81.07 100.27 5.318 21.813 9.572 28.17 4.468 44.823-6.783 20.696-34.284 14.857-50.458 11.595" style="fill:#7eb040;stroke-width:1.44491px"/><path id="path928" d="M374.988 283.698c-9.916-82.899 44.86-135.245 129-150.686" style="fill:none;fill-rule:evenodd;stroke:#8d6c52;stroke-width:48px;stroke-linecap:round;stroke-linejoin:miter;stroke-miterlimit:4;stroke-dasharray:none;stroke-opacity:1"/><path id="path898" d="M367.67 240.574s-18.527-19.18-60.777-30.78c-34.95-11.292-75.957-8.146-102.813 4.1-41.18 18.942-74.228 62.987-90.496 120.606-30.389 107.636-1.495 246.416 71.111 341.559 39.103 47.315 82.06 83.305 142.815 91.168 12.983 1.57 27.804.427 48.576-3.749 21.717-3.568 34.667-4.439 53.826-.488 35.985 6.593 45.086 5.315 74.211-.094 42.64-10.868 86.692-43.32 121.613-89.59 59.236-98.691 87.869-180.165 78.598-293.726-15.514-76.324-42.852-150.556-120.742-173.867-7.483-2.151-47.41-10.117-91.65-7.016-44.242 3.102-85.058 10.576-124.272 41.877" style="fill:#ff9773;fill-opacity:1;stroke-width:1.44491px"/><path id="path892" d="M327.51 767.227c-21.309-2.579-45.55-10.308-61.328-19.555l-6.493-3.805c-19.902-43.78 48.605 58.45 71.048-33.976-14.718-89.001-28.706-176.054-13.568-190.716 26.263 211.161 188.3 155 244.389 70.045 46.779-70.853 92.661-225.985 73.304-330.398-2.112-11.393 3.81-22.034 3.81-22.034s4.957 4.48 9.904 9.876c28.845 31.462 48.253 77.727 55.757 132.917 2.752 20.24 3.126 64.906.73 87.129-8.263 76.617-36.262 149.537-79.327 206.597-34.922 46.268-78.974 78.72-121.613 89.59-41.255 11.753-86.985 4.57-109.502-1.928-24.573 5.294-43.33 8.93-67.11 6.258" style="fill:#de5d47;fill-opacity:1;stroke-width:1.44491px"/></svg>