<svg xmlns="http://www.w3.org/2000/svg" xmlns:xlink="http://www.w3.org/1999/xlink" xml:space="preserve" id="Layer_1" width="790.138" height="790.138" x="0" y="0" viewBox="0 0 790.138 790.138"><defs id="defs40"><linearGradient id="linearGradient1095"><stop id="stop1091" offset="0" style="stop-color:#f6f7fa;stop-opacity:1"/><stop id="stop1099" offset=".479" style="stop-color:#f6f7fa;stop-opacity:.560976"/><stop id="stop1093" offset="1" style="stop-color:#f6f7fa;stop-opacity:1"/></linearGradient><linearGradient id="linearGradient1048"><stop id="stop1044" offset="0" style="stop-color:#3068a1;stop-opacity:1"/><stop id="stop1054" offset=".258" style="stop-color:#6db5e7;stop-opacity:1"/><stop id="stop1052" offset=".44" style="stop-color:#74bbef;stop-opacity:1"/><stop id="stop1046" offset="1" style="stop-color:#346da6;stop-opacity:1"/></linearGradient><linearGradient id="linearGradient1019"><stop id="stop1009" offset="0" style="stop-color:#f1f1f6;stop-opacity:1"/><stop id="stop1017" offset="1" style="stop-color:#717173;stop-opacity:1"/></linearGradient><linearGradient id="linearGradient1003"><stop id="stop993" offset="0" style="stop-color:#f6f7fa;stop-opacity:1"/><stop id="stop995" offset=".158" style="stop-color:#dcdfe8;stop-opacity:1"/><stop id="stop997" offset=".367" style="stop-color:#f1f3f8;stop-opacity:1"/><stop id="stop999" offset=".82" style="stop-color:#f1f0f4;stop-opacity:1"/><stop id="stop1001" offset="1" style="stop-color:#717173;stop-opacity:1"/></linearGradient><linearGradient id="linearGradient965"><stop id="stop961" offset="0" style="stop-color:#464648;stop-opacity:1"/><stop id="stop969" offset=".158" style="stop-color:#b9b9c3;stop-opacity:1"/><stop id="stop971" offset=".367" style="stop-color:#f1f3f8;stop-opacity:1"/><stop id="stop973" offset=".82" style="stop-color:#f1f0f4;stop-opacity:1"/><stop id="stop963" offset="1" style="stop-color:#717173;stop-opacity:1"/></linearGradient><linearGradient id="linearGradient951"><stop id="stop947" offset="0" style="stop-color:#5aa6d0;stop-opacity:1"/><stop id="stop957" offset=".39" style="stop-color:#7bc1f8;stop-opacity:1"/><stop id="stop949" offset="1" style="stop-color:#2b639c;stop-opacity:1"/></linearGradient><linearGradient xlink:href="#linearGradient951" id="linearGradient955" x1="322.503" x2="428.058" y1="74.029" y2="74.029" gradientTransform="matrix(0.90013715,0.6186685,-0.6186685,0.90013715,336.17215,-226.04653)" gradientUnits="userSpaceOnUse" patternTransform="matrix(.824126,.566406,-.566406,.824126,336.162,-226.043)scale(1.09224)"/><linearGradient xlink:href="#linearGradient1048" id="linearGradient1075" x1="262.809" x2="493.654" y1="463.254" y2="463.254" gradientTransform="matrix(0.90013715,0.6186685,-0.6186685,0.90013715,346.90362,-247.69261)" gradientUnits="userSpaceOnUse" patternTransform="matrix(.824126,.566406,-.566406,.824126,346.893,-247.689)scale(1.09224)"/><linearGradient xlink:href="#linearGradient1095" id="linearGradient1097" x1="280.572" x2="479.939" y1="460.54" y2="460.54" gradientTransform="matrix(0.90013715,0.6186685,-0.6186685,0.90013715,344.48468,-248.02981)" gradientUnits="userSpaceOnUse" patternTransform="matrix(.824126,.566406,-.566406,.824126,344.474,-248.026)scale(1.09224)"/><radialGradient xlink:href="#linearGradient965" id="radialGradient975" cx="379.349" cy="458.359" r="115.242" fx="379.349" fy="458.359" gradientTransform="matrix(0.90013715,0.6186685,-2.3049158,3.3535574,1093.9768,-1328.621)" gradientUnits="userSpaceOnUse" patternTransform="matrix(.824126,.566406,-.566406,.824126,1093.94,-1328.6)scale(1.09224,4.06927)"/><radialGradient xlink:href="#linearGradient1003" id="radialGradient990" cx="379.349" cy="458.359" r="115.242" fx="379.349" fy="458.359" gradientTransform="matrix(0.90013715,0.6186685,-2.3049158,3.3535574,1093.9768,-1328.621)" gradientUnits="userSpaceOnUse" patternTransform="matrix(.824126,.566406,-.566406,.824126,1093.94,-1328.6)scale(1.09224,4.06927)"/><radialGradient xlink:href="#linearGradient1019" id="radialGradient1005" cx="389.417" cy="555.997" r="115.242" fx="389.417" fy="555.997" gradientTransform="matrix(0.5025501,0.33043137,-0.08148776,0.12393401,47.72843,522.10415)" gradientUnits="userSpaceOnUse" patternTransform="matrix(.835568,.549387,-.549387,.835568,47.7297,522.1)scale(.60145,.14832)"/><radialGradient xlink:href="#linearGradient965" id="radialGradient1032" cx="379.349" cy="458.359" r="115.242" fx="379.349" fy="458.359" gradientTransform="matrix(0.90013715,0.6186685,-2.3049158,3.3535574,1093.9768,-1328.621)" gradientUnits="userSpaceOnUse" patternTransform="matrix(.824126,.566406,-.566406,.824126,1093.94,-1328.6)scale(1.09224,4.06927)"/></defs><path id="path988" d="M190.904 686.717c-5.669-3.836-8.803-4.48-15.667-4.993-9.205-.689-11.498.086-14.922 5.037-3.03 4.384-3.41 8.126-1.51 14.92 2.266 8.11 3.989 10.064 16.251 18.473 22.94 15.729 64.85 39.747 68.256 39.116 1.764-.327 6.175 1.445 9.802 3.938 9.368 6.44 15.498 5.72 19.955-2.339 4.961-8.97 1.6-12.268-6.908-6.78-6.184 3.989-7.974 3.963-15.805-.213-11.799-6.292-33.645-23.865-32.229-25.925.621-.904.279-6.237-.762-11.851-1.762-9.513-2.892-11.004-16.572-21.885-4.212-3.35-7.312-5.755-9.89-7.498" style="fill:url(#radialGradient1005);fill-opacity:1;stroke-width:2.21735px"/><path id="path938" d="M610.529 88.687c-21.842-14.948-43.688-27.12-47.048-23.564-2.139 2.701-3.383 3.896-4.135 4.223-2.247.976-2.776 3.233-1.63 6.951 4.04 13.106-5.375 21.517-30.83 27.545-43.395 10.275-88.705 36.492-117.172 67.795-13.338 14.668-42.674 60.347-43.89 68.343-.605 3.986-2.27 6.327-6.167 8.668-8.416 5.058-32.304 41.039-32.237 48.558.05 5.6-.462 6.344-5.887 8.565-8.504 3.482-33.384 39.745-34.753 50.655-.643 5.115-3.006 9.962-7.021 14.4-3.33 3.678-6.278 8.707-6.553 11.175-.369 3.317-3.26 5.924-11.088 9.994-12.358 6.425-14.797 9.422-16.55 20.346-.978 6.098-2.382 8.617-5.785 10.377-5.688 2.941-31.258 39.886-29.837 43.11 1.363 3.093-4.16 11.128-7.535 10.964-3.56-.173-25.467 32.089-27.942 41.148-1.532 5.605-3.231 7.951-7.264 10.037-3.785 1.957-9.64 9.613-20.856 27.264-8.577 13.497-16.577 24.491-17.777 24.433-2.961-.144-11.8 13.195-16.291 24.585-6.017 15.258-9.902 43.632-6.96 50.82 1.479 3.61 6.764 11.527 11.745 17.592 10.179 12.395 27.55 24.176 32.458 22.014 1.74-.767 3.77-3.883 4.51-6.924.74-3.04 3.456-8.6 6.036-12.353s4.515-8.095 4.3-9.649c-.578-4.168 5.57-24.283 8.903-29.134 1.934-2.814 1.72-6.37-.65-10.798-4.175-7.802-3.058-10.466 3.548-8.46 3.456 1.05 4.882 3.09 5.086 7.28.199 4.065 1.417 5.87 4.036 5.984 2.953.128 3.67-.718 3.375-3.979-.718-7.903 7.797-5.823 28.541 6.972 30.597 18.871 29.855 15.893-3.242-13.018-8.755-7.648-16.04-14.56-16.188-15.36-.148-.801 2.719-5.346 6.373-10.101s6.913-11.067 7.242-14.025 1.468-5.54 2.53-5.737 8.935 4.786 17.496 11.072c22.33 16.399 67.253 43.652 64 38.826-1.465-2.174-12.422-10.895-24.348-19.38-11.927-8.485-27.075-19.89-33.665-25.346l-11.984-9.92 3.396-7.173c1.868-3.946 3.476-8.895 3.572-10.998s3.698-8.448 8.003-14.1c4.377-5.745 7.675-11.98 7.479-14.142-.38-4.179.743-4.038 14.828 1.863l7.31 3.066-4.306-6.638c-2.368-3.651-3.328-7.069-2.135-7.595s1.69-2.046 1.102-3.38c-.588-1.333.028-4.019 1.37-5.97 1.34-1.95 1.614-4.113.61-4.804-1.006-.69.286-4.341 2.871-8.114s7.264-12.361 10.4-19.085c5.544-11.89 5.917-12.253 13.621-13.16 6.685-.788 7.731-1.54 6.7-4.814-.673-2.134-.547-7.836.28-12.672 1.443-8.436 1.74-8.824 7.334-9.574 4.539-.61 10.396 2.018 26.44 11.856 22.876 14.026 31.738 16.36 13.596 3.58-6.397-4.507-14.948-11.295-19.002-15.085-6.276-5.867-6.943-7.516-4.485-11.092 1.587-2.31 1.926-7.09.752-10.624-2.061-6.205-1.919-6.514 4.173-9.008 3.47-1.42 8.32-5.51 10.779-9.089 3.66-5.325 3.834-7.425.96-11.58-2.68-3.87-2.651-5.592.114-7.254 1.994-1.199 8.563-9.105 14.598-17.568 9.965-13.974 11.753-15.563 19.45-17.294 9.867-2.22 11.306-3.749 10.337-10.972-.508-3.78 2.387-10.41 10.009-22.928 7.392-12.14 10.255-18.61 9.216-20.828-1.153-2.46 1.448-3.702 11.065-5.286 6.915-1.139 12.446-2.549 12.292-3.132s-1.445-3.25-2.87-5.929c-3.406-6.399 1.571-17.415 13.01-28.794 7.743-7.702 8.762-9.511 7.54-13.36-1.203-3.784 1.267-8.343 16.46-30.39 17.443-25.312 18.222-26.141 32.153-34.274 15.53-9.065 30.82-14.937 39.433-15.145 3.01-.073 14.84-1.933 26.289-4.131l20.814-3.996 11.357 7.806c10.208 7.016 12.001 9.363 17.709 23.2 14.157 34.327 14.414 70.234.8 111.942-6.879 21.071-16.487 36.987-41.324 68.458-15.254 19.329-16.45 21.059-34.622 50.061-10.397 16.595-16.16 24.186-19.789 26.062-3.937 2.036-5.37 4.06-6.201 8.778-.596 3.373-5.233 12.175-10.308 19.558-7.383 10.743-9.981 13.242-13.005 12.515-3.498-.84-3.725-.51-3.06 4.452.946 7.042-5.08 15.572-11.206 15.861-2.837.134-9.844-3.138-16.804-7.847-11.5-7.783-20.063-10.594-19.272-6.327.293 1.58 17.895 18.008 26.274 24.519 3.399 2.642-3.222 6.422-8.85 5.052-3.483-.849-8.332-1.279-10.776-.956s-9.775-1.346-16.292-3.707l-11.849-4.292 11.965 9.995c6.581 5.496 14.544 13.29 17.695 17.318 5.613 7.175 5.61 7.48-.151 15.078-3.234 4.265-7.161 7.991-8.726 8.281-1.674.31-4.1 3.728-5.897 8.31-1.68 4.28-8.633 15.943-15.451 25.915-11.249 16.451-13.186 18.389-20.899 20.92l-8.5 2.79 3.07 5.11c2.859 4.757 2.425 6.054-6.3 18.747-5.154 7.5-10.549 13.578-11.986 13.508s-3.492 2.238-4.567 5.127c-2.77 7.442-8.205 8.183-21.333 2.909-6.289-2.526-11.908-3.902-12.489-3.057-.58.845 4.7 5.493 11.736 10.329l12.792 8.791-8.874 12.912c-10.533 15.324-15.041 18.115-23.382 14.477-20.434-8.912-19.478-8.672-17.35-4.36 1.103 2.233 6.202 6.195 11.332 8.803l9.327 4.74-5.135 12.714c-6.007 14.876-14.63 25.05-28.798 33.98-9.613 6.059-13.771 12.036-10.12 14.545 4.07 2.797 24.315-10.066 39.039-24.803 7.343-7.35 9.401-10.698 10.858-17.654 1.377-6.58 3.426-10.077 8.781-14.984 11.301-10.356 25.277-31.96 26.385-40.789.819-6.519 1.778-8.117 5.948-9.903 2.734-1.172 10.032-8.706 16.217-16.741 8.818-11.457 11.612-16.637 12.941-24.004 1.428-7.912 2.4-9.594 6.165-10.66 6.415-1.816 27.996-30.776 31.243-41.925 1.96-6.728 3.42-8.97 6.174-9.48 5.483-1.016 11.342-11.011 13.648-23.284 1.456-7.751 3.7-12.644 7.566-16.492 3.022-3.01 6.555-9.117 7.853-13.572 2.18-7.489 2.927-8.186 9.838-9.197 6.987-1.022 8.33-2.31 20.492-19.624 9.675-13.772 13.364-20.694 14.369-26.957 1.158-7.221 2.153-8.841 6.954-11.324 7.53-3.894 33.42-40.976 32.411-46.422-.896-4.84 3.428-11.318 8.138-12.19 2.441-.453 10.897-11.255 26.635-34.027 21.63-31.296 23.448-34.594 29.352-53.251 11.593-36.636 15.013-71.554 10.936-111.636-1.508-14.827-.955-20.528 2.643-27.274 4.12-7.727 5.14-8.424 10.85-7.417 6.11 1.078 9.646-1.01 8.863-5.233-.068-.37.605-1.746 1.834-3.84 2.177-5.22-22.572-25.727-47.326-42.669m-25.661 12.885c1.485 1 2.181 2.765 2.796 6.08 1.412 7.618 1.196 7.407 19.898 19.437 14.223 9.15 14.409 9.373 11.38 13.78-3.003 4.369-3.544 4.204-21.707-6.585-29.118-17.298-41.698-26.435-40.862-29.683.404-1.572 1.933-5.062 3.396-7.755 2.339-4.303 3.481-4.426 9.41-1.014 3.712 2.136 9.118 4.204 12.015 4.597 1.61.219 2.783.544 3.674 1.143" style="fill:url(#radialGradient990);fill-opacity:1;stroke-width:2.21735px"/><path id="path1183" d="M432.512 150.418c-8.374 6.694-16.063 13.811-22.8 21.219-13.337 14.667-42.672 60.347-43.888 68.343-.606 3.986-2.27 6.327-6.166 8.668-8.416 5.058-32.305 41.038-32.238 48.557.05 5.6-.461 6.345-5.887 8.566-8.504 3.482-33.384 39.745-34.754 50.655-.642 5.115-3.006 9.963-7.021 14.4-3.329 3.679-6.277 8.708-6.551 11.176-.369 3.317-3.261 5.924-11.09 9.994-12.358 6.425-14.796 9.421-16.549 20.346-.978 6.097-2.381 8.617-5.785 10.377-5.687 2.94-31.258 39.885-29.838 43.11 1.363 3.092-4.16 11.126-7.535 10.962-3.559-.173-25.466 32.09-27.941 41.148-1.532 5.606-3.231 7.952-7.264 10.038-3.785 1.957-9.64 9.613-20.855 27.263-8.577 13.498-16.577 24.492-17.778 24.434-2.961-.144-11.8 13.194-16.29 24.584-6.017 15.258-9.903 43.633-6.96 50.82 1.478 3.61 6.763 11.528 11.744 17.594 6.05 7.366 14.625 14.49 21.63 18.625 7.63 8.933 26.299 21.957 36.36 28.857 22.94 15.729 64.851 39.747 68.256 39.116 1.764-.327 6.174 1.446 9.801 3.939 8.232 5.658 28.702 4.968 36.57-.75 8.294-3.899 20.983-13.118 31.079-23.223 7.343-7.35 9.4-10.698 10.857-17.654 1.378-6.58 3.427-10.078 8.781-14.984 11.302-10.356 25.277-31.96 26.385-40.79.819-6.519 1.778-8.115 5.947-9.902 2.735-1.171 10.032-8.707 16.217-16.742 8.819-11.457 11.612-16.635 12.942-24.002 1.427-7.912 2.401-9.594 6.166-10.66 6.415-1.817 27.995-30.776 31.242-41.926 1.959-6.727 3.42-8.97 6.174-9.48 5.483-1.017 11.343-11.01 13.648-23.284 1.456-7.75 3.701-12.644 7.567-16.492 3.022-3.009 6.553-9.116 7.851-13.572 2.18-7.488 2.928-8.186 9.84-9.197 6.987-1.022 8.33-2.31 20.492-19.623 9.674-13.773 13.362-20.696 14.367-26.96 1.159-7.22 2.155-8.839 6.955-11.322 7.53-3.893 33.42-40.975 32.41-46.421-.896-4.84 3.43-11.319 8.14-12.192 2.44-.452 10.895-11.253 26.634-34.025 21.63-31.296 23.448-34.595 29.352-53.252 11.592-36.635 15.014-71.555 10.937-111.637-1.314-12.92-1.062-18.91 1.404-24.701Z" style="fill:#7ac0f7;fill-opacity:1;stroke-width:2.21735px;opacity:.486928"/><path id="path986" d="M272.256 663.36c-4.523-3.108-9.298-5.177-10.61-4.6-1.455.642.822 3.255 5.839 6.703 4.523 3.108 9.296 5.18 10.608 4.602 1.456-.642-.82-3.256-5.837-6.704" style="fill:url(#radialGradient1032);fill-opacity:1;stroke-width:2.21735px"/><path id="path984" d="M288.099 540.022c-1.822-1.252-3.715-2.399-5.24-3.14-3.052-1.48-1.027.416 4.5 4.216 5.528 3.799 8.026 5.011 5.55 2.693-1.238-1.16-2.988-2.517-4.81-3.77" style="fill:url(#radialGradient975);fill-opacity:1;stroke-width:2.21735px"/><path id="path936" d="M565.038 63.052c2.895-3.79 6.48-8.92 9.994-14.39 12.952-20.162 20.81-27.477 27.755-25.837 9.77 2.306 51.796 28.24 66.787 41.213 21.42 18.535 21.453 19.761 1.323 47.828-4.45 6.204-8.122 11.136-10.714 15.053-1.913 3.552-2.095 2.296-4.382.403-13.63-11.242-77.931-55.398-89.987-61.983-1.585-1.21-1.51-1.066-.776-2.287" style="fill:url(#linearGradient955);fill-opacity:1;stroke-width:2.21735px"/><path id="path1061" d="M362.863 254.347a10.466 10.466 0 0 0-14.552 2.695L245.424 406.738a10.466 10.466 0 0 0 2.697 14.553l190.543 130.96a10.466 10.466 0 0 0 14.553-2.697L556.103 399.86a10.466 10.466 0 0 0-2.698-14.551Z" style="color:#000;font-variant:normal;font-variant-ligatures:normal;font-variant-position:normal;font-variant-numeric:normal;font-variant-alternates:normal;font-variant-east-asian:normal;font-feature-settings:normal;font-variation-settings:normal;text-indent:0;text-align:start;letter-spacing:normal;word-spacing:normal;text-transform:none;writing-mode:lr-tb;text-orientation:mixed;dominant-baseline:auto;baseline-shift:baseline;text-anchor:start;white-space:normal;shape-padding:0;shape-margin:0;clip-rule:nonzero;visibility:visible;isolation:auto;mix-blend-mode:normal;color-interpolation:srgb;color-interpolation-filters:linearrgb;solid-color:#000;solid-opacity:1;vector-effect:none;fill:url(#linearGradient1075);fill-opacity:1;fill-rule:nonzero;stroke:none;stroke-width:20.9301px;stroke-linecap:round;stroke-linejoin:round;stroke-miterlimit:4;stroke-dasharray:none;stroke-dashoffset:6.32016px;stroke-opacity:1;color-rendering:auto;image-rendering:auto;shape-rendering:auto;text-rendering:auto;enable-background:accumulate;stop-color:#000;direction:ltr;inline-size:0;font:medium sans-serif;text-decoration:none;display:inline;overflow:visible"/><path id="path1081" d="M526.71 412.322c-58.544-41.909-129.119 24.847-236.108-32.14-7.158-1.104-15.465 9.739-8.292 14.72 109.844 67.18 126.718 25.315 207.808 70.66Z" style="color:#000;font-variant:normal;font-variant-ligatures:normal;font-variant-position:normal;font-variant-numeric:normal;font-variant-alternates:normal;font-variant-east-asian:normal;font-feature-settings:normal;font-variation-settings:normal;text-indent:0;text-align:start;letter-spacing:normal;word-spacing:normal;text-transform:none;writing-mode:lr-tb;text-orientation:mixed;dominant-baseline:auto;baseline-shift:baseline;text-anchor:start;white-space:normal;shape-padding:0;shape-margin:0;clip-rule:nonzero;visibility:visible;opacity:.712418;isolation:auto;mix-blend-mode:normal;color-interpolation:srgb;color-interpolation-filters:linearrgb;solid-color:#000;solid-opacity:1;vector-effect:none;fill:url(#linearGradient1097);fill-opacity:1;fill-rule:evenodd;stroke:none;stroke-width:109.224px;stroke-linecap:butt;stroke-linejoin:miter;stroke-miterlimit:4;stroke-dasharray:none;stroke-dashoffset:0;stroke-opacity:1;color-rendering:auto;image-rendering:auto;shape-rendering:auto;text-rendering:auto;enable-background:accumulate;stop-color:#000;direction:ltr;inline-size:0;font:medium sans-serif;text-decoration:none;display:inline;overflow:visible"/></svg>