<svg xmlns="http://www.w3.org/2000/svg" xmlns:xlink="http://www.w3.org/1999/xlink" xml:space="preserve" id="Layer_1" width="659.327" height="828.977" x="0" y="0" viewBox="0 0 659.327 828.977"><defs id="defs40"><filter id="filter997" width="1.151" height="1.13" x="-.075" y="-.065" style="color-interpolation-filters:srgb"><feGaussianBlur id="feGaussianBlur999" stdDeviation="18.572"/></filter><filter id="filter1146" width="1.103" height="1.085" x="-.052" y="-.042" style="color-interpolation-filters:srgb"><feGaussianBlur id="feGaussianBlur1148" stdDeviation="1.106"/></filter><filter id="filter1245" width="1.11" height="1.084" x="-.055" y="-.042" style="color-interpolation-filters:srgb"><feGaussianBlur id="feGaussianBlur1247" stdDeviation="1.155"/></filter><filter id="filter2014" width="1.391" height="1.321" x="-.196" y="-.161" style="color-interpolation-filters:srgb"><feGaussianBlur id="feGaussianBlur2016" stdDeviation="4.196"/></filter><filter id="filter2014-2" width="1.391" height="1.321" x="-.196" y="-.161" style="color-interpolation-filters:srgb"><feGaussianBlur id="feGaussianBlur2016-6" stdDeviation="4.196"/></filter><filter id="filter1146-4" width="1.103" height="1.085" x="-.052" y="-.042" style="color-interpolation-filters:srgb"><feGaussianBlur id="feGaussianBlur1148-4" stdDeviation="1.106"/></filter><filter id="filter1245-3" width="1.11" height="1.084" x="-.055" y="-.042" style="color-interpolation-filters:srgb"><feGaussianBlur id="feGaussianBlur1247-0" stdDeviation="1.155"/></filter><filter id="filter2109" width="1.165" height="1.17" x="-.083" y="-.085" style="color-interpolation-filters:srgb"><feGaussianBlur id="feGaussianBlur2111" stdDeviation="1.371"/></filter><filter id="filter894" width="1.108" height="1.197" x="-.054" y="-.099" style="color-interpolation-filters:srgb"><feGaussianBlur id="feGaussianBlur896" stdDeviation="7.152"/></filter><filter id="filter1315" width="1.064" height="1.089" x="-.032" y="-.044" style="color-interpolation-filters:srgb"><feGaussianBlur id="feGaussianBlur1317" stdDeviation="5.83"/></filter><filter id="filter1456" width="1.049" height="1.061" x="-.024" y="-.031" style="color-interpolation-filters:srgb"><feGaussianBlur id="feGaussianBlur1458" stdDeviation="3.223"/></filter><filter id="filter1534" width="1.069" height="1.508" x="-.035" y="-.254" style="color-interpolation-filters:srgb"><feGaussianBlur id="feGaussianBlur1536" stdDeviation="5.214"/></filter><filter id="filter1534-7" width="1.069" height="1.508" x="-.035" y="-.254" style="color-interpolation-filters:srgb"><feGaussianBlur id="feGaussianBlur1536-4" stdDeviation="5.214"/></filter><filter id="filter1534-7-8" width="1.069" height="1.508" x="-.035" y="-.254" style="color-interpolation-filters:srgb"><feGaussianBlur id="feGaussianBlur1536-4-4" stdDeviation="5.214"/></filter><filter id="filter1534-7-8-8" width="1.069" height="1.508" x="-.035" y="-.254" style="color-interpolation-filters:srgb"><feGaussianBlur id="feGaussianBlur1536-4-4-8" stdDeviation="5.214"/></filter><filter id="filter981" width="1.164" height="1.376" x="-.082" y="-.188" style="color-interpolation-filters:srgb"><feGaussianBlur id="feGaussianBlur983" stdDeviation="5.694"/></filter><radialGradient xlink:href="#linearGradient2073" id="radialGradient2075" cx="270.628" cy="566.585" r="19.882" fx="270.628" fy="566.585" gradientTransform="matrix(0.27103477,0.45782853,-0.5705912,0.33779034,516.06455,255.15175)" gradientUnits="userSpaceOnUse" patternTransform="matrix(.509432,.860511,-.860511,.509432,516.063,255.148)scale(.53204,.66308)"/><linearGradient id="linearGradient2073"><stop id="stop2069" offset="0" style="stop-color:#5f3303;stop-opacity:1"/><stop id="stop2071" offset="1" style="stop-color:#160203;stop-opacity:1"/></linearGradient></defs><style id="style2">.st1{fill:#283005}.st3{fill:#526b0d}.st4{fill:#8fa833}</style><path id="path934-6" d="M326.802 49.904c-5.98.039-12.036.384-18.073 1.01-46.148 4.78-84.657 37.994-84.982 78.83q-8.594.831-17.213 1.668c-1.074-3.391-4.362-5.84-8.13-5.84h-28.9c-4.701 0-8.338 3.803-8.501 8.5l-.06 1.752a18917 18917 0 0 1-44.34 4.248l-.255 4.228c-12.365 2.13-19.824 12.315-22.746 25.072C64.614 295.968 45.917 473.336 53.358 580.34c-.628 43.46 5.207 112.902 39.645 116.233 346.26 54.999 397.449 33.292 433.5 30q.714.062 1.416.078.4.015.83-.002c3.875-.067 7.423-1.22 10.517-3.166 19.591-8.928 76.067-39.048 91.436-59.99 38.428-52.362-19.645-270.945-24-423.756-.928-32.57-51.399-123.114-65.399-123.114h-.313c-2.313-2.32-4.732-3.72-7.198-3.773a7 7 0 0 0-.652.018l-10.18.763c-8.072-1.914-20.749-2.82-37.102-2.924-.865-.005-1.792.003-2.678.002l.022-.636c.155-4.698-3.8-8.5-8.5-8.5h-28.898c-4.7 0-8.345 3.802-8.5 8.5l-.065 1.96c-8.707.438-17.958.996-27.51 1.618.383-3.808.45-7.598.153-11.334-3.02-38.003-41.222-52.686-83.08-52.412m-5.887 30.093c29.968.206 53.384 15.872 56.453 35.956-36.184 2.775-76.389 6.43-117.938 10.378 7.138-20.862 25.445-43.14 51.649-45.853a90 90 0 0 1 9.836-.48" style="color:#000;font-variant:normal;font-variant-ligatures:normal;font-variant-position:normal;font-variant-numeric:normal;font-variant-alternates:normal;font-variant-east-asian:normal;font-feature-settings:normal;font-variation-settings:normal;text-indent:0;text-align:start;letter-spacing:normal;word-spacing:normal;text-transform:none;writing-mode:lr-tb;text-orientation:mixed;dominant-baseline:auto;baseline-shift:baseline;text-anchor:start;white-space:normal;shape-padding:0;shape-margin:0;clip-rule:nonzero;visibility:visible;opacity:.831606;isolation:auto;mix-blend-mode:normal;color-interpolation:srgb;color-interpolation-filters:linearrgb;solid-color:#000;solid-opacity:1;vector-effect:none;fill:#000;fill-opacity:1;fill-rule:nonzero;stroke:none;stroke-width:29.6531px;stroke-linecap:butt;stroke-linejoin:round;stroke-miterlimit:10;stroke-dasharray:none;stroke-dashoffset:0;stroke-opacity:1;filter:url(#filter997);color-rendering:auto;image-rendering:auto;shape-rendering:auto;text-rendering:auto;enable-background:accumulate;stop-color:#000;direction:ltr;inline-size:0;font:medium sans-serif;text-decoration:none;display:inline;overflow:visible" transform="matrix(1 0 0 1.07342 -6.067 12.213)"/><path id="path934-60" d="M312.555 27.219c-5.98.042-12.036.413-18.073 1.084-46.151 5.13-84.663 40.79-84.982 84.628l-17.211 1.788c-1.071-3.644-4.363-6.274-8.135-6.274h-28.898c-4.7 0-8.337 4.082-8.5 9.124l-.06 1.887a17604 17604 0 0 1-44.34 4.554l-.255 4.536c-12.366 2.285-19.824 13.22-22.746 26.915C50.367 291.351 41.67 481.74 49.111 596.6c-.628 46.652 5.207 121.193 39.645 124.768 346.26 59.037 387.449 35.737 423.5 32.203q.701.066 1.39.082.404.016.838 0c3.884-.07 7.44-1.307 10.54-3.401 19.59-9.586 52.063-37.62 67.43-60.097 38.43-56.206 4.356-295.131 0-459.161-.927-34.96-51.4-132.153-65.4-132.153h-.309c-2.517-2.712-5.161-4.25-7.855-4.033l-10.18.82c-8.494-2.163-22.165-3.109-39.777-3.13l.022-.688c.155-5.043-3.8-9.125-8.5-9.125h-28.9c-4.7 0-8.345 4.082-8.5 9.125l-.065 2.109c-8.747.471-17.907 1.04-27.506 1.713.382-4.082.445-8.143.149-12.148-3.02-40.793-41.22-56.556-83.078-56.262Zm-5.887 32.305c29.964.22 53.375 17.032 56.449 38.587-36.185 2.98-76.385 6.902-117.932 11.14 7.14-22.391 25.445-46.3 51.647-49.213a84 84 0 0 1 9.836-.514Z" style="color:#000;font-variant:normal;font-variant-ligatures:normal;font-variant-position:normal;font-variant-numeric:normal;font-variant-alternates:normal;font-variant-east-asian:normal;font-feature-settings:normal;font-variation-settings:normal;text-indent:0;text-align:start;letter-spacing:normal;word-spacing:normal;text-transform:none;writing-mode:lr-tb;text-orientation:mixed;dominant-baseline:auto;baseline-shift:baseline;text-anchor:start;white-space:normal;shape-padding:0;shape-margin:0;clip-rule:nonzero;visibility:visible;isolation:auto;mix-blend-mode:normal;color-interpolation:srgb;color-interpolation-filters:linearrgb;solid-color:#000;solid-opacity:1;vector-effect:none;fill:#160203;fill-opacity:1;fill-rule:nonzero;stroke:#160203;stroke-width:50px;stroke-linecap:butt;stroke-linejoin:round;stroke-miterlimit:10;stroke-dasharray:none;stroke-dashoffset:0;stroke-opacity:1;color-rendering:auto;image-rendering:auto;shape-rendering:auto;text-rendering:auto;enable-background:accumulate;stop-color:#000;direction:ltr;inline-size:0;font:medium sans-serif;text-decoration:none;display:inline;overflow:visible"/><path id="path934" d="M294.482 28.303c-48.296 5.37-88.23 44.17-84.78 90.79 3.45 46.622 48.428 75.98 96.724 70.61s92.657-59.601 89.207-106.222-52.854-60.547-101.15-55.178m2.349 31.736c35.655-3.964 64.687 15.384 66.537 40.375 1.85 24.99-23.635 53.592-59.29 57.556s-60.264-1.137-62.113-26.129c-1.85-24.99 19.21-67.838 54.866-71.802" style="color:#000;font-variant:normal;font-variant-ligatures:normal;font-variant-position:normal;font-variant-numeric:normal;font-variant-alternates:normal;font-variant-east-asian:normal;font-feature-settings:normal;font-variation-settings:normal;text-indent:0;text-align:start;letter-spacing:normal;word-spacing:normal;text-transform:none;writing-mode:lr-tb;text-orientation:mixed;dominant-baseline:auto;baseline-shift:baseline;text-anchor:start;white-space:normal;shape-padding:0;shape-margin:0;clip-rule:nonzero;visibility:visible;isolation:auto;mix-blend-mode:normal;color-interpolation:srgb;color-interpolation-filters:linearrgb;solid-color:#000;solid-opacity:1;vector-effect:none;fill:#5f3303;fill-opacity:1;fill-rule:nonzero;stroke:none;stroke-width:30.7224px;stroke-linecap:butt;stroke-linejoin:round;stroke-miterlimit:10;stroke-dasharray:none;stroke-dashoffset:0;stroke-opacity:1;color-rendering:auto;image-rendering:auto;shape-rendering:auto;text-rendering:auto;enable-background:accumulate;stop-color:#000;direction:ltr;inline-size:0;font:medium sans-serif;text-decoration:none;display:inline;overflow:visible"/><path id="path1460-3" d="M215.274 116.828c7.704-85.166 143.392-100.053 166.883-20.786" style="fill:none;fill-rule:evenodd;stroke:#ac6e22;stroke-width:7px;stroke-linecap:round;stroke-linejoin:round;stroke-miterlimit:4;stroke-dasharray:none;stroke-opacity:1;filter:url(#filter981)"/><path id="path8" d="m513.055 753.606-52.2-6.44c-13.908-1.717-25.4-22.04-25.4-57.013v-527.86c0-34.975 11.4-63.454 25.4-63.454h66.2c14 0 64.472 97.192 65.4 132.152 4.355 164.03 38.428 402.955 0 459.162-19.278 28.195-65.492 65.169-79.4 63.453" class="st1" style="fill:#160203;fill-opacity:1;stroke-width:1.58055px"/><path id="path10" d="m444.255 759.39-355.5-38.79c-13.926-1.519-19.514-13.629-25.4-27.264-25.323-58.665-23.49-344.933 16-530.055 3.125-14.648 11.44-26.139 25.4-27.265l414.136-33.39c13.96-1.125 26.623 44.576 27.059 59.597 5.659 195.155 6.746 387.857-8.295 571.903-1.224 14.97-79.474 26.784-93.4 25.265" style="fill:#ac6e22;fill-opacity:1;stroke-width:1.03606px"/><path id="path12" d="m500.255 662.652-411.5-32.203C58.853 628.11 49.111 596.6 48 561.077c-2.92 46.74-1.205 155.934 40.755 160.29 346.26 59.038 387.449 35.737 423.5 32.203 13.942-1.366 24.66-12.259 25.4-27.265l5.474-110.918c0 15.028-15.548 49.403-42.874 47.265" class="st3" style="fill:#8a530b;fill-opacity:1;stroke-width:1.03606px"/><path id="path14-3" d="M429.14 720.517c-82.85-9.415-162.507-24.049-253.39-20.342-14.517.592-21.166-13.928-26.356-28.705-27.057-77.04-.736-98.438 2.076-147.595.903-15.791 11.9-27.145 26.355-28.705l251.316-27.124c14.456-1.56 11.223 12.925 12.356 28.706l14 195.06c.103 15.935-11.805 30.36-26.356 28.705" class="st4" style="fill:#5f3303;fill-opacity:1;stroke-width:1.0829px;filter:url(#filter1456)"/><path id="path14" d="M418.555 707.843C338.709 698.9 261.942 685 174.355 688.52c-13.99.562-20.398-13.229-25.4-27.265-26.076-73.175-.71-93.498 2-140.188.87-15 11.468-25.783 25.4-27.265l242.2-25.762c13.932-1.482 25.4 12.237 25.4 27.265v185.272c.1 15.135-11.376 28.835-25.4 27.265" class="st4" style="fill:#bb7e2e;fill-opacity:1;stroke-width:1.03606px"/><path id="path16-5" d="M521.986 281.798c21.897 15.229-84.632 124.734-213.942 126.441-128.648 1.7-202.551-9.817-211.08-46.002-18.92-80.272-6.507-160.545 12.138-240.818 171.328-15.629 442.845-49.765 415.156-15.015-15.532 6.252-31.21 155.268-2.272 175.394" class="st3" style="fill:#3d1602;fill-opacity:1;stroke-width:.995164px;filter:url(#filter1315)" transform="matrix(1.01515 0 0 1.03008 -5.829 1.107)"/><path id="path1460-9-2-4" d="M279.74 74.515c38.85-24.473 94.229 5.53 80.143 28.305-6.548 10.587 39.742 16.212 41.46 13.076 27.46-50.133-62.594-107.287-99.236-100.3" style="fill:none;fill-rule:evenodd;stroke:#160203;stroke-width:10px;stroke-linecap:round;stroke-linejoin:round;stroke-miterlimit:4;stroke-dasharray:none;stroke-opacity:1;filter:url(#filter1534-7-8-8)"/><path id="path16" d="M510.555 276.632c24.82 22.299-82.9 120.943-210.1 120.943s-201.668-7.393-210.1-42.624c-18.705-78.157 1.308-215.688 14.489-225.965 22.702-14.664 435.331-56.958 407.957-23.124-15.356 6.087-27.944 147.684-2.246 170.77" class="st3" style="fill:#5f3303;fill-opacity:1;stroke-width:.976373px"/><path id="path18-1" d="M447.555 557.338c-6.88 24.457-71.698 73.145-158.054 80.114-128.443 10.365-136.32-34.302-144.146-58.646-8.71-27.09-12.125-63.768 6-79.003 123.286-23.541 210.477-28.85 299.328-34.997 10.67 27.995 6.228 59.273-3.128 92.532" class="st3" style="fill:#5f3303;fill-opacity:1;stroke-width:1.03606px;filter:url(#filter894)"/><path id="path18" d="M443.555 551.338c-6.88 24.457-70.039 62.085-156.395 69.054-128.443 10.365-137.979-23.242-145.805-47.586-8.71-27.09-12.125-63.768 6-79.003 123.286-23.541 210.477-28.85 299.328-34.997 10.67 27.995 6.228 59.273-3.128 92.532" class="st3" style="fill:#8a4b06;fill-opacity:1;stroke-width:1.03606px"/><path id="path1460" d="m121.408 158.535 9.385-15.641 351.924-33.629" style="fill:none;fill-rule:evenodd;stroke:#ac6e22;stroke-width:10px;stroke-linecap:round;stroke-linejoin:round;stroke-miterlimit:4;stroke-dasharray:none;stroke-opacity:1;filter:url(#filter1534)"/><path id="path20" d="M145.255 453.825c-4.7 0-10.409-4.657-8.5-9.625 30.032-78.152-22.983-156.559 10-326.13 1.015-5.22 3.8-9.625 8.5-9.625h28.9c4.7 0 9.709 4.443 8.5 9.625-23.91 102.504-18.13 276.745-2.18 305.014.902 31.274-22.857 30.741-45.22 30.741" class="st1" style="fill:#160203;fill-opacity:1;stroke-width:1.06414px"/><path id="path22" d="M399.76 416.063c38.769-118.292-12.176-225.54 23.295-324.34 1.688-4.702 3.8-9.04 8.5-9.04h28.9c4.7 0 11.214 4.843 8.5 9.04-40.115 62.042 3.924 261.637-10 321.212-2.355 16.01-59.964 16.864-59.195 3.128" class="st1" style="fill:#160203;fill-opacity:1;stroke-width:1.03132px"/><path id="circle32-5" d="M253.556 577.259c8.428-31.595 39.318-27.618 38.737-10.494s-47.165 42.088-38.737 10.494" class="st1" style="fill:#3d1602;fill-opacity:1;stroke-width:1.03606px;filter:url(#filter2109)"/><path id="circle32" d="M251.955 574.664c8.428-31.595 39.318-27.617 38.737-10.493s-47.165 42.088-38.737 10.493" class="st1" style="fill:url(#radialGradient2075);fill-opacity:1;stroke-width:1.03606px"/><g id="g2022" transform="translate(-8.413 88.573)"><path id="path1045-8" d="m149.95 261.913-5.571-53.015 51.47-9.672v62.688Z" style="fill:none;fill-rule:evenodd;stroke:#000;stroke-width:10px;stroke-linecap:round;stroke-linejoin:round;stroke-miterlimit:4;stroke-dasharray:none;stroke-opacity:1;filter:url(#filter2014)"/><path id="path1045" d="m145.95 257.913-5.571-53.015 51.47-9.672v62.688Z" style="fill:none;fill-rule:evenodd;stroke:#f8df88;stroke-width:10px;stroke-linecap:round;stroke-linejoin:round;stroke-miterlimit:4;stroke-dasharray:none;stroke-opacity:1"/><path id="path1045-2" d="m143.559 256.695-5.571-53.015 51.47-9.672v62.688Z" style="fill:none;fill-rule:evenodd;stroke:#fff;stroke-width:2px;stroke-linecap:round;stroke-linejoin:round;stroke-miterlimit:4;stroke-dasharray:none;stroke-opacity:1;filter:url(#filter1146)"/><path id="path1183" d="m144.68 259.837 48.878.196 1.564-65.693" style="opacity:1;fill:none;fill-rule:evenodd;stroke:#c87137;stroke-width:1px;stroke-linecap:butt;stroke-linejoin:miter;stroke-opacity:1;filter:url(#filter1245)"/></g><g id="g2022-2" transform="translate(261.77 63.786)"><path id="path1045-8-4" d="m149.95 261.913-5.571-53.015 51.47-9.672v62.688Z" style="fill:none;fill-rule:evenodd;stroke:#000;stroke-width:10px;stroke-linecap:round;stroke-linejoin:round;stroke-miterlimit:4;stroke-dasharray:none;stroke-opacity:1;filter:url(#filter2014-2)"/><path id="path1045-4" d="m145.95 257.913-5.571-53.015 51.47-9.672v62.688Z" style="fill:none;fill-rule:evenodd;stroke:#f8df88;stroke-width:10px;stroke-linecap:round;stroke-linejoin:round;stroke-miterlimit:4;stroke-dasharray:none;stroke-opacity:1"/><path id="path1045-2-4" d="m143.559 256.695-5.571-53.015 51.47-9.672v62.688Z" style="fill:none;fill-rule:evenodd;stroke:#fff;stroke-width:2px;stroke-linecap:round;stroke-linejoin:round;stroke-miterlimit:4;stroke-dasharray:none;stroke-opacity:1;filter:url(#filter1146-4)"/><path id="path1183-5" d="m144.68 259.837 48.878.196 1.564-65.693" style="opacity:1;fill:none;fill-rule:evenodd;stroke:#c87137;stroke-width:1px;stroke-linecap:butt;stroke-linejoin:miter;stroke-opacity:1;filter:url(#filter1245-3)"/></g><path id="path1460-9" d="m148.17 523.291 9.385-15.64 270.08-35.841" style="fill:none;fill-rule:evenodd;stroke:#ac6e22;stroke-width:10px;stroke-linecap:round;stroke-linejoin:round;stroke-miterlimit:4;stroke-dasharray:none;stroke-opacity:1;filter:url(#filter1534-7)"/><path id="path1460-9-2" d="M77.086 720.149c132.893 17.143 265.787 34.42 398.68 41.398 84.85 3.273 60.995-82.084 67.363-126.16 6.656-188.334 8.846-374.58.26-470.896-3.103-34.817-12.373-58.903-16.643-65.65" style="fill:none;fill-rule:evenodd;stroke:#160203;stroke-width:10px;stroke-linecap:round;stroke-linejoin:round;stroke-miterlimit:4;stroke-dasharray:none;stroke-opacity:1;filter:url(#filter1534-7-8)"/></svg>