<svg xmlns="http://www.w3.org/2000/svg" xml:space="preserve" id="Layer_1" width="790.138" height="790.138" x="0" y="0" viewBox="0 0 790.138 790.138"><defs id="defs40"><filter id="filter1680" width="1.025" height="1.017" x="-.013" y="-.008" style="color-interpolation-filters:srgb"><feGaussianBlur id="feGaussianBlur1682" stdDeviation="2.652"/></filter><filter id="filter2034" width="1.206" height="1.171" x="-.103" y="-.086" style="color-interpolation-filters:srgb"><feGaussianBlur id="feGaussianBlur2036" stdDeviation="7.179"/></filter><filter id="filter2038" width="1.241" height="1.058" x="-.12" y="-.029" style="color-interpolation-filters:srgb"><feGaussianBlur id="feGaussianBlur2040" stdDeviation="7.179"/></filter><filter id="filter2206" width="1.419" height="5.021" x="-.209" y="-2.01" style="color-interpolation-filters:srgb"><feGaussianBlur id="feGaussianBlur2208" stdDeviation="3.304"/></filter></defs><g id="g2231" transform="translate(42.636 -1.328)"><path id="path903" d="m609.082 783.142.292-7.75 5.114-.515c8.027-.808 11.485-5.123 9.332-11.646-1.338-4.057-5.261-6.339-10.897-6.339h-4.05l-1.298-507.48c-.927-14.732-2.505-15.58-5.188-21.838-5.39-12.572-9.444-18.594-19.013-28.245-13.079-13.19-26.327-20.494-44.44-24.5l-67.06-1.937v-4.577c0-5.945-4-10.423-9.313-10.423-5.37 0-8.012 2.789-8.648 9.13l-.54 5.37-7.25.294-7.25.294v-2.997c0-7.981-6.944-12.62-12.777-8.534C424.085 162.858 423.663 162.858 421.651 161.45 418.826 159.47 415.921 159.47 413.096 161.45 411.085 162.858 410.663 162.858 408.651 161.45c-2.752-1.928-5.08-1.968-8.595-.15C397.72 162.505 397.066 162.505 395.414 161.298c-2.506-1.832-5.556-1.783-8.293.134-1.988 1.392-2.438 1.381-4.718-.112-3.24-2.123-8.889-1.18-11 1.835-.978 1.395-1.53 4.446-1.53 8.46v6.277h-23.35c-15.176 0-24.54-.408-26.75-1.166-7.068-2.425-13.65-9.487-19.381-20.798-2.328-4.593-2.434-5.263-1.054-6.643 3.324-3.324 1.38-6.393-4.046-6.393-2.379 0-2.418-.147-2.418-9v-9h-10v-16h-12v-9h4.8c6.647 0 9.172-2.884 5.628-6.428-1.075-1.075-3.444-1.572-7.5-1.572h-5.929V41.926L273 39.328c2.82-1.428 6.207-3.678 7.528-4.999l2.401-2.402 17.065 2.483c9.386 1.365 17.944 2.482 19.018 2.482s3.057-1.104 4.407-2.454c2.269-2.269 2.455-3.19 2.455-12.155 0-9.334-.07-9.638-1.83-8.046-3.057 2.767-4.17 2.008-4.17-2.845 0-3.387-.382-4.5-1.542-4.5-.847 0-9.681 1.149-19.63 2.552-17.903 2.525-18.112 2.531-20.21.617-9.311-8.5-31.228-8.52-40.258-.037l-2.168 2.036-19.608-2.77-19.609-2.77-2.738 2.041c-2.633 1.964-2.748 2.432-3.024 12.306-.311 11.18.76 14.48 5.05 15.554 1.23.308 10.29-.58 20.134-1.971l17.898-2.53 2.233 2.408c1.228 1.325 4.536 3.577 7.352 5.004l5.12 2.594v49.966h-5.929c-4.056 0-6.425.497-7.5 1.572-3.544 3.544-1.019 6.428 5.629 6.428h4.8v9h-12v16h-10v18h-3.465c-4.644 0-6.492 3.043-3.603 5.933 1.97 1.97 1.965 2.003-1.495 8.92-4.068 8.132-14.311 19.63-22.347 25.084-3.075 2.087-9.821 5.92-14.992 8.515-16.625 8.347-29.74 18.05-41.558 30.75-16.696 17.938-29.416 42.729-33.634 65.548l-1.34 7.25h-8.083c-4.954 0-8.548.465-9.283 1.2-1.655 1.655-1.655 23.945 0 25.6.714.715 4.155 1.2 8.5 1.2h7.3v16H97.04c-1.56 0-3.087.254-3.397.563-.31.31.965 4.353 2.833 8.986 1.868 4.632 3.397 8.654 3.397 8.937s-1.324.514-2.941.514c-1.618 0-3.15.339-3.406.752-.255.413 1.068 4.55 2.941 9.193s3.406 8.58 3.406 8.748c0 .17-1.35.307-3 .307-3.805 0-3.793.847.156 10.936l3.157 8.064 29.593-.004 29.594-.004 3.326-8.468c1.83-4.657 3.04-8.93 2.691-9.496-.35-.565-1.764-1.028-3.144-1.028-2.865 0-2.807-.473 1.247-10.22 3.164-7.606 3.081-8.78-.62-8.78-1.65 0-3-.388-3-.862s1.35-4.136 3-8.138c3.77-9.143 3.77-10 0-10h-3v-16h7.465c9.3 0 9.535-.345 9.535-14 0-13.386-.374-14-8.536-14-3.555 0-6.464-.26-6.464-.58 0-.318 1.187-3.58 2.638-7.25 9.43-23.842 26.8-30.56 64.963-25.127 10.403 1.482 20.91 2.28 30.399 2.309 16.685.051 20.176-.708 44.551-9.688 20.637-7.603 42.147-11.664 61.78-11.664h7.41l.677 6.87c.528 5.361 1.19 7.354 3.012 9.064 2.582 2.427 7.027 2.962 10.254 1.235 1.626-.87 2.785-.781 5.142.395 2.701 1.347 3.443 1.35 6.6.032 3.08-1.287 3.92-1.297 6.276-.075 2.667 1.384 6.674 1.083 8.913-.67.663-.518 2.22-.299 3.842.543 2.592 1.345 6.52.975 9.554-.9.592-.367 1.718-.133 2.503.518.785.652 3.073 1.231 5.084 1.288 5.295.15 8.402-3.7 8.402-10.41v-4.999l4.75.305 4.75.304.539 5.37c.646 6.44 3.271 9.147 8.821 9.099 6-.053 9.14-3.798 9.14-10.903v-4.066h51.685c8.132-.353 13.375 2.608 12.315 14.275v496.47l-5.192.5c-8.362.803-11.958 6.698-8.345 13.684 1.75 3.385 3.288 4.071 9.118 4.071h4.418v16h72.916Z" style="fill:#4d4d4d;fill-opacity:1"/><path id="path1712" d="M109.672 383.31c-.529-.047-.704.595-.764 1.008-.088.808-.02 1.73.532 2.37.327.379.916.163 1.14-.219.558-.861.252-2.03-.364-2.777-.149-.163-.322-.33-.544-.381" style="fill:#fff;fill-opacity:1;filter:url(#filter1680)"/><path id="path1710" d="M109.256 364.191c-.483.19-.343.84-.395 1.258-.059.56-.275 1.273-.886 1.435-.68-.026-1.042.696-1.09 1.28-.114.609.28 1.204.84 1.423.908.391 1.932.333 2.893.246.494-.026 1.052-.35.975-.917-.074-.914-.421-1.782-.751-2.628-.333-.726-.668-1.515-1.318-2.014a.46.46 0 0 0-.268-.083" style="fill:#fff;fill-opacity:1;filter:url(#filter1680)"/><path id="path1708" d="M110.373 334.893c-.582-.043-.969.487-1.1.993-.366 1.319-.344 2.705-.39 4.062-.04 2.098.064 4.211-.257 6.292-.12.575-.244 1.297-.831 1.58-.421.131-.986.004-1.272.432-.307.5-.086 1.17.267 1.585.833.876 2.12 1.136 3.287 1.044.53 0 1.13-.197 1.342-.732.388-.945.358-1.993.416-2.996.054-2.536.058-5.074-.004-7.61-.06-1.251-.062-2.53-.425-3.74-.137-.469-.487-.946-1.033-.91Z" style="fill:#fff;fill-opacity:1;filter:url(#filter1680)"/><path id="path1706" d="M354.295 186.93a590 590 0 0 0-5.998.01c-10.133.057-18.424.474-18.424.925s2.85 1.318 6.332 1.924c7.957 1.386 30.33 1.46 31.168.104 1.411-2.284-.618-2.91-13.078-2.963Z" style="fill:#fff;fill-opacity:1;filter:url(#filter2206)"/><path id="path1704" d="M451.873 193.852v6.04l65 1.034c20.605 1.665 41.73 10.12 54.506 26.974 8.306 10.884 13.51 24.086 15.513 37.586 2.151 24.61 1.296 49.343 1.515 74.017l.466 444.39h6l-1.59-526.786c-4.56-23.453-20.725-44.002-42.075-54.563-7.01-3.618-14.588-6.068-22.16-8.134Z" style="fill:#fff;fill-opacity:1;filter:url(#filter2038)"/><path id="path1702" d="M430.69 166.29c-.443-.069-.95.309-1.555.913-.987.986-.729 9.896 1.267 43.592 1.38 23.293 2.752 42.744 3.05 43.225.707 1.145 3.15 1.12 3.866-.04.31-.5-.57-20.166-1.957-43.7-2.063-35.02-2.754-43.697-4.672-43.991" style="fill:#fff;fill-opacity:1;filter:url(#filter1680)"/><path id="path1700" d="M416.86 166.215c-.456.019-.882.172-1.204.494-.905.905 3.722 85.574 4.77 87.27.723 1.17 3.163 1.184 3.88.023.304-.49-.568-19.503-1.935-42.25s-2.492-42.098-2.492-43.002c-.005-1.436-1.652-2.592-3.02-2.535" style="fill:#fff;fill-opacity:1;filter:url(#filter1680)"/><path id="path1698" d="M403.682 165.83c-1.876-.02-1.644 7.865.101 37.707 1.154 19.721 2.367 39.343 2.697 43.606.515 6.636.865 7.75 2.438 7.75 1.01 0 2.069-.375 2.352-.832.283-.458-.615-19.92-1.997-43.25-1.95-32.95-2.833-42.744-3.949-43.875-.664-.674-1.21-1.101-1.642-1.106" style="fill:#fff;fill-opacity:1;filter:url(#filter1680)"/><path id="path1696" d="M390.67 165.822c-1.876-.016-1.645 7.964.1 38.221 1.152 19.992 2.376 39.612 2.718 43.6.525 6.122.904 7.25 2.444 7.25 1.003 0 2.038-.347 2.3-.772.263-.424-.64-19.887-2.007-43.25-1.922-32.827-2.811-42.81-3.913-43.935-.664-.68-1.21-1.11-1.642-1.114" style="fill:#fff;fill-opacity:1;filter:url(#filter1680)"/><path id="path1694" d="M377.64 165.803c-1.868-.004-1.63 8.193.137 39.25 1.169 20.537 2.395 40.152 2.727 43.59.498 5.162.92 6.25 2.428 6.25 1.003 0 2.036-.344 2.295-.762s-.663-19.881-2.045-43.25c-1.905-32.2-2.849-42.841-3.903-43.945-.662-.695-1.207-1.132-1.638-1.133" style="fill:#fff;fill-opacity:1;filter:url(#filter1680)"/><path id="path1692" d="M264.873 120.893c-3.37-.001-.714 5.874-4.9 5.006-2.863.23-5.733.33-8.6.494q-.29 7.75-.584 15.5h-9.916c-.077 5.433.195 10.884-.223 16.303-.35 2.942-4.64 1.06-5.548 3.801-1.68 4.033-3.384 8.094-5.798 11.766-8.36 13.038-20.251 23.743-33.836 31.127-5.09 2.572-10.383 4.768-15.183 7.884-11.351 7.005-21.629 15.667-30.725 25.407-11.75 12.112-22.743 25.605-28.433 41.71-3.12 8.203-4.326 16.913-5.865 25.502l-17.389.578c.083 2.947-.23 5.935.326 8.845 1.174 2.683 3.32-.436 2.804-2.173.767-3.207 4.633-3.432 7.312-3.655 3.745-.173 7.497-.065 11.246-.095 1.64-8.474 3.185-17.02 6.386-25.077 8.533-22.672 25.09-41.593 44.539-55.685 9.276-6.834 19.382-12.426 29.686-17.538 6.519-3.392 12.984-7.062 18.367-12.13 7.163-6.603 13.808-14.02 18.295-22.73 1.698-2.535 2.133-5.796-.678-7.682-2.364-2.89 1.458-5.602 4.252-5.158h3.465v-17.897q5.132-.3 10.264-.603.12-7.5.236-15 6.25-.3 12.5-.596c-.108-2.383.289-4.847-.376-7.161-.272-.627-1.019-.763-1.624-.743" style="fill:#fff;fill-opacity:1;filter:url(#filter2034)"/><path id="path1690" d="m258.412 52.393-.287 23.97c-.24 19.924-.538 24.11-1.77 24.8-.814.455-1.482 1.256-1.482 1.778s1.35.952 3 .952c2.946 0 3.971-1.282 2-2.5-.611-.378-1.09-10.017-1.23-24.809Z" style="fill:#fff;fill-opacity:1;filter:url(#filter1680)"/><path id="path1688" d="M315.764 16.195c-.299-.008-.674.047-1.141.149-2.846.619-23.43 3.549-24.936 3.549-.618 0-.31.9.686 2 2.074 2.291 4.35 2.356 16 .455 4.4-.718 8.563-1.34 9.25-1.381.688-.042 1.25-1.208 1.25-2.594 0-1.568-.214-2.154-1.11-2.178" style="fill:#fff;fill-opacity:1;filter:url(#filter1680)"/><path id="path1686" d="M201.113 16.145c-1.06-.09-1.24.95-1.24 5.12 0 6.62 1.41 7.975 3.385 3.249 2.353-5.633 4.116-6.038 17.97-4.133 6.68.918 12.933 1.89 13.895 2.158s1.75.069 1.75-.443-7.537-1.929-16.75-3.147c-9.212-1.218-17.537-2.434-18.5-2.703a3 3 0 0 0-.51-.102" style="fill:#fff;fill-opacity:1;filter:url(#filter1680)"/><path id="path1461" d="M257.498 12.908c-3.317.046-6.521.375-8.277 1.043-1.531.582-4.808 2.716-7.284 4.744l-4.5 3.688 2.97.637c5.509 1.18 7.952.72 12.02-2.26 2.55-1.869 6.352-3.406 10.25-4.147 3.409-.647 6.196-1.474 6.196-1.834 0-1.236-5.846-1.946-11.375-1.87" style="fill:#fff;fill-opacity:1;filter:url(#filter1680)"/></g></svg>