<?xml version="1.0" encoding="UTF-8" standalone="no"?>
<svg
   xmlns:dc="http://purl.org/dc/elements/1.1/"
   xmlns:cc="http://creativecommons.org/ns#"
   xmlns:rdf="http://www.w3.org/1999/02/22-rdf-syntax-ns#"
   xmlns:svg="http://www.w3.org/2000/svg"
   xmlns="http://www.w3.org/2000/svg"
   xmlns:sodipodi="http://sodipodi.sourceforge.net/DTD/sodipodi-0.dtd"
   xmlns:inkscape="http://www.inkscape.org/namespaces/inkscape"
   height="790.13824"
   width="790.13824"
   inkscape:version="1.0 (4035a4fb49, 2020-05-01)"
   sodipodi:docname="water.svg"
   xml:space="preserve"
   viewBox="0 0 790.13824 790.13824"
   y="0px"
   x="0px"
   id="Layer_1"
   version="1.1"><metadata
   id="metadata42"><rdf:RDF><cc:Work
       rdf:about=""><dc:format>image/svg+xml</dc:format><dc:type
         rdf:resource="http://purl.org/dc/dcmitype/StillImage" /><dc:title /></cc:Work></rdf:RDF></metadata><defs
   id="defs40">
	

		
		
		
		
		
		
		
		
		
		
		
		
		
	
			
		
			
		<filter
   height="1.0167723"
   y="-0.0083861306"
   width="1.025059"
   x="-0.012529504"
   id="filter1680"
   style="color-interpolation-filters:sRGB"
   inkscape:collect="always"><feGaussianBlur
     id="feGaussianBlur1682"
     stdDeviation="2.6520784"
     inkscape:collect="always" /></filter><filter
   height="1.1714335"
   y="-0.085716745"
   width="1.2063361"
   x="-0.10316806"
   id="filter2034"
   style="color-interpolation-filters:sRGB"
   inkscape:collect="always"><feGaussianBlur
     id="feGaussianBlur2036"
     stdDeviation="7.1787774"
     inkscape:collect="always" /></filter><filter
   height="1.0583996"
   y="-0.029199776"
   width="1.240966"
   x="-0.12048298"
   id="filter2038"
   style="color-interpolation-filters:sRGB"
   inkscape:collect="always"><feGaussianBlur
     id="feGaussianBlur2040"
     stdDeviation="7.1787774"
     inkscape:collect="always" /></filter><filter
   height="5.0206649"
   y="-2.0103325"
   width="1.4186098"
   x="-0.20930492"
   id="filter2206"
   style="color-interpolation-filters:sRGB"
   inkscape:collect="always"><feGaussianBlur
     id="feGaussianBlur2208"
     stdDeviation="3.3041719"
     inkscape:collect="always" /></filter></defs><sodipodi:namedview
   fit-margin-bottom="0"
   fit-margin-right="0"
   fit-margin-left="0"
   fit-margin-top="0"
   inkscape:current-layer="Layer_1"
   inkscape:window-maximized="1"
   inkscape:window-y="-8"
   inkscape:window-x="-8"
   inkscape:cy="334.827"
   inkscape:cx="10.052779"
   inkscape:zoom="0.5"
   showgrid="false"
   id="namedview38"
   inkscape:window-height="1017"
   inkscape:window-width="1920"
   inkscape:pageshadow="2"
   inkscape:pageopacity="0"
   guidetolerance="10"
   gridtolerance="10"
   objecttolerance="10"
   borderopacity="1"
   bordercolor="#666666"
   pagecolor="#ffffff"
   inkscape:document-rotation="0" />
<style
   id="style2"
   type="text/css">
	.st0{fill:none;stroke:#283005;stroke-width:29.6573;stroke-linejoin:round;stroke-miterlimit:10;}
	.st1{fill:#283005;}
	.st2{fill:#648912;}
	.st3{fill:#526B0D;}
	.st4{fill:#8FA833;}
	.st5{fill:#F8DF88;}
</style>

<g
   transform="translate(42.63566,-1.3283837)"
   id="g2231"><path
     style="fill:#4d4d4d;fill-opacity:1"
     d="m 609.08158,783.14235 0.29206,-7.75 5.11435,-0.515 c 8.02709,-0.8083 11.48508,-5.1237 9.33237,-11.6464 -1.33881,-4.0567 -5.26182,-6.3386 -10.89706,-6.3386 h -4.04966 l -1.29847,-507.48122 c -0.92674,-14.73081 -2.5052,-15.57905 -5.18837,-21.83732 -5.38989,-12.57147 -9.44414,-18.59424 -19.01316,-28.24489 -13.07828,-13.18985 -26.32638,-20.4937 -44.43896,-24.49978 l -67.06104,-1.93679 v -4.57692 c 0,-5.94562 -4.0003,-10.42308 -9.3123,-10.42308 -5.3708,0 -8.012,2.78818 -8.6486,9.13001 l -0.5391,5.36999 -7.25,0.29381 -7.25,0.29381 v -2.99676 c 0,-7.9815 -6.9445,-12.61976 -12.7775,-8.53416 -2.0115,1.40894 -2.4335,1.40894 -4.445,0 -2.825,-1.97873 -5.73,-1.97873 -8.555,0 -2.0115,1.40894 -2.4335,1.40894 -4.445,0 -2.7521,-1.92764 -5.0805,-1.96848 -8.5956,-0.15078 -2.3358,1.2079 -2.9895,1.2079 -4.6414,0 -2.5062,-1.83251 -5.5565,-1.78345 -8.2932,0.1334 -1.9878,1.39231 -2.4384,1.3816 -4.7181,-0.11212 -3.2391,-2.12234 -8.8886,-1.17982 -11.0005,1.83523 -0.9775,1.3956 -1.5287,4.44609 -1.5287,8.46008 v 6.27749 h -23.3508 c -15.1763,0 -24.5407,-0.40827 -26.75,-1.16623 -7.0683,-2.42507 -13.6496,-9.48753 -19.3812,-20.79827 -2.3272,-4.59246 -2.4335,-5.26288 -1.0532,-6.64315 3.3233,-3.32326 1.3804,-6.39235 -4.0466,-6.39235 -2.3785,0 -2.4182,-0.14784 -2.4182,-9 v -9 h -5 -5 v -8 -8 h -6 -6 v -4.5 -4.500001 h 4.8 c 6.6471,0 9.1727,-2.88447 5.6286,-6.42857 -1.0752,-1.07516 -3.4438,-1.57143 -7.5,-1.57143 h -5.9286 V 66.909203 41.926043 l 5.1263,-2.59769 c 2.8195,-1.42873 6.207,-3.67841 7.5279,-4.99928 l 2.4016,-2.40159 17.0649,2.48243 c 9.3858,1.36534 17.9437,2.48244 19.0176,2.48244 1.0739,0 3.0572,-1.10455 4.4071,-2.45455 2.2687,-2.26868 2.4546,-3.18908 2.4546,-12.15498 0,-9.33429 -0.069,-9.63798 -1.8287,-8.04546 -3.0576,2.76703 -4.1713,2.00742 -4.1713,-2.84501 0,-3.3870104 -0.3812,-4.5000004 -1.5414,-4.5000004 -0.8477,0 -9.6816,1.14815 -19.6308,2.55145 -17.9027,2.5251204 -18.1112,2.5314904 -20.2086,0.6169704 -9.3121,-8.5003704 -31.2289,-8.5204104 -40.2593,-0.0368 l -2.1674,2.03617 -19.6085,-2.7700404 -19.6084,-2.77004 -2.7378,2.04109 c -2.6336,1.9634404 -2.7487,2.4316504 -3.0241,12.3062604 -0.3118,11.17998 0.7592,14.47942 5.0489,15.55326 1.2306,0.30804 10.2914,-0.57878 20.1352,-1.97071 l 17.8977,-2.53078 2.2328,2.4092 c 1.228,1.32506 4.5365,3.57661 7.3522,5.00343 l 5.1195,2.59423 v 24.98316 24.983146 h -5.9286 c -4.0563,0 -6.4248,0.49627 -7.5,1.57143 -3.5441,3.5441 -1.0186,6.42857 5.6286,6.42857 h 4.8 v 4.500001 4.5 h -6 -6 v 8 8 h -5 -5 v 9 9 h -3.4648 c -4.6443,0 -6.4923,3.04287 -3.6029,5.93228 1.9708,1.97082 1.9653,2.00372 -1.4951,8.92062 -4.0681,8.1317 -14.3113,19.62964 -22.3465,25.08383 -3.0749,2.08721 -9.8215,5.91914 -14.9925,8.51539 -16.6247,8.34689 -29.7391,18.05034 -41.5582,30.74916 -16.6958,17.9385 -29.4161,42.72897 -33.634,65.54872 l -1.34,7.25 h -8.083006 c -4.9534,0 -8.5476,0.46461 -9.283,1.2 -1.6549,1.65487 -1.6549,23.94513 0,25.6 0.7142,0.71416 4.1556,1.2 8.5,1.2 h 7.300002 v 8 8 h -2.833302 c -1.5584,0 -3.0867,0.25332 -3.3963,0.56293 -0.3096,0.30961 0.9654,4.3531 2.8333,8.98553 1.868,4.63243 3.396302,8.65411 3.396302,8.93707 0,0.28296 -1.323402,0.51447 -2.941002,0.51447 -1.6175,0 -3.15,0.33817 -3.4054,0.75148 -0.2555,0.41332 1.068,4.55019 2.941,9.19305 1.873,4.64286 3.405402,8.57969 3.405402,8.74852 0,0.16882 -1.350002,0.30695 -3.000002,0.30695 -3.805,0 -3.7929,0.84655 0.1565,10.93605 l 3.156406,8.06395 29.5936,-0.004 29.5935,-0.004 3.3266,-8.46799 c 1.8296,-4.6574 3.0405,-8.93077 2.6909,-9.49639 -0.3495,-0.56484 -1.7643,-1.02762 -3.1439,-1.02762 -2.8652,0 -2.8074,-0.47374 1.2469,-10.21987 3.1643,-7.60636 3.0813,-8.78013 -0.6205,-8.78013 -1.65,0 -3,-0.38811 -3,-0.86246 0,-0.47436 1.35,-4.13625 3,-8.13754 3.7704,-9.14327 3.7704,-10 0,-10 h -3 v -8 -8 h 7.4648 c 9.2997,0 9.5352,-0.34582 9.5352,-14 0,-13.38683 -0.3738,-14 -8.5352,-14 -3.5556,0 -6.4648,-0.26075 -6.4648,-0.57944 0,-0.3187 1.1873,-3.5812 2.6384,-7.25 9.4306,-23.84264 26.8005,-30.56127 64.963,-25.1275 10.403,1.48124 20.9107,2.27918 30.3986,2.30844 16.6855,0.0515 20.1766,-0.70767 44.5515,-9.68762 20.6367,-7.60275 42.1472,-11.66388 61.7799,-11.66388 h 7.4102 l 0.677,6.87059 c 0.5282,5.36043 1.1901,7.3526 3.0113,9.06353 2.5827,2.42632 7.0279,2.96162 10.2544,1.23485 1.6261,-0.87029 2.7854,-0.78137 5.1423,0.39441 2.7011,1.34751 3.4423,1.35111 6.5993,0.032 3.08,-1.28692 3.9208,-1.29692 6.2767,-0.0747 2.6672,1.38378 6.6736,1.08296 8.9126,-0.66921 0.6634,-0.51909 2.22,-0.29957 3.8417,0.54179 2.5925,1.34499 6.5203,0.97491 9.5543,-0.90023 0.592,-0.36588 1.7185,-0.13233 2.5033,0.519 0.7848,0.65133 3.0727,1.23089 5.0842,1.2879 5.2946,0.15011 8.4013,-3.69957 8.4013,-10.41048 v -4.99903 l 4.75,0.30479 4.75,0.30479 0.5391,5.36999 c 0.6464,6.4395 3.2713,9.14671 8.8217,9.09821 6,-0.0524 9.1392,-3.79727 9.1392,-10.90246 v -4.06574 h 51.68543 c 8.13173,-0.35355 13.37523,2.60766 12.31457,14.27492 v 496.47058 l -5.19116,0.4988 c -8.36286,0.80356 -11.95819,6.6986 -8.34583,13.6842 1.7505,3.3851 3.28788,4.0715 9.11878,4.0715 h 4.41821 v 8 8 h 36.45794 36.45793 z"
     id="path903" /><path
     id="path1712"
     style="fill:#ffffff;fill-opacity:1;filter:url(#filter1680)"
     d="m 109.67188,383.31055 c -0.52864,-0.0479 -0.70354,0.5948 -0.76407,1.00733 -0.0879,0.80828 -0.0195,1.73027 0.53269,2.37094 0.32628,0.37802 0.91547,0.16261 1.1388,-0.21974 0.55887,-0.8615 0.25272,-2.03015 -0.36333,-2.77681 -0.14877,-0.16329 -0.32161,-0.33096 -0.54409,-0.38172 z" /><path
     id="path1710"
     style="fill:#ffffff;fill-opacity:1;filter:url(#filter1680)"
     d="m 109.25586,364.19141 c -0.48285,0.1892 -0.34245,0.83963 -0.39439,1.25802 -0.059,0.55937 -0.27556,1.27211 -0.88655,1.43432 -0.67925,-0.0258 -1.0416,0.69613 -1.09029,1.28119 -0.1136,0.60771 0.27973,1.20321 0.84124,1.42239 0.90713,0.39092 1.93091,0.33236 2.89221,0.24532 0.49358,-0.0254 1.05224,-0.34918 0.97462,-0.91691 -0.0735,-0.91349 -0.4211,-1.78131 -0.75077,-2.62812 -0.33253,-0.726 -0.66808,-1.51415 -1.31816,-2.01371 -0.0802,-0.0493 -0.17115,-0.0891 -0.26791,-0.0825 z" /><path
     id="path1708"
     style="fill:#ffffff;fill-opacity:1;filter:url(#filter1680)"
     d="m 110.37305,334.89258 c -0.58237,-0.0427 -0.96897,0.48756 -1.09993,0.99292 -0.36582,1.31919 -0.3442,2.70515 -0.38959,4.06253 -0.0405,2.09752 0.0634,4.21104 -0.2576,6.29169 -0.12079,0.57479 -0.24348,1.29751 -0.83099,1.58067 -0.42099,0.13057 -0.98566,0.004 -1.27237,0.432 -0.30697,0.49893 -0.0853,1.16945 0.2679,1.58497 0.83296,0.87599 2.11989,1.13608 3.28619,1.04316 0.5307,-2e-5 1.13068,-0.19699 1.3425,-0.73173 0.3879,-0.9448 0.35816,-1.99268 0.41631,-2.99545 0.0531,-2.53629 0.0575,-5.07444 -0.004,-7.61063 -0.0612,-1.25077 -0.0629,-2.52987 -0.42502,-3.73937 -0.13784,-0.46935 -0.48763,-0.94665 -1.03364,-0.91076 z" /><path
     style="fill:#ffffff;fill-opacity:1;filter:url(#filter2206)"
     d="m 354.29492,186.92969 c -1.78008,-0.008 -3.77178,-0.003 -5.99804,0.01 -10.1326,0.0578 -18.42383,0.47383 -18.42383,0.92578 0,0.45194 2.84953,1.31736 6.33203,1.92383 7.9566,1.38558 30.32957,1.46013 31.16797,0.10352 1.4112,-2.28334 -0.61757,-2.90993 -13.07813,-2.96289 z"
     id="path1706" /><path
     id="path1704"
     style="fill:#ffffff;fill-opacity:1;filter:url(#filter2038)"
     d="m 451.87305,193.85156 c 0,2.01367 0,4.02735 0,6.04102 21.66667,0.3444 43.33333,0.6888 65,1.0332 20.6053,1.66531 41.72953,10.1203 54.50639,26.97408 8.30521,10.88415 13.50949,24.08629 15.51272,37.58657 2.15121,24.61024 1.29573,49.34254 1.51462,74.01655 0.15542,148.12986 0.31085,296.25973 0.46627,444.3896 2,0 4,0 6,0 -0.52995,-175.59505 -1.0599,-351.19011 -1.58985,-526.78516 -4.56035,-23.45388 -20.72565,-44.00199 -42.07498,-54.56379 -7.01112,-3.61753 -14.58871,-6.06799 -22.15977,-8.13387 -25.72514,-0.18607 -51.45027,-0.37213 -77.1754,-0.5582 z" /><path
     style="fill:#ffffff;fill-opacity:1;filter:url(#filter1680)"
     d="m 430.68945,166.28906 c -0.44241,-0.0677 -0.9499,0.30949 -1.55468,0.91406 -0.9865,0.98608 -0.72873,9.89624 1.26757,43.5918 1.3801,23.29319 2.75203,42.74436 3.04883,43.22461 0.7077,1.14516 3.15069,1.12015 3.86719,-0.0391 0.3098,-0.50129 -0.57043,-20.16672 -1.95703,-43.70117 -2.06318,-35.01968 -2.75476,-43.69668 -4.67188,-43.99024 z"
     id="path1702" /><path
     style="fill:#ffffff;fill-opacity:1;filter:url(#filter1680)"
     d="m 416.85938,166.21484 c -0.4558,0.0188 -0.88088,0.1719 -1.20313,0.49414 -0.9055,0.90545 3.72193,85.5745 4.76953,87.26954 0.7231,1.17003 3.16316,1.18478 3.88086,0.0234 0.303,-0.49014 -0.56825,-19.50264 -1.93555,-42.25 -1.3672,-22.74736 -2.49218,-42.0983 -2.49218,-43.00195 -0.005,-1.43617 -1.65214,-2.59154 -3.01953,-2.53516 z"
     id="path1700" /><path
     style="fill:#ffffff;fill-opacity:1;filter:url(#filter1680)"
     d="m 403.68164,165.83008 c -1.87569,-0.0206 -1.64409,7.86467 0.10156,37.70703 1.1536,19.72084 2.36697,39.34297 2.69727,43.60547 0.5142,6.63601 0.8646,7.75 2.4375,7.75 1.0103,0 2.06866,-0.37419 2.35156,-0.83203 0.283,-0.45784 -0.61479,-19.92034 -1.99609,-43.25 -1.9509,-32.9491 -2.83322,-42.74312 -3.94922,-43.875 -0.6645,-0.67392 -1.20973,-1.10071 -1.64258,-1.10547 z"
     id="path1698" /><path
     style="fill:#ffffff;fill-opacity:1;filter:url(#filter1680)"
     d="m 390.66992,165.82227 c -1.87629,-0.0162 -1.64531,7.96335 0.0996,38.2207 1.1529,19.99245 2.37695,39.61211 2.71875,43.59961 0.5246,6.12226 0.90346,7.25 2.44336,7.25 1.0029,0 2.03838,-0.3469 2.30078,-0.77149 0.2624,-0.42458 -0.64041,-19.88708 -2.00781,-43.25 -1.9211,-32.82694 -2.81091,-42.80947 -3.91211,-43.93554 -0.66476,-0.67981 -1.20959,-1.10954 -1.64258,-1.11328 z"
     id="path1696" /><path
     style="fill:#ffffff;fill-opacity:1;filter:url(#filter1680)"
     d="m 377.64062,165.80273 c -1.86871,-0.004 -1.6299,8.19369 0.13672,39.25 1.1683,20.53677 2.39497,40.15235 2.72657,43.58985 0.4979,5.16264 0.92063,6.25 2.42773,6.25 1.0034,0 2.03642,-0.3434 2.29492,-0.76172 0.2586,-0.41833 -0.66262,-19.88083 -2.04492,-43.25 -1.9045,-32.19937 -2.84844,-42.84106 -3.90234,-43.94531 -0.66268,-0.69434 -1.20743,-1.13193 -1.63868,-1.13282 z"
     id="path1694" /><path
     id="path1692"
     style="fill:#ffffff;fill-opacity:1;filter:url(#filter2034)"
     d="m 264.87305,120.89258 c -3.37006,-9.4e-4 -0.71402,5.87442 -4.90051,5.00602 -2.8621,0.23046 -5.73302,0.32953 -8.59949,0.49398 -0.19365,5.1667 -0.38831,10.33337 -0.58399,15.5 -3.30534,0 -6.61067,0 -9.91601,0 -0.0772,5.43353 0.19446,10.88463 -0.223,16.30329 -0.35038,2.94181 -4.63914,1.0599 -5.54832,3.80149 -1.67938,4.03259 -3.38388,8.09356 -5.79765,11.76523 -8.3604,13.03875 -20.25131,23.74368 -33.8358,31.12775 -5.09009,2.57137 -10.38305,4.76742 -15.18362,7.88413 -11.35092,7.00425 -21.62837,15.66656 -30.72466,25.40698 -11.74971,12.11167 -22.74263,25.60415 -28.43309,41.71017 -3.11998,8.20275 -4.32637,16.91261 -5.86519,25.50096 -5.79623,0.19267 -11.59245,0.38538 -17.388673,0.57812 0.08278,2.94743 -0.229746,5.93556 0.325576,8.8451 1.174528,2.68313 3.319937,-0.43553 2.804497,-2.17325 0.76725,-3.20624 4.63312,-3.43137 7.31173,-3.65459 3.74558,-0.1734 7.49724,-0.0649 11.2457,-0.0954 1.64087,-8.4731 3.18503,-17.019 6.38652,-25.07653 8.53279,-22.67238 25.0896,-41.59296 44.53855,-55.68483 9.2766,-6.83387 19.38223,-12.42669 29.6865,-17.53839 6.51882,-3.39194 12.98359,-7.06165 18.36696,-12.13038 7.16264,-6.60258 13.80829,-14.02021 18.29465,-22.7301 1.69789,-2.53431 2.13359,-5.79564 -0.67811,-7.68095 -2.36404,-2.89097 1.45824,-5.6026 4.25258,-5.15882 1.15495,0 2.3099,0 3.46485,0 0,-5.9655 0,-11.93099 0,-17.89649 3.42129,-0.2001 6.84251,-0.40126 10.26367,-0.60351 0.0798,-4.99998 0.15857,-9.99998 0.23633,-15 4.16662,-0.19959 8.33328,-0.39815 12.5,-0.5957 -0.10779,-2.38329 0.28895,-4.84683 -0.37652,-7.16082 -0.27119,-0.6274 -1.01842,-0.76343 -1.62348,-0.74348 z" /><path
     style="fill:#ffffff;fill-opacity:1;filter:url(#filter1680)"
     d="M 258.41211,52.392578 258.125,76.363281 c -0.2391,19.923336 -0.53833,24.109779 -1.76953,24.798829 -0.8148,0.45596 -1.48242,1.25663 -1.48242,1.7793 0,0.52267 1.35,0.95117 3,0.95117 2.9457,0 3.9711,-1.28176 2,-2.5 -0.6114,-0.3779 -1.08927,-10.017036 -1.23047,-24.808596 z"
     id="path1690" /><path
     style="fill:#ffffff;fill-opacity:1;filter:url(#filter1680)"
     d="m 315.76367,16.195312 c -0.29847,-0.0079 -0.67375,0.04684 -1.14062,0.148438 -2.8457,0.61929 -23.42935,3.548828 -24.93555,3.548828 -0.6186,0 -0.30995,0.9 0.68555,2 2.0738,2.29158 4.3495,2.355948 16,0.455078 4.4,-0.71789 8.5625,-1.339559 9.25,-1.380859 0.6875,-0.04132 1.25,-1.20827 1.25,-2.59375 0,-1.568093 -0.21395,-2.154149 -1.10938,-2.177735 z"
     id="path1688" /><path
     style="fill:#ffffff;fill-opacity:1;filter:url(#filter1680)"
     d="m 201.11328,16.144531 c -1.05943,-0.0886 -1.24023,0.951176 -1.24023,5.121094 0,6.62014 1.41006,7.973987 3.38476,3.248047 2.3533,-5.63227 4.11651,-6.037623 17.97071,-4.132813 6.6803,0.91847 12.93203,1.889643 13.89453,2.158203 0.9625,0.26856 1.75,0.06883 1.75,-0.443359 0,-0.51218 -7.5375,-1.928384 -16.75,-3.146484 -9.2125,-1.2181 -17.5375,-2.434285 -18.5,-2.703125 -0.18925,-0.05286 -0.35842,-0.08891 -0.50977,-0.101563 z"
     id="path1686" /><path
     style="fill:#ffffff;fill-opacity:1;filter:url(#filter1680)"
     d="m 257.49805,12.908203 c -3.31738,0.04542 -6.52103,0.375214 -8.27735,1.042969 -1.5307,0.58195 -4.8081,2.715961 -7.2832,4.74414 l -4.5,3.6875 2.96875,0.636719 c 5.5097,1.18059 7.95318,0.721245 12.02148,-2.259765 2.5502,-1.86863 6.3511,-3.405535 10.25,-4.146485 3.4082,-0.6477 6.19532,-1.473964 6.19532,-1.833984 0,-1.236506 -5.84603,-1.94679 -11.375,-1.871094 z"
     id="path1461" /></g></svg>
